<svg width="23" height="23" viewBox="0 0 23 23" fill="none" xmlns="http://www.w3.org/2000/svg">
<path d="M22.6433 9.28774H17.8689H11.6724V13.8061H17.7797C17.23 15.2733 16.1864 16.4989 14.851 17.2821C13.8451 17.8726 12.6728 18.2109 11.4214 18.2109C8.51023 18.2109 6.02697 16.3784 5.06243 13.8042C4.7838 13.063 4.63196 12.2598 4.63196 11.4214C4.63196 10.6488 4.7612 9.90646 4.99845 9.21492C5.91464 6.54844 8.44436 4.63191 11.4214 4.63191C12.7399 4.63191 13.9705 5.00779 15.0117 5.65861L18.7117 2.6294C16.7336 0.987137 14.1927 0 11.4214 0C7.00725 0 3.17794 2.50392 1.27705 6.16886C0.460586 7.74145 0 9.52743 0 11.4214C0 13.38 0.492629 15.2231 1.36119 16.834C3.29027 20.4117 7.0719 22.8428 11.4214 22.8428C14.128 22.8428 16.6144 21.9015 18.5717 20.3282C20.5843 18.7104 22.037 16.4243 22.5931 13.8061C22.7569 13.0367 22.8428 12.2391 22.8428 11.4214C22.8428 10.6922 22.7744 9.97867 22.6433 9.28774V9.28774Z" fill="#FBBB00"/>
<path d="M18.5712 20.3277L18.5719 20.3283C16.6145 21.9016 14.1282 22.8429 11.4216 22.8429C7.07204 22.8429 3.29041 20.4118 1.36133 16.8341L5.06262 13.8043C6.02716 16.3785 8.51036 18.211 11.4216 18.211C12.673 18.211 13.8452 17.8727 14.8512 17.2822L18.5712 20.3277Z" fill="#28B446"/>
<path d="M22.6428 9.28772C22.7739 9.97865 22.8423 10.6922 22.8423 11.4214C22.8423 12.2391 22.7564 13.0367 22.5926 13.8061C22.0366 16.4242 20.5838 18.7104 18.5712 20.3282L18.5706 20.3276L14.8504 17.2821C16.1859 16.4989 17.2295 15.2733 17.7792 13.8061H11.6719V9.28772H17.8684H22.6428Z" fill="#518EF8"/>
<path d="M18.71 2.62945L15.01 5.65866C13.9689 5.00784 12.7383 4.63196 11.4198 4.63196C8.44266 4.63196 5.91299 6.5485 4.99679 9.21497L1.27605 6.16886H1.27539C3.17629 2.50392 7.00555 0 11.4198 0C14.191 0 16.732 0.987137 18.71 2.62945V2.62945Z" fill="#FC3F1D"/>
</svg>
