<svg width="622" height="550" viewBox="0 0 622 550" fill="none" xmlns="http://www.w3.org/2000/svg">
<path d="M259.504 1H59.1036V100.097H259.504V1Z" fill="white" stroke="#495057" stroke-width="0.6158" stroke-miterlimit="10" stroke-linecap="round" stroke-linejoin="round"/>
<path d="M4.36673 271.805C20.2575 269.598 39.0174 258.563 52.039 277.323C61.0879 290.344 58.6602 308.221 78.7443 309.104C86.6897 309.546 93.7522 306.897 101.036 311.532C107.215 315.505 110.526 323.009 113.174 329.63C115.602 335.368 116.706 343.313 120.237 348.169C126.196 356.335 134.362 353.907 143.19 354.79C151.577 355.673 160.184 358.763 165.481 365.825C172.544 375.316 169.013 386.351 172.985 396.283C172.985 396.283 180.931 437.996 135.686 435.127C125.092 434.465 114.499 435.568 104.787 428.947C97.5042 423.871 93.9729 415.484 92.8694 407.097C91.5452 398.269 93.7522 390.103 85.3655 384.585C80.2892 381.054 72.1232 380.392 66.3848 378.185C59.7637 375.757 52.039 372.888 47.8456 366.929C42.9901 359.866 45.1972 352.804 44.535 344.858C42.7694 324.995 25.113 327.864 11.65 319.477C-7.77205 307.339 2.60109 287.916 4.14602 272.026L4.36673 271.805Z" fill="#3DC19A"/>
<path d="M31.7353 298.289L173.207 434.023" stroke="white" stroke-width="0.6158" stroke-miterlimit="10" stroke-linecap="round" stroke-linejoin="round"/>
<path d="M86.0273 323.891L90.4414 354.569" stroke="white" stroke-width="0.6158" stroke-miterlimit="10" stroke-linecap="round" stroke-linejoin="round"/>
<path d="M140.984 403.124L113.396 407.318" stroke="white" stroke-width="0.6158" stroke-miterlimit="10" stroke-linecap="round" stroke-linejoin="round"/>
<path d="M72.783 337.575L50.0504 336.03" stroke="white" stroke-width="0.6158" stroke-miterlimit="10" stroke-linecap="round" stroke-linejoin="round"/>
<path d="M172.322 364.722C172.322 364.722 188.434 228.547 61.0871 136.513C24.8914 275.557 152.238 388.778 152.238 388.778L172.322 364.722Z" fill="#3DC19A" stroke="#FF487E" stroke-width="0.6158" stroke-miterlimit="10" stroke-linecap="round" stroke-linejoin="round"/>
<path d="M117.807 190.806L109.862 254.811" stroke="#FF487E" stroke-width="0.6158" stroke-miterlimit="10" stroke-linecap="round" stroke-linejoin="round"/>
<path d="M123.104 286.592L65.4997 254.369" stroke="#FF487E" stroke-width="0.6158" stroke-miterlimit="10" stroke-linecap="round" stroke-linejoin="round"/>
<path d="M74.5487 278.426L133.036 310.649" stroke="#FF487E" stroke-width="0.6158" stroke-miterlimit="10" stroke-linecap="round" stroke-linejoin="round"/>
<path d="M61.0869 136.513L161.508 379.509" stroke="#FF487E" stroke-width="0.6158" stroke-miterlimit="10" stroke-linecap="round" stroke-linejoin="round"/>
<path d="M609.98 196.986L603.58 156.818L613.511 148.872L587.91 117.312L577.978 125.257L540.017 110.69L538.03 98.1102L497.862 104.511L499.848 117.091L468.067 142.693L456.149 138.058L441.582 176.019L453.5 180.654L459.901 220.822L449.969 228.768L475.571 260.328L485.502 252.383L523.464 266.95L525.45 279.53L565.618 273.129L563.632 260.549L595.193 234.947L607.111 239.582L621.677 201.621L609.98 196.986ZM562.308 200.297C555.907 217.07 536.927 225.457 520.153 219.057C503.38 212.656 494.993 193.675 501.393 176.902C507.794 160.128 526.774 151.742 543.548 158.142C560.321 164.763 568.708 183.523 562.308 200.297Z" fill="white" stroke="#ACB5BD" stroke-width="0.6158" stroke-miterlimit="10" stroke-linecap="round" stroke-linejoin="round"/>
<path d="M525.008 184.185H101.254C93.7501 184.185 87.7911 190.144 87.7911 197.648V446.162H538.471V197.869C538.471 190.365 532.512 184.185 525.008 184.185Z" fill="#FF487E" fill-opacity="0.2"/>
<path d="M517.727 202.945H108.319V427.843H517.727V202.945Z" fill="white"/>
<path d="M547.08 467.35H79.1853C72.1228 467.35 66.3844 461.611 66.3844 454.549V446.383H559.66V454.549C559.881 461.611 554.142 467.35 547.08 467.35Z" fill="white" stroke="#FF487E" stroke-width="0.6158" stroke-miterlimit="10" stroke-linecap="round" stroke-linejoin="round"/>
<path d="M340.501 456.093H285.767C281.573 456.093 278.042 452.562 278.042 448.369V446.603H348.226V448.369C348.226 452.562 344.695 456.093 340.501 456.093Z" fill="#495057"/>
<path d="M576.434 409.304H378.462C369.192 409.304 361.909 401.8 361.909 392.751V271.364C361.909 262.094 369.413 254.811 378.462 254.811H576.434C585.704 254.811 592.987 262.315 592.987 271.364V392.751C593.208 402.021 585.704 409.304 576.434 409.304Z" fill="white" stroke="#ACB5BD" stroke-width="0.6158" stroke-miterlimit="10" stroke-linecap="round" stroke-linejoin="round"/>
<path d="M33.4971 467.35H593.205" stroke="#FF487E" stroke-width="0.6158" stroke-miterlimit="10" stroke-linecap="round" stroke-linejoin="round"/>
<path d="M181.594 323.891H326.376V238.037L181.594 259.666V323.891Z" fill="#FF89AC"/>
<path d="M236.99 96.3444C236.99 96.3444 253.543 74.2739 259.723 72.0669C267.006 75.8189 279.365 87.9577 279.365 87.9577L273.186 94.5788L281.131 91.0475L289.518 99.655L261.047 127.243L236.99 96.3444Z" fill="#495057"/>
<path d="M383.977 179.771C383.977 179.771 383.094 162.115 391.039 156.376C394.791 153.728 409.799 147.769 409.799 147.769L412.889 153.507L402.737 158.804L424.366 159.687L435.622 149.534L439.815 152.845L426.573 173.371L409.799 179.55H383.977V179.771Z" fill="white" stroke="#FF487E" stroke-width="0.6158" stroke-miterlimit="10" stroke-linecap="round" stroke-linejoin="round"/>
<path d="M179.606 549.011L202.118 525.837H221.32V549.011H179.606Z" fill="#495057"/>
<path d="M303.863 549.011L289.075 525.837H270.095V549.011H303.863Z" fill="#495057"/>
<path d="M314.899 323.45V532.016H256.412V365.604H248.908L238.093 532.016H179.606L190.421 365.604L193.069 323.45H314.899Z" fill="white" stroke="#FF487E" stroke-width="0.6158" stroke-miterlimit="10" stroke-linecap="round" stroke-linejoin="round"/>
<path d="M342.929 220.601C342.929 172.488 306.072 150.858 257.958 149.755C257.075 149.755 255.972 149.755 254.868 149.755C182.477 149.755 159.524 202.503 156.213 211.552C148.488 231.857 127.08 295.2 196.381 324.553C217.128 333.381 232.135 311.973 243.171 306.235C262.593 296.303 269.655 293.655 269.655 293.655L342.929 220.601Z" fill="#FF89AC"/>
<path d="M329.574 306.16L249.046 225.633L145.422 329.257L225.95 409.784L329.574 306.16Z" fill="#1A0E11" fill-opacity="0.2"/>
<path d="M316.52 300.783L254.564 238.827L164.361 329.03L226.317 390.986L316.52 300.783Z" fill="white"/>
<path d="M310.706 279.309L299.891 290.124L265.241 255.473L276.055 244.659L287.973 256.577C291.063 254.37 295.477 254.59 298.126 257.46C300.995 260.329 301.216 264.522 299.009 267.612L310.706 279.309Z" fill="white" stroke="#FF487E" stroke-width="0.6158" stroke-miterlimit="10" stroke-linecap="round" stroke-linejoin="round"/>
<path d="M237.872 267.391L236.989 272.246L246.038 269.377" stroke="#FF487E" stroke-width="0.6158" stroke-miterlimit="10" stroke-linecap="round" stroke-linejoin="round"/>
<path d="M246.481 275.778L285.104 314.401" stroke="#FF487E" stroke-width="0.6158" stroke-miterlimit="10" stroke-linecap="round" stroke-linejoin="round"/>
<path d="M227.276 277.764L226.394 282.62L235.443 279.971" stroke="#FF487E" stroke-width="0.6158" stroke-miterlimit="10" stroke-linecap="round" stroke-linejoin="round"/>
<path d="M235.885 286.151L274.729 324.995" stroke="#FF487E" stroke-width="0.6158" stroke-miterlimit="10" stroke-linecap="round" stroke-linejoin="round"/>
<path d="M216.685 288.358L216.023 293.213L224.851 290.344" stroke="#FF487E" stroke-width="0.6158" stroke-miterlimit="10" stroke-linecap="round" stroke-linejoin="round"/>
<path d="M225.289 296.745L264.133 335.589" stroke="#FF487E" stroke-width="0.6158" stroke-miterlimit="10" stroke-linecap="round" stroke-linejoin="round"/>
<path d="M251.335 162.777C258.618 162.777 264.577 156.818 264.577 149.535V106.497H238.092V149.535C238.092 156.818 244.051 162.777 251.335 162.777Z" fill="white" stroke="#FF487E" stroke-width="0.6158" stroke-miterlimit="10" stroke-linecap="round" stroke-linejoin="round"/>
<path d="M276.055 119.96C274.511 123.712 270.096 125.478 266.344 123.933C265.682 123.712 265.241 123.271 264.799 123.05C263.255 125.257 261.268 127.243 259.282 128.567C253.985 131.878 247.143 132.761 240.963 130.112C231.032 125.919 226.397 114.442 230.59 104.511C234.784 94.5789 246.26 89.9441 256.192 94.1375C263.034 97.0067 267.227 103.186 268.11 110.028C269.434 109.808 270.979 109.808 272.303 110.47C275.835 112.015 277.6 116.208 276.055 119.96Z" fill="white" stroke="#FF487E" stroke-width="0.6158" stroke-miterlimit="10" stroke-linecap="round" stroke-linejoin="round"/>
<path d="M264.578 118.194C264.578 118.194 266.343 114.884 269.433 116.649" stroke="#FF487E" stroke-width="0.6158" stroke-miterlimit="10" stroke-linecap="round" stroke-linejoin="round"/>
<path d="M310.703 244.438C310.703 244.438 318.428 279.75 361.686 272.026C404.944 264.301 415.538 179.55 415.538 179.55H382.212L357.493 228.768C357.493 228.768 339.837 182.861 317.545 166.97C304.082 157.259 310.703 244.438 310.703 244.438Z" fill="#FF89AC"/>
<path d="M325.71 230.754V267.391" stroke="white" stroke-width="0.6158" stroke-miterlimit="10" stroke-linecap="round" stroke-linejoin="round"/>
<path d="M256.188 94.1371C264.575 98.3305 267.665 108.704 261.927 114.221C267.886 110.028 267.886 110.028 267.886 110.028L277.376 104.069C277.376 103.848 259.499 90.6059 256.188 94.1371Z" fill="#495057"/>
<path d="M225.735 316.608L237.873 328.968L247.584 340.444L243.391 344.638L247.143 349.272L226.838 365.163L200.353 333.382L225.735 316.608Z" fill="white" stroke="#FF487E" stroke-width="0.6158" stroke-miterlimit="10" stroke-linecap="round" stroke-linejoin="round"/>
<path d="M242.953 352.362L234.125 342.431" stroke="#FF487E" stroke-width="0.6158" stroke-miterlimit="10" stroke-linecap="round" stroke-linejoin="round"/>
<path d="M237.21 356.335L228.382 346.403" stroke="#FF487E" stroke-width="0.6158" stroke-miterlimit="10" stroke-linecap="round" stroke-linejoin="round"/>
<path d="M231.696 360.528L223.088 350.597" stroke="#FF487E" stroke-width="0.6158" stroke-miterlimit="10" stroke-linecap="round" stroke-linejoin="round"/>
<path d="M243.61 344.858L237.21 337.354" stroke="#FF487E" stroke-width="0.6158" stroke-miterlimit="10" stroke-linecap="round" stroke-linejoin="round"/>
<path d="M193.069 232.519C187.331 244.658 188.876 257.459 193.731 268.936C204.325 294.317 231.03 314.842 231.03 314.842L197.483 340.003C197.483 340.003 152.239 301.821 150.032 275.778" fill="#FF89AC"/>
<path d="M193.07 232.519C187.332 244.658 188.877 257.459 193.732 268.936" stroke="white" stroke-width="0.6158" stroke-miterlimit="10" stroke-linecap="round" stroke-linejoin="round"/>
<path d="M112.292 55.9555C112.292 57.2797 112.071 58.3832 111.629 59.4867C111.188 60.5903 110.526 61.2524 109.864 62.1352C108.981 62.7973 108.098 63.4594 106.995 63.6801C105.891 64.1216 104.788 64.3423 103.463 64.3423C100.594 64.3423 98.1665 63.4594 96.6215 61.9145C95.0766 60.3696 94.1938 58.1625 93.5317 55.2934L98.3872 53.9691C98.3872 54.6312 98.6079 55.2934 98.8286 56.1762C99.0493 56.8383 99.27 57.5004 99.7114 57.9418C100.153 58.3832 100.594 59.0453 101.256 59.266C101.918 59.7075 102.581 59.7075 103.463 59.7075C104.567 59.7075 105.45 59.4868 106.112 58.8246C106.774 58.1625 106.995 57.2797 106.995 56.1762C106.995 55.2934 106.774 54.1898 106.112 53.5277C105.45 52.6449 104.788 51.9828 103.905 51.1C103.022 50.4378 101.918 49.555 100.815 48.8929C99.7114 48.2308 98.8286 47.348 97.7251 46.4652C96.8422 45.5823 95.9594 44.4788 95.2973 43.3753C94.6352 42.2718 94.8559 40.2854 94.8559 38.9612C94.8559 37.8577 95.0766 36.7541 95.518 35.6506C95.9594 34.7678 96.6215 33.885 97.2837 33.2229C97.9458 32.5607 98.8286 31.8986 99.9321 31.6779C101.036 31.2365 102.139 31.0158 103.243 31.0158C104.567 31.0158 105.67 31.2365 106.553 31.6779C107.436 32.1193 108.319 32.5607 109.202 33.4436C109.864 34.1057 110.526 34.9885 110.967 36.092C111.409 36.9748 111.85 38.0784 112.071 39.4026L107.215 40.7268C106.995 40.2854 106.995 39.6233 106.774 39.1819C106.553 38.5198 106.333 38.0784 105.891 37.637C105.45 37.1955 105.229 36.7541 104.788 36.5334C104.346 36.3127 103.684 35.6506 103.243 35.6506C102.36 35.6506 101.477 35.8713 101.036 36.5334C100.374 37.1955 100.153 37.8577 100.153 38.9612C100.153 39.844 100.374 40.7268 101.036 41.6096C101.698 42.4925 102.36 43.1546 103.463 43.8167C104.346 44.4788 105.45 45.3616 106.553 46.0237C107.657 46.9066 108.54 47.5687 109.643 48.6722C110.526 49.555 111.409 50.6586 111.85 51.7621C112.071 53.0863 112.292 54.4105 112.292 55.9555Z" fill="#FF487E"/>
<path d="M115.824 63.6801V31.4571H130.39V36.0919H120.9V44.4787H127.963V49.1135H120.9V59.0452H130.39V63.6801H115.824Z" fill="#FF487E"/>
<path d="M150.694 57.5004C150.474 58.8247 150.032 59.9282 149.149 60.811C148.267 61.6938 147.604 62.5767 146.501 63.0181C145.397 63.4595 144.073 63.9009 142.308 63.9009C140.763 63.9009 139.438 63.6802 138.114 63.0181C136.79 62.5767 135.907 61.4731 135.024 60.3696C134.583 59.7075 134.362 59.0454 134.141 58.3833C133.921 57.7211 133.7 56.8383 133.7 56.1762C133.7 55.5141 133.479 54.6313 133.479 53.9692C133.479 53.307 133.479 52.4242 133.479 51.7621V42.7132C133.479 41.8304 133.479 41.1683 133.479 40.2854C133.479 39.6233 133.479 38.7405 133.7 38.0784C133.921 37.4163 133.921 36.5335 134.362 35.8713C134.583 35.2092 135.024 34.5471 135.466 33.885C136.349 32.7815 137.231 32.1194 138.556 31.678C139.88 31.2365 140.983 31.0158 142.308 31.0158C143.853 31.0158 145.177 31.2365 146.28 31.678C147.384 32.1194 148.267 32.7815 148.929 33.6643C149.591 34.5471 150.253 35.6506 150.474 36.7542C150.915 38.0784 150.915 39.1819 150.915 40.7269V41.6097H145.839C145.839 40.9476 145.839 40.2854 145.839 39.6233C145.839 38.9612 145.618 38.2991 145.397 37.8577C145.177 37.1956 144.735 36.7542 144.294 36.3128C143.853 35.8713 143.19 35.6506 142.308 35.6506C141.425 35.6506 140.763 35.8713 140.101 36.3128C139.659 36.7542 139.218 37.1956 138.997 37.8577C138.776 38.5198 138.556 39.1819 138.556 39.844C138.556 40.5062 138.556 41.1683 138.556 42.0511V52.8656C138.556 53.5277 138.556 54.1899 138.556 55.0727C138.556 55.9555 138.776 56.6176 138.997 57.2797C139.218 57.9418 139.659 58.604 140.101 59.0454C140.542 59.4868 141.425 59.7075 142.308 59.7075C143.19 59.7075 144.073 59.4868 144.515 59.0454C144.956 58.604 145.397 57.9418 145.618 57.2797C145.839 56.6176 146.06 55.7348 146.06 55.0727C146.06 54.1899 146.06 53.5277 146.06 52.8656H150.915V53.307C150.915 54.852 150.915 56.1762 150.694 57.5004Z" fill="#FF487E"/>
<path d="M171.884 57.5003C171.663 58.8245 171.221 60.1488 170.339 61.2523C169.676 62.3558 168.573 63.0179 167.469 63.4593C166.366 63.9008 165.042 64.1215 163.717 64.1215C162.393 64.1215 161.069 63.9008 159.965 63.4593C158.862 63.0179 157.758 62.3558 157.096 61.2523C156.213 60.1488 155.772 58.8245 155.551 57.5003C155.331 56.1761 155.331 54.6311 155.331 53.3069V31.4571H160.407V53.969C160.407 54.6311 160.407 55.2933 160.407 55.9554C160.407 56.6175 160.628 57.2796 160.848 57.721C161.069 58.1624 161.51 58.6038 161.952 59.0452C162.393 59.4867 163.055 59.4867 163.938 59.4867C164.821 59.4867 165.483 59.266 165.924 59.0452C166.366 58.8245 166.807 58.3831 167.028 57.721C167.249 57.2796 167.469 56.6175 167.469 55.9554C167.469 55.2933 167.469 54.6311 167.469 53.969V31.4571H172.104V53.3069C172.104 54.6311 172.104 55.9554 171.884 57.5003Z" fill="#FF487E"/>
<path d="M189.32 63.6801L185.127 50.4378H182.037V63.6801H176.961V31.4571H184.685C187.775 31.4571 189.982 32.3399 191.527 33.8849C193.072 35.4298 193.955 37.6369 193.955 40.7267C193.955 42.4924 193.734 44.0373 193.072 45.5822C192.41 47.1272 191.306 48.2307 189.762 49.1135L194.396 63.6801H189.32ZM188.879 40.9474C188.879 40.2853 188.879 39.6232 188.658 38.9611C188.437 38.299 188.217 37.6369 187.775 37.1955C187.334 36.754 186.672 36.3126 186.01 36.3126C185.347 36.3126 184.685 36.0919 184.023 36.0919H182.258V45.8029H184.023C185.789 45.8029 187.113 45.3615 187.996 44.6994C188.658 44.0373 188.879 42.7131 188.879 40.9474Z" fill="#FF487E"/>
<path d="M198.148 63.6801V31.4571H212.715V36.0919H203.224V44.4787H210.287V49.1135H203.224V59.0452H212.715V63.6801H198.148Z" fill="#FF487E"/>
<path d="M564.516 279.088H390.38V305.794H564.516V279.088Z" fill="white" stroke="#ACB5BD" stroke-width="0.6158" stroke-miterlimit="10" stroke-linecap="round" stroke-linejoin="round"/>
<path d="M564.516 317.049H390.38V343.755H564.516V317.049Z" fill="white" stroke="#ACB5BD" stroke-width="0.6158" stroke-miterlimit="10" stroke-linecap="round" stroke-linejoin="round"/>
<path d="M529.864 363.397H425.029V390.103H529.864V363.397Z" fill="#FF487E"/>
<path d="M383.652 110.76C372.723 100.924 366.603 86.9343 366.603 72.5084V35.93H460.506V72.5084C460.506 87.1527 454.166 101.143 443.457 110.76L413.554 137.607L383.652 110.76Z" fill="#495057" stroke="#495057"/>
<path d="M376.093 72.5085V45.4203H451.016V72.2877C451.016 84.2867 445.999 95.625 437.061 103.473L437.061 103.473L437.057 103.477L413.553 124.586L390.053 103.698C390.053 103.698 390.053 103.697 390.052 103.697C381.108 95.6251 376.093 84.2835 376.093 72.5085Z" fill="white" stroke="#495057"/>
<path d="M434.461 68.5355C434.461 75.3291 428.954 80.8364 422.16 80.8364C415.366 80.8364 409.859 75.3291 409.859 68.5355C409.859 61.7419 415.366 56.2346 422.16 56.2346C428.954 56.2346 434.461 61.7419 434.461 68.5355Z" fill="#495057" stroke="#495057"/>
<path d="M422.158 68.5356L399.646 91.0476L406.709 97.8894" stroke="#495057" stroke-width="3" stroke-miterlimit="10"/>
<path d="M411.125 89.7231L406.048 84.6469" stroke="#495057" stroke-width="3" stroke-miterlimit="10"/>
<path d="M428.498 68.5354C428.498 72.0379 425.659 74.8773 422.156 74.8773C418.654 74.8773 415.814 72.0379 415.814 68.5354C415.814 65.0329 418.654 62.1936 422.156 62.1936C425.659 62.1936 428.498 65.0329 428.498 68.5354Z" fill="white" stroke="#495057"/>
<path d="M157.317 549.011H355.952" stroke="#FF487E" stroke-width="0.6158" stroke-miterlimit="10" stroke-linecap="round" stroke-linejoin="round"/>
</svg>
