<svg width="622" height="550" viewBox="0 0 622 550" fill="none" xmlns="http://www.w3.org/2000/svg">
<path d="M259.504 1H59.1035V100.097H259.504V1Z" fill="white" stroke="#495057" stroke-width="0.6158" stroke-miterlimit="10" stroke-linecap="round" stroke-linejoin="round"/>
<path d="M4.36673 271.805C20.2575 269.598 39.0174 258.563 52.039 277.323C61.0879 290.344 58.6602 308.221 78.7443 309.104C86.6897 309.546 93.7522 306.897 101.036 311.532C107.215 315.505 110.526 323.009 113.174 329.63C115.602 335.368 116.706 343.313 120.237 348.169C126.196 356.335 134.362 353.907 143.19 354.79C151.577 355.673 160.184 358.763 165.481 365.825C172.544 375.316 169.013 386.351 172.985 396.283C172.985 396.283 180.931 437.996 135.686 435.127C125.092 434.465 114.499 435.568 104.787 428.947C97.5042 423.871 93.9729 415.484 92.8694 407.097C91.5452 398.269 93.7522 390.103 85.3655 384.585C80.2892 381.054 72.1232 380.392 66.3848 378.185C59.7637 375.757 52.039 372.888 47.8456 366.929C42.9901 359.866 45.1972 352.804 44.535 344.858C42.7694 324.995 25.113 327.864 11.65 319.477C-7.77205 307.339 2.60109 287.916 4.14602 272.026L4.36673 271.805Z" fill="#3DC19A"/>
<path d="M31.7344 298.289L173.206 434.023" stroke="white" stroke-width="0.6158" stroke-miterlimit="10" stroke-linecap="round" stroke-linejoin="round"/>
<path d="M86.0273 323.891L90.4414 354.569" stroke="white" stroke-width="0.6158" stroke-miterlimit="10" stroke-linecap="round" stroke-linejoin="round"/>
<path d="M140.985 403.124L113.396 407.318" stroke="white" stroke-width="0.6158" stroke-miterlimit="10" stroke-linecap="round" stroke-linejoin="round"/>
<path d="M72.7834 337.575L50.0508 336.03" stroke="white" stroke-width="0.6158" stroke-miterlimit="10" stroke-linecap="round" stroke-linejoin="round"/>
<path d="M172.322 364.722C172.322 364.722 188.434 228.547 61.0869 136.513C24.8913 275.557 152.238 388.778 152.238 388.778L172.322 364.722Z" fill="#3DC19A" stroke="#FF487E" stroke-width="0.6158" stroke-miterlimit="10" stroke-linecap="round" stroke-linejoin="round"/>
<path d="M117.807 190.806L109.861 254.811" stroke="#FF487E" stroke-width="0.6158" stroke-miterlimit="10" stroke-linecap="round" stroke-linejoin="round"/>
<path d="M123.104 286.592L65.5 254.369" stroke="#FF487E" stroke-width="0.6158" stroke-miterlimit="10" stroke-linecap="round" stroke-linejoin="round"/>
<path d="M74.5488 278.426L133.036 310.649" stroke="#FF487E" stroke-width="0.6158" stroke-miterlimit="10" stroke-linecap="round" stroke-linejoin="round"/>
<path d="M61.0859 136.513L161.507 379.509" stroke="#FF487E" stroke-width="0.6158" stroke-miterlimit="10" stroke-linecap="round" stroke-linejoin="round"/>
<path d="M609.98 196.986L603.579 156.818L613.511 148.872L587.909 117.312L577.978 125.257L540.016 110.69L538.03 98.1102L497.862 104.511L499.848 117.091L468.067 142.693L456.149 138.058L441.582 176.019L453.5 180.654L459.901 220.822L449.969 228.768L475.571 260.328L485.502 252.383L523.464 266.95L525.45 279.53L565.618 273.129L563.632 260.549L595.193 234.947L607.111 239.582L621.677 201.621L609.98 196.986ZM562.308 200.297C555.907 217.07 536.927 225.457 520.153 219.057C503.379 212.656 494.993 193.675 501.393 176.902C507.794 160.128 526.774 151.742 543.548 158.142C560.321 164.763 568.708 183.523 562.308 200.297Z" fill="white" stroke="#ACB5BD" stroke-width="0.6158" stroke-miterlimit="10" stroke-linecap="round" stroke-linejoin="round"/>
<path d="M525.008 184.185H101.254C93.7501 184.185 87.791 190.144 87.791 197.648V446.162H538.471V197.869C538.471 190.365 532.512 184.185 525.008 184.185Z" fill="#FF487E" fill-opacity="0.2"/>
<path d="M517.726 202.945H108.318V427.843H517.726V202.945Z" fill="white"/>
<path d="M547.08 467.35H79.1857C72.1231 467.35 66.3848 461.611 66.3848 454.549V446.383H559.66V454.549C559.881 461.611 554.143 467.35 547.08 467.35Z" fill="white" stroke="#FF487E" stroke-width="0.6158" stroke-miterlimit="10" stroke-linecap="round" stroke-linejoin="round"/>
<path d="M340.502 456.093H285.768C281.574 456.093 278.043 452.562 278.043 448.369V446.603H348.227V448.369C348.227 452.562 344.696 456.093 340.502 456.093Z" fill="#495057"/>
<path d="M576.433 409.304H378.461C369.191 409.304 361.908 401.8 361.908 392.751V271.364C361.908 262.094 369.412 254.811 378.461 254.811H576.433C585.703 254.811 592.986 262.315 592.986 271.364V392.751C593.207 402.021 585.703 409.304 576.433 409.304Z" fill="white" stroke="#ACB5BD" stroke-width="0.6158" stroke-miterlimit="10" stroke-linecap="round" stroke-linejoin="round"/>
<path d="M33.4961 467.35H593.204" stroke="#FF487E" stroke-width="0.6158" stroke-miterlimit="10" stroke-linecap="round" stroke-linejoin="round"/>
<path d="M181.594 323.891H326.376V238.037L181.594 259.666V323.891Z" fill="#FF487E"/>
<path d="M236.99 96.3444C236.99 96.3444 253.543 74.2739 259.723 72.0669C267.006 75.8189 279.366 87.9577 279.366 87.9577L273.186 94.5788L281.131 91.0475L289.518 99.655L261.047 127.243L236.99 96.3444Z" fill="#495057"/>
<path d="M383.976 179.771C383.976 179.771 383.094 162.115 391.039 156.376C394.791 153.728 409.799 147.769 409.799 147.769L412.889 153.507L402.736 158.804L424.365 159.687L435.621 149.534L439.815 152.845L426.573 173.371L409.799 179.55H383.976V179.771Z" fill="white" stroke="#FF487E" stroke-width="0.6158" stroke-miterlimit="10" stroke-linecap="round" stroke-linejoin="round"/>
<path d="M179.605 549.011L202.117 525.837H221.319V549.011H179.605Z" fill="#495057"/>
<path d="M303.862 549.011L289.074 525.837H270.094V549.011H303.862Z" fill="#495057"/>
<path d="M314.898 323.45V532.016H256.411V365.604H248.907L238.092 532.016H179.605L190.42 365.604L193.068 323.45H314.898Z" fill="white" stroke="#FF487E" stroke-width="0.6158" stroke-miterlimit="10" stroke-linecap="round" stroke-linejoin="round"/>
<path d="M342.929 220.601C342.929 172.488 306.072 150.858 257.958 149.755C257.075 149.755 255.972 149.755 254.868 149.755C182.477 149.755 159.524 202.503 156.213 211.552C148.488 231.857 127.08 295.2 196.381 324.553C217.128 333.381 232.136 311.973 243.171 306.235C262.593 296.303 269.655 293.655 269.655 293.655L342.929 220.601Z" fill="#FF487E"/>
<path d="M329.574 306.16L249.047 225.633L145.423 329.257L225.95 409.784L329.574 306.16Z" fill="#FF487E" fill-opacity="0.2"/>
<path d="M316.519 300.783L254.562 238.827L164.36 329.03L226.316 390.986L316.519 300.783Z" fill="white"/>
<path d="M310.705 279.309L299.891 290.124L265.24 255.473L276.055 244.659L287.973 256.577C291.063 254.37 295.477 254.59 298.125 257.459C300.994 260.329 301.215 264.522 299.008 267.612L310.705 279.309Z" fill="white" stroke="#FF487E" stroke-width="0.6158" stroke-miterlimit="10" stroke-linecap="round" stroke-linejoin="round"/>
<path d="M237.871 267.391L236.988 272.246L246.037 269.377" stroke="#FF487E" stroke-width="0.6158" stroke-miterlimit="10" stroke-linecap="round" stroke-linejoin="round"/>
<path d="M246.48 275.778L285.104 314.401" stroke="#FF487E" stroke-width="0.6158" stroke-miterlimit="10" stroke-linecap="round" stroke-linejoin="round"/>
<path d="M227.275 277.764L226.393 282.62L235.441 279.971" stroke="#FF487E" stroke-width="0.6158" stroke-miterlimit="10" stroke-linecap="round" stroke-linejoin="round"/>
<path d="M235.885 286.151L274.729 324.995" stroke="#FF487E" stroke-width="0.6158" stroke-miterlimit="10" stroke-linecap="round" stroke-linejoin="round"/>
<path d="M216.686 288.358L216.023 293.213L224.852 290.344" stroke="#FF487E" stroke-width="0.6158" stroke-miterlimit="10" stroke-linecap="round" stroke-linejoin="round"/>
<path d="M225.289 296.745L264.133 335.589" stroke="#FF487E" stroke-width="0.6158" stroke-miterlimit="10" stroke-linecap="round" stroke-linejoin="round"/>
<path d="M251.334 162.777C258.617 162.777 264.576 156.818 264.576 149.535V106.497H238.092V149.535C238.092 156.818 244.051 162.777 251.334 162.777Z" fill="white" stroke="#FF487E" stroke-width="0.6158" stroke-miterlimit="10" stroke-linecap="round" stroke-linejoin="round"/>
<path d="M276.055 119.96C274.51 123.712 270.096 125.478 266.344 123.933C265.682 123.712 265.241 123.271 264.799 123.05C263.254 125.257 261.268 127.243 259.282 128.568C253.985 131.878 247.143 132.761 240.963 130.112C231.031 125.919 226.396 114.442 230.59 104.511C234.783 94.5789 246.26 89.9441 256.192 94.1375C263.033 97.0067 267.227 103.186 268.11 110.028C269.434 109.808 270.979 109.808 272.303 110.47C275.834 112.015 277.6 116.208 276.055 119.96Z" fill="white" stroke="#FF487E" stroke-width="0.6158" stroke-miterlimit="10" stroke-linecap="round" stroke-linejoin="round"/>
<path d="M264.578 118.194C264.578 118.194 266.344 114.884 269.434 116.649" stroke="#FF487E" stroke-width="0.6158" stroke-miterlimit="10" stroke-linecap="round" stroke-linejoin="round"/>
<path d="M310.702 244.438C310.702 244.438 318.427 279.75 361.685 272.026C404.943 264.301 415.537 179.55 415.537 179.55H382.211L357.492 228.768C357.492 228.768 339.835 182.861 317.544 166.97C304.081 157.259 310.702 244.438 310.702 244.438Z" fill="#FF487E"/>
<path d="M325.709 230.754V267.391" stroke="white" stroke-width="0.6158" stroke-miterlimit="10" stroke-linecap="round" stroke-linejoin="round"/>
<path d="M256.188 94.1371C264.574 98.3305 267.664 108.704 261.926 114.221C267.885 110.028 267.885 110.028 267.885 110.028L277.375 104.069C277.375 103.848 259.498 90.6058 256.188 94.1371Z" fill="#495057"/>
<path d="M225.735 316.608L237.873 328.968L247.584 340.444L243.391 344.638L247.143 349.272L226.838 365.163L200.354 333.382L225.735 316.608Z" fill="white" stroke="#FF487E" stroke-width="0.6158" stroke-miterlimit="10" stroke-linecap="round" stroke-linejoin="round"/>
<path d="M242.953 352.362L234.125 342.431" stroke="#FF487E" stroke-width="0.6158" stroke-miterlimit="10" stroke-linecap="round" stroke-linejoin="round"/>
<path d="M237.211 356.335L228.383 346.403" stroke="#FF487E" stroke-width="0.6158" stroke-miterlimit="10" stroke-linecap="round" stroke-linejoin="round"/>
<path d="M231.695 360.528L223.088 350.597" stroke="#FF487E" stroke-width="0.6158" stroke-miterlimit="10" stroke-linecap="round" stroke-linejoin="round"/>
<path d="M243.609 344.858L237.209 337.354" stroke="#FF487E" stroke-width="0.6158" stroke-miterlimit="10" stroke-linecap="round" stroke-linejoin="round"/>
<path d="M193.069 232.519C187.33 244.658 188.875 257.459 193.731 268.936C204.325 294.317 231.03 314.842 231.03 314.842L197.483 340.003C197.483 340.003 152.238 301.821 150.031 275.777" fill="#FF487E"/>
<path d="M193.069 232.519C187.331 244.658 188.876 257.459 193.731 268.936" stroke="white" stroke-width="0.6158" stroke-miterlimit="10" stroke-linecap="round" stroke-linejoin="round"/>
<path d="M112.291 55.9555C112.291 57.2797 112.07 58.3832 111.629 59.4867C111.188 60.5903 110.526 61.2524 109.863 62.1352C108.981 62.7973 108.098 63.4594 106.994 63.6801C105.891 64.1216 104.787 64.3423 103.463 64.3423C100.594 64.3423 98.166 63.4594 96.6211 61.9145C95.0762 60.3696 94.1934 58.1625 93.5312 55.2934L98.3868 53.9691C98.3868 54.6312 98.6075 55.2934 98.8282 56.1762C99.0489 56.8383 99.2696 57.5004 99.711 57.9418C100.152 58.3832 100.594 59.0453 101.256 59.266C101.918 59.7075 102.58 59.7075 103.463 59.7075C104.566 59.7075 105.449 59.4868 106.111 58.8246C106.774 58.1625 106.994 57.2797 106.994 56.1762C106.994 55.2934 106.774 54.1898 106.111 53.5277C105.449 52.6449 104.787 51.9828 103.904 51.1C103.022 50.4378 101.918 49.555 100.815 48.8929C99.711 48.2308 98.8282 47.348 97.7246 46.4652C96.8418 45.5823 95.959 44.4788 95.2969 43.3753C94.6348 42.2718 94.8555 40.2854 94.8555 38.9612C94.8555 37.8577 95.0762 36.7541 95.5176 35.6506C95.959 34.7678 96.6211 33.885 97.2832 33.2229C97.9453 32.5607 98.8282 31.8986 99.9317 31.6779C101.035 31.2365 102.139 31.0158 103.242 31.0158C104.566 31.0158 105.67 31.2365 106.553 31.6779C107.436 32.1193 108.318 32.5607 109.201 33.4436C109.863 34.1057 110.526 34.9885 110.967 36.092C111.408 36.9748 111.85 38.0784 112.07 39.4026L107.215 40.7268C106.994 40.2854 106.994 39.6233 106.774 39.1819C106.553 38.5198 106.332 38.0784 105.891 37.637C105.449 37.1955 105.229 36.7541 104.787 36.5334C104.346 36.3127 103.684 35.6506 103.242 35.6506C102.359 35.6506 101.477 35.8713 101.035 36.5334C100.373 37.1955 100.152 37.8577 100.152 38.9612C100.152 39.844 100.373 40.7268 101.035 41.6096C101.697 42.4925 102.359 43.1546 103.463 43.8167C104.346 44.4788 105.449 45.3616 106.553 46.0237C107.656 46.9066 108.539 47.5687 109.643 48.6722C110.526 49.555 111.408 50.6586 111.85 51.7621C112.07 53.0863 112.291 54.4105 112.291 55.9555Z" fill="#FF487E"/>
<path d="M115.824 63.6801V31.4572H130.391V36.092H120.9V44.4787H127.963V49.1136H120.9V59.0453H130.391V63.6801H115.824Z" fill="#FF487E"/>
<path d="M150.694 57.5004C150.473 58.8246 150.031 59.9282 149.149 60.811C148.266 61.6938 147.604 62.5766 146.5 63.018C145.397 63.4594 144.072 63.9008 142.307 63.9008C140.762 63.9008 139.438 63.6801 138.113 63.018C136.789 62.5766 135.906 61.4731 135.023 60.3696C134.582 59.7075 134.361 59.0453 134.141 58.3832C133.92 57.7211 133.699 56.8383 133.699 56.1762C133.699 55.5141 133.479 54.6312 133.479 53.9691C133.479 53.307 133.479 52.4242 133.479 51.7621V42.7132C133.479 41.8304 133.479 41.1682 133.479 40.2854C133.479 39.6233 133.479 38.7405 133.699 38.0784C133.92 37.4163 133.92 36.5334 134.361 35.8713C134.582 35.2092 135.023 34.5471 135.465 33.885C136.348 32.7814 137.23 32.1193 138.555 31.6779C139.879 31.2365 140.982 31.0158 142.307 31.0158C143.852 31.0158 145.176 31.2365 146.279 31.6779C147.383 32.1193 148.266 32.7814 148.928 33.6643C149.59 34.5471 150.252 35.6506 150.473 36.7541C150.914 38.0784 150.914 39.1819 150.914 40.7268V41.6096H145.838C145.838 40.9475 145.838 40.2854 145.838 39.6233C145.838 38.9612 145.617 38.2991 145.397 37.8577C145.176 37.1955 144.734 36.7541 144.293 36.3127C143.852 35.8713 143.19 35.6506 142.307 35.6506C141.424 35.6506 140.762 35.8713 140.1 36.3127C139.658 36.7541 139.217 37.1955 138.996 37.8577C138.775 38.5198 138.555 39.1819 138.555 39.844C138.555 40.5061 138.555 41.1682 138.555 42.0511V52.8656C138.555 53.5277 138.555 54.1898 138.555 55.0727C138.555 55.9555 138.775 56.6176 138.996 57.2797C139.217 57.9418 139.658 58.6039 140.1 59.0453C140.541 59.4868 141.424 59.7075 142.307 59.7075C143.19 59.7075 144.072 59.4868 144.514 59.0453C144.955 58.6039 145.397 57.9418 145.617 57.2797C145.838 56.6176 146.059 55.7348 146.059 55.0727C146.059 54.1898 146.059 53.5277 146.059 52.8656H150.914V53.307C150.914 54.8519 150.914 56.1762 150.694 57.5004Z" fill="#FF487E"/>
<path d="M171.883 57.5003C171.662 58.8246 171.221 60.1488 170.338 61.2523C169.676 62.3559 168.572 63.018 167.469 63.4594C166.365 63.9008 165.041 64.1215 163.717 64.1215C162.393 64.1215 161.068 63.9008 159.965 63.4594C158.861 63.018 157.758 62.3559 157.096 61.2523C156.213 60.1488 155.771 58.8246 155.551 57.5003C155.33 56.1761 155.33 54.6312 155.33 53.3069V31.4572H160.406V53.9691C160.406 54.6312 160.406 55.2933 160.406 55.9554C160.406 56.6175 160.627 57.2796 160.848 57.721C161.068 58.1625 161.51 58.6039 161.951 59.0453C162.393 59.4867 163.055 59.4867 163.938 59.4867C164.82 59.4867 165.482 59.266 165.924 59.0453C166.365 58.8246 166.807 58.3832 167.027 57.721C167.248 57.2796 167.469 56.6175 167.469 55.9554C167.469 55.2933 167.469 54.6312 167.469 53.9691V31.4572H172.104V53.3069C172.104 54.6312 172.104 55.9554 171.883 57.5003Z" fill="#FF487E"/>
<path d="M189.32 63.6801L185.127 50.4378H182.037V63.6801H176.961V31.4572H184.686C187.775 31.4572 189.983 32.34 191.527 33.8849C193.072 35.4298 193.955 37.6369 193.955 40.7268C193.955 42.4924 193.735 44.0373 193.072 45.5823C192.41 47.1272 191.307 48.2307 189.762 49.1136L194.397 63.6801H189.32ZM188.879 40.9475C188.879 40.2854 188.879 39.6232 188.658 38.9611C188.438 38.299 188.217 37.6369 187.775 37.1955C187.334 36.7541 186.672 36.3127 186.01 36.3127C185.348 36.3127 184.686 36.092 184.024 36.092H182.258V45.803H184.024C185.789 45.803 187.113 45.3616 187.996 44.6995C188.658 44.0373 188.879 42.7131 188.879 40.9475Z" fill="#FF487E"/>
<path d="M198.148 63.6801V31.4572H212.715V36.092H203.225V44.4787H210.287V49.1136H203.225V59.0453H212.715V63.6801H198.148Z" fill="#FF487E"/>
<path d="M564.515 279.088H390.379V305.794H564.515V279.088Z" fill="white" stroke="#ACB5BD" stroke-width="0.6158" stroke-miterlimit="10" stroke-linecap="round" stroke-linejoin="round"/>
<path d="M564.515 317.049H390.379V343.755H564.515V317.049Z" fill="white" stroke="#ACB5BD" stroke-width="0.6158" stroke-miterlimit="10" stroke-linecap="round" stroke-linejoin="round"/>
<path d="M529.864 363.397H425.029V390.103H529.864V363.397Z" fill="#FF487E"/>
<path d="M383.653 110.76C372.724 100.924 366.604 86.9343 366.604 72.5084V35.9299H460.507V72.5084C460.507 87.1527 454.167 101.143 443.458 110.76L413.555 137.607L383.653 110.76Z" fill="#495057" stroke="#495057"/>
<path d="M376.094 72.5084V45.4203H451.016V72.2877C451.016 84.2866 445.999 95.625 437.061 103.473L437.061 103.473L437.057 103.477L413.553 124.586L390.054 103.698C390.053 103.698 390.053 103.697 390.053 103.697C381.109 95.625 376.094 84.2834 376.094 72.5084Z" fill="white" stroke="#495057"/>
<path d="M434.461 68.5355C434.461 75.3291 428.954 80.8364 422.16 80.8364C415.367 80.8364 409.859 75.3291 409.859 68.5355C409.859 61.7419 415.367 56.2346 422.16 56.2346C428.954 56.2346 434.461 61.7419 434.461 68.5355Z" fill="#495057" stroke="#495057"/>
<path d="M422.158 68.5356L399.646 91.0476L406.709 97.8894" stroke="#495057" stroke-width="3" stroke-miterlimit="10"/>
<path d="M411.125 89.7231L406.049 84.6469" stroke="#495057" stroke-width="3" stroke-miterlimit="10"/>
<path d="M428.498 68.5354C428.498 72.0379 425.659 74.8773 422.156 74.8773C418.654 74.8773 415.814 72.0379 415.814 68.5354C415.814 65.0329 418.654 62.1935 422.156 62.1935C425.659 62.1935 428.498 65.0329 428.498 68.5354Z" fill="white" stroke="#495057"/>
<path d="M157.318 549.011H355.953" stroke="#FF487E" stroke-width="0.6158" stroke-miterlimit="10" stroke-linecap="round" stroke-linejoin="round"/>
</svg>
