<svg width="16" height="12" viewBox="0 0 16 12" fill="none" xmlns="http://www.w3.org/2000/svg">
<g clip-path="url(#clip0)">
<path d="M13.6345 6.06867V2.6462C13.6345 2.45205 13.4458 2.29464 13.2131 2.29464H10.0733C10.2949 1.23791 8.76181 0.554243 7.81995 1.34013C6.87836 0.554758 5.34491 1.23752 5.56664 2.29466H2.42678C2.19409 2.29466 2.00544 2.45207 2.00544 2.64623V6.06867C1.22326 6.19014 0.629059 6.76349 0.629059 7.45082V11.0836C0.629059 11.2778 0.817707 11.4352 1.0504 11.4352H1.86491C2.59338 11.4352 3.3207 11.288 3.96816 11.0094C3.99218 11.0094 4.66427 10.6618 5.68524 10.6618H9.95463C10.5494 10.6618 11.1431 10.782 11.6717 11.0094C12.3192 11.2879 13.0465 11.4352 13.775 11.4352H14.5895C14.8222 11.4352 15.0108 11.2778 15.0108 11.0836C15.0108 10.6928 15.0108 7.867 15.0108 7.45082C15.0108 6.76349 14.4166 6.19014 13.6345 6.06867ZM6.52211 1.82652C6.70778 1.6653 7.02353 1.66996 7.21302 1.82807L7.72062 2.25161C7.77548 2.29738 7.86439 2.29738 7.91924 2.25161L8.4357 1.82071C8.73378 1.57197 9.25088 1.74648 9.25088 2.10245C9.25088 2.20888 9.20119 2.30894 9.11099 2.3842L7.81995 3.46143L6.5289 2.3842C6.34458 2.2304 6.34228 1.98266 6.52211 1.82652ZM6.07253 2.99777L7.52203 4.20721C7.68655 4.34449 7.95334 4.34451 8.11789 4.20721L9.56739 2.99777H12.7918V6.04455H12.0121L11.8796 5.16046C11.827 4.80934 11.4675 4.54455 11.0434 4.54455H9.54017C9.11608 4.54455 8.75659 4.80932 8.70398 5.16046L8.57154 6.04455H7.0683L6.93586 5.16046C6.88325 4.80934 6.52376 4.54455 6.09967 4.54455H4.59641C4.17231 4.54455 3.81283 4.80932 3.76021 5.16046L3.62777 6.04455H2.84812V2.99777H6.07253ZM4.47708 6.04455L4.59646 5.24767H6.09972L6.2191 6.04455H4.47708ZM9.42082 6.04455L9.5402 5.24767H11.0435L11.1628 6.04455H9.42082ZM1.47174 7.4508C1.47174 7.0631 1.84977 6.74767 2.31442 6.74767H13.3255C13.7901 6.74767 14.1682 7.0631 14.1682 7.4508V8.29455H1.47174V7.4508ZM14.1682 10.732H13.775C13.1803 10.732 12.5865 10.6118 12.0579 10.3844C11.4104 10.1059 10.6831 9.95861 9.95463 9.95861H5.68524C4.46874 9.95861 3.57915 10.3844 3.58199 10.3844C3.05337 10.6118 2.45962 10.732 1.86491 10.732H1.47174V8.99767H14.1682V10.732Z" fill="#929292"/>
</g>
<defs>
<clipPath id="clip0">
<rect width="14.3818" height="12" fill="white" transform="translate(0.629059)"/>
</clipPath>
</defs>
</svg>
