<svg width="13" height="10" viewBox="0 0 13 10" fill="none" xmlns="http://www.w3.org/2000/svg">
<path d="M12.5273 4.8594L6.28383 0.400024L0.0403748 4.8594L0.276738 5.00004L1.42305 4.19293V9.86112H11.1446V4.19293L12.3313 5.00004L12.5273 4.8594ZM10.9032 9.58337H6.02728H1.65455V6.66671V4.02782L6.26364 0.694485L8.86364 2.50004L10.9032 3.95837V6.87504V9.58337Z" fill="#929292"/>
<g clip-path="url(#clip0)">
<path d="M6.49999 3.33337C5.83198 3.33337 5.28851 3.8629 5.28851 4.51376C5.28851 5.16463 5.83198 5.69416 6.49999 5.69416C7.16799 5.69416 7.71146 5.16463 7.71146 4.51376C7.71146 3.8629 7.16799 3.33337 6.49999 3.33337Z" fill="#929292"/>
<path d="M6.50002 5.9679C5.26349 5.9679 4.25751 6.89054 4.25751 8.02463V8.33327H8.74252V8.02464C8.74252 6.89055 7.73654 5.9679 6.50002 5.9679Z" fill="#929292"/>
</g>
<defs>
<clipPath id="clip0">
<rect width="5.45161" height="5" fill="white" transform="translate(3.7742 3.33337)"/>
</clipPath>
</defs>
</svg>
