<svg width="512" height="512" viewBox="0 0 512 512" fill="none" xmlns="http://www.w3.org/2000/svg">
<path d="M440 208C440 106.38 357.621 24 256 24C214.33 24.0063 173.895 38.1548 141.312 64.1305C108.729 90.1063 85.9259 126.371 76.6342 166.992C67.3425 207.614 72.1122 250.186 90.1628 287.743C108.213 325.301 138.476 355.621 176 373.742L235.418 479.819C236.808 482.3 238.834 484.366 241.287 485.804C243.741 487.242 246.533 488 249.377 488H262.623C265.467 488 268.259 487.242 270.713 485.804C273.166 484.366 275.192 482.3 276.582 479.819L336 373.742C367.168 358.693 393.46 335.158 411.856 305.84C430.252 276.523 440.007 242.611 440 208Z" fill="#EB423F"/>
<path d="M256 344C331.111 344 392 283.111 392 208C392 132.889 331.111 72 256 72C180.889 72 120 132.889 120 208C120 283.111 180.889 344 256 344Z" fill="#E9EEF2"/>
<path d="M236.281 149.781H306.75V185.219H236.281V149.781Z" fill="#92D1F7"/>
<path d="M306.75 179.311V185.219H236.281V181.675L261.906 167.5L273.918 178.574L293.938 167.5L306.75 179.311Z" fill="#92D1F7"/>
<path d="M210.656 268.75C209.807 268.75 208.992 268.483 208.391 268.009C207.791 267.534 207.453 266.89 207.453 266.219V228.25C207.453 226.852 208.887 228.25 210.656 228.25C212.425 228.25 213.859 226.852 213.859 228.25V266.219C213.859 266.89 213.522 267.534 212.921 268.009C212.321 268.483 211.506 268.75 210.656 268.75Z" fill="#422608"/>
<path d="M338.781 268.75C337.932 268.75 337.117 268.483 336.516 268.009C335.916 267.534 335.578 266.89 335.578 266.219V228.25C335.578 226.852 337.012 228.25 338.781 228.25C340.55 228.25 341.984 226.852 341.984 228.25V266.219C341.984 266.89 341.647 267.534 341.046 268.009C340.446 268.483 339.631 268.75 338.781 268.75Z" fill="#422608"/>
<path d="M223.469 230.781H207.453C206.604 230.781 205.789 230.515 205.188 230.04C204.587 229.565 204.25 228.921 204.25 228.25C204.25 227.579 204.587 226.935 205.188 226.46C205.789 225.985 206.604 225.719 207.453 225.719H223.469C224.318 225.719 225.133 225.985 225.734 226.46C226.334 226.935 226.672 227.579 226.672 228.25C226.672 228.921 226.334 229.565 225.734 230.04C225.133 230.515 224.318 230.781 223.469 230.781Z" fill="#683B0D"/>
<path d="M341.984 230.781H325.969C325.119 230.781 324.304 230.515 323.704 230.04C323.103 229.565 322.766 228.921 322.766 228.25C322.766 227.579 323.103 226.935 323.704 226.46C324.304 225.985 325.119 225.719 325.969 225.719H341.984C342.834 225.719 343.649 225.985 344.249 226.46C344.85 226.935 345.188 227.579 345.188 228.25C345.188 228.921 344.85 229.565 344.249 230.04C343.649 230.515 342.834 230.781 341.984 230.781Z" fill="#683B0D"/>
<path d="M181.828 268.75C180.979 268.75 180.164 268.483 179.563 268.009C178.962 267.534 178.625 266.89 178.625 266.219V230.781C178.625 230.11 178.962 229.466 179.563 228.991C180.164 228.517 180.979 228.25 181.828 228.25C182.678 228.25 183.492 228.517 184.093 228.991C184.694 229.466 185.031 230.11 185.031 230.781V266.219C185.031 266.89 184.694 267.534 184.093 268.009C183.492 268.483 182.678 268.75 181.828 268.75Z" fill="#422608"/>
<path d="M181.828 223.188C180.979 223.188 180.164 222.921 179.563 222.446C178.962 221.971 178.625 221.328 178.625 220.656V205.469C178.625 204.797 178.962 204.154 179.563 203.679C180.164 203.204 180.979 202.938 181.828 202.938C182.678 202.938 183.492 203.204 184.093 203.679C184.694 204.154 185.031 204.797 185.031 205.469V220.656C185.031 221.328 184.694 221.971 184.093 222.446C183.492 222.921 182.678 223.188 181.828 223.188Z" fill="#683B0D"/>
<path d="M165.813 268.75C165.317 268.75 164.827 268.659 164.383 268.484C163.94 268.31 163.553 268.056 163.254 267.743C162.955 267.43 162.752 267.067 162.661 266.682C162.57 266.296 162.594 265.9 162.73 265.523L175.542 230.085C175.658 229.766 175.852 229.467 176.114 229.207C176.375 228.946 176.699 228.729 177.067 228.568C177.435 228.407 177.839 228.304 178.257 228.266C178.675 228.228 179.098 228.256 179.503 228.347C179.907 228.439 180.285 228.592 180.614 228.799C180.944 229.006 181.218 229.262 181.422 229.553C181.627 229.843 181.756 230.163 181.804 230.493C181.852 230.823 181.817 231.158 181.702 231.477L168.889 266.915C168.698 267.443 168.294 267.908 167.739 268.239C167.184 268.57 166.508 268.749 165.813 268.75Z" fill="#533222"/>
<path d="M197.844 268.75C197.148 268.75 196.471 268.571 195.916 268.239C195.361 267.908 194.957 267.443 194.766 266.915L181.953 231.477C181.719 230.832 181.82 230.139 182.232 229.553C182.645 228.966 183.335 228.532 184.152 228.347C184.969 228.163 185.845 228.242 186.588 228.568C187.331 228.894 187.879 229.44 188.113 230.085L200.925 265.523C201.061 265.899 201.084 266.296 200.993 266.681C200.902 267.066 200.7 267.43 200.401 267.742C200.102 268.055 199.716 268.309 199.272 268.484C198.829 268.659 198.34 268.75 197.844 268.75Z" fill="#533222"/>
<path d="M165.812 215.594C164.963 215.594 164.148 215.327 163.548 214.852C162.947 214.378 162.609 213.734 162.609 213.062V205.469C162.609 204.797 162.947 204.154 163.548 203.679C164.148 203.204 164.963 202.938 165.812 202.938C166.662 202.938 167.477 203.204 168.077 203.679C168.678 204.154 169.016 204.797 169.016 205.469V213.062C169.016 213.734 168.678 214.378 168.077 214.852C167.477 215.327 166.662 215.594 165.812 215.594Z" fill="#C38325"/>
<path d="M201.047 205.469H162.609L169.016 175.094H194.641L201.047 205.469Z" fill="#EA9D2D"/>
<path d="M172.219 220.656H191.438V230.781H172.219V220.656Z" fill="#EA9D2D"/>
<path d="M191.438 205.469L185.031 175.094H178.625L172.219 205.469H191.438Z" fill="#D18D28"/>
<path d="M216.262 238.375H333.176C334.662 238.375 336.088 238.842 337.139 239.672C338.191 240.503 338.781 241.63 338.781 242.805V253.562H210.656V242.805C210.656 241.63 211.247 240.503 212.298 239.672C213.349 238.842 214.775 238.375 216.262 238.375Z" fill="#007AF6"/>
<path d="M228.273 208H321.164C322.438 208 323.66 208.4 324.561 209.112C325.463 209.824 325.969 210.79 325.969 211.797V238.375H223.469V211.797C223.469 210.79 223.975 209.824 224.876 209.112C225.777 208.4 226.999 208 228.273 208Z" fill="#007AF6"/>
<path d="M252.297 225.719H249.094C248.244 225.719 247.429 225.452 246.829 224.977C246.228 224.503 245.891 223.859 245.891 223.188C245.891 222.516 246.228 221.872 246.829 221.398C247.429 220.923 248.244 220.656 249.094 220.656H252.297C253.146 220.656 253.961 220.923 254.562 221.398C255.163 221.872 255.5 222.516 255.5 223.188C255.5 223.859 255.163 224.503 254.562 224.977C253.961 225.452 253.146 225.719 252.297 225.719Z" fill="#005DBB"/>
<path d="M300.344 225.719H297.141C296.291 225.719 295.476 225.452 294.876 224.977C294.275 224.503 293.938 223.859 293.938 223.188C293.938 222.516 294.275 221.872 294.876 221.398C295.476 220.923 296.291 220.656 297.141 220.656H300.344C301.193 220.656 302.008 220.923 302.609 221.398C303.209 221.872 303.547 222.516 303.547 223.188C303.547 223.859 303.209 224.503 302.609 224.977C302.008 225.452 301.193 225.719 300.344 225.719Z" fill="#005DBB"/>
<path d="M271.516 208H277.922V238.375H271.516V208Z" fill="#005DBB"/>
<path d="M348.391 268.75H162.609C161.76 268.75 160.945 268.483 160.344 268.009C159.744 267.534 159.406 266.89 159.406 266.219C159.406 265.547 159.744 264.904 160.344 264.429C160.945 263.954 161.76 263.688 162.609 263.688H348.391C349.24 263.688 350.055 263.954 350.656 264.429C351.256 264.904 351.594 265.547 351.594 266.219C351.594 266.89 351.256 267.534 350.656 268.009C350.055 268.483 349.24 268.75 348.391 268.75Z" fill="#422509"/>
<path d="M281.125 185.219H236.281V181.675L261.906 167.5L281.125 185.219Z" fill="#027E2A"/>
<path d="M306.75 179.311V185.219H261.906L293.938 167.5L306.75 179.311Z" fill="#02A437"/>
<path d="M277.922 167.5C281.46 167.5 284.328 165.233 284.328 162.438C284.328 159.642 281.46 157.375 277.922 157.375C274.384 157.375 271.516 159.642 271.516 162.438C271.516 165.233 274.384 167.5 277.922 167.5Z" fill="#FD7422"/>
<path d="M223.469 235.844H325.969V238.375H223.469V235.844Z" fill="#005DBB"/>
<path d="M210.656 251.031H338.781V256.094H210.656V251.031Z" fill="#422608"/>
<path d="M306.75 187.75H236.281C235.432 187.75 234.617 187.483 234.016 187.009C233.416 186.534 233.078 185.89 233.078 185.219V149.781C233.078 149.11 233.416 148.466 234.016 147.991C234.617 147.517 235.432 147.25 236.281 147.25H306.75C307.6 147.25 308.414 147.517 309.015 147.991C309.616 148.466 309.953 149.11 309.953 149.781V185.219C309.953 185.89 309.616 186.534 309.015 187.009C308.414 187.483 307.6 187.75 306.75 187.75ZM239.484 182.688H303.547V152.312H239.484V182.688Z" fill="#683B0D"/>
</svg>
