<svg width="512" height="512" viewBox="0 0 512 512" fill="none" xmlns="http://www.w3.org/2000/svg">
<path d="M440 208C440 106.38 357.621 24 256 24C214.33 24.0063 173.895 38.1548 141.312 64.1305C108.729 90.1063 85.9259 126.371 76.6342 166.992C67.3425 207.614 72.1122 250.186 90.1628 287.743C108.213 325.301 138.476 355.621 176 373.742L235.418 479.819C236.808 482.3 238.834 484.366 241.287 485.804C243.741 487.242 246.533 488 249.377 488H262.623C265.467 488 268.259 487.242 270.713 485.804C273.166 484.366 275.192 482.3 276.582 479.819L336 373.742C367.168 358.693 393.46 335.158 411.856 305.84C430.252 276.523 440.007 242.611 440 208V208Z" fill="#EB423F"/>
<path d="M256 344C331.111 344 392 283.111 392 208C392 132.889 331.111 72 256 72C180.889 72 120 132.889 120 208C120 283.111 180.889 344 256 344Z" fill="#E9EEF2"/>
<path d="M184 184H328V296H184V184Z" fill="#F08798"/>
<path d="M248 232H264C268.243 232 272.313 233.686 275.314 236.686C278.314 239.687 280 243.757 280 248V296H232V248C232 243.757 233.686 239.687 236.686 236.686C239.687 233.686 243.757 232 248 232V232Z" fill="#EEBBC3"/>
<path d="M312 120H200L168 184H344L312 120Z" fill="#F94260"/>
<path d="M216 120H232V184H216V120Z" fill="white"/>
<path d="M248 120H264V184H248V120Z" fill="white"/>
<path d="M280 120H296V184H280V120Z" fill="white"/>
</svg>
