<svg width="14" height="10" viewBox="0 0 14 10" fill="none" xmlns="http://www.w3.org/2000/svg">
<g clip-path="url(#clip0)">
<path d="M13.3211 6.15174C13.3211 5.62452 12.7864 5.1956 12.1293 5.1956H2.32143V1.28774C2.32143 0.901268 2.71333 0.586863 3.19504 0.586863H3.99567C4.13092 0.586863 4.25993 0.63344 4.34965 0.714625L4.71583 1.04604C4.69392 1.13144 4.68239 1.21987 4.68239 1.31039V1.69468C4.54067 1.73493 4.43897 1.8431 4.43897 1.97059C4.43897 2.13237 4.60245 2.26353 4.8041 2.26353H7.82484C8.02649 2.26353 8.18997 2.13237 8.18997 1.97059C8.18997 1.8431 8.08827 1.73493 7.94655 1.69468V1.31039C7.94655 0.588366 7.21442 0.000976562 6.31447 0.000976562C5.81056 0.000976562 5.35936 0.185218 5.05974 0.474079L4.89611 0.326007C4.66788 0.119423 4.3397 0.000976562 3.99565 0.000976562H3.19504C2.31067 0.000976562 1.59117 0.578211 1.59117 1.28774V5.23466C1.59117 5.246 1.59217 5.25713 1.59372 5.26815C1.16163 5.41185 0.856842 5.75371 0.856842 6.15174C0.856842 6.54899 1.16044 6.89033 1.59117 7.03454V7.56398C1.59117 8.61254 2.65445 9.46561 3.9614 9.46561H4.17008V9.70715C4.17008 9.86894 4.33356 10.0001 4.53521 10.0001C4.73686 10.0001 4.90034 9.86894 4.90034 9.70715V9.46561H9.27753V9.70715C9.27753 9.86894 9.44101 10.0001 9.64266 10.0001C9.84431 10.0001 10.0078 9.86894 10.0078 9.70715V9.46561H10.2165C11.5234 9.46561 12.5867 8.61254 12.5867 7.56398V7.03454C13.0175 6.89033 13.3211 6.54897 13.3211 6.15174ZM6.31444 0.586843C6.81173 0.586843 7.21627 0.911424 7.21627 1.31037V1.67763H5.41262V1.31039C5.41262 0.911424 5.81716 0.586843 6.31444 0.586843ZM10.2165 8.87973H3.9614C3.05712 8.87973 2.32143 8.28948 2.32143 7.56398V7.10789H11.8565V7.56398C11.8565 8.28948 11.1208 8.87973 10.2165 8.87973ZM12.1293 6.522H2.0486C1.79413 6.522 1.5871 6.35591 1.5871 6.15174C1.5871 5.94758 1.79413 5.78148 2.0486 5.78148H12.1293C12.3838 5.78148 12.5908 5.94758 12.5908 6.15174C12.5908 6.35591 12.3838 6.522 12.1293 6.522Z" fill="#929292"/>
<path d="M8.08308 4.26132C8.05197 4.14108 7.93053 4.04734 7.77878 4.02882C7.62817 4.01047 7.47477 4.07275 7.40323 4.18047C7.33159 4.28831 7.35199 4.42457 7.45459 4.51521C7.55702 4.60567 7.72401 4.63602 7.86476 4.58903C8.02269 4.53632 8.11806 4.39655 8.08308 4.26132Z" fill="#929292"/>
<path d="M6.62254 4.26132C6.59143 4.14106 6.47001 4.04734 6.31824 4.02882C6.16768 4.01046 6.01423 4.07276 5.94269 4.18047C5.87105 4.28831 5.89145 4.42457 5.99405 4.51521C6.0965 4.60571 6.26342 4.63613 6.40421 4.58903C6.56212 4.53622 6.65756 4.39666 6.62254 4.26132Z" fill="#929292"/>
<path d="M5.16203 4.26132C5.13092 4.1411 5.00943 4.04732 4.85773 4.02882C4.70715 4.01047 4.55372 4.07275 4.48218 4.18047C4.41054 4.28831 4.43094 4.42457 4.53354 4.51521C4.63592 4.60565 4.80296 4.63602 4.9437 4.58903C5.10161 4.53634 5.197 4.39651 5.16203 4.26132Z" fill="#929292"/>
<path d="M8.08843 3.11788C8.07265 2.996 7.96214 2.89265 7.81382 2.86273C7.66626 2.83295 7.50578 2.88218 7.42148 2.98411C7.33738 3.08578 7.34062 3.22301 7.4318 3.32113C7.52306 3.41932 7.68491 3.46254 7.83113 3.42682C7.99539 3.38675 8.10586 3.25537 8.08843 3.11788Z" fill="#929292"/>
<path d="M6.62791 3.11788C6.61214 2.996 6.50163 2.89267 6.35331 2.86273C6.20561 2.83293 6.04546 2.88228 5.96097 2.9841C5.87645 3.08595 5.88064 3.22273 5.97129 3.3211C6.06187 3.4194 6.22488 3.46262 6.37064 3.42703C6.53483 3.38696 6.64532 3.25515 6.62791 3.11788Z" fill="#929292"/>
<path d="M5.16738 3.11788C5.15163 2.99604 5.04105 2.89265 4.89278 2.86273C4.74522 2.83295 4.58473 2.88218 4.50044 2.98411C4.41609 3.08609 4.41999 3.22262 4.51076 3.32111C4.60133 3.4194 4.76435 3.46262 4.91011 3.42704C5.07427 3.38698 5.18476 3.25508 5.16738 3.11788Z" fill="#929292"/>
</g>
<defs>
<clipPath id="clip0">
<rect width="12.4642" height="10" fill="white" transform="translate(0.856842)"/>
</clipPath>
</defs>
</svg>
