<svg width="59" height="64" viewBox="0 0 59 64" fill="none" xmlns="http://www.w3.org/2000/svg">
<path d="M54.3887 52.126C54.39 52.0837 54.3907 52.0417 54.3907 52C54.3896 50.9395 54.0008 49.9228 53.3095 49.1729C52.6182 48.423 51.6809 48.0012 50.7032 48V29.5L54.022 26.8C54.1372 26.7062 54.2306 26.5844 54.2947 26.4444C54.3587 26.3044 54.3916 26.1501 54.3907 25.9938C54.3898 25.8375 54.3551 25.6836 54.2895 25.5445C54.2239 25.4053 54.1291 25.2848 54.0128 25.1926L46.0939 18.9153V8C46.3384 8 46.5728 7.89464 46.7457 7.70711C46.9186 7.51957 47.0157 7.26522 47.0157 7V3C47.0157 2.73478 46.9186 2.48043 46.7457 2.29289C46.5728 2.10536 46.3384 2 46.0939 2H36.8751C36.6306 2 36.3961 2.10536 36.2232 2.29289C36.0504 2.48043 35.9532 2.73478 35.9532 3V7C35.9532 7.26522 36.0504 7.51957 36.2232 7.70711C36.3961 7.89464 36.6306 8 36.8751 8V11.6076L30.044 6.19263C29.8861 6.06748 29.6957 6.00003 29.5001 6.00003C29.3046 6.00003 29.1141 6.06748 28.9562 6.19263L4.98745 25.1926C4.87112 25.2848 4.77634 25.4053 4.7107 25.5445C4.64507 25.6836 4.61042 25.8375 4.60952 25.9938C4.60862 26.1501 4.64151 26.3044 4.70554 26.4444C4.76958 26.5844 4.86297 26.7062 4.97823 26.8L8.29698 29.5V48C7.31933 48.0012 6.38204 48.423 5.69074 49.1729C4.99944 49.9228 4.61058 50.9395 4.60948 52C4.60948 52.0417 4.61018 52.0837 4.61156 52.126C3.74187 52.3686 2.98367 52.947 2.4792 53.7528C1.97473 54.5587 1.75866 55.5365 1.87155 56.5028C1.98443 57.4692 2.4185 58.3576 3.09232 59.0015C3.76613 59.6454 4.63339 60.0004 5.53136 60H53.4689C54.3668 60.0004 55.2341 59.6454 55.9079 59.0015C56.5817 58.3576 57.0158 57.4692 57.1287 56.5028C57.2416 55.5365 57.0255 54.5587 56.521 53.7528C56.0165 52.947 55.2583 52.3686 54.3887 52.126ZM37.797 4H45.172V6H37.797V4ZM38.7189 13V8H44.2501V17.4538L38.6316 13H38.7189ZM29.5001 8.2385L51.9195 26.0105L49.7729 27.7569L30.0424 12.1912C29.8848 12.0669 29.695 11.9999 29.5001 11.9999C29.3052 11.9999 29.1154 12.0669 28.9578 12.1912L9.22727 27.7569L7.08068 26.0105L29.5001 8.2385ZM3.68761 56C3.68812 55.4749 3.87875 54.971 4.21844 54.597C4.55814 54.2229 5.0197 54.0085 5.5037 54H5.50589C5.55302 54.0071 5.60015 54.0132 5.64821 54.0166C5.80097 54.0271 5.95374 53.9961 6.09271 53.9265C6.23169 53.8569 6.3525 53.7509 6.44424 53.6179C6.53598 53.485 6.59576 53.3294 6.61819 53.1652C6.64063 53.0009 6.625 52.8332 6.57273 52.6771C6.49644 52.4608 6.45599 52.2316 6.45323 52C6.45381 51.4698 6.64825 50.9614 6.9939 50.5865C7.33954 50.2115 7.80817 50.0006 8.29698 50V58H5.53136C5.04254 57.9994 4.57392 57.7885 4.22827 57.4135C3.88263 57.0386 3.68819 56.5302 3.68761 56ZM43.3282 58H32.2657V36H43.3282V58ZM45.172 58V35C45.172 34.7348 45.0749 34.4804 44.902 34.2929C44.7291 34.1054 44.4946 34 44.2501 34H31.3439C31.0994 34 30.8649 34.1054 30.692 34.2929C30.5191 34.4804 30.422 34.7348 30.422 35V58H10.1407V29.5093L29.5001 14.2365L48.8595 29.5093V58H45.172ZM53.4689 58H50.7032V50C51.192 50.0006 51.6607 50.2115 52.0063 50.5865C52.352 50.9614 52.5464 51.4698 52.547 52C52.5443 52.2318 52.5038 52.4612 52.4275 52.6776C52.3752 52.8337 52.3596 53.0014 52.382 53.1657C52.4045 53.3299 52.4642 53.4855 52.556 53.6184C52.6477 53.7514 52.7685 53.8574 52.9075 53.927C53.0465 53.9966 53.1992 54.0276 53.352 54.0171C53.4001 54.0137 53.4472 54.0076 53.4943 54.0005H53.4965C53.9855 54.0045 54.453 54.219 54.7962 54.5969C55.1394 54.9748 55.3301 55.4851 55.3264 56.0155C55.3228 56.5459 55.125 57.0531 54.7766 57.4253C54.4283 57.7976 53.9578 58.0045 53.4689 58.0005V58Z" fill="#0D0C0C"/>
<path d="M25.8125 34H14.75C14.5055 34 14.271 34.1054 14.0981 34.2929C13.9253 34.4804 13.8281 34.7348 13.8281 35V49C13.8281 49.2652 13.9253 49.5196 14.0981 49.7071C14.271 49.8946 14.5055 50 14.75 50H25.8125C26.057 50 26.2915 49.8946 26.4644 49.7071C26.6372 49.5196 26.7344 49.2652 26.7344 49V35C26.7344 34.7348 26.6372 34.4804 26.4644 34.2929C26.2915 34.1054 26.057 34 25.8125 34ZM24.8906 41H21.2031V36H24.8906V41ZM19.3594 36V41H15.6719V36H19.3594ZM15.6719 43H19.3594V48H15.6719V43ZM21.2031 48V43H24.8906V48H21.2031Z" fill="black"/>
<path d="M35.8829 46.3827C36.0777 45.8725 35.8543 45.2875 35.3839 45.0762C34.9136 44.8648 34.3743 45.1071 34.1794 45.6174C33.9846 46.1276 34.208 46.7126 34.6784 46.9239C35.1487 47.1353 35.688 46.893 35.8829 46.3827Z" fill="black"/>
</svg>
