<svg width="60" height="70" viewBox="0 0 60 70" fill="none" xmlns="http://www.w3.org/2000/svg">
<path d="M27.6562 48.156C27.171 48.156 26.7773 48.6148 26.7773 49.1814V51.2546C26.7773 51.8212 27.171 52.28 27.6562 52.28C28.1415 52.28 28.5352 51.8212 28.5352 51.2546V49.1814C28.5352 48.6148 28.1415 48.156 27.6562 48.156Z" fill="black"/>
<path d="M14.894 32.8894H11.4736C10.6661 32.8894 10.0088 33.6558 10.0088 34.5984V44.8918C10.0088 45.8344 10.6661 46.6008 11.4736 46.6008H14.894C15.7015 46.6008 16.3589 45.8344 16.3589 44.8918V34.5984C16.3589 33.6558 15.7015 32.8894 14.894 32.8894ZM14.6011 44.55H11.7666V34.9402H14.6011V44.55Z" fill="black"/>
<path d="M48.5269 32.8894H45.1064C44.299 32.8894 43.6416 33.6558 43.6416 34.5984V44.8918C43.6416 45.8344 44.299 46.6008 45.1064 46.6008H48.5269C49.3344 46.6008 49.9917 45.8344 49.9917 44.8918V34.5984C49.9917 33.6558 49.3344 32.8894 48.5269 32.8894ZM48.2339 44.55H45.3994V34.9402H48.2339V44.55Z" fill="black"/>
<path d="M30.3831 24.6367H29.6168C27.7152 24.6367 26.1685 26.4418 26.1685 28.6603V32.5579C26.1685 33.3712 26.7356 34.0329 27.4328 34.0329H32.5671C33.2642 34.0329 33.8314 33.3712 33.8314 32.5579V28.6603C33.8314 26.4418 32.2846 24.6367 30.3831 24.6367V24.6367ZM27.9258 31.9821V28.6603C27.9258 27.5724 28.6843 26.6875 29.6168 26.6875H30.3831C31.3151 26.6875 32.0736 27.5724 32.0736 28.6603V31.9821H27.9258Z" fill="black"/>
<path d="M59.1211 58.3971H54.9898V28.132H58.5352C59.0117 28.132 59.4196 27.8703 59.6269 27.4319C59.8338 26.9934 59.8055 26.4508 59.5509 25.9808L52.3613 12.7106C52.0303 12.0991 51.3396 11.6553 50.7198 11.6553H32.2115L31.0506 10.0216C30.7851 9.64775 30.4019 9.43359 30 9.43359C29.5976 9.43359 29.2149 9.64775 28.9494 10.0216L27.7885 11.6553H9.28024C8.65997 11.6553 7.96967 12.0991 7.63824 12.7106L0.449066 25.9808C0.19455 26.4513 0.166168 26.9934 0.373077 27.4319C0.580444 27.8703 0.988312 28.132 1.46484 28.132H5.01022V50.006C4.12628 50.9924 3.57422 52.3793 3.57422 53.9158C3.57422 54.1972 3.5939 54.4733 3.62961 54.7436H3.25653C2.44904 54.7436 1.79169 55.5105 1.79169 56.4526V58.3971H0.878906C0.393677 58.3971 0 58.8564 0 59.4225C0 59.9891 0.393677 60.4478 0.878906 60.4478H59.1211C59.6063 60.4478 60 59.9891 60 59.4225C60 58.8564 59.6063 58.3971 59.1211 58.3971V58.3971ZM55.5135 22.3669H39.8232L38.6577 20.7262H54.6245L55.5135 22.3669ZM52.6245 17.0348L53.5135 18.6755H37.2002L36.0342 17.0348H52.6245ZM50.7106 13.7061C50.7587 13.7157 50.8479 13.7733 50.8804 13.8155L51.5135 14.9841H34.5767L33.669 13.7061H50.7106ZM7.37549 17.0348H13.2422C13.7274 17.0348 14.1211 16.5755 14.1211 16.0094C14.1211 15.4428 13.7274 14.9841 13.2422 14.9841H8.48602L9.11957 13.815C9.15207 13.7733 9.24133 13.7157 9.28894 13.7061H26.331L25.4228 14.9841H17.3438C16.8585 14.9841 16.4648 15.4428 16.4648 16.0094C16.4648 16.5755 16.8585 17.0348 17.3438 17.0348H23.9658L22.7998 18.6755H6.48651L7.37549 17.0348ZM5.37552 20.7262H21.3423L20.1764 22.3669H4.48654L5.37552 20.7262ZM2.47421 26.0812L3.37555 24.4176H18.7193L17.5369 26.0812H2.47421ZM19.4266 48.4486C18.761 48.0059 17.9961 47.7533 17.1899 47.7533C15.6065 47.7533 14.1385 48.737 13.3191 50.2773C13.0994 50.2271 12.8746 50.202 12.6462 50.202C12.318 50.202 12.0003 50.2559 11.6986 50.3552C10.8311 49.2065 9.56406 48.5031 8.2132 48.5031C7.70874 48.5031 7.22305 48.5992 6.76804 48.7739V28.132H16.0794C15.7603 28.5817 15.6821 29.1275 15.8693 29.5927C16.057 30.0584 16.468 30.3366 16.9688 30.3366H19.4266V48.4486ZM9.16855 54.7436H5.42221C5.36453 54.4787 5.33203 54.2015 5.33203 53.9158C5.33203 52.0621 6.62476 50.5539 8.2132 50.5539C8.93875 50.5539 9.6254 50.8813 10.1468 51.4308C9.52789 52.1684 9.14566 53.1767 9.14566 54.2875C9.14566 54.4418 9.1539 54.594 9.16855 54.7436V54.7436ZM19.4266 58.3971H3.5495V56.7944H19.4266V58.3971ZM19.427 54.7436H10.9492C10.92 54.5972 10.9035 54.4445 10.9035 54.2875C10.9035 53.1654 11.6853 52.2527 12.6462 52.2527C12.9062 52.2527 13.1566 52.3184 13.3905 52.4471C13.6116 52.5694 13.8657 52.578 14.0927 52.4728C14.3198 52.367 14.4983 52.1555 14.5866 51.8896C14.9991 50.642 16.046 49.8041 17.1904 49.8041C18.0936 49.8041 18.913 50.321 19.427 51.1232V54.7436ZM18.2538 28.2858L30 11.7562L41.7462 28.2858H40.1962L30.6766 14.8901C30.5095 14.6556 30.2614 14.5194 30 14.5194C29.7382 14.5194 29.4901 14.6556 29.3234 14.8906L19.8038 28.2858H18.2538ZM33.7216 58.3971H26.2784V42.4827H33.7216V58.3971ZM53.232 58.3971H40.5734V46.0149C40.5734 45.4488 40.1797 44.9895 39.6945 44.9895C39.2093 44.9895 38.8156 45.4488 38.8156 46.0149V58.3971H35.4794V42.1409C35.4794 41.1988 34.8225 40.4319 34.0146 40.4319H25.9854C25.1775 40.4319 24.5206 41.1988 24.5206 42.1409V58.3971H21.1844V29.5564L30 17.1513L38.8156 29.5564V41.1614C38.8156 41.7281 39.2093 42.1868 39.6945 42.1868C40.1797 42.1868 40.5734 41.7281 40.5734 41.1614V30.3366H43.0307C43.5315 30.3366 43.9426 30.0584 44.1302 29.5927C44.3179 29.1275 44.2392 28.5817 43.9206 28.132H47.3438C47.829 28.132 48.2227 27.6733 48.2227 27.1066C48.2227 26.5405 47.829 26.0812 47.3438 26.0812H42.4631L41.2807 24.4176H56.6245L57.5258 26.0812H51.5625C51.0773 26.0812 50.6836 26.5405 50.6836 27.1066C50.6836 27.6733 51.0773 28.132 51.5625 28.132H53.232V58.3971Z" fill="black"/>
</svg>
