<svg width="428" height="197" viewBox="0 0 428 197" fill="none" xmlns="http://www.w3.org/2000/svg">
<path d="M76.2357 58.7902C77.2547 61.9848 80.5685 64.3436 84.4502 64.3436C88.3318 64.3436 91.6449 61.9848 92.6646 58.7902H95.6109V60.9418C95.6109 61.4669 95.8535 61.9704 96.2851 62.3417C96.7168 62.713 97.3023 62.9215 97.9128 62.9215H163.11C163.721 62.9215 164.306 62.713 164.738 62.3417C165.17 61.9704 165.412 61.4669 165.412 60.9418V17.1245C165.412 16.5995 165.17 16.0959 164.738 15.7247C164.306 15.3534 163.721 15.1448 163.11 15.1448H97.9128C97.3023 15.1448 96.7168 15.3534 96.2851 15.7247C95.8535 16.0959 95.6109 16.5995 95.6109 17.1245V39.1612C92.8332 37.5213 89.6219 36.5064 86.2705 36.2091C85.2136 19.0755 69.4108 5.42847 50.1357 5.42847C30.2453 5.42847 14.0531 19.9611 13.946 37.8605C13.9422 37.9064 13.938 37.9523 13.938 37.9988V159.548H7.04401C6.43353 159.548 5.84805 159.757 5.41638 160.128C4.9847 160.499 4.74219 161.003 4.74219 161.528C4.74219 162.053 4.9847 162.556 5.41638 162.928C5.84805 163.299 6.43353 163.507 7.04401 163.507H27.8372C28.4476 163.507 29.0331 163.299 29.4648 162.928C29.8965 162.556 30.139 162.053 30.139 161.528C30.139 161.003 29.8965 160.499 29.4648 160.128C29.0331 159.757 28.4476 159.548 27.8372 159.548H18.5416V38.1328C18.5435 38.0998 18.547 38.0694 18.547 38.0371C18.547 22.2391 32.7178 9.38654 50.1357 9.38654C66.8819 9.38654 80.623 21.2664 81.6596 36.2214C76.6959 36.6955 72.1093 38.7259 68.7761 41.9246C65.4429 45.1232 63.5967 49.2659 63.5903 53.5612V56.8106C63.5903 57.3356 63.8328 57.8391 64.2644 58.2104C64.6961 58.5817 65.2816 58.7902 65.8921 58.7902H76.2357ZM84.4502 60.3842C83.7975 60.3751 83.1581 60.2242 82.5915 59.9455C82.0248 59.6668 81.5493 59.2694 81.2092 58.7902H87.6927C87.3523 59.2696 86.8766 59.667 86.3097 59.9457C85.7427 60.2244 85.1031 60.3753 84.4502 60.3842ZM100.215 58.7902H102.161C102.771 58.7902 103.357 58.5817 103.788 58.2104C104.22 57.8391 104.463 57.3356 104.463 56.8106V55.9896L116.002 46.1753L129.973 58.9621H100.215V58.7902ZM136.29 58.9615L135.939 58.6395L146.806 50.7649L156.983 58.9621L136.29 58.9615ZM160.809 19.1036V56.6195L148.46 46.6728C148.049 46.3414 147.511 46.1513 146.947 46.1385C146.384 46.1258 145.835 46.2912 145.404 46.6036L132.782 55.7498L117.741 41.9839C117.53 41.7914 117.277 41.637 116.996 41.53C116.716 41.4229 116.413 41.3653 116.106 41.3606C115.798 41.3532 115.492 41.4001 115.206 41.4984C114.921 41.5967 114.662 41.7443 114.445 41.9321L104.177 50.6636C103.623 47.8328 102.262 45.1643 100.215 42.8969V19.1042L160.809 19.1036ZM68.1958 53.5612C68.2005 49.9855 69.8541 46.5575 72.7939 44.0291C75.7337 41.5007 79.7195 40.0785 83.877 40.0745H84.1793C88.3368 40.0786 92.3226 41.5008 95.2623 44.0292C98.2021 46.5576 99.8557 49.9856 99.8605 53.5612V54.5471C99.8171 54.6392 99.7822 54.7341 99.7561 54.8308H68.1958V53.5612Z" fill="black"/>
<path d="M79.9284 44.463C79.7536 44.251 79.5319 44.0706 79.276 43.9322C79.0201 43.7938 78.735 43.7001 78.437 43.6565C78.139 43.6129 77.8339 43.6201 77.5392 43.6779C77.2445 43.7357 76.9659 43.8428 76.7193 43.9932C74.613 45.2754 72.8079 46.8888 71.3994 48.7484C71.2342 48.9662 71.1205 49.2098 71.0648 49.4653C71.0091 49.7209 71.0125 49.9833 71.0747 50.2378C71.1369 50.4922 71.2568 50.7336 71.4275 50.9481C71.5982 51.1627 71.8164 51.3463 72.0696 51.4883C72.3228 51.6304 72.606 51.7282 72.9031 51.7761C73.2003 51.824 73.5054 51.8211 73.8013 51.7676C74.0971 51.714 74.3778 51.6109 74.6272 51.4641C74.8767 51.3173 75.0901 51.1297 75.2553 50.9119C76.3479 49.4693 77.7481 48.2176 79.3821 47.2231C79.6287 47.0727 79.8384 46.882 79.9993 46.6619C80.1602 46.4418 80.2692 46.1967 80.3199 45.9404C80.3706 45.6841 80.3622 45.4217 80.295 45.1682C80.2278 44.9147 80.1033 44.6751 79.9284 44.463Z" fill="black"/>
<path d="M133.659 41.4669C135.262 41.4669 136.829 41.0581 138.162 40.2922C139.495 39.5262 140.534 38.4376 141.147 37.1639C141.761 35.8902 141.921 34.4887 141.608 33.1365C141.296 31.7844 140.524 30.5423 139.39 29.5675C138.257 28.5927 136.813 27.9288 135.241 27.6598C133.668 27.3909 132.039 27.5289 130.558 28.0565C129.077 28.5841 127.811 29.4775 126.921 30.6238C126.03 31.7701 125.555 33.1178 125.555 34.4964C125.557 36.3444 126.412 38.1162 127.931 39.423C129.451 40.7297 131.511 41.4648 133.659 41.4669ZM133.659 31.4853C134.352 31.4853 135.029 31.6619 135.605 31.9927C136.18 32.3236 136.629 32.7939 136.894 33.3441C137.159 33.8943 137.228 34.4997 137.093 35.0838C136.958 35.6679 136.625 36.2045 136.135 36.6256C135.645 37.0467 135.022 37.3335 134.342 37.4497C133.663 37.5658 132.959 37.5062 132.32 37.2783C131.68 37.0504 131.133 36.6645 130.748 36.1693C130.364 35.6741 130.158 35.0919 130.158 34.4964C130.159 33.6981 130.529 32.9327 131.185 32.3682C131.841 31.8037 132.731 31.4861 133.659 31.4853Z" fill="black"/>
<g clip-path="url(#clip0)">
<path d="M118.23 114.063C116.648 114.063 115.37 113.018 115.37 111.727C115.37 109.15 112.805 107.055 109.65 107.055C106.496 107.055 103.931 109.15 103.931 111.727C103.931 113.018 102.653 114.063 101.071 114.063C99.4887 114.063 98.2109 113.018 98.2109 111.727C98.2109 106.574 103.341 102.383 109.65 102.383C115.959 102.383 121.09 106.574 121.09 111.727C121.09 113.018 119.812 114.063 118.23 114.063Z" fill="black"/>
<path d="M109.65 156.092C103.341 156.092 98.2109 151.901 98.2109 146.748C98.2109 145.456 99.4887 144.412 101.071 144.412C102.653 144.412 103.931 145.456 103.931 146.748C103.931 149.324 106.496 151.42 109.65 151.42C111.232 151.42 112.51 152.464 112.51 153.756C112.51 155.048 111.232 156.092 109.65 156.092Z" fill="black"/>
<path d="M101.071 149.084C99.4887 149.084 98.2109 148.04 98.2109 146.748V111.727C98.2109 110.435 99.4887 109.391 101.071 109.391C102.653 109.391 103.931 110.435 103.931 111.727V146.748C103.931 148.04 102.653 149.084 101.071 149.084Z" fill="black"/>
<path d="M278.382 114.063C276.8 114.063 275.522 113.018 275.522 111.727C275.522 109.15 272.957 107.055 269.803 107.055C266.648 107.055 264.083 109.15 264.083 111.727C264.083 113.018 262.805 114.063 261.223 114.063C259.641 114.063 258.363 113.018 258.363 111.727C258.363 106.574 263.494 102.383 269.803 102.383C276.112 102.383 281.242 106.574 281.242 111.727C281.242 113.018 279.964 114.063 278.382 114.063Z" fill="black"/>
<path d="M269.801 156.092C268.219 156.092 266.941 155.048 266.941 153.756C266.941 152.464 268.219 151.42 269.801 151.42C272.956 151.42 275.521 149.324 275.521 146.748C275.521 145.456 276.799 144.412 278.381 144.412C279.963 144.412 281.241 145.456 281.241 146.748C281.241 151.901 276.11 156.092 269.801 156.092Z" fill="black"/>
<path d="M278.381 149.084C276.799 149.084 275.521 148.04 275.521 146.748V111.727C275.521 110.435 276.799 109.391 278.381 109.391C279.963 109.391 281.241 110.435 281.241 111.727V146.748C281.241 148.04 279.963 149.084 278.381 149.084Z" fill="black"/>
<path d="M269.802 156.092H109.651C108.069 156.092 106.791 155.048 106.791 153.756C106.791 152.464 108.069 151.42 109.651 151.42H269.802C271.384 151.42 272.662 152.464 272.662 153.756C272.662 155.048 271.384 156.092 269.802 156.092Z" fill="black"/>
<path d="M261.223 165.446C259.641 165.446 258.363 164.401 258.363 163.11V111.727C258.363 110.435 259.641 109.391 261.223 109.391C262.805 109.391 264.083 110.435 264.083 111.727V163.11C264.083 164.401 262.805 165.446 261.223 165.446Z" fill="black"/>
<path d="M118.231 165.441C116.649 165.441 115.371 164.397 115.371 163.105V111.722C115.371 110.43 116.649 109.386 118.231 109.386C119.813 109.386 121.091 110.43 121.091 111.722V163.105C121.091 164.397 119.813 165.441 118.231 165.441Z" fill="black"/>
<path d="M118.231 135.068C116.649 135.068 115.371 134.024 115.371 132.732C115.371 127.579 120.501 123.388 126.81 123.388C128.393 123.388 129.67 124.433 129.67 125.724C129.67 127.016 128.393 128.06 126.81 128.06C123.656 128.06 121.091 130.155 121.091 132.732C121.091 134.024 119.813 135.068 118.231 135.068Z" fill="black"/>
<path d="M109.651 90.7122C108.069 90.7122 106.791 89.6686 106.791 88.3762C106.791 83.2229 111.921 79.0322 118.23 79.0322C119.813 79.0322 121.09 80.0759 121.09 81.3682C121.09 82.6606 119.813 83.7042 118.23 83.7042C115.076 83.7042 112.511 85.7996 112.511 88.3762C112.511 89.6686 111.233 90.7122 109.651 90.7122Z" fill="black"/>
<path d="M269.809 90.7122C268.228 90.7122 266.949 89.6686 266.949 88.3762C266.949 85.7996 264.383 83.7042 261.229 83.7042C259.648 83.7042 258.369 82.6606 258.369 81.3682C258.369 80.0759 259.648 79.0322 261.229 79.0322C267.538 79.0322 272.668 83.2229 272.668 88.3762C272.668 89.6686 271.391 90.7122 269.809 90.7122Z" fill="black"/>
<path d="M189.725 90.7122C188.143 90.7122 186.865 89.6686 186.865 88.3762C186.865 83.2229 191.996 79.0322 198.305 79.0322C199.887 79.0322 201.164 80.0759 201.164 81.3682C201.164 82.6606 199.887 83.7042 198.305 83.7042C195.15 83.7042 192.585 85.7996 192.585 88.3762C192.585 89.6686 191.307 90.7122 189.725 90.7122Z" fill="black"/>
<path d="M189.726 90.7122C188.144 90.7122 186.867 89.6686 186.867 88.3762C186.867 85.7996 184.301 83.7042 181.147 83.7042C179.565 83.7042 178.287 82.6606 178.287 81.3682C178.287 80.0759 179.565 79.0322 181.147 79.0322C187.456 79.0322 192.586 83.2229 192.586 88.3762C192.586 89.6686 191.309 90.7122 189.726 90.7122Z" fill="black"/>
<path d="M261.221 135.068C259.638 135.068 258.361 134.024 258.361 132.732C258.361 130.155 255.796 128.06 252.641 128.06C251.059 128.06 249.781 127.016 249.781 125.724C249.781 124.433 251.059 123.388 252.641 123.388C258.95 123.388 264.08 127.579 264.08 132.732C264.08 134.024 262.803 135.068 261.221 135.068Z" fill="black"/>
<path d="M252.667 128.06H126.809C125.227 128.06 123.949 127.016 123.949 125.724C123.949 124.433 125.227 123.388 126.809 123.388H252.667C254.249 123.388 255.527 124.433 255.527 125.724C255.527 127.016 254.249 128.06 252.667 128.06Z" fill="black"/>
<path d="M261.223 144.412H118.231C116.649 144.412 115.371 143.368 115.371 142.076C115.371 140.785 116.649 139.74 118.231 139.74H261.223C262.805 139.74 264.083 140.785 264.083 142.076C264.083 143.368 262.805 144.412 261.223 144.412Z" fill="black"/>
<path d="M109.651 107.055C108.069 107.055 106.791 106.01 106.791 104.719V88.376C106.791 87.0837 108.069 86.04 109.651 86.04C111.233 86.04 112.511 87.0837 112.511 88.376V104.719C112.511 106.01 111.233 107.055 109.651 107.055Z" fill="black"/>
<path d="M269.801 107.055C268.219 107.055 266.941 106.008 266.941 104.719L266.947 88.376C266.947 87.0837 268.229 86.04 269.807 86.04C271.389 86.04 272.667 87.0871 272.667 88.376L272.661 104.719C272.661 106.01 271.379 107.055 269.801 107.055Z" fill="black"/>
<path d="M181.101 83.7042H118.231C116.649 83.7042 115.371 82.6606 115.371 81.3682C115.371 80.0759 116.649 79.0322 118.231 79.0322H181.101C182.684 79.0322 183.961 80.0759 183.961 81.3682C183.961 82.6606 182.684 83.7042 181.101 83.7042Z" fill="black"/>
<path d="M261.228 83.7042H198.26C196.679 83.7042 195.4 82.6606 195.4 81.3682C195.4 80.0759 196.679 79.0322 198.26 79.0322H261.228C262.811 79.0322 264.088 80.0759 264.088 81.3682C264.088 82.6606 262.811 83.7042 261.228 83.7042Z" fill="black"/>
<path d="M189.725 128.06C188.143 128.06 186.865 127.016 186.865 125.724V88.376C186.865 87.0837 188.143 86.04 189.725 86.04C191.307 86.04 192.585 87.0837 192.585 88.376V125.724C192.585 127.016 191.307 128.06 189.725 128.06Z" fill="black"/>
<path d="M246.911 165.446C245.328 165.446 244.051 164.401 244.051 163.11V153.756C244.051 152.464 245.328 151.42 246.911 151.42C248.491 151.42 249.77 152.464 249.77 153.756V163.11C249.77 164.401 248.491 165.446 246.911 165.446Z" fill="black"/>
<path d="M261.224 165.446H246.911C245.328 165.446 244.051 164.401 244.051 163.11C244.051 161.817 245.328 160.774 246.911 160.774H261.224C262.806 160.774 264.084 161.817 264.084 163.11C264.084 164.401 262.806 165.446 261.224 165.446Z" fill="black"/>
<path d="M132.54 165.446C130.959 165.446 129.68 164.401 129.68 163.11V153.756C129.68 152.464 130.959 151.42 132.54 151.42C134.122 151.42 135.399 152.464 135.399 153.756V163.11C135.399 164.401 134.122 165.446 132.54 165.446Z" fill="black"/>
<path d="M132.538 165.446H118.225C116.643 165.446 115.365 164.401 115.365 163.11C115.365 161.817 116.643 160.774 118.225 160.774H132.538C134.12 160.774 135.398 161.817 135.398 163.11C135.398 164.401 134.12 165.446 132.538 165.446Z" fill="black"/>
</g>
<path d="M400.908 20.1218H321.722C319.512 20.1246 317.393 21.0993 315.831 22.832C314.268 24.5648 313.389 26.9141 313.387 29.3646V144.9C313.389 146.948 314.004 148.938 315.135 150.558C316.266 152.178 317.85 153.336 319.638 153.851V161.075C319.638 161.687 319.858 162.275 320.249 162.709C320.639 163.142 321.169 163.385 321.722 163.385H327.974C328.438 163.385 328.89 163.213 329.256 162.896C329.622 162.579 329.882 162.135 329.995 161.635L331.686 154.143H390.945L392.636 161.635C392.748 162.135 393.008 162.579 393.375 162.896C393.741 163.213 394.192 163.385 394.657 163.385H400.908C401.461 163.385 401.991 163.142 402.382 162.709C402.773 162.275 402.992 161.687 402.992 161.075V153.851C404.78 153.336 406.364 152.178 407.495 150.558C408.627 148.938 409.242 146.948 409.244 144.9V29.3646C409.241 26.9141 408.362 24.5648 406.8 22.832C405.237 21.0993 403.118 20.1246 400.908 20.1218ZM326.346 158.764H323.806V154.143H327.388L326.346 158.764ZM398.825 158.764H396.285L395.243 154.143H398.825V158.764ZM405.076 144.9C405.075 146.125 404.635 147.299 403.854 148.166C403.073 149.032 402.013 149.52 400.908 149.521H321.722C320.617 149.52 319.558 149.032 318.777 148.166C317.995 147.299 317.556 146.125 317.554 144.9V29.3646C317.556 28.1395 317.995 26.9649 318.777 26.0986C319.558 25.2322 320.617 24.7448 321.722 24.7432H400.908C402.013 24.7448 403.073 25.2322 403.854 26.0986C404.635 26.9649 405.075 28.1395 405.076 29.3646V144.9Z" fill="black"/>
<path d="M398.825 29.3647H323.807C323.254 29.3647 322.724 29.6082 322.333 30.0415C321.942 30.4749 321.723 31.0626 321.723 31.6754V142.589C321.723 143.202 321.942 143.79 322.333 144.223C322.724 144.656 323.254 144.9 323.807 144.9H398.825C399.378 144.9 399.908 144.656 400.299 144.223C400.689 143.79 400.909 143.202 400.909 142.589V31.6754C400.909 31.0626 400.689 30.4749 400.299 30.0415C399.908 29.6082 399.378 29.3647 398.825 29.3647ZM359.232 140.278H325.89V33.9862H359.232V140.278ZM396.741 140.278H363.4V33.9862H396.741V140.278Z" fill="black"/>
<path d="M350.896 80.2C349.66 80.2 348.451 80.6065 347.423 81.3682C346.395 82.1299 345.594 83.2126 345.12 84.4793C344.647 85.7459 344.523 87.1398 344.765 88.4845C345.006 89.8292 345.601 91.0643 346.476 92.0338C347.35 93.0033 348.464 93.6635 349.676 93.931C350.889 94.1985 352.146 94.0612 353.288 93.5365C354.431 93.0118 355.407 92.1233 356.094 90.9833C356.781 89.8434 357.148 88.5031 357.148 87.1321C357.146 85.2942 356.487 83.5322 355.315 82.2326C354.143 80.933 352.554 80.202 350.896 80.2ZM350.896 89.4428C350.484 89.4428 350.081 89.3073 349.738 89.0533C349.396 88.7994 349.129 88.4386 348.971 88.0163C348.813 87.5941 348.772 87.1295 348.852 86.6813C348.933 86.233 349.131 85.8213 349.423 85.4981C349.714 85.175 350.085 84.9549 350.49 84.8658C350.894 84.7766 351.313 84.8224 351.694 84.9973C352.074 85.1721 352.4 85.4683 352.629 85.8483C352.858 86.2283 352.98 86.6751 352.98 87.1321C352.979 87.7447 352.76 88.332 352.369 88.7652C351.978 89.1984 351.449 89.4421 350.896 89.4428Z" fill="black"/>
<path d="M371.736 94.0642C372.972 94.0642 374.181 93.6576 375.209 92.8959C376.237 92.1342 377.038 91.0516 377.512 89.7849C377.985 88.5182 378.109 87.1244 377.867 85.7797C377.626 84.435 377.031 83.1998 376.156 82.2303C375.282 81.2609 374.168 80.6006 372.956 80.3332C371.743 80.0657 370.486 80.203 369.344 80.7276C368.201 81.2523 367.225 82.1408 366.538 83.2808C365.851 84.4208 365.484 85.761 365.484 87.1321C365.486 88.97 366.145 90.732 367.317 92.0315C368.489 93.3311 370.078 94.0621 371.736 94.0642ZM371.736 84.8214C372.148 84.8214 372.551 84.9569 372.894 85.2108C373.236 85.4647 373.503 85.8256 373.661 86.2478C373.819 86.67 373.86 87.1346 373.78 87.5829C373.699 88.0311 373.501 88.4428 373.209 88.766C372.918 89.0891 372.547 89.3092 372.142 89.3984C371.738 89.4875 371.319 89.4418 370.938 89.2669C370.558 89.092 370.232 88.7958 370.003 88.4158C369.774 88.0358 369.652 87.5891 369.652 87.1321C369.653 86.5194 369.872 85.9321 370.263 85.4989C370.654 85.0657 371.183 84.8221 371.736 84.8214Z" fill="black"/>
<defs>
<clipPath id="clip0">
<rect width="183.03" height="149.504" fill="white" transform="translate(98.2109 47.4961)"/>
</clipPath>
</defs>
</svg>
