<svg width="23" height="24" viewBox="0 0 23 24" fill="none" xmlns="http://www.w3.org/2000/svg">
<path d="M11.5 0C5.15865 0 0 5.38293 0 12C0 18.6171 5.15865 24 11.5 24C17.8414 24 23 18.6171 23 12C23 5.38293 17.8414 0 11.5 0Z" fill="#84AF07"/>
<path d="M17.329 9.45703L11.0998 15.9569C10.9129 16.1519 10.6676 16.2501 10.4223 16.2501C10.177 16.2501 9.93164 16.1519 9.74476 15.9569L6.63023 12.707C6.25542 12.316 6.25542 11.684 6.63023 11.293C7.00488 10.9019 7.61044 10.9019 7.98526 11.293L10.4223 13.836L15.974 8.04309C16.3486 7.65198 16.9542 7.65198 17.329 8.04309C17.7037 8.43402 17.7037 9.06592 17.329 9.45703Z" fill="#FAFAFA"/>
</svg>
