<svg width="250" height="217" viewBox="0 0 250 217" fill="none" xmlns="http://www.w3.org/2000/svg">
<ellipse cx="125" cy="108.5" rx="125" ry="108.5" fill="#FD9E9E"/>
<g clip-path="url(#clip0)">
<path d="M174.971 78.4785V152.447H164.439L161.806 140.951L154.725 152.447H95.9949L88.9137 140.951L86.2805 152.447H75.748V78.4785C75.748 55.1289 97.9612 36.1973 125.358 36.1973C152.758 36.1973 174.971 55.1289 174.971 78.4785Z" fill="#61A2F9"/>
<path d="M113.488 78.4785V136.08L122.73 152.447H95.9949L88.9137 140.951L86.2805 152.447H75.748V78.4785C75.748 55.1289 97.9612 36.1973 125.358 36.1973C132.041 36.1973 138.414 37.3223 144.23 39.3643C126.19 45.6924 113.488 60.8213 113.488 78.4785Z" fill="#5490F9"/>
<path d="M168.53 181.803H81.4238C88.4951 171.616 100.343 164.123 114.342 161.57V145.863H135.612V161.57C149.61 164.123 161.459 171.616 168.53 181.803Z" fill="#FFDDCE"/>
<path d="M120.482 145.861V161.57C114.566 164.122 109.561 171.616 106.574 181.803H81.4219C88.4928 171.616 100.342 164.122 114.339 161.57V145.861H120.482Z" fill="#FFCBBE"/>
<path d="M77.7033 125.406C85.2239 125.406 91.3206 120.21 91.3206 113.8C91.3206 107.391 85.2239 102.195 77.7033 102.195C70.1826 102.195 64.0859 107.391 64.0859 113.8C64.0859 120.21 70.1826 125.406 77.7033 125.406Z" fill="#FFCBBE"/>
<path d="M172.25 125.406C179.771 125.406 185.867 120.21 185.867 113.8C185.867 107.391 179.771 102.195 172.25 102.195C164.729 102.195 158.633 107.391 158.633 113.8C158.633 120.21 164.729 125.406 172.25 125.406Z" fill="#FFCBBE"/>
<path d="M165.43 99.2207V114.73C165.43 129.936 152.897 142.647 136.153 145.765C133.578 146.248 130.9 146.5 128.154 146.5H121.801C101.214 146.5 84.5215 132.276 84.5215 114.73V99.2207H96.869L104.187 79.3779L106.872 85.5098L112.874 99.2207H137.077L145.764 79.3779L153.082 99.2207H165.43Z" fill="#FFDDCE"/>
<path d="M136.153 145.765C133.578 146.248 130.9 146.5 128.154 146.5H121.801C101.214 146.5 84.5215 132.276 84.5215 114.73V99.2207H96.869L104.187 79.3779L106.872 85.5098V114.73C106.872 129.936 119.409 142.647 136.153 145.765Z" fill="#FFCBBE"/>
<path d="M113.773 172.256C107.586 172.256 102.57 176.531 102.57 181.803H124.975C124.975 176.531 119.96 172.256 113.773 172.256Z" fill="#365E7D"/>
<path d="M117.774 172.882C113.563 174.256 110.573 177.73 110.573 181.803H102.57C102.57 176.529 107.586 172.255 113.773 172.255C115.183 172.255 116.533 172.478 117.774 172.882Z" fill="#2B4D66"/>
<path d="M136.177 172.255C129.99 172.255 124.975 176.53 124.975 181.803H147.38C147.38 176.53 142.364 172.255 136.177 172.255Z" fill="#365E7D"/>
<path d="M140.179 172.882C135.968 174.256 132.977 177.73 132.977 181.803H124.975C124.975 176.529 129.99 172.255 136.177 172.255C137.587 172.255 138.938 172.478 140.179 172.882Z" fill="#2B4D66"/>
<path d="M188.444 113.799C188.444 107.771 183.884 102.636 177.551 100.76V78.4785C177.551 53.9529 154.138 34 125.359 34C96.5826 34 73.1711 53.9529 73.1711 78.4785V100.556C66.9032 102.134 62.1161 106.888 61.5634 112.659C61.4475 113.869 62.5039 114.929 63.9232 115.028C63.9947 115.033 64.0655 115.035 64.1357 115.035C65.4646 115.035 66.5924 114.165 66.7024 113.017C67.1658 108.18 71.9982 104.392 77.7042 104.392C79.162 104.392 80.604 104.638 81.9426 105.11V110.023C80.911 109.665 79.7722 109.427 78.5329 109.321C75.9696 109.102 73.8727 109.519 73.6421 109.567C72.2592 109.856 71.4135 111.046 71.7528 112.224C72.0921 113.403 73.487 114.124 74.871 113.835C74.8851 113.832 76.3391 113.55 78.0173 113.693C79.8234 113.848 81.1162 114.401 81.9522 115.376C82.0028 117.681 82.3245 119.93 82.8907 122.102C81.3039 122.828 79.5391 123.209 77.7038 123.209C74.4141 123.209 71.319 121.97 69.2118 119.811C68.3012 118.879 66.676 118.751 65.5811 119.527C64.4866 120.303 64.3371 121.689 65.2477 122.622C67.3425 124.768 70.1056 126.291 73.1708 127.051V152.447C73.1708 153.661 74.3251 154.645 75.7489 154.645H86.2814C87.5148 154.645 88.5756 153.9 88.8118 152.868L90.04 147.506L93.7129 153.469C94.1584 154.192 95.0374 154.645 95.9958 154.645H111.764V159.83C98.1865 162.793 86.4017 170.317 79.2022 180.684C78.7306 181.363 78.7223 182.206 79.1809 182.891C79.6395 183.577 80.4947 184 81.4208 184H168.527C169.453 184 170.308 183.577 170.767 182.891C171.225 182.206 171.218 181.363 170.746 180.684C163.55 170.318 151.766 162.794 138.187 159.83V154.645H154.725C155.683 154.645 156.562 154.192 157.008 153.469L160.681 147.505L161.909 152.868C162.146 153.9 163.206 154.644 164.439 154.644H174.972C176.397 154.644 177.55 153.66 177.55 152.447V126.839C183.884 124.963 188.444 119.828 188.444 113.799ZM78.3274 100.015V78.4785C78.3274 56.3761 99.4257 38.3945 125.359 38.3945C151.294 38.3945 172.395 56.3761 172.395 78.4785V100C172.346 99.9997 172.298 99.9968 172.249 99.9968C170.811 99.9968 169.384 100.161 168.007 100.479V99.2207C168.007 98.0072 166.853 97.0234 165.429 97.0234H154.973L154.248 95.0603C153.821 93.9027 152.375 93.2594 151.015 93.6238C149.657 93.988 148.903 95.2217 149.33 96.3792L150.622 99.8802C150.96 100.795 151.956 101.418 153.082 101.418H162.851V114.73C162.851 121.516 160.088 128.143 155.071 133.393C150.122 138.571 143.208 142.202 135.597 143.619C133.181 144.073 130.676 144.303 128.153 144.303H121.801C102.666 144.303 87.0992 131.037 87.0992 114.73V101.418H96.8686C97.9947 101.418 98.9902 100.795 99.3281 99.8796L104.396 86.1396L110.458 99.9889C110.834 100.848 111.797 101.418 112.874 101.418H137.077C138.153 101.418 139.116 100.848 139.493 99.9889L145.555 86.1396L146.25 88.0234C146.677 89.1812 148.125 89.824 149.482 89.4604C150.841 89.0966 151.596 87.8629 151.168 86.7054L148.222 78.719C147.892 77.8237 146.931 77.2062 145.831 77.1815C144.722 77.1643 143.733 77.7309 143.347 78.6101L135.287 97.0237H114.663L106.602 78.6101C106.217 77.7309 105.224 77.1587 104.119 77.1818C103.018 77.2064 102.057 77.8243 101.727 78.7196L94.9759 97.024H84.5204C83.0966 97.024 81.9422 98.0078 81.9422 99.2213V100.479C80.7656 100.207 79.5522 100.055 78.3274 100.015ZM97.5543 150.25L91.1974 139.93C90.6886 139.104 89.6237 138.642 88.5412 138.777C87.4584 138.912 86.5935 139.615 86.3842 140.53L84.1577 150.25H78.327V127.593C80.4346 127.526 82.4713 127.114 84.3595 126.385C88.8234 136.767 99.0734 144.79 111.764 147.606V150.25H97.5543ZM105.542 179.605C106.641 176.622 109.916 174.452 113.773 174.452C117.631 174.452 120.905 176.622 122.004 179.605H105.542ZM127.947 179.605C129.046 176.622 132.321 174.452 136.178 174.452C140.036 174.452 143.31 176.622 144.409 179.605H127.947ZM163.744 179.605H149.713C148.502 174.176 142.896 170.058 136.178 170.058C131.566 170.058 127.478 172.001 124.976 174.975C122.473 172.001 118.386 170.058 113.773 170.058C107.056 170.058 101.449 174.176 100.238 179.605H86.2058C93.1406 171.525 103.37 165.817 114.881 163.719C116.07 163.502 116.92 162.607 116.92 161.57V148.442C118.52 148.61 120.148 148.697 121.8 148.697H128.153C129.79 148.697 131.421 148.61 133.031 148.442V161.57C133.031 162.607 133.881 163.502 135.071 163.719C146.582 165.817 156.811 171.525 163.744 179.605ZM172.395 150.25H166.564L164.337 140.53C164.127 139.615 163.262 138.912 162.18 138.777C161.099 138.643 160.033 139.104 159.524 139.93L153.168 150.25H138.188V147.606C146.34 145.801 153.71 141.775 159.068 136.168C161.879 133.228 164.068 129.91 165.579 126.379C167.658 127.183 169.916 127.602 172.249 127.602C172.298 127.602 172.346 127.599 172.395 127.599V150.25ZM172.249 123.208C170.411 123.208 168.642 122.825 167.051 122.097C167.624 119.903 167.938 117.656 167.99 115.39C168.807 114.429 170.062 113.876 171.813 113.705C173.539 113.537 175.046 113.828 175.093 113.837C176.473 114.119 177.863 113.4 178.201 112.224C178.54 111.046 177.695 109.856 176.312 109.567C176.081 109.519 173.984 109.102 171.421 109.321C170.18 109.427 169.04 109.666 168.007 110.025V105.113C169.344 104.639 170.788 104.391 172.248 104.391C178.335 104.391 183.287 108.612 183.287 113.799C183.287 118.987 178.336 123.208 172.249 123.208Z" fill="black"/>
<path d="M105.763 103.615C104.787 103.615 103.886 103.983 103.147 104.6L101.442 103.566C100.282 102.863 98.672 103.094 97.8466 104.083C97.0213 105.072 97.2929 106.444 98.453 107.147L101.254 108.845C101.254 108.858 101.252 108.87 101.252 108.883C101.252 111.787 103.275 114.15 105.763 114.15C108.25 114.15 110.274 111.787 110.274 108.883C110.274 105.978 108.25 103.615 105.763 103.615Z" fill="black"/>
<path d="M146.809 104.6C146.07 103.982 145.168 103.615 144.192 103.615C141.705 103.615 139.682 105.978 139.682 108.882C139.682 111.787 141.705 114.149 144.192 114.149C146.68 114.149 148.703 111.787 148.703 108.882C148.703 108.87 148.702 108.857 148.702 108.845L151.502 107.147C152.662 106.443 152.934 105.072 152.109 104.082C151.284 103.094 149.674 102.862 148.513 103.566L146.809 104.6Z" fill="black"/>
<path d="M133.634 116.438C132.27 116.093 130.834 116.756 130.429 117.919C129.72 119.955 127.478 121.377 124.977 121.377C122.479 121.377 120.237 119.954 119.524 117.917C119.117 116.754 117.681 116.092 116.317 116.439C114.952 116.786 114.176 118.01 114.583 119.173C115.942 123.058 120.216 125.771 124.977 125.771C129.744 125.771 134.018 123.057 135.372 119.171C135.778 118.007 134.999 116.784 133.634 116.438Z" fill="black"/>
</g>
<defs>
<clipPath id="clip0">
<rect width="176" height="150" fill="white" transform="translate(37 34)"/>
</clipPath>
</defs>
</svg>
