<svg width="190" height="160" viewBox="0 0 190 160" fill="none" xmlns="http://www.w3.org/2000/svg">
<path d="M95 160C147.467 160 190 124.183 190 80C190 35.8172 147.467 0 95 0C42.5329 0 0 35.8172 0 80C0 124.183 42.5329 160 95 160Z" fill="#FFB3C9"/>
<path d="M95.0001 146.207C138.421 146.207 173.621 116.565 173.621 79.9999C173.621 43.4349 138.421 13.7931 95.0001 13.7931C51.5791 13.7931 16.3794 43.4349 16.3794 79.9999C16.3794 116.565 51.5791 146.207 95.0001 146.207Z" fill="#FFB3C9"/>
<g clip-path="url(#clip0)">
<path d="M138.511 41.2368H51.4868V122.839H138.511V41.2368Z" fill="#C7ABBD"/>
<path d="M138.512 41.2368H127.637V122.839H138.512V41.2368Z" fill="#C7ABBD"/>
<path d="M105.261 123.742H84.7368V92.9244C84.7368 92.3164 85.3504 91.8235 86.1074 91.8235H103.891C104.648 91.8235 105.261 92.3164 105.261 92.9244V123.742Z" fill="#FFB125"/>
<path d="M140.795 84.184H49.2023C47.7697 84.184 46.6084 83.2512 46.6084 82.1004C46.6084 80.9497 47.7697 80.0168 49.2023 80.0168H140.795C142.228 80.0168 143.389 80.9497 143.389 82.1004C143.389 83.2512 142.228 84.184 140.795 84.184Z" fill="#FFB125"/>
<path d="M67.1402 119.793C67.0764 116.899 64.3263 114.532 60.807 114.235C59.1739 112.138 56.2754 110.743 52.9696 110.743C47.8661 110.743 43.729 114.066 43.729 118.165C43.729 118.725 43.8085 119.269 43.9545 119.793H67.1402V119.793Z" fill="#B6FA4D"/>
<path d="M116.565 119.793C116.716 117.311 119.267 115.337 122.393 115.337C122.817 115.337 123.23 115.375 123.628 115.444C124.853 112.887 127.939 111.071 131.554 111.071C134.092 111.071 136.368 111.966 137.924 113.383C138.326 113.326 138.739 113.295 139.162 113.295C143.087 113.295 146.269 115.851 146.269 119.003C146.269 119.271 146.244 119.534 146.199 119.793H116.565Z" fill="#B6FA4D"/>
<path d="M75.3611 107.518H60.9346V94.406C60.9346 94.104 61.2393 93.859 61.6156 93.859H74.6803C75.0564 93.859 75.3614 94.104 75.3614 94.406V107.518H75.3611Z" fill="white"/>
<path d="M129.063 107.518H114.637V94.406C114.637 94.104 114.942 93.859 115.318 93.859H128.382C128.759 93.859 129.064 94.104 129.064 94.406L129.063 107.518Z" fill="white"/>
<path d="M75.504 72.024H59.6133V57.8012C59.6133 57.4683 59.9491 57.1986 60.3634 57.1986H74.7541C75.1684 57.1986 75.5042 57.4683 75.5042 57.8012L75.504 72.024Z" fill="white"/>
<path d="M102.944 72.024H87.0532V57.8012C87.0532 57.4683 87.389 57.1986 87.8034 57.1986H102.194C102.608 57.1986 102.944 57.4683 102.944 57.8012L102.944 72.024Z" fill="white"/>
<path d="M130.384 72.024H114.493V57.8012C114.493 57.4683 114.829 57.1986 115.243 57.1986H129.634C130.048 57.1986 130.384 57.4683 130.384 57.8012L130.384 72.024Z" fill="white"/>
<path d="M137.868 29.8722H52.1296C51.4159 29.8722 50.7923 30.2595 50.6131 30.8144L45.9434 45.2594H144.055L139.385 30.8144C139.205 30.2595 138.582 29.8722 137.868 29.8722Z" fill="#1C2086"/>
<path d="M139.385 30.8144C139.205 30.2595 138.582 29.8722 137.868 29.8722H126.887C127.601 29.8722 128.224 30.2595 128.403 30.8144L130.828 38.3142C131.577 40.6323 129.399 42.8944 126.417 42.8944H46.7078L45.9434 45.2594H133.073H144.055L139.385 30.8144Z" fill="#4F52B0"/>
<path d="M116.644 49.2848L99.7589 28.9709C98.6948 27.6905 96.9152 26.9263 94.9987 26.9263C93.0822 26.9263 91.3026 27.6906 90.2385 28.9709L73.3535 49.285L116.644 49.2848Z" fill="#2D5872"/>
<path d="M93.9107 31.1809L79.9443 47.9837H110.053L96.0862 31.1809C95.5686 30.5579 94.4286 30.5579 93.9107 31.1809Z" fill="#E6E6E6"/>
<path d="M142.657 49.285H47.3411C46.5691 49.285 45.9434 48.7823 45.9434 48.1623V45.2598H144.055V48.1623C144.054 48.7823 143.429 49.285 142.657 49.285Z" fill="#2D5872"/>
<path d="M148.687 118.658H41.3097C39.5427 118.658 38.1104 119.809 38.1104 121.228C38.1104 122.647 39.5427 123.798 41.3097 123.798H148.688C150.455 123.798 151.887 122.647 151.887 121.228C151.887 119.809 150.455 118.658 148.687 118.658Z" fill="#77DD00"/>
<path d="M151.853 121.584C151.873 121.467 151.887 121.349 151.887 121.228C151.887 121.097 151.871 120.97 151.847 120.844V120.838C151.843 120.82 151.837 120.802 151.833 120.783C151.815 120.703 151.794 120.625 151.767 120.547C151.748 120.491 151.728 120.435 151.705 120.38C151.691 120.35 151.676 120.321 151.661 120.291C151.634 120.236 151.606 120.182 151.574 120.129C151.567 120.117 151.563 120.104 151.555 120.093C151.555 120.093 151.554 120.094 151.554 120.095C151.033 119.245 149.948 118.658 148.688 118.658H140.996L140.999 119.082C141.011 120.43 139.654 121.527 137.975 121.527H41.3098C40.0508 121.527 38.9649 120.942 38.4427 120.093C38.1794 120.521 38.0552 121.014 38.1336 121.537C38.3285 122.841 39.7606 123.798 41.3949 123.798H141.039H148.688C148.794 123.798 148.898 123.793 149.002 123.785C149.037 123.783 149.071 123.777 149.107 123.774C149.174 123.767 149.24 123.759 149.306 123.749C149.348 123.742 149.39 123.733 149.431 123.726C149.488 123.715 149.544 123.704 149.6 123.691C149.645 123.68 149.688 123.667 149.732 123.655C149.782 123.641 149.832 123.627 149.881 123.611C149.927 123.596 149.972 123.58 150.017 123.563C150.061 123.547 150.104 123.531 150.147 123.513C150.194 123.494 150.241 123.473 150.287 123.451C150.324 123.434 150.36 123.416 150.396 123.398C150.445 123.373 150.493 123.348 150.54 123.321C150.57 123.304 150.598 123.286 150.627 123.269C150.677 123.237 150.727 123.206 150.776 123.172C150.796 123.158 150.816 123.143 150.836 123.128C150.889 123.089 150.942 123.05 150.992 123.008C151.001 123.001 151.009 122.993 151.017 122.986C151.46 122.608 151.76 122.123 151.853 121.584C151.853 121.584 151.853 121.584 151.853 121.584Z" fill="#6EC102"/>
<path d="M143.374 81.8791C143.373 81.8684 143.37 81.8582 143.368 81.8475C143.359 81.7844 143.347 81.7219 143.33 81.6606C143.329 81.6557 143.327 81.6512 143.326 81.6464C143.287 81.5081 143.232 81.3753 143.161 81.2489C142.756 80.5231 141.85 80.0167 140.795 80.0167H132.557V80.1088C132.557 81.4189 131.235 82.481 129.604 82.481H49.2023C48.1477 82.481 47.2419 81.9747 46.8365 81.2489C46.6911 81.5091 46.6084 81.7967 46.6084 82.1003C46.6084 83.2511 47.7697 84.1839 49.2023 84.1839H140.795C142.228 84.1839 143.389 83.2511 143.389 82.1003C143.389 82.0257 143.384 81.9519 143.374 81.8791Z" fill="#FF901D"/>
<path d="M74.7544 57.1986H67.5591V72.0238H75.5046V57.801C75.5043 57.4685 75.1685 57.1986 74.7544 57.1986Z" fill="#E6E6E6"/>
<path d="M102.261 57.1986H95.0659V72.0238H103.011V57.801C103.011 57.4685 102.676 57.1986 102.261 57.1986Z" fill="#E6E6E6"/>
<path d="M129.634 57.1986H122.439V72.0238H130.384V57.801C130.384 57.4685 130.049 57.1986 129.634 57.1986Z" fill="#E6E6E6"/>
<path d="M128.383 93.859H121.85V107.518H129.063V94.4059C129.064 94.1038 128.759 93.859 128.383 93.859Z" fill="#E6E6E6"/>
<path d="M74.6802 93.859H68.1479V107.518H75.3612V94.4059C75.3612 94.1038 75.0562 93.859 74.6802 93.859Z" fill="#E6E6E6"/>
<path d="M148.688 117.239H147.759C146.867 114.428 143.898 112.301 140.277 111.934V85.6032H140.795C143.2 85.6032 145.156 84.032 145.156 82.1005C145.156 80.1692 143.2 78.598 140.795 78.598H140.277V50.7038H142.657C144.402 50.7038 145.821 49.5635 145.821 48.162V45.2595C145.821 45.253 145.82 45.2468 145.82 45.2404C145.82 45.2213 145.818 45.2022 145.816 45.1831C145.814 45.1498 145.811 45.1165 145.806 45.0838C145.803 45.0665 145.8 45.0493 145.796 45.032C145.789 44.9964 145.78 44.9611 145.77 44.9265C145.768 44.9187 145.767 44.9107 145.764 44.9029L141.094 30.4576C140.713 29.2775 139.386 28.4531 137.868 28.4531H125.963C124.987 28.4531 124.196 29.0884 124.196 29.8722C124.196 30.6561 124.987 31.2913 125.963 31.2913H137.714L141.771 43.8407H114.243L103.812 31.2911H114.932C115.908 31.2911 116.699 30.6559 116.699 29.872C116.699 29.0882 115.908 28.4529 114.932 28.4529H101.453L101.228 28.1828C99.836 26.5076 97.5071 25.5072 94.9989 25.5072C92.4908 25.5072 90.1621 26.5074 88.7695 28.1828L88.5448 28.4531H52.1297C50.6118 28.4531 49.2851 29.2773 48.9035 30.4576L44.2335 44.9029C44.231 44.9107 44.2301 44.9187 44.2276 44.9265C44.2172 44.9611 44.2085 44.9964 44.2015 45.032C44.1981 45.0493 44.1942 45.0665 44.1915 45.0838C44.1864 45.1165 44.1835 45.1496 44.1813 45.1831C44.1801 45.2022 44.1779 45.2213 44.1777 45.2404C44.1777 45.2468 44.1765 45.253 44.1765 45.2595V48.162C44.1765 49.5635 45.596 50.7038 47.3409 50.7038H49.7205V78.5978H49.2022C46.7978 78.5978 44.8418 80.169 44.8418 82.1003C44.8418 84.0316 46.7978 85.603 49.2022 85.603H49.7205V94.6968C49.7205 95.4805 50.5114 96.1159 51.4872 96.1159C52.4631 96.1159 53.2539 95.4807 53.2539 94.6968V85.603H136.744V110.786C136.731 110.779 136.717 110.774 136.703 110.768C136.53 110.687 136.354 110.61 136.175 110.538C136.14 110.523 136.105 110.511 136.07 110.497C135.921 110.438 135.771 110.382 135.618 110.329C135.567 110.312 135.515 110.294 135.463 110.276C135.287 110.218 135.11 110.163 134.929 110.112C134.919 110.109 134.908 110.106 134.898 110.103C134.708 110.05 134.515 110.003 134.321 109.959C134.268 109.947 134.214 109.936 134.161 109.925C134.006 109.892 133.849 109.862 133.691 109.835C133.645 109.827 133.6 109.818 133.554 109.811C133.357 109.779 133.159 109.753 132.96 109.73C132.917 109.726 132.873 109.722 132.83 109.718C132.667 109.702 132.504 109.688 132.339 109.678C132.283 109.675 132.226 109.671 132.169 109.668C131.965 109.658 131.761 109.652 131.555 109.652C127.81 109.652 124.355 111.328 122.57 113.92C122.364 113.916 122.161 113.92 121.96 113.929C121.912 113.931 121.866 113.935 121.819 113.938C121.664 113.947 121.511 113.959 121.359 113.975C121.304 113.981 121.248 113.989 121.193 113.996C121.051 114.014 120.91 114.034 120.77 114.058C120.714 114.068 120.658 114.078 120.601 114.089C120.463 114.116 120.326 114.145 120.19 114.178C120.138 114.191 120.085 114.203 120.033 114.217C119.89 114.254 119.75 114.295 119.611 114.338C119.569 114.351 119.527 114.363 119.486 114.377C119.315 114.433 119.147 114.494 118.982 114.56C118.975 114.563 118.968 114.565 118.961 114.568C118.783 114.64 118.61 114.717 118.44 114.799C118.424 114.807 118.409 114.816 118.393 114.824C118.247 114.896 118.105 114.972 117.966 115.052C117.921 115.078 117.878 115.105 117.835 115.131C117.726 115.197 117.619 115.263 117.515 115.333C117.466 115.367 117.417 115.401 117.368 115.436C117.273 115.503 117.18 115.572 117.089 115.643C117.041 115.681 116.992 115.72 116.945 115.759C116.856 115.832 116.771 115.908 116.687 115.985C116.644 116.024 116.6 116.063 116.558 116.104C116.469 116.19 116.384 116.279 116.301 116.368C116.269 116.403 116.235 116.436 116.205 116.471C115.99 116.713 115.795 116.969 115.625 117.239H107.028V92.9244C107.028 91.5349 105.621 90.4046 103.891 90.4046H86.1079C84.3781 90.4046 82.9709 91.5351 82.9709 92.9244V117.239H68.2692C68.2236 117.148 68.1724 117.059 68.1225 116.97C68.1012 116.932 68.0822 116.893 68.0604 116.856C67.9748 116.71 67.8839 116.567 67.7869 116.427C67.7688 116.4 67.7482 116.376 67.7297 116.349C67.6495 116.237 67.5666 116.126 67.479 116.018C67.4424 115.973 67.4036 115.929 67.3658 115.884C67.2919 115.797 67.2165 115.711 67.1379 115.627C67.0935 115.579 67.0477 115.532 67.0017 115.486C66.9241 115.407 66.845 115.329 66.7636 115.253C66.7146 115.208 66.6654 115.162 66.6152 115.118C66.5299 115.042 66.4421 114.969 66.3531 114.896C66.3034 114.856 66.2544 114.815 66.2038 114.775C66.1022 114.697 65.9972 114.621 65.891 114.546C65.8493 114.517 65.8093 114.486 65.7671 114.457C65.6163 114.355 65.4619 114.257 65.3031 114.163C65.2868 114.153 65.2699 114.145 65.2536 114.135C65.1111 114.052 64.9656 113.973 64.817 113.897C64.7624 113.869 64.7059 113.843 64.6507 113.816C64.5374 113.761 64.4232 113.707 64.3069 113.655C64.2414 113.627 64.1747 113.6 64.1083 113.572C63.9977 113.527 63.8862 113.482 63.773 113.44C63.7027 113.414 63.6321 113.389 63.5609 113.364C63.4462 113.325 63.3298 113.288 63.2127 113.252C63.1421 113.23 63.0723 113.208 63.001 113.188C62.873 113.152 62.7428 113.12 62.6122 113.088C62.5501 113.073 62.489 113.057 62.4264 113.043C62.2325 113 62.0366 112.961 61.8378 112.928C61.71 112.788 61.5774 112.652 61.4409 112.52C61.3941 112.474 61.3444 112.432 61.2966 112.387C61.205 112.301 61.1138 112.215 61.0186 112.133C60.9589 112.081 60.8961 112.032 60.835 111.982C60.7477 111.91 60.6614 111.837 60.5715 111.768C60.5043 111.716 60.4343 111.668 60.3656 111.618C60.2779 111.553 60.1913 111.488 60.1011 111.427C60.0282 111.377 59.9523 111.33 59.8778 111.281C59.7886 111.223 59.7004 111.164 59.6092 111.109C59.5311 111.061 59.4506 111.017 59.3714 110.971C59.2802 110.918 59.1898 110.865 59.0967 110.815C59.0145 110.771 58.9301 110.729 58.8467 110.687C58.7529 110.639 58.6598 110.591 58.5645 110.546C58.4789 110.505 58.3912 110.468 58.3041 110.429C58.2079 110.386 58.1121 110.342 58.0141 110.302C57.9249 110.265 57.8343 110.231 57.7438 110.196C57.6454 110.158 57.5472 110.119 57.4471 110.084C57.3549 110.051 57.2616 110.021 57.1683 109.99C57.0672 109.957 56.9665 109.923 56.864 109.892C56.7697 109.863 56.6739 109.838 56.5784 109.811C56.4749 109.782 56.3713 109.753 56.2666 109.727C56.1701 109.703 56.0724 109.681 55.9747 109.659C55.8687 109.635 55.763 109.611 55.6561 109.59C55.5574 109.57 55.458 109.553 55.3586 109.535C55.2507 109.516 55.1428 109.497 55.0342 109.481C54.9339 109.466 54.8328 109.453 54.7317 109.44C54.6218 109.426 54.5122 109.412 54.4017 109.4C54.2999 109.39 54.1976 109.381 54.0952 109.373C53.9837 109.364 53.8719 109.355 53.7594 109.349C53.6567 109.343 53.5534 109.339 53.4501 109.336C53.3849 109.333 53.3206 109.329 53.2552 109.327V103.514C53.2552 102.73 52.4643 102.095 51.4884 102.095C50.5126 102.095 49.7217 102.73 49.7217 103.514V109.718C45.5873 110.746 42.4874 113.682 42.024 117.239H41.3108C38.5726 117.239 36.3447 119.029 36.3447 121.228C36.3447 123.428 38.5726 125.217 41.3108 125.217H148.689C151.427 125.217 153.655 123.428 153.655 121.228C153.654 119.029 151.426 117.239 148.688 117.239ZM90.9588 30.6602C90.9588 30.66 90.9591 30.66 90.9591 30.66L91.708 29.7589C92.4436 28.8738 93.674 28.3454 94.9989 28.3454C96.3239 28.3454 97.5543 28.8738 98.2899 29.7591L109.995 43.8407H108.734L97.556 30.393C96.9843 29.7053 96.0286 29.2948 94.9992 29.2948C93.9698 29.2948 93.0138 29.7053 92.4423 30.393L81.2643 43.8406H80.0031L82.1313 41.28L90.9588 30.6602ZM104.485 43.8406H85.5127L94.9989 32.4277L104.485 43.8406ZM52.2844 31.2911H86.186L83.7283 34.248L75.7547 43.8406H48.2271L52.2844 31.2911ZM47.7099 47.8658V46.6786H76.6995H82.2091H107.789H113.299H142.288V47.8658H138.511H51.4872H47.7099ZM136.744 50.7038V78.5978H53.2539V50.7038H136.744ZM51.4872 82.7649C51.4865 82.7649 51.4858 82.7649 51.4851 82.7649H49.2024C48.7464 82.7649 48.3752 82.4668 48.3752 82.1003C48.3752 81.734 48.7461 81.4358 49.2024 81.4358H51.4872H138.51H140.795C141.251 81.4358 141.622 81.734 141.622 82.1003C141.622 82.4668 141.252 82.7649 140.795 82.7649H138.513C138.512 82.7649 138.511 82.7649 138.51 82.7649H51.4872ZM120.315 117.212C120.392 117.175 120.47 117.14 120.549 117.107C120.587 117.092 120.626 117.078 120.664 117.064C120.732 117.038 120.801 117.014 120.87 116.992C120.915 116.977 120.96 116.964 121.005 116.951C121.07 116.932 121.137 116.915 121.204 116.898C121.253 116.887 121.302 116.875 121.351 116.865C121.418 116.85 121.486 116.839 121.554 116.828C121.604 116.819 121.653 116.81 121.704 116.803C121.79 116.791 121.878 116.783 121.966 116.776C122.009 116.772 122.051 116.768 122.094 116.766C122.202 116.76 122.312 116.757 122.422 116.757C122.503 116.758 122.586 116.764 122.669 116.768C122.726 116.771 122.782 116.772 122.839 116.777C122.978 116.79 123.117 116.807 123.256 116.832C124.107 116.979 124.964 116.607 125.277 115.954C126.269 113.882 128.792 112.49 131.554 112.49C133.482 112.49 135.32 113.158 136.599 114.322C136.65 114.368 136.704 114.411 136.761 114.451C136.764 114.454 136.768 114.455 136.771 114.458C136.997 114.614 137.266 114.722 137.554 114.771C137.773 114.808 138.002 114.813 138.23 114.781C140.755 114.424 143.07 115.534 144.029 117.239H120.255C120.275 117.229 120.295 117.221 120.315 117.212ZM86.5034 93.2426H103.495V117.239H86.5034V93.2426ZM51.7949 112.238C51.9809 112.214 52.1673 112.196 52.3537 112.183C52.3697 112.182 52.3857 112.181 52.4017 112.18C52.5918 112.169 52.7817 112.162 52.9698 112.162C55.5613 112.162 57.9315 113.218 59.3098 114.987C59.5978 115.357 60.082 115.6 60.6224 115.646C60.7492 115.657 60.8741 115.672 60.9979 115.69C61.0258 115.694 61.0537 115.698 61.0816 115.702C61.2028 115.721 61.3228 115.743 61.4411 115.768C61.4564 115.771 61.4714 115.775 61.487 115.779C61.5946 115.803 61.7006 115.829 61.8053 115.859C61.8293 115.865 61.8535 115.872 61.8775 115.879C61.9908 115.912 62.1023 115.947 62.2119 115.986C62.2332 115.994 62.2543 116.002 62.2756 116.01C62.3733 116.046 62.4696 116.084 62.5642 116.125C62.5821 116.132 62.6 116.139 62.618 116.147C62.7225 116.193 62.8245 116.242 62.9247 116.294C62.9475 116.305 62.97 116.317 62.9926 116.33C63.0866 116.38 63.179 116.431 63.2687 116.486C63.2765 116.491 63.2847 116.495 63.2925 116.5C63.3875 116.558 63.4791 116.62 63.5691 116.684C63.5902 116.699 63.6113 116.714 63.6321 116.729C63.7206 116.793 63.8072 116.859 63.8901 116.929C63.8971 116.935 63.9037 116.941 63.9105 116.947C63.9878 117.012 64.062 117.08 64.1342 117.149C64.1517 117.166 64.1694 117.183 64.1866 117.2C64.1995 117.213 64.2111 117.226 64.2239 117.239H45.5844C46.0809 114.675 48.6058 112.644 51.7949 112.238ZM148.688 122.379H41.3098C40.5197 122.379 39.8769 121.863 39.8769 121.228C39.8769 120.593 40.5197 120.077 41.3098 120.077H43.7517H66.9718H84.7367H105.261H116.811H146.255H148.688C149.478 120.077 150.121 120.593 150.121 121.228C150.121 121.863 149.478 122.379 148.688 122.379Z" fill="black"/>
<path d="M57.0379 73.4431H59.6135H75.5042H78.0799C79.0558 73.4431 79.8466 72.8078 79.8466 72.024C79.8466 71.2403 79.0558 70.6049 78.0799 70.6049H77.2706V57.8011C77.2706 56.6864 76.1416 55.7797 74.754 55.7797H60.3634C58.9756 55.7797 57.8468 56.6866 57.8468 57.8011V70.6049H57.0377C56.0619 70.6049 55.271 71.2401 55.271 72.024C55.2712 72.8076 56.0621 73.4431 57.0379 73.4431ZM61.3802 58.6177H73.7377V70.6051H61.3802V58.6177Z" fill="black"/>
<path d="M84.5445 73.4431H87.1203H103.011H105.587C106.563 73.4431 107.353 72.8078 107.353 72.024C107.353 71.2403 106.563 70.6049 105.587 70.6049H104.777V57.8011C104.777 56.6864 103.648 55.7797 102.261 55.7797H87.8704C86.4827 55.7797 85.3538 56.6866 85.3538 57.8011V70.6049H84.5445C83.5687 70.6049 82.7778 71.2401 82.7778 72.024C82.7781 72.8076 83.5689 73.4431 84.5445 73.4431ZM88.887 58.6177H101.245V70.6051H88.887V58.6177Z" fill="black"/>
<path d="M111.918 73.4431H114.493H130.384H132.96C133.936 73.4431 134.727 72.8078 134.727 72.024C134.727 71.2403 133.936 70.6049 132.96 70.6049H132.151V57.8011C132.151 56.6864 131.021 55.7797 129.634 55.7797H115.243C113.856 55.7797 112.727 56.6866 112.727 57.8011V70.6049H111.918C110.942 70.6049 110.151 71.2401 110.151 72.024C110.151 72.8076 110.942 73.4431 111.918 73.4431ZM116.26 58.6177H128.617V70.6051H116.26V58.6177Z" fill="black"/>
<path d="M74.6802 92.4399H61.6157C60.2662 92.4399 59.1682 93.3219 59.1682 94.4059V106.099H59.0401C58.0643 106.099 57.2734 106.735 57.2734 107.519C57.2734 108.302 58.0643 108.938 59.0401 108.938H60.9346H75.3612H77.2557C78.2315 108.938 79.0224 108.302 79.0224 107.519C79.0224 106.735 78.2315 106.099 77.2557 106.099H77.1277V94.4059C77.1277 93.3219 76.0296 92.4399 74.6802 92.4399ZM73.5945 106.099H62.7011V95.278H73.5945V106.099Z" fill="black"/>
<path d="M128.382 92.4399H115.318C113.968 92.4399 112.87 93.3219 112.87 94.4059V106.099H112.742C111.766 106.099 110.975 106.735 110.975 107.519C110.975 108.302 111.766 108.938 112.742 108.938H114.636H129.063H130.958C131.933 108.938 132.724 108.302 132.724 107.519C132.724 106.735 131.933 106.099 130.958 106.099H130.83V94.4059C130.83 93.3219 129.732 92.4399 128.382 92.4399ZM127.296 106.099H116.403V95.278H127.296V106.099Z" fill="black"/>
<path d="M99.9806 104.397C99.0047 104.397 98.2139 105.032 98.2139 105.816V108.275C98.2139 109.059 99.0047 109.694 99.9806 109.694C100.956 109.694 101.747 109.059 101.747 108.275V105.816C101.747 105.032 100.956 104.397 99.9806 104.397Z" fill="black"/>
</g>
<defs>
<clipPath id="clip0">
<rect width="124.133" height="99.7101" fill="white" transform="translate(32.9331 25.5072)"/>
</clipPath>
</defs>
</svg>
