<svg width="59" height="55" viewBox="0 0 59 55" fill="none" xmlns="http://www.w3.org/2000/svg">
<g clip-path="url(#clip0)">
<path d="M56.9716 18.0135H56.4085L51.1283 4.76136C50.666 3.60109 49.4634 2.82153 48.1357 2.82153H10.8642C9.53657 2.82153 8.33387 3.60109 7.87154 4.76136L2.59151 18.0135H2.02836C0.909891 18.0135 0 18.8617 0 19.9043V21.4235C0 22.4661 0.909891 23.3143 2.02836 23.3143H2.3282V40.9734C2.3282 41.4183 2.71504 41.7791 3.19245 41.7791C3.66987 41.7791 4.05671 41.4183 4.05671 40.9734V23.3143H17.6267C18.3861 23.3143 19.1001 23.0387 19.6372 22.538L29.5 13.3436L39.363 22.538C39.9 23.0385 40.614 23.3142 41.3734 23.3142H54.9434V25.4502C54.9434 25.8951 55.3302 26.2558 55.8077 26.2558C56.2851 26.2558 56.6719 25.8951 56.6719 25.4502V23.3142H56.9718C58.0901 23.3142 59.0001 22.466 59.0001 21.4234V19.9042C59 18.8617 58.0901 18.0135 56.9716 18.0135V18.0135ZM9.49186 5.32232C9.70389 4.79025 10.2554 4.43286 10.8642 4.43286H48.1357C48.7445 4.43286 49.296 4.79036 49.508 5.32232L54.5646 18.0135H42.5511L31.5104 7.72137C30.9734 7.22078 30.2595 6.94503 29.5 6.94503C28.7405 6.94503 28.0266 7.22067 27.4896 7.72137L16.4489 18.0135H4.43526L9.49186 5.32232ZM57.2715 21.4235C57.2715 21.5776 57.137 21.703 56.9716 21.703H41.3734C41.0756 21.703 40.7956 21.5949 40.5852 21.3986L30.1111 11.6346C29.949 11.4835 29.7292 11.3986 29.4999 11.3986C29.2706 11.3986 29.0509 11.4835 28.8887 11.6346L18.4147 21.3986C18.2042 21.5949 17.9241 21.703 17.6264 21.703H2.02836C1.86299 21.703 1.72852 21.5776 1.72852 21.4235V19.9043C1.72852 19.7502 1.86299 19.6248 2.02836 19.6248H16.8069C17.0361 19.6248 17.2559 19.5399 17.4181 19.3888L28.712 8.86069C28.9224 8.66443 29.2024 8.55636 29.5001 8.55636C29.7979 8.55636 30.0778 8.66443 30.2882 8.86069L41.5821 19.3888C41.7442 19.5399 41.964 19.6248 42.1933 19.6248H56.9719C57.1372 19.6248 57.2717 19.7502 57.2717 19.9043V21.4235H57.2715Z" fill="black"/>
<path d="M51.9663 45.668C52.4437 45.668 52.8306 45.3073 52.8306 44.8623V30.5386C52.8306 30.0936 52.4437 29.7329 51.9663 29.7329H40.3257C39.8483 29.7329 39.4614 30.0936 39.4614 30.5386V44.8623C39.4614 45.3073 39.8483 45.668 40.3257 45.668H51.9663ZM51.1021 40.5842H47.0102V36.7699H51.1021V40.5842ZM45.2817 40.5842H41.1899V36.7699H45.2817V40.5842ZM51.1021 44.0567H41.1899V42.1956H51.1021V44.0567ZM51.1021 35.1585H47.0102V31.3441H51.1021V35.1585ZM45.2817 31.3442V35.1586H41.1899V31.3442H45.2817Z" fill="black"/>
<path d="M18.6743 45.668C19.1517 45.668 19.5386 45.3073 19.5386 44.8623V30.5386C19.5386 30.0936 19.1517 29.7329 18.6743 29.7329H7.03369C6.55628 29.7329 6.16943 30.0936 6.16943 30.5386V44.8623C6.16943 45.3073 6.55628 45.668 7.03369 45.668H18.6743ZM17.8101 40.5842H13.7183V36.7699H17.8101V40.5842ZM11.9898 40.5842H7.89795V36.7699H11.9898V40.5842ZM17.8101 44.0567H7.89795V42.1956H17.8101V44.0567ZM17.8101 35.1585H13.7183V31.3441H17.8101V35.1585ZM11.9898 31.3442V35.1586H7.89795V31.3442H11.9898Z" fill="black"/>
<path d="M32.294 33.2053H26.7065C26.2291 33.2053 25.8423 33.566 25.8423 34.011V37.4834C25.8423 37.9283 26.2291 38.2891 26.7065 38.2891H32.294C32.7715 38.2891 33.1583 37.9283 33.1583 37.4834V34.011C33.1583 33.566 32.7715 33.2053 32.294 33.2053ZM31.4298 36.6777H27.5708V34.8166H31.4298V36.6777Z" fill="black"/>
<path d="M34.0891 23.0513C34.0891 20.6924 32.0304 18.7732 29.4999 18.7732C26.9693 18.7732 24.9106 20.6924 24.9106 23.0513C24.9106 25.4101 26.9693 27.3295 29.4999 27.3295C32.0304 27.3295 34.0891 25.4103 34.0891 23.0513V23.0513ZM26.6392 23.0513C26.6392 21.5809 27.9225 20.3845 29.4999 20.3845C31.0772 20.3845 32.3605 21.5809 32.3605 23.0513C32.3605 24.5217 31.0772 25.7181 29.4999 25.7181C27.9225 25.7181 26.6392 24.5218 26.6392 23.0513V23.0513Z" fill="black"/>
<path d="M58.1357 46.8778H56.6719V29.2188C56.6719 28.7738 56.2851 28.4131 55.8077 28.4131C55.3302 28.4131 54.9434 28.7738 54.9434 29.2188V46.8778H36.883V30.5384C36.883 30.0935 36.4961 29.7328 36.0187 29.7328H22.9813C22.5039 29.7328 22.117 30.0935 22.117 30.5384V46.8778H4.0566V44.7419C4.0566 44.2969 3.66975 43.9362 3.19234 43.9362C2.71492 43.9362 2.32808 44.2969 2.32808 44.7419V46.8778H0.864258C0.386842 46.8778 0 47.2386 0 47.6835V51.373C0 51.818 0.386842 52.1787 0.864258 52.1787H58.1357C58.6132 52.1787 59 51.818 59 51.373V47.6835C59 47.2386 58.6132 46.8778 58.1357 46.8778ZM23.8456 41.0017H25.0767C25.5541 41.0017 25.941 40.641 25.941 40.1961C25.941 39.7511 25.5541 39.3904 25.0767 39.3904H23.8456V31.3441H35.1546V46.8778H23.8456V41.0017ZM57.2715 50.5673H1.72852V48.4892H57.2715V50.5673Z" fill="black"/>
</g>
<defs>
<clipPath id="clip0">
<rect width="59" height="55" fill="white"/>
</clipPath>
</defs>
</svg>
