<svg width="693" height="459" viewBox="0 0 693 459" fill="none" xmlns="http://www.w3.org/2000/svg">
<path d="M158.501 228.46C158.501 231.029 160.582 233.23 163.274 233.23C165.845 233.23 168.048 231.151 168.048 228.46C168.048 225.892 165.967 223.691 163.274 223.691C160.582 223.691 158.501 225.892 158.501 228.46ZM160.827 228.46C160.827 227.115 161.928 226.137 163.152 226.137C164.498 226.137 165.478 227.237 165.478 228.46C165.478 229.806 164.376 230.784 163.152 230.784C161.928 230.784 160.827 229.806 160.827 228.46Z" fill="#FF487E" fill-opacity="0.2"/>
<path d="M79.1887 55.6475H105.871C106.483 55.6475 107.095 56.1367 107.095 56.8705C107.095 57.482 106.605 58.0935 105.871 58.0935H79.1887C78.5768 58.0935 77.9648 57.6043 77.9648 56.8705C77.9648 56.259 78.4544 55.6475 79.1887 55.6475Z" fill="#FF487E" fill-opacity="0.2"/>
<path d="M114.439 55.6475H119.702C120.314 55.6475 120.926 56.1367 120.926 56.8705C120.926 57.482 120.436 58.0935 119.702 58.0935H114.439C113.827 58.0935 113.215 57.6043 113.215 56.8705C113.215 56.259 113.704 55.6475 114.439 55.6475Z" fill="#FF487E" fill-opacity="0.2"/>
<path d="M91.6736 65.0648C91.6736 65.6763 92.1631 66.2878 92.8975 66.2878H96.2021C96.8141 66.2878 97.4261 65.7986 97.4261 65.0648C97.4261 64.4533 96.9365 63.8418 96.2021 63.8418H92.8975C92.2855 63.8418 91.6736 64.331 91.6736 65.0648ZM100.853 65.0648C100.853 65.6763 101.343 66.2878 102.077 66.2878H107.952C108.564 66.2878 109.176 65.7986 109.176 65.0648C109.176 64.4533 108.686 63.8418 107.952 63.8418H102.077C101.465 63.8418 100.853 64.331 100.853 65.0648ZM112.603 65.0648C112.603 65.6763 113.093 66.2878 113.827 66.2878H119.702C120.314 66.2878 120.926 65.7986 120.926 65.0648C120.926 64.4533 120.436 63.8418 119.702 63.8418H113.827C113.093 63.8418 112.603 64.331 112.603 65.0648Z" fill="#FF487E" fill-opacity="0.2"/>
<path d="M512.957 133.799C513.569 133.799 514.181 134.288 514.181 135.022V137.712C514.181 138.324 513.691 138.935 512.957 138.935C512.345 138.935 511.733 138.446 511.733 137.712V135.022C511.855 134.41 512.345 133.799 512.957 133.799Z" fill="#FF487E" fill-opacity="0.2"/>
<path d="M516.017 131.108H518.71C519.322 131.108 519.934 131.597 519.934 132.331C519.934 132.942 519.444 133.554 518.71 133.554H516.017C515.405 133.554 514.793 133.065 514.793 132.331C514.915 131.597 515.405 131.108 516.017 131.108Z" fill="#FF487E" fill-opacity="0.2"/>
<path d="M512.957 125.482C513.569 125.482 514.181 125.971 514.181 126.705V129.396C514.181 130.007 513.691 130.619 512.957 130.619C512.345 130.619 511.733 130.129 511.733 129.396V126.705C511.855 126.093 512.345 125.482 512.957 125.482Z" fill="#FF487E" fill-opacity="0.2"/>
<path d="M507.204 130.986H509.897C510.509 130.986 511.121 131.475 511.121 132.209C511.121 132.82 510.632 133.432 509.897 133.432H507.204C506.593 133.432 505.981 132.942 505.981 132.209C505.981 131.475 506.593 130.986 507.204 130.986Z" fill="#FF487E" fill-opacity="0.2"/>
<path d="M218.719 58.0935C219.331 58.0935 219.943 58.5827 219.943 59.3165V62.0072C219.943 62.6187 219.454 63.2302 218.719 63.2302C218.107 63.2302 217.495 62.741 217.495 62.0072V59.3165C217.618 58.5827 218.107 58.0935 218.719 58.0935Z" fill="#FF487E" fill-opacity="0.2"/>
<path d="M221.78 55.4028H224.472C225.084 55.4028 225.696 55.892 225.696 56.6259C225.696 57.2374 225.207 57.8489 224.472 57.8489H221.78C221.168 57.8489 220.556 57.3597 220.556 56.6259C220.678 55.892 221.168 55.4028 221.78 55.4028Z" fill="#FF487E" fill-opacity="0.2"/>
<path d="M218.719 49.7769C219.331 49.7769 219.943 50.2661 219.943 50.9999V53.6905C219.943 54.302 219.454 54.9135 218.719 54.9135C218.107 54.9135 217.495 54.4243 217.495 53.6905V50.9999C217.618 50.2661 218.107 49.7769 218.719 49.7769Z" fill="#FF487E" fill-opacity="0.2"/>
<path d="M212.967 55.1582H215.66C216.272 55.1582 216.884 55.6474 216.884 56.3812C216.884 56.9927 216.394 57.6043 215.66 57.6043H212.967C212.355 57.6043 211.743 57.115 211.743 56.3812C211.743 55.6474 212.355 55.1582 212.967 55.1582Z" fill="#FF487E" fill-opacity="0.2"/>
<path d="M327.774 0H354.456C355.068 0 355.68 0.489209 355.68 1.22302C355.68 1.83453 355.19 2.44604 354.456 2.44604H327.774C327.162 2.44604 326.55 1.95683 326.55 1.22302C326.672 0.489209 327.162 0 327.774 0Z" fill="#FF487E" fill-opacity="0.2"/>
<path d="M363.023 0H368.286C368.898 0 369.51 0.489209 369.51 1.22302C369.51 1.83453 369.02 2.44604 368.286 2.44604H363.023C362.411 2.44604 361.799 1.95683 361.799 1.22302C361.921 0.489209 362.411 0 363.023 0Z" fill="#FF487E" fill-opacity="0.2"/>
<path d="M340.38 9.29504C340.38 9.90656 340.87 10.5181 341.604 10.5181H344.909C345.521 10.5181 346.133 10.0289 346.133 9.29504C346.133 8.68353 345.643 8.07202 344.909 8.07202H341.604C340.87 8.19432 340.38 8.68353 340.38 9.29504ZM349.56 9.29504C349.56 9.90656 350.05 10.5181 350.784 10.5181H356.659C357.271 10.5181 357.883 10.0289 357.883 9.29504C357.883 8.68353 357.393 8.07202 356.659 8.07202H350.784C350.05 8.19432 349.56 8.68353 349.56 9.29504ZM361.31 9.29504C361.31 9.90656 361.8 10.5181 362.534 10.5181H368.409C369.021 10.5181 369.633 10.0289 369.633 9.29504C369.633 8.68353 369.143 8.07202 368.409 8.07202H362.534C361.8 8.19432 361.31 8.68353 361.31 9.29504Z" fill="#FF487E" fill-opacity="0.2"/>
<path d="M40.3897 122.424C40.3897 124.748 38.5539 126.583 36.2284 126.583C33.9029 126.583 32.0669 124.748 32.0669 122.424C32.0669 120.101 33.9029 118.266 36.2284 118.266C38.5539 118.388 40.3897 120.223 40.3897 122.424Z" fill="#FF487E" fill-opacity="0.2"/>
<path d="M581.865 324.712H555.183C554.571 324.712 553.959 324.223 553.959 323.489C553.959 322.878 554.448 322.266 555.183 322.266H581.865C582.477 322.266 583.089 322.755 583.089 323.489C583.089 324.223 582.477 324.712 581.865 324.712Z" fill="#FF487E" fill-opacity="0.2"/>
<path d="M595.573 324.712H590.31C589.698 324.712 589.086 324.223 589.086 323.489C589.086 322.878 589.576 322.266 590.31 322.266H595.573C596.185 322.266 596.797 322.755 596.797 323.489C596.797 324.223 596.307 324.712 595.573 324.712Z" fill="#FF487E" fill-opacity="0.2"/>
<path d="M76.6192 343.669C76.6192 343.669 75.0281 355.043 88.3691 354.798C88.3691 354.798 76.9864 354.921 77.2312 365.561C77.2312 365.561 76.252 357.122 65.7261 355.288C65.7261 355.41 74.5385 357.367 76.6192 343.669Z" fill="#FF487E" fill-opacity="0.2"/>
<path d="M13.0958 183.086C13.0958 183.086 11.5047 194.461 24.8457 194.216C24.8457 194.216 13.463 194.338 13.7078 204.979C13.7078 204.979 12.7286 196.54 2.20264 194.705C2.20264 194.705 11.0151 196.784 13.0958 183.086Z" fill="#FF487E" fill-opacity="0.2"/>
<path d="M435.236 28.9856C435.236 28.9856 433.645 40.3597 446.986 40.1151C446.986 40.1151 435.604 40.2374 435.848 50.8777C435.848 50.8777 434.869 42.4388 424.343 40.6043C424.343 40.6043 433.156 42.6834 435.236 28.9856Z" fill="#FF487E" fill-opacity="0.2"/>
<path d="M549.798 60.4172C549.798 60.4172 548.207 71.7913 561.548 71.5467C561.548 71.5467 550.165 71.669 550.41 82.3093C550.41 82.3093 549.431 73.8705 538.905 72.0359C538.905 72.0359 547.717 74.1151 549.798 60.4172Z" fill="#FF487E" fill-opacity="0.2"/>
<path d="M480.399 11.741C480.399 11.741 479.787 15.6546 484.438 15.6546C484.438 15.6546 480.399 15.6546 480.522 19.446C480.522 19.446 480.155 16.5108 476.483 15.8992C476.605 15.7769 479.665 16.5108 480.399 11.741Z" fill="#FF487E" fill-opacity="0.2"/>
<path d="M271.961 148.597C271.961 148.597 271.349 152.511 276 152.511C276 152.511 271.961 152.511 272.083 156.302C272.083 156.302 271.716 153.367 268.044 152.755C268.167 152.633 271.227 153.367 271.961 148.597Z" fill="#FF487E" fill-opacity="0.2"/>
<path d="M658.117 216.353C658.117 216.353 657.505 220.266 662.156 220.266C662.156 220.266 658.117 220.266 658.24 224.058C658.24 224.058 657.872 221.122 654.201 220.511C654.323 220.511 657.383 221.122 658.117 216.353Z" fill="#FF487E" fill-opacity="0.2"/>
<path d="M311.617 323.367C311.617 323.367 311.005 327.281 315.656 327.281C315.656 327.281 311.617 327.281 311.74 331.072C311.74 331.072 311.372 328.137 307.701 327.525C307.701 327.403 310.883 328.137 311.617 323.367Z" fill="#FF487E" fill-opacity="0.2"/>
<path d="M469.262 259.403H495.21C498.514 259.403 501.207 256.712 501.207 253.41C501.207 250.108 498.637 247.54 495.332 247.417C495.21 242.403 491.048 238.245 486.03 238.245C482.848 238.245 479.91 239.835 478.197 242.525C474.647 242.036 471.587 244.237 470.731 247.417H469.262C465.957 247.417 463.265 250.108 463.265 253.41C463.265 256.712 465.957 259.403 469.262 259.403ZM495.21 249.13C497.535 249.13 499.493 251.086 499.493 253.41C499.493 255.734 497.535 257.691 495.21 257.691H469.262C466.936 257.691 464.978 255.734 464.978 253.41C464.978 251.086 466.936 249.13 469.262 249.13H472.199L472.322 248.396C472.811 245.583 475.504 243.626 478.442 244.237L479.054 244.36L479.421 243.748C480.767 241.302 483.337 239.835 486.03 239.835C490.191 239.835 493.619 243.259 493.619 247.417C493.619 247.662 493.619 247.907 493.619 248.029L493.496 249.007H495.21V249.13Z" fill="#FF487E" fill-opacity="0.2"/>
<path d="M6.11938 39.8704H32.0672C35.3718 39.8704 38.0646 37.1798 38.0646 33.8776C38.0646 30.5755 35.4942 28.0071 32.1895 27.8848C32.0671 22.8704 27.9057 18.7122 22.8875 18.7122C19.7053 18.7122 16.7678 20.3021 15.0542 22.9927C11.5048 22.5035 8.4449 24.705 7.58813 27.8848H6.11938C2.81472 27.8848 0.12207 30.5755 0.12207 33.8776C0.12207 37.1798 2.69232 39.8704 6.11938 39.8704ZM32.0672 29.597C34.3927 29.597 36.351 31.5539 36.351 33.8776C36.351 36.2014 34.3927 38.1582 32.0672 38.1582H6.11938C3.79388 38.1582 1.83555 36.2014 1.83555 33.8776C1.83555 31.5539 3.79388 29.597 6.11938 29.597H9.05689L9.17925 28.8632C9.66883 26.0503 12.3616 24.0935 15.299 24.705L15.911 24.8273L16.2782 24.2158C17.6245 21.7697 20.1949 20.3021 22.8875 20.3021C27.049 20.3021 30.476 23.7265 30.476 27.8848C30.476 28.1294 30.476 28.374 30.476 28.4963L30.3536 29.4747H32.0672V29.597Z" fill="#FF487E" fill-opacity="0.2"/>
<path d="M408.065 106.158H434.012C437.317 106.158 440.01 103.468 440.01 100.165C440.01 96.8633 437.439 94.295 434.135 94.1727C434.012 89.1583 429.851 85 424.833 85C421.651 85 418.713 86.5899 417 89.2806C413.45 88.7914 410.39 90.9928 409.533 94.1727H408.065C404.76 94.1727 402.067 96.8633 402.067 100.165C402.067 103.468 404.76 106.158 408.065 106.158ZM434.012 95.8849C436.338 95.8849 438.296 97.8417 438.296 100.165C438.296 102.489 436.338 104.446 434.012 104.446H408.065C405.739 104.446 403.781 102.489 403.781 100.165C403.781 97.8417 405.739 95.8849 408.065 95.8849H411.002L411.125 95.1511C411.614 92.3381 414.307 90.3813 417.244 90.9928L417.856 91.1151L418.223 90.5036C419.57 88.0576 422.14 86.5899 424.833 86.5899C428.994 86.5899 432.421 90.0144 432.421 94.1727C432.421 94.4173 432.421 94.6619 432.421 94.7842L432.299 95.7626H434.012V95.8849Z" fill="#FF487E" fill-opacity="0.2"/>
<path d="M326.795 438.698C337.933 441.878 349.561 435.396 352.743 424.266L369.389 365.439C372.571 354.31 366.084 342.691 354.946 339.511C343.808 336.331 332.181 342.813 328.999 353.943L312.353 412.77C309.171 423.899 315.657 435.518 326.795 438.698Z" fill="#93C7EA"/>
<path d="M350.54 438.209C358.863 430.137 358.985 416.806 350.785 408.612L307.947 364.95C299.869 356.633 286.528 356.511 278.327 364.705C270.004 372.777 269.882 386.108 278.082 394.302L320.92 437.964C328.998 446.158 342.217 446.281 350.54 438.209Z" fill="#93C7EA"/>
<path d="M265.353 354.432C259.722 362.871 262.048 374.245 270.493 379.871C278.938 385.497 290.321 383.173 295.951 374.734C301.581 366.295 299.256 354.921 290.811 349.295C282.365 343.669 270.983 345.993 265.353 354.432Z" fill="#FF8383"/>
<path d="M292.892 361.892C295.462 362.504 298.032 361.036 298.767 358.468L300.358 352.108C300.97 349.54 299.501 346.971 296.931 346.238C294.36 345.626 291.79 347.094 291.056 349.662L289.465 356.022C288.853 358.712 290.444 361.281 292.892 361.892Z" fill="#FF8383"/>
<path d="M274.533 340.122L281.02 356.633C281.999 359.202 284.936 360.425 287.507 359.446C290.077 358.468 291.301 355.533 290.322 352.964L283.835 336.453C282.856 333.885 279.918 332.662 277.348 333.64C274.778 334.741 273.554 337.676 274.533 340.122Z" fill="#FF8383"/>
<path d="M263.028 343.669L270.861 359.568C272.085 362.015 275.022 362.993 277.47 361.77C279.918 360.547 280.897 357.612 279.673 355.166L271.84 339.266C270.616 336.82 267.679 335.842 265.231 337.065C262.783 338.166 261.804 341.223 263.028 343.669Z" fill="#FF8383"/>
<path d="M254.46 352.475L265.475 366.417C267.189 368.619 270.249 368.986 272.452 367.274C274.655 365.561 275.022 362.504 273.309 360.302L262.293 346.36C260.58 344.158 257.52 343.792 255.317 345.504C253.113 347.216 252.746 350.274 254.46 352.475Z" fill="#FF8383"/>
<path d="M372.204 318.964L379.303 318.719C384.076 318.475 387.87 314.439 387.626 309.669L386.157 271.755L361.678 272.734L363.147 310.647C363.391 315.417 367.43 319.086 372.204 318.964Z" fill="#FF8383"/>
<path d="M361.678 271.389L386.157 270.41L386.525 280.072C386.892 289.489 379.181 297.806 369.756 297.072C369.144 297.072 368.532 296.95 368.043 296.827C366.085 296.46 364.249 295.727 362.535 294.871L361.678 271.389Z" fill="#D15E79"/>
<path d="M370.806 268.647C354.545 264.049 344.229 250.206 347.763 237.727C351.297 225.249 367.343 218.86 383.604 223.458C399.864 228.057 410.181 241.9 406.647 254.379C403.113 266.857 387.066 273.245 370.806 268.647Z" fill="#FB2E6A"/>
<path d="M355.288 262.213C340.493 259.701 329.821 249.891 331.451 240.302C333.082 230.712 346.397 224.975 361.192 227.486C375.987 229.998 386.659 239.808 385.028 249.397C383.398 258.987 370.082 264.724 355.288 262.213Z" fill="#FB2E6A"/>
<path d="M361.374 248.093C350.355 237.914 346.778 223.873 353.386 216.731C359.993 209.589 374.282 212.05 385.302 222.229C396.321 232.407 399.898 246.449 393.29 253.591C386.683 260.733 372.393 258.272 361.374 248.093Z" fill="#FB2E6A"/>
<path d="M347.48 265.273C345.032 278.727 352.131 291.324 363.269 293.281C374.407 295.237 385.423 285.943 387.748 272.367L389.706 261.727C392.154 248.273 385.055 235.676 373.917 233.719C362.78 231.763 351.764 241.058 349.438 254.633L347.48 265.273Z" fill="#FF8383"/>
<path d="M371.225 232.252C377.345 226.626 388.115 229.317 395.214 238.245C402.313 247.173 403.048 258.914 396.806 264.417C390.686 270.043 379.915 267.353 372.816 258.425C365.84 249.496 365.105 237.755 371.225 232.252Z" fill="#FB2E6A"/>
<path d="M367.185 262.338C367.552 262.338 367.92 262.216 368.164 261.849C368.532 261.36 368.409 260.626 367.92 260.259C367.797 260.137 364.248 257.691 360.454 259.892C359.964 260.259 359.719 260.871 360.086 261.482C360.454 261.971 361.065 262.216 361.677 261.849C364.248 260.381 366.696 261.971 366.696 262.094C366.818 262.216 367.063 262.338 367.185 262.338Z" fill="#86294E"/>
<path d="M347.847 262.338C348.092 262.338 348.337 262.216 348.459 262.094C348.581 261.971 351.029 260.381 353.477 261.849C353.967 262.216 354.701 261.971 355.068 261.482C355.436 260.993 355.191 260.259 354.701 259.892C350.907 257.691 347.357 260.137 347.235 260.259C346.746 260.626 346.623 261.36 346.99 261.849C347.235 262.094 347.602 262.338 347.847 262.338Z" fill="#86294E"/>
<path d="M362.167 265.273C362.167 265.885 362.779 266.374 363.391 266.374C364.003 266.374 364.492 265.763 364.492 265.151C364.492 264.54 363.88 264.05 363.268 264.05C362.656 264.173 362.167 264.662 362.167 265.273Z" fill="#86294E"/>
<path d="M351.029 265.763C351.029 266.374 351.641 266.863 352.253 266.863C352.865 266.863 353.354 266.252 353.354 265.64C353.354 265.029 352.743 264.54 352.131 264.54C351.396 264.54 350.907 265.151 351.029 265.763Z" fill="#86294E"/>
<path d="M348.214 273.835C348.337 273.835 348.459 273.835 348.581 273.835C351.029 273.712 353.355 272.734 354.946 270.899C356.659 269.065 357.516 266.741 357.394 264.295C357.271 261.849 356.292 259.525 354.456 257.935C352.62 256.223 350.295 255.367 347.847 255.489C345.399 255.612 343.074 256.59 341.482 258.425C339.769 260.259 338.912 262.583 339.035 265.029C339.157 267.475 340.136 269.799 341.972 271.389C343.686 272.979 345.889 273.835 348.214 273.835ZM348.214 257.079C350.172 257.079 352.008 257.813 353.355 259.158C354.823 260.504 355.68 262.461 355.803 264.417C355.925 266.496 355.191 268.453 353.722 269.921C352.376 271.389 350.417 272.245 348.459 272.367C346.378 272.367 344.42 271.755 342.951 270.288C341.482 268.943 340.626 266.986 340.503 265.029C340.381 262.95 341.115 260.993 342.584 259.525C343.93 258.058 345.889 257.202 347.847 257.079C348.092 257.079 348.214 257.079 348.214 257.079Z" fill="#FFD2D4"/>
<path d="M368.042 274.202C368.165 274.202 368.287 274.202 368.41 274.202C374.04 273.957 378.568 269.187 378.324 263.439C378.201 260.626 377.1 258.18 375.019 256.223C372.938 254.389 370.368 253.41 367.553 253.532C364.86 253.655 362.29 254.755 360.332 256.835C358.373 258.914 357.516 261.482 357.639 264.295C357.761 267.108 358.863 269.554 360.944 271.511C362.902 273.223 365.35 274.202 368.042 274.202ZM368.042 255.367C370.245 255.367 372.204 256.223 373.795 257.691C375.508 259.281 376.488 261.36 376.488 263.684C376.732 268.453 372.938 272.367 368.287 272.612C366.084 272.734 363.759 271.878 362.167 270.288C360.454 268.698 359.475 266.619 359.475 264.295C359.352 261.971 360.209 259.77 361.8 258.18C363.391 256.468 365.472 255.489 367.798 255.489C367.798 255.367 367.92 255.367 368.042 255.367Z" fill="#FFD2D4"/>
<path d="M359.475 265.518L355.68 265.64C355.191 265.64 354.824 265.274 354.824 264.907C354.824 264.417 355.191 264.051 355.558 264.051L359.352 263.928C359.842 263.928 360.209 264.295 360.209 264.662C360.209 265.151 359.842 265.518 359.475 265.518Z" fill="#FFD2D4"/>
<path d="M351.886 270.899C352.009 272.245 353.6 273.468 355.313 273.59C357.149 273.712 358.496 272.856 358.373 271.511C358.251 270.166 356.66 268.943 354.946 268.82C353.11 268.576 351.764 269.554 351.886 270.899Z" fill="#86294E"/>
<path d="M352.621 278.115C352.743 281.173 355.558 283.619 358.863 283.496C362.167 283.374 364.126 280.072 364.003 277.014C360.087 276.525 356.292 276.892 352.621 278.115Z" fill="#86294E"/>
<path d="M358.373 279.95C361.066 279.583 362.657 278.727 362.779 276.77C359.475 276.647 356.292 276.892 353.11 277.87C353.6 279.705 355.803 280.317 358.373 279.95Z" fill="#FFD2D4"/>
<path d="M366.206 284.719H372.815C375.508 284.719 378.078 283.741 380.037 281.907L384.198 278.237C384.565 277.993 384.565 277.381 384.198 277.137C383.953 276.77 383.341 276.77 383.097 277.137L378.935 280.806C377.222 282.273 375.141 283.13 372.815 283.13H366.206C365.717 283.13 365.349 283.496 365.349 283.986C365.472 284.353 365.839 284.719 366.206 284.719Z" fill="#201028"/>
<path d="M366.206 285.453H368.899C369.756 285.453 370.49 284.719 370.49 283.863C370.49 283.007 369.756 282.273 368.899 282.273H366.206C365.35 282.273 364.615 283.007 364.615 283.863C364.615 284.719 365.35 285.453 366.206 285.453Z" fill="#FFD2D4"/>
<path d="M375.169 274.488C372.66 267.566 376.242 259.922 383.169 257.415C390.097 254.908 397.746 258.487 400.255 265.409C402.764 272.332 399.182 279.975 392.255 282.482C385.327 284.989 377.678 281.41 375.169 274.488Z" fill="#FF89AC"/>
<path d="M379.299 270.274C379.052 263.997 383.506 258.726 389.247 258.5C394.988 258.275 399.843 263.18 400.09 269.457C400.337 275.733 395.883 281.005 390.142 281.23C384.401 281.456 379.546 276.55 379.299 270.274Z" fill="#FF487E" fill-opacity="0.2"/>
<path d="M387.993 269.921C388.115 272.489 389.829 274.446 391.787 274.446C393.745 274.324 395.336 272.245 395.214 269.676C395.092 267.108 393.378 265.151 391.42 265.151C389.462 265.151 387.993 267.353 387.993 269.921Z" fill="#E0EEF7"/>
<path d="M355.313 456.676L419.326 458.511C429.974 458.144 438.297 449.094 437.93 438.453L433.891 331.317C433.646 325.691 429.974 320.799 424.589 319.209L376.855 304.043L338.667 322.266C333.894 324.59 330.957 329.482 331.079 334.741L335.118 438.086C335.73 448.849 344.665 457.043 355.313 456.676Z" fill="#93C7EA"/>
<path d="M331.201 334.741C330.957 345.87 331.079 357.122 331.324 368.252C331.446 379.381 331.813 390.511 332.303 401.64C332.792 412.77 333.282 423.899 334.016 435.029C334.139 437.719 334.261 440.777 335.363 443.59C336.342 446.403 337.933 448.971 339.891 450.928C344.053 454.964 349.805 457.288 355.436 456.676C349.805 456.554 344.542 454.108 340.993 449.95C339.279 447.993 337.933 445.547 337.199 442.978C336.464 440.41 336.464 437.842 336.464 435.029C336.342 423.899 335.975 412.77 335.485 401.64C334.996 390.511 334.506 379.381 333.772 368.252C333.037 357 332.303 345.87 331.201 334.741Z" fill="#FF487E" fill-opacity="0.2"/>
<path d="M359.352 324.223L393.867 322.022L392.521 301.475C392.398 298.906 390.195 296.95 387.625 297.194L362.289 298.784C359.719 298.906 357.761 301.108 358.005 303.676L359.352 324.223Z" fill="#93C7EA"/>
<path d="M462.409 425.245C473.057 420.842 478.197 408.489 473.791 397.849L450.291 341.468C445.885 330.827 433.523 325.691 422.875 330.094C412.227 334.496 407.086 346.849 411.492 357.489L434.992 413.871C439.398 424.633 451.638 429.77 462.409 425.245Z" fill="#93C7EA"/>
<path d="M422.875 330.094C419.08 331.317 415.653 333.763 413.205 336.943C410.758 340.123 409.166 344.158 408.799 348.317C408.187 352.475 409.534 356.756 411.125 360.302L415.531 371.187C418.591 378.403 421.651 385.619 424.955 392.712L429.851 403.353C431.565 406.899 433.278 410.446 435.114 413.871C433.89 410.079 432.544 406.41 431.32 402.741L427.281 391.734C424.588 384.396 421.528 377.18 418.591 369.842L413.94 359.079C413.206 357.245 412.349 355.655 411.982 353.82C411.492 352.108 411.247 350.274 411.37 348.317C411.247 340.979 415.776 333.763 422.875 330.094Z" fill="#FF487E" fill-opacity="0.2"/>
<path d="M364.737 395.77L375.385 395.036C379.424 394.791 382.484 391.367 382.239 387.331L381.872 382.561C381.627 378.525 378.2 375.468 374.161 375.712L363.513 376.446L364.737 395.77ZM374.406 380.482C375.752 380.36 376.976 381.46 377.099 382.806L377.466 387.575C377.588 388.921 376.487 390.144 375.14 390.266L369.265 390.633L368.653 380.849L374.406 380.482Z" fill="#86294E"/>
<path d="M354.333 411.058L363.635 410.446C369.265 410.079 373.549 405.187 373.182 399.683L371.224 369.964C370.979 366.662 341.482 368.496 341.604 371.921L343.563 401.64C343.807 407.144 348.703 411.424 354.333 411.058Z" fill="#D15E79"/>
<path d="M344.542 372.655C344.664 373.878 350.05 374.489 356.782 374C363.513 373.511 368.899 372.288 368.776 371.065C368.654 369.842 363.269 369.23 356.537 369.719C349.805 370.209 344.42 371.554 344.542 372.655Z" fill="#86294E"/>
<path d="M474.036 406.41C473.914 394.791 464.367 385.619 452.739 385.741L391.542 386.719C379.914 386.842 370.735 396.381 370.857 408C370.979 419.619 380.526 428.791 392.154 428.669L453.351 427.691C464.979 427.568 474.158 418.029 474.036 406.41Z" fill="#93C7EA"/>
<path d="M452.739 385.741C444.906 385.252 437.073 385.007 429.239 384.885C421.406 384.763 413.573 384.763 405.74 384.885L393.99 385.13C390.195 385.13 385.544 385.741 381.995 387.82C378.323 389.777 375.263 392.835 373.305 396.381C371.347 399.928 370.49 404.086 370.979 408C371.469 400.173 376.365 393.079 383.097 390.022C384.81 389.288 386.524 388.799 388.36 388.432C390.195 388.065 392.031 388.187 393.99 388.187L405.74 388.065C413.573 387.942 421.406 387.698 429.239 387.331C437.073 386.964 444.906 386.597 452.739 385.741Z" fill="#FF487E" fill-opacity="0.2"/>
<path d="M353.911 415.16C347.436 407.362 348.513 395.796 356.316 389.326C364.119 382.855 375.694 383.931 382.169 391.729C388.644 399.526 387.568 411.093 379.764 417.563C371.961 424.033 360.386 422.957 353.911 415.16Z" fill="#FF8383"/>
<path d="M377.589 394.669C379.915 393.935 381.139 391.367 380.282 389.043L378.324 383.417C377.589 381.093 375.019 379.87 372.693 380.726C370.368 381.46 369.144 384.029 370.001 386.352L371.959 391.978C372.816 394.302 375.264 395.525 377.589 394.669Z" fill="#FF8383"/>
<path d="M342.339 397.115L358.617 398.583C361.187 398.827 363.391 396.993 363.635 394.425C363.88 391.856 362.044 389.655 359.474 389.41L343.195 387.943C340.625 387.698 338.422 389.532 338.177 392.101C338.055 394.547 339.891 396.871 342.339 397.115Z" fill="#FF8383"/>
<path d="M345.889 412.036L362.29 410.935C364.86 410.813 366.696 408.612 366.573 406.043C366.451 403.475 364.248 401.64 361.678 401.763L345.277 402.863C342.706 402.986 340.87 405.187 340.993 407.755C341.115 410.324 343.318 412.281 345.889 412.036Z" fill="#FF8383"/>
<path d="M179.554 356.388C180.044 356.388 180.533 356.144 180.9 355.777C181.635 355.043 181.635 353.82 180.9 353.086L162.541 334.741C161.807 334.007 160.583 334.007 159.848 334.741C159.114 335.475 159.114 336.698 159.848 337.432L178.208 355.777C178.575 356.144 179.064 356.388 179.554 356.388Z" fill="#FF89AC"/>
<path d="M192.65 345.137C193.752 345.137 194.608 344.281 194.608 343.18V317.252C194.608 316.151 193.752 315.295 192.65 315.295C191.549 315.295 190.692 316.151 190.692 317.252V343.18C190.692 344.281 191.549 345.137 192.65 345.137Z" fill="#FF89AC"/>
<path d="M142.468 369.352H168.416C169.517 369.352 170.374 368.496 170.374 367.396C170.374 366.295 169.517 365.439 168.416 365.439H142.468C141.366 365.439 140.51 366.295 140.51 367.396C140.51 368.496 141.366 369.352 142.468 369.352Z" fill="#FF89AC"/>
<path d="M372.448 449.827H214.069C209.662 449.827 208.316 446.281 208.316 441.878H380.403C380.403 446.281 376.854 449.827 372.448 449.827Z" fill="#FF487E" fill-opacity="0.2"/>
<path d="M381.627 441.878H325.448C325.448 446.281 329.487 449.827 334.505 449.827H371.346C371.346 449.827 381.75 449.827 381.872 449.827C387.013 449.827 386.768 441.878 381.627 441.878Z" fill="#FF487E" fill-opacity="0.2"/>
<path d="M321.899 444.201H208.194C204.767 444.201 201.952 441.755 201.34 438.453L186.04 372.777C185.184 368.496 188.488 364.46 192.894 364.46H306.599C310.026 364.46 312.841 366.907 313.453 370.209L328.753 435.885C329.61 440.165 326.305 444.201 321.899 444.201Z" fill="#E0EEF7"/>
<path d="M313.576 370.086C313.208 368.252 312.229 366.662 310.76 365.683C308.68 367.273 307.456 369.842 307.945 372.655L323.245 438.331C323.612 440.165 324.591 441.633 326.06 442.734C328.141 441.144 329.364 438.575 328.875 435.762L313.576 370.086Z" fill="#FF487E" fill-opacity="0.2"/>
<path d="M241.974 412.648H260.578C264.372 412.648 267.555 409.59 267.555 405.676C267.555 401.885 264.495 398.705 260.578 398.705H241.974C238.18 398.705 234.998 401.763 234.998 405.676C235.12 409.59 238.18 412.648 241.974 412.648Z" fill="white"/>
<path d="M364.615 444.079H370.245C371.346 444.079 372.203 443.223 372.203 442.122C372.203 441.022 371.346 440.166 370.245 440.166H364.615C363.513 440.166 362.656 441.022 362.656 442.122C362.656 443.223 363.513 444.079 364.615 444.079Z" fill="#FF487E" fill-opacity="0.2"/>
<path d="M353.721 444.079H359.351C360.453 444.079 361.31 443.223 361.31 442.122C361.31 441.022 360.453 440.166 359.351 440.166H353.721C352.619 440.166 351.763 441.022 351.763 442.122C351.763 443.223 352.619 444.079 353.721 444.079Z" fill="#FF487E" fill-opacity="0.2"/>
<path d="M342.828 444.079H348.459C349.56 444.079 350.417 443.223 350.417 442.122C350.417 441.022 349.56 440.166 348.459 440.166H342.828C341.727 440.166 340.87 441.022 340.87 442.122C340.748 443.223 341.727 444.079 342.828 444.079Z" fill="#FF487E" fill-opacity="0.2"/>
<path d="M331.813 444.079H337.443C338.545 444.079 339.401 443.223 339.401 442.122C339.401 441.022 338.545 440.166 337.443 440.166H331.813C330.711 440.166 329.855 441.022 329.855 442.122C329.855 443.223 330.711 444.079 331.813 444.079Z" fill="#FF487E" fill-opacity="0.2"/>
<path d="M123.374 459H601.939C604.631 459 606.712 456.799 606.712 454.23C606.712 451.54 604.509 449.46 601.939 449.46H123.374C120.682 449.46 118.601 451.662 118.601 454.23C118.601 456.921 120.804 459 123.374 459Z" fill="#FB2E6A"/>
<path d="M530.337 419.985C530.337 419.985 533.886 393.568 540.251 387.086" stroke="#FB2E6A" stroke-width="0.8269" stroke-miterlimit="10" stroke-linecap="round"/>
<path d="M539.271 371.309C537.558 376.935 537.925 382.072 540.006 382.683C542.087 383.295 545.269 379.259 546.982 373.633V373.511C548.451 368.496 540.863 366.173 539.271 371.187C539.271 371.187 539.271 371.187 539.271 371.309Z" fill="#FFD2D4"/>
<path d="M529.113 383.906C534.743 385.619 539.883 385.252 540.495 383.173C541.107 381.093 537.068 377.914 531.438 376.201H531.316C526.298 374.734 523.972 382.317 528.99 383.906C528.99 383.906 528.99 383.906 529.113 383.906Z" fill="#FFD2D4"/>
<path d="M548.329 389.655C542.699 387.942 538.66 384.885 539.272 382.683C539.884 380.604 545.024 380.237 550.655 381.95H550.777C555.795 383.54 553.47 391.122 548.451 389.655C548.451 389.777 548.451 389.777 548.329 389.655Z" fill="#FFD2D4"/>
<path d="M538.904 396.137C537.313 390.511 537.803 385.374 539.883 384.763C542.086 384.151 545.024 388.309 546.615 393.935V394.058C547.961 399.072 540.373 401.273 538.904 396.259V396.137Z" fill="#FFD2D4"/>
<path d="M533.397 394.424C537.803 390.633 540.251 386.108 538.782 384.396C537.313 382.683 532.54 384.518 528.011 388.309L527.889 388.432C523.972 391.856 529.113 397.849 533.152 394.547C533.397 394.547 533.397 394.547 533.397 394.424Z" fill="#FFD2D4"/>
<path d="M537.314 383.417C536.824 384.885 537.681 386.352 539.15 386.842C540.618 387.331 542.087 386.475 542.577 385.007C543.066 383.539 542.209 382.072 540.741 381.583C539.272 381.093 537.803 381.949 537.314 383.417Z" fill="#D15E79"/>
<path d="M540.74 402.986C533.397 408.734 529.235 415.705 531.438 418.396C533.641 421.209 541.352 418.763 548.696 413.014C556.04 407.266 557.998 397.604 557.998 397.604C557.998 397.604 548.084 397.237 540.74 402.986Z" fill="#FF89AC"/>
<path d="M515.037 411.669C522.748 418.885 531.316 422.432 534.009 419.496C536.701 416.561 532.662 408.367 524.951 401.029C517.241 393.813 505.98 393.201 505.98 393.201C505.98 393.201 507.327 404.453 515.037 411.669Z" fill="#FF89AC"/>
<path d="M520.668 451.05H546.004L550.41 419.251H516.262L520.668 451.05Z" fill="#FB2E6A"/>
<path d="M514.915 427.323H551.756C552.735 427.323 553.592 426.467 553.592 425.489V417.295C553.592 416.316 552.735 415.46 551.756 415.46H514.915C513.936 415.46 513.079 416.316 513.079 417.295V425.489C513.201 426.59 513.936 427.323 514.915 427.323Z" fill="#FB2E6A"/>
<path d="M456.165 181.374L443.558 194.828L347.968 154.957L456.165 181.374Z" fill="#FF89AC"/>
<path d="M451.637 137.101L461.184 151.288L454.697 165.23L469.017 167.676L481.746 195.439L344.909 154.101L451.637 137.101Z" fill="#FF487E" fill-opacity="0.2"/>
<path d="M454.697 165.23L461.184 151.288L387.012 154.712L454.697 165.23Z" fill="#FF89AC"/>
<path d="M461.919 303.309C463.02 303.309 463.999 303.309 465.101 303.309C466.202 303.309 467.059 302.453 466.937 301.353C466.814 300.252 465.958 299.273 464.978 299.518C459.96 299.518 455.064 299.518 449.679 299.273C449.679 299.273 449.679 299.273 449.557 299.273C448.578 299.273 447.721 300.13 447.598 301.108C447.598 302.209 448.333 303.065 449.434 303.065C453.963 303.187 458.002 303.309 461.919 303.309ZM480.523 302.576H480.645C485.908 302.086 491.171 301.475 496.067 300.619C497.168 300.374 497.78 299.396 497.658 298.417C497.413 297.439 496.434 296.705 495.455 296.827C490.559 297.683 485.541 298.295 480.4 298.784C479.299 298.907 478.564 299.763 478.687 300.863C478.687 301.719 479.543 302.576 480.523 302.576ZM510.754 296.95C510.999 296.95 511.121 296.95 511.366 296.827C516.384 295.237 521.28 293.403 525.931 291.201C526.91 290.712 527.277 289.612 526.91 288.633C526.421 287.655 525.319 287.288 524.34 287.655C519.811 289.734 515.038 291.568 510.265 293.036C509.285 293.403 508.673 294.381 509.041 295.482C509.163 296.46 509.897 296.95 510.754 296.95ZM538.538 283.863C538.905 283.863 539.272 283.741 539.639 283.496C544.046 280.561 548.085 277.381 552.001 273.835C552.736 273.101 552.858 271.878 552.124 271.144C551.389 270.41 550.165 270.288 549.431 271.022C545.759 274.446 541.72 277.504 537.559 280.317C536.702 280.928 536.457 282.151 537.069 283.007C537.314 283.619 537.926 283.863 538.538 283.863ZM561.181 263.194C561.793 263.194 562.282 262.95 562.65 262.46C565.954 258.424 568.892 254.022 571.462 249.496C571.952 248.518 571.707 247.417 570.728 246.928C569.748 246.439 568.647 246.683 568.157 247.662C565.709 252.065 562.772 256.223 559.712 260.137C559.1 260.993 559.223 262.216 560.079 262.827C560.324 263.072 560.691 263.194 561.181 263.194ZM576.358 236.532C577.092 236.532 577.827 236.043 578.194 235.309C580.03 230.295 581.498 225.281 582.478 220.144C582.722 219.165 581.988 218.065 581.009 217.942C579.907 217.698 578.928 218.432 578.806 219.41C577.827 224.302 576.48 229.072 574.644 233.842C574.277 234.82 574.767 235.921 575.746 236.288C575.868 236.41 576.113 236.532 576.358 236.532ZM582.478 206.446C583.457 206.446 584.313 205.712 584.436 204.612C584.681 201.432 584.681 198.13 584.681 194.827V194.094C584.681 192.381 584.681 190.791 584.558 189.079C584.558 188.101 583.702 187.245 582.6 187.245C582.6 187.245 582.6 187.245 582.478 187.245C581.376 187.245 580.642 188.223 580.642 189.201C580.642 190.791 580.764 192.504 580.764 194.094V194.827C580.764 198.13 580.642 201.309 580.519 204.367C580.397 205.468 581.254 206.324 582.355 206.446C582.355 206.446 582.355 206.446 582.478 206.446Z" fill="#FF89AC"/>
<path d="M566.321 175.993C569.259 175.993 572.196 175.993 575.011 175.871C576.113 175.871 576.847 175.015 576.847 173.914C576.847 172.813 575.99 172.079 574.889 172.079C569.993 172.202 564.853 172.202 559.59 172.079C558.366 171.957 557.631 172.935 557.631 173.914C557.631 175.015 558.488 175.871 559.467 175.871C561.793 175.993 564.118 175.993 566.321 175.993ZM544.168 175.381C545.147 175.381 546.004 174.648 546.126 173.547C546.126 172.446 545.392 171.59 544.29 171.468C539.272 171.223 534.131 170.856 528.991 170.367C528.012 170.245 527.033 171.101 526.91 172.079C526.788 173.18 527.644 174.036 528.624 174.158C533.764 174.648 539.027 175.137 544.168 175.381C544.045 175.381 544.045 175.381 544.168 175.381ZM590.311 175.137H590.433C595.818 174.77 600.959 174.158 605.855 173.425C606.956 173.302 607.691 172.324 607.446 171.223C607.324 170.122 606.344 169.511 605.243 169.633C600.469 170.367 595.329 170.856 590.066 171.345C588.964 171.468 588.23 172.324 588.352 173.425C588.475 174.403 589.332 175.137 590.311 175.137ZM513.447 172.691C514.426 172.691 515.283 171.957 515.405 170.979C515.527 169.878 514.793 169.022 513.691 168.899C508.673 168.288 503.655 167.676 498.392 166.943C497.291 166.82 496.311 167.554 496.189 168.533C496.067 169.633 496.801 170.612 497.78 170.734C503.043 171.468 508.061 172.202 513.079 172.691C513.202 172.691 513.324 172.691 513.447 172.691ZM620.787 170.734C620.909 170.734 621.032 170.734 621.154 170.734C624.826 169.878 628.498 169.022 631.925 167.921C633.394 167.432 634.862 167.065 636.209 166.576C637.188 166.209 637.8 165.108 637.433 164.13C637.066 163.151 635.964 162.54 634.985 162.907C633.638 163.396 632.17 163.763 630.823 164.252C627.519 165.23 623.969 166.209 620.297 166.943C619.318 167.187 618.584 168.166 618.829 169.266C619.196 170.122 619.93 170.734 620.787 170.734ZM649.917 160.827C650.162 160.827 650.529 160.705 650.774 160.583C655.67 158.259 660.198 155.568 664.36 152.633C665.216 152.022 665.461 150.799 664.849 149.943C664.237 149.086 663.013 148.842 662.156 149.453C658.24 152.266 653.834 154.835 649.183 157.158C648.203 157.648 647.836 158.748 648.326 159.727C648.571 160.461 649.183 160.827 649.917 160.827ZM583.946 159.115C585.048 159.115 585.904 158.259 585.904 157.158V156.547C585.904 151.655 586.149 146.763 586.516 141.993C586.639 140.892 585.782 140.036 584.803 139.914C583.824 139.792 582.845 140.648 582.722 141.626C582.355 146.518 582.11 151.533 582.11 156.547V157.281C581.988 158.259 582.845 159.115 583.946 159.115ZM674.763 142.849C675.253 142.849 675.742 142.604 676.232 142.238C679.781 138.324 682.964 133.921 685.412 129.396C685.901 128.417 685.534 127.317 684.677 126.827C683.698 126.338 682.596 126.705 682.107 127.561C679.781 131.842 676.844 136 673.417 139.669C672.682 140.403 672.805 141.626 673.539 142.36C673.784 142.727 674.274 142.849 674.763 142.849ZM586.394 128.417C587.373 128.417 588.108 127.806 588.23 126.827C589.087 121.568 590.311 116.676 591.657 112.029C591.902 111.05 591.412 109.95 590.311 109.705C589.332 109.338 588.23 109.95 587.985 111.05C586.639 115.82 585.415 120.957 584.436 126.338C584.313 127.439 584.925 128.417 586.027 128.54C586.149 128.417 586.272 128.417 586.394 128.417ZM689.451 116.187C690.307 116.187 691.042 115.576 691.286 114.72C691.531 113.863 691.776 113.007 691.898 112.151C692.633 109.216 693 106.403 693 103.59C693 101.878 692.878 100.288 692.633 98.698C692.51 97.5972 691.531 96.9857 690.43 97.108C689.328 97.2303 688.716 98.2088 688.839 99.3095C689.083 100.777 689.206 102.245 689.206 103.712C689.206 106.158 688.839 108.727 688.227 111.295C687.982 112.151 687.859 113.007 687.615 113.741C687.37 114.72 687.982 115.82 688.961 116.065C689.083 116.187 689.328 116.187 689.451 116.187ZM595.206 98.9426C595.941 98.9426 596.553 98.5757 596.92 97.8419C599.245 93.0721 601.816 88.7915 604.753 85.1224C605.365 84.2663 605.243 83.0433 604.508 82.4318C603.652 81.8203 602.428 81.9426 601.816 82.6764C598.756 86.59 595.941 91.1152 593.493 96.1296C593.003 97.108 593.493 98.2088 594.35 98.698C594.717 98.9426 594.962 98.9426 595.206 98.9426ZM684.677 86.957C685.044 86.957 685.534 86.8347 685.779 86.5901C686.635 85.9785 686.758 84.7555 686.146 83.8994C683.086 79.8634 679.047 76.3167 674.151 73.2591C673.294 72.7699 672.07 73.0145 671.458 73.8706C670.847 74.7267 671.214 75.9498 672.07 76.5613C676.599 79.2519 680.271 82.5541 683.086 86.2231C683.576 86.7124 684.065 86.957 684.677 86.957ZM614.667 75.5829C615.034 75.5829 615.402 75.4606 615.769 75.216C619.808 72.5253 624.336 70.5685 629.232 69.3454C630.211 69.1008 630.946 68.0001 630.579 67.0217C630.334 66.0433 629.232 65.4318 628.253 65.6764C622.99 67.0217 618.094 69.1008 613.566 72.0361C612.709 72.6476 612.464 73.7483 612.954 74.7267C613.443 75.2159 614.055 75.5829 614.667 75.5829ZM659.097 70.6908C659.953 70.6908 660.688 70.2016 660.933 69.3454C661.177 68.367 660.688 67.2663 659.586 67.0217C654.69 65.5541 649.672 64.698 644.532 64.3311H643.92C642.94 64.3311 641.961 65.1872 641.961 66.1656C641.961 67.2663 642.818 68.1224 643.797 68.1224H644.164C649.06 68.4893 653.834 69.3454 658.362 70.6908C658.729 70.6908 658.974 70.6908 659.097 70.6908Z" fill="#FF89AC"/>
<path d="M197.546 83.7771H94.9789C82.1274 83.7771 71.7239 94.1728 71.7239 107.015V159.849C71.7239 172.691 82.1274 183.086 94.9789 183.086H162.051L186.163 204.245V182.964H197.546C210.397 182.964 220.801 172.568 220.801 159.727V106.892C220.678 94.0505 210.275 83.7771 197.546 83.7771Z" fill="#FF89AC"/>
<path d="M182.613 116.432H109.911C108.32 116.432 106.973 115.086 106.973 113.497C106.973 111.907 108.32 110.561 109.911 110.561H182.613C184.204 110.561 185.551 111.907 185.551 113.497C185.551 115.086 184.204 116.432 182.613 116.432Z" fill="#FF487E" fill-opacity="0.2"/>
<path d="M182.613 135.756H109.911C108.32 135.756 106.973 134.41 106.973 132.82C106.973 131.23 108.32 129.885 109.911 129.885H182.613C184.204 129.885 185.551 131.23 185.551 132.82C185.551 134.41 184.204 135.756 182.613 135.756Z" fill="#FF487E" fill-opacity="0.2"/>
<path d="M120.56 155.202H109.911C108.32 155.202 106.974 153.856 106.974 152.266C106.974 150.676 108.32 149.331 109.911 149.331H120.56C122.151 149.331 123.497 150.676 123.497 152.266C123.497 153.856 122.151 155.202 120.56 155.202Z" fill="#FF487E" fill-opacity="0.2"/>
<path d="M144.793 155.202H134.145C132.553 155.202 131.207 153.856 131.207 152.266C131.207 150.676 132.553 149.331 134.145 149.331H144.793C146.384 149.331 147.73 150.676 147.73 152.266C147.73 153.856 146.384 155.202 144.793 155.202Z" fill="#FF487E" fill-opacity="0.2"/>
<path d="M182.613 155.202H158.379C156.788 155.202 155.442 153.856 155.442 152.266C155.442 150.676 156.788 149.331 158.379 149.331H182.613C184.204 149.331 185.551 150.676 185.551 152.266C185.551 153.856 184.204 155.202 182.613 155.202Z" fill="#FF487E" fill-opacity="0.2"/>
<path d="M210.52 189.202H288.975C296.686 189.202 302.928 195.439 302.928 203.144V248.396C302.928 255.734 297.175 261.727 289.954 262.338L306.232 288.878L263.517 262.461H210.52C202.809 262.461 196.567 256.223 196.567 248.518V203.266C196.444 195.561 202.809 189.202 210.52 189.202Z" fill="#FF487E" fill-opacity="0.2"/>
<path d="M243.114 221.426C239.482 217.796 239.482 211.911 243.114 208.281C246.747 204.651 252.637 204.651 256.269 208.281C259.902 211.911 259.902 217.796 256.269 221.426C252.637 225.056 246.747 225.056 243.114 221.426Z" fill="#FF89AC" stroke="#FF89AC" stroke-width="2.7611" stroke-miterlimit="10" stroke-linecap="round" stroke-linejoin="round"/>
<path d="M227.777 246.072H271.717C271.717 238.245 265.352 232.007 257.641 232.007H241.852C234.019 232.007 227.777 238.367 227.777 246.072Z" fill="#FF89AC" stroke="#FF89AC" stroke-width="2.7611" stroke-miterlimit="10" stroke-linecap="round" stroke-linejoin="round"/>
<path d="M305.253 115.698C307.823 115.698 310.516 115.453 312.964 114.964C313.943 114.72 314.677 113.741 314.433 112.64C314.188 111.54 313.209 110.928 312.107 111.173C308.19 112.029 304.029 112.151 300.112 111.54C299.011 111.417 298.032 112.151 297.909 113.13C297.787 114.23 298.521 115.209 299.5 115.331C301.459 115.576 303.295 115.698 305.253 115.698ZM287.873 111.173C288.607 111.173 289.219 110.806 289.586 110.194C290.076 109.216 289.709 108.115 288.852 107.626C285.303 105.669 282.12 103.101 279.55 100.043C278.816 99.1871 277.592 99.1871 276.857 99.7986C276.001 100.532 276 101.755 276.612 102.489C279.55 105.914 283.099 108.727 287.016 110.928C287.138 111.173 287.506 111.173 287.873 111.173ZM324.346 110.194C324.714 110.194 325.081 110.072 325.326 109.95C329.12 107.504 332.425 104.568 335.24 100.899C335.852 100.043 335.729 98.8202 334.872 98.2087C334.016 97.5972 332.792 97.7195 332.18 98.5756C329.732 101.755 326.672 104.568 323.245 106.648C322.388 107.259 322.021 108.36 322.633 109.338C323.123 109.827 323.734 110.194 324.346 110.194ZM271.472 92.2159C271.717 92.2159 271.961 92.2159 272.084 92.0936C273.063 91.7267 273.553 90.626 273.185 89.6476C271.839 85.8562 271.105 81.9425 271.105 77.7843C271.105 76.6835 270.248 75.8274 269.146 75.8274C268.045 75.8274 267.188 76.6835 267.188 77.7843C267.188 82.3094 267.922 86.7123 269.514 90.9929C270.003 91.7267 270.738 92.2159 271.472 92.2159ZM339.646 90.3814C340.503 90.3814 341.237 89.8922 341.482 89.0361C342.583 85.4893 343.195 81.6979 343.195 77.9066C343.195 77.1728 343.195 76.4389 343.195 75.8274C343.195 74.7267 342.216 73.9929 341.115 73.9929C340.013 73.9929 339.279 74.9713 339.279 76.072C339.279 76.6835 339.279 77.2951 339.279 78.0289C339.279 81.4533 338.789 84.8778 337.81 88.0576C337.443 89.0361 338.055 90.1368 339.034 90.5037C339.279 90.3814 339.401 90.3814 339.646 90.3814ZM270.248 71.0576C271.105 71.0576 271.839 70.4461 272.084 69.59C273.063 65.6764 274.777 62.0073 276.98 58.5828C277.592 57.7267 277.347 56.5037 276.49 55.8922C275.633 55.2807 274.409 55.5253 273.797 56.3814C271.227 60.1728 269.391 64.2087 268.29 68.6116C268.045 69.59 268.657 70.6907 269.636 70.9353C270.003 71.0576 270.126 71.0576 270.248 71.0576ZM338.177 65.3094C338.422 65.3094 338.667 65.3094 338.911 65.1871C339.891 64.8202 340.38 63.5972 339.891 62.6188C338.055 58.4605 335.607 54.7915 332.425 51.4893C331.69 50.7555 330.466 50.7555 329.732 51.4893C328.998 52.2231 328.998 53.4461 329.732 54.1799C332.547 57.1152 334.75 60.4174 336.464 64.2087C336.831 64.9425 337.443 65.3094 338.177 65.3094ZM284.446 50.3886C284.813 50.3886 285.18 50.2663 285.547 50.0217C288.852 47.6979 292.524 45.9857 296.44 44.885C297.42 44.6404 298.032 43.5397 297.787 42.5612C297.542 41.5828 296.44 40.9713 295.461 41.2159C291.055 42.4389 287.016 44.2735 283.344 46.9641C282.487 47.5756 282.243 48.7987 282.855 49.6548C283.222 50.144 283.834 50.3886 284.446 50.3886ZM320.797 47.331C321.531 47.331 322.143 46.9641 322.511 46.2303C323 45.2519 322.633 44.1512 321.654 43.662C317.615 41.7051 313.209 40.4821 308.802 40.1152C307.823 39.9929 306.844 40.849 306.722 41.8274C306.599 42.9282 307.456 43.7843 308.435 43.9066C312.474 44.2735 316.391 45.3742 320.063 47.0864C320.307 47.331 320.552 47.331 320.797 47.331Z" fill="#FF89AC"/>
<path d="M305.253 59.5613C319.083 59.5613 330.344 67.0217 330.344 76.1944C330.344 78.6404 328.385 80.2303 326.672 79.4965L320.063 76.6836C318.471 75.9498 317.737 73.7483 318.471 71.7915L319.328 69.5901C319.328 69.5901 307.211 71.7915 291.3 69.5901L292.157 72.403C292.646 74.2375 292.034 76.1944 290.688 76.9282L284.201 80.4749C282.61 81.3311 280.774 80.2303 280.407 78.0289C280.284 77.4174 280.284 76.8059 280.284 76.1944C280.039 67.0217 291.3 59.5613 305.253 59.5613Z" fill="#FF89AC"/>
<path d="M287.75 96.0074H322.633L317.492 79.8635C316.513 76.8059 313.698 74.7268 310.516 74.7268H299.99C296.808 74.7268 293.992 76.8059 293.013 79.8635L287.75 96.0074Z" fill="#FF487E" fill-opacity="0.2"/>
<path d="M80.536 312.604C83.1063 312.604 85.7989 312.36 88.2468 311.871C89.226 311.626 89.9604 310.648 89.7156 309.547C89.4708 308.568 88.4916 307.835 87.3901 308.079C83.4734 308.935 79.312 309.058 75.3954 308.446C74.2938 308.324 73.3147 309.058 73.1923 310.036C73.0699 311.137 73.8042 312.115 74.7834 312.238C76.7417 312.482 78.7 312.604 80.536 312.604ZM63.1559 308.202C63.8903 308.202 64.5022 307.835 64.8694 307.223C65.359 306.245 64.9918 305.144 64.135 304.655C60.5856 302.698 57.4033 300.13 54.833 297.072C54.0986 296.216 52.8747 296.216 52.1403 296.827C51.2836 297.561 51.2836 298.784 51.8955 299.518C54.833 302.943 58.3825 305.756 62.2991 307.957C62.5439 308.079 62.9111 308.202 63.1559 308.202ZM99.752 307.101C100.119 307.101 100.486 306.979 100.731 306.856C104.525 304.41 107.83 301.475 110.645 297.806C111.257 296.95 111.135 295.727 110.278 295.115C109.421 294.504 108.197 294.626 107.585 295.482C105.137 298.662 102.078 301.475 98.6504 303.554C97.7936 304.166 97.4265 305.266 98.0384 306.245C98.528 306.856 99.14 307.101 99.752 307.101ZM46.8773 289.245C47.1221 289.245 47.3669 289.245 47.4893 289.122C48.4684 288.756 48.958 287.655 48.5909 286.676C47.2445 282.885 46.5101 278.849 46.5101 274.813C46.5101 273.712 45.6534 272.856 44.5518 272.856C43.4503 272.856 42.5935 273.712 42.5935 274.813C42.5935 279.338 43.3279 283.741 44.919 288.022C45.2862 288.756 46.0205 289.245 46.8773 289.245ZM114.929 287.288C115.786 287.288 116.52 286.799 116.765 285.943C117.867 282.396 118.479 278.604 118.479 274.813C118.479 274.079 118.479 273.345 118.479 272.734C118.479 271.633 117.377 270.899 116.398 270.899C115.296 270.899 114.562 271.878 114.562 272.979C114.562 273.59 114.562 274.202 114.562 274.935C114.562 278.36 114.072 281.784 113.093 284.964C112.726 285.943 113.338 287.043 114.317 287.41C114.562 287.288 114.807 287.288 114.929 287.288ZM45.6533 268.086C46.5101 268.086 47.2445 267.475 47.4893 266.619C48.4684 262.705 50.182 259.036 52.3851 255.612C52.997 254.756 52.7523 253.533 51.8955 252.921C51.0388 252.309 49.8148 252.554 49.2028 253.41C46.6325 257.079 44.7966 261.238 43.6951 265.64C43.4503 266.619 44.0622 267.72 45.0414 267.964C45.2862 267.964 45.531 268.086 45.6533 268.086ZM113.583 262.338C113.828 262.338 114.072 262.338 114.317 262.216C115.296 261.849 115.786 260.626 115.296 259.648C113.46 255.489 111.012 251.82 107.83 248.518C107.096 247.784 105.872 247.784 105.137 248.518C104.403 249.252 104.403 250.475 105.137 251.209C107.953 254.144 110.156 257.446 111.869 261.238C112.114 261.849 112.848 262.338 113.583 262.338ZM59.7288 247.417C60.096 247.417 60.4632 247.295 60.8304 247.05C64.135 244.727 67.8069 243.015 71.7235 241.914C72.7027 241.669 73.3146 240.568 73.0699 239.59C72.8251 238.612 71.7235 238 70.7444 238.245C66.3381 239.468 62.2991 241.302 58.6273 243.993C57.7705 244.604 57.5257 245.827 58.1377 246.684C58.6272 247.05 59.1168 247.417 59.7288 247.417ZM96.2025 244.36C96.9369 244.36 97.5488 243.993 97.916 243.259C98.4056 242.281 98.0384 241.18 97.0593 240.691C93.0203 238.734 88.614 237.511 84.2078 237.144C83.1063 237.022 82.2495 237.878 82.1271 238.856C82.0047 239.957 82.8614 240.813 83.8406 240.935C87.8796 241.302 91.7963 242.403 95.4681 244.115C95.5905 244.238 95.9577 244.36 96.2025 244.36Z" fill="#FF89AC"/>
<path d="M58.5044 267.964H103.179V293.281H58.5044V267.964Z" fill="#FF487E" fill-opacity="0.2"/>
<path d="M64.7472 266.007V262.95C64.7472 260.626 62.9112 258.792 60.5857 258.792C58.2602 258.792 56.4243 260.626 56.4243 262.95V268.086H64.6247" fill="#FF89AC"/>
<path d="M64.6243 262.827V289.122H95.1006V262.827C95.1006 260.504 93.2647 258.669 90.9392 258.669H60.8301L61.6869 258.791C63.4004 259.403 64.6243 260.993 64.6243 262.827Z" fill="#E0EEF7"/>
<path d="M86.4109 262.95H93.1427V269.921H86.4109V262.95Z" fill="#FF89AC"/>
<path d="M84.33 262.95H67.1948" stroke="#FF89AC" stroke-width="0.6576" stroke-miterlimit="10" stroke-linecap="round" stroke-linejoin="round"/>
<path d="M84.33 265.273H67.1948" stroke="#FF89AC" stroke-width="0.6576" stroke-miterlimit="10" stroke-linecap="round" stroke-linejoin="round"/>
<path d="M84.33 267.597H67.1948" stroke="#FF89AC" stroke-width="0.6576" stroke-miterlimit="10" stroke-linecap="round" stroke-linejoin="round"/>
<path d="M84.208 269.921H67.0728" stroke="#FF89AC" stroke-width="0.6576" stroke-miterlimit="10" stroke-linecap="round" stroke-linejoin="round"/>
<path d="M93.1425 272.245H67.1948" stroke="#FF89AC" stroke-width="0.6576" stroke-miterlimit="10" stroke-linecap="round" stroke-linejoin="round"/>
<path d="M93.1425 274.568H67.1948" stroke="#FF89AC" stroke-width="0.6576" stroke-miterlimit="10" stroke-linecap="round" stroke-linejoin="round"/>
<path d="M93.1425 276.77H67.1948" stroke="#FF89AC" stroke-width="0.6576" stroke-miterlimit="10" stroke-linecap="round" stroke-linejoin="round"/>
<path d="M93.1426 279.094H80.5359" stroke="#FF89AC" stroke-width="0.6576" stroke-miterlimit="10" stroke-linecap="round" stroke-linejoin="round"/>
<path d="M69.52 293.281H103.179V267.964L69.52 293.281Z" fill="#FF89AC"/>
<path d="M92.2852 293.281H58.6265V267.964L92.2852 293.281Z" fill="#FF89AC"/>
<path d="M58.627 293.281H80.9028H103.179L83.1059 282.641C81.7596 281.662 79.9237 281.662 78.5773 282.641L58.627 293.281Z" fill="#FF89AC"/>
</svg>
