<svg width="46" height="55" viewBox="0 0 46 55" fill="none" xmlns="http://www.w3.org/2000/svg">
<path d="M10.5 21H9.8V19.5C9.8 19.3674 9.72625 19.2402 9.59497 19.1464C9.4637 19.0527 9.28565 19 9.1 19V11.0355C9.10068 8.70523 9.33226 6.37791 9.793 4.071C9.79777 4.04749 9.80011 4.02376 9.8 4V2C9.8 1.46957 9.505 0.960859 8.9799 0.585786C8.4548 0.210714 7.74261 0 7 0C6.25739 0 5.5452 0.210714 5.0201 0.585786C4.495 0.960859 4.2 1.46957 4.2 2V4C4.19989 4.02376 4.20223 4.04749 4.207 4.071C4.66774 6.37791 4.89932 8.70523 4.9 11.0355V19C4.71435 19 4.5363 19.0527 4.40503 19.1464C4.27375 19.2402 4.2 19.3674 4.2 19.5V21H3.5C2.57208 21.0008 1.68249 21.2644 1.02635 21.7331C0.370217 22.2018 0.0011115 22.8372 0 23.5V30.5C0 30.6326 0.0737498 30.7598 0.205025 30.8536C0.336301 30.9473 0.514348 31 0.7 31H13.3C13.4857 31 13.6637 30.9473 13.795 30.8536C13.9263 30.7598 14 30.6326 14 30.5V23.5C13.9989 22.8372 13.6298 22.2018 12.9736 21.7331C12.3175 21.2644 11.4279 21.0008 10.5 21ZM5.6 3.9645V2C5.6 1.73478 5.7475 1.48043 6.01005 1.29289C6.2726 1.10536 6.6287 1 7 1C7.3713 1 7.7274 1.10536 7.98995 1.29289C8.2525 1.48043 8.4 1.73478 8.4 2V3.9645C7.9345 6.30684 7.70059 8.66968 7.7 11.0355V19H6.3V11.0355C6.29941 8.66968 6.0655 6.30684 5.6 3.9645ZM5.6 20H8.4V21H5.6V20ZM12.6 30H1.4V23.5C1.4 23.1022 1.62125 22.7206 2.01508 22.4393C2.4089 22.158 2.94305 22 3.5 22H10.5C11.057 22 11.5911 22.158 11.9849 22.4393C12.3788 22.7206 12.6 23.1022 12.6 23.5V30Z" fill="black"/>
<path d="M44.1429 3C43.6503 3 43.1779 3.177 42.8297 3.49206C42.4814 3.80712 42.2857 4.23444 42.2857 4.68V25.96H33.619C33.4549 25.96 33.2974 26.019 33.1813 26.124C33.0652 26.229 33 26.3715 33 26.52C33 29.0019 36.3868 31 39.1905 31C40.5035 30.9987 41.7623 30.5262 42.6907 29.6864C43.6191 28.8465 44.1414 27.7078 44.1429 26.52C44.1429 26.3715 44.0776 26.229 43.9615 26.124C43.8454 26.019 43.688 25.96 43.5238 25.96V4.68C43.5238 4.53148 43.589 4.38904 43.7051 4.28402C43.8212 4.179 43.9787 4.12 44.1429 4.12C44.307 4.12 44.4645 4.179 44.5806 4.28402C44.6967 4.38904 44.7619 4.53148 44.7619 4.68V5.24H46V4.68C46 4.23444 45.8043 3.80712 45.4561 3.49206C45.1078 3.177 44.6354 3 44.1429 3ZM39.1905 29.88C37.264 29.88 34.8386 28.5864 34.3328 27.08H42.8534C42.7059 27.8625 42.2574 28.5727 41.5872 29.0851C40.9169 29.5975 40.068 29.879 39.1905 29.88Z" fill="black"/>
<path d="M22.6935 32.6956C33.5161 32.6956 39.4194 34.9362 39.4194 36.0867C39.4131 36.122 39.4026 36.1567 39.3879 36.1901C36.3694 34.5658 30.048 33.5433 22.6935 33.5433C15.3391 33.5433 9.01774 34.5658 5.99923 36.1901C5.98428 36.1568 5.97372 36.1221 5.96774 36.0867C5.96774 34.9362 11.871 32.6956 22.6935 32.6956ZM38.6923 40.279C36.7058 41.5523 30.9974 42.8689 22.6935 42.8689C14.37 42.8689 8.68913 41.5591 6.69482 40.2807C6.50715 39.7385 6.35669 39.1874 6.24421 38.63C9.57756 40.3044 16.1567 41.1734 22.6935 41.1734C29.2304 41.1734 35.8095 40.3044 39.1429 38.63C39.0304 39.1868 38.88 39.7374 38.6923 40.279ZM7.60195 37.3541C10.1394 36.2461 15.405 35.2389 22.6935 35.2389C29.9821 35.2389 35.2487 36.2452 37.7832 37.3541C35.3392 38.3986 30.2044 39.4778 22.6935 39.4778C15.1827 39.4778 10.0479 38.3986 7.60392 37.3541H7.60195ZM26.2276 53.0423H19.1595C18.3258 53.0404 17.5105 52.8315 16.8111 52.4406C16.1117 52.0496 15.5579 51.4932 15.2161 50.8381C17.5727 51.7312 20.1191 52.1925 22.6935 52.1925C25.268 52.1925 27.8144 51.7312 30.171 50.8381C29.8291 51.4932 29.2754 52.0496 28.576 52.4406C27.8766 52.8315 27.0613 53.0404 26.2276 53.0423ZM22.6935 50.499C19.6297 50.4959 16.6256 49.7679 14.0089 48.3945C11.3923 47.021 9.26351 45.0549 7.85481 42.7104C11.2442 43.8676 16.6191 44.5645 22.6935 44.5645C28.7532 44.5645 34.1399 43.8668 37.5333 42.7087C36.1248 45.0536 33.996 47.0202 31.3791 48.394C28.7622 49.7677 25.7578 50.4959 22.6935 50.499Z" fill="black"/>
<path d="M25.75 20.744V18.5C25.75 18.3674 25.6907 18.2402 25.5852 18.1464C25.4798 18.0527 25.3367 18 25.1875 18V11.0355C25.188 8.70523 25.3741 6.37791 25.7444 4.071C25.7482 4.04749 25.7501 4.02376 25.75 4V2C25.75 1.46957 25.5129 0.960859 25.091 0.585786C24.669 0.210714 24.0967 0 23.5 0C22.9033 0 22.331 0.210714 21.909 0.585786C21.4871 0.960859 21.25 1.46957 21.25 2V4C21.2499 4.02376 21.2518 4.04749 21.2556 4.071C21.6259 6.37791 21.812 8.70523 21.8125 11.0355V18C21.6633 18 21.5202 18.0527 21.4148 18.1464C21.3093 18.2402 21.25 18.3674 21.25 18.5V20.744C19.9073 21.697 19 23.4695 19 25.5C19 28.5325 21.0188 31 23.5 31C25.9812 31 28 28.5325 28 25.5C28 23.4695 27.0927 21.697 25.75 20.744ZM22.375 3.9645V2C22.375 1.73478 22.4935 1.48043 22.7045 1.29289C22.9155 1.10536 23.2016 1 23.5 1C23.7984 1 24.0845 1.10536 24.2955 1.29289C24.5065 1.48043 24.625 1.73478 24.625 2V3.9645C24.2509 6.30684 24.063 8.66968 24.0625 11.0355V18H22.9375V11.0355C22.937 8.66968 22.7491 6.30684 22.375 3.9645ZM22.375 19H24.625V20.181C23.8996 19.9397 23.1004 19.9397 22.375 20.181V19ZM23.5 30C21.6387 30 20.125 27.981 20.125 25.5C20.125 23.019 21.6387 21 23.5 21C25.3613 21 26.875 23.019 26.875 25.5C26.875 27.981 25.3613 30 23.5 30Z" fill="black"/>
</svg>
