<svg height="512" viewBox="0 0 512 512" width="512" xmlns="http://www.w3.org/2000/svg"><g><path d="m408 8h-304a32.036 32.036 0 0 0 -32 32v400a32.058 32.058 0 0 0 24 30.99v25.01a8 8 0 0 0 8 8h24a8 8 0 0 0 7.76-6.06l6.49-25.94h227.5l6.49 25.94a8 8 0 0 0 7.76 6.06h24a8 8 0 0 0 8-8v-25.01a32.058 32.058 0 0 0 24-30.99v-400a32.036 32.036 0 0 0 -32-32zm-286.25 480h-9.75v-16h13.75zm278.25 0h-9.75l-4-16h13.75zm24-48a16.021 16.021 0 0 1 -16 16h-304a16.021 16.021 0 0 1 -16-16v-400a16.021 16.021 0 0 1 16-16h304a16.021 16.021 0 0 1 16 16z"/><path d="m400 40h-288a8 8 0 0 0 -8 8v384a8 8 0 0 0 8 8h288a8 8 0 0 0 8-8v-384a8 8 0 0 0 -8-8zm-152 384h-128v-368h128zm144 0h-128v-368h128z"/><path d="m216 216a24 24 0 1 0 24 24 24.027 24.027 0 0 0 -24-24zm0 32a8 8 0 1 1 8-8 8.009 8.009 0 0 1 -8 8z"/><path d="m296 264a24 24 0 1 0 -24-24 24.027 24.027 0 0 0 24 24zm0-32a8 8 0 1 1 -8 8 8.009 8.009 0 0 1 8-8z"/></g></svg>