<svg width="127" height="124" viewBox="0 0 127 124" fill="none" xmlns="http://www.w3.org/2000/svg">
<path d="M123.954 12.8425L66.729 0.133523C65.9277 -0.0445078 65.0737 -0.0445078 64.2722 0.133523L7.04576 12.8425C5.23808 13.2439 4 14.4758 4 15.873V62.4725C4 68.5336 7.31475 74.7381 13.8516 80.9137C18.8441 85.6303 25.7515 90.3665 34.381 94.9909C48.8781 102.759 63.1535 107.525 63.7542 107.724C64.3095 107.908 64.905 108 65.5006 108C66.0961 108 66.6916 107.908 67.247 107.724C67.8474 107.525 82.1225 102.759 96.6196 94.9909C105.249 90.3665 112.156 85.6303 117.149 80.9137C123.686 74.7383 127 68.5338 127 62.4725V15.873C127 14.4758 125.762 13.2439 123.954 12.8425Z" fill="#EEBBC3"/>
<path d="M79.0136 56.1764C77.1965 54.6487 75.0226 53.4214 72.6059 52.5916C70.6723 54.087 68.0923 55.0002 65.2586 55.0002C62.4251 55.0002 59.845 54.0872 57.9115 52.5917C50.811 55.0304 45.8066 60.8979 45.8066 67.7477V75.5131C51.3457 78.6955 58.0452 80.5562 65.2586 80.5562C72.472 80.5562 79.1715 78.6955 84.7105 75.5131V67.7477C84.7105 63.2301 82.5332 59.1388 79.0136 56.1764Z" fill="#FD8886"/>
<path d="M65.2588 32.8744C58.3236 32.8744 52.6816 37.6139 52.6816 43.4394V45.879C52.6816 51.7045 58.3238 56.444 65.2589 56.444C72.1941 56.444 77.8361 51.7045 77.8361 45.879V43.4394C77.8361 37.6139 72.1939 32.8744 65.2588 32.8744ZM74.3986 45.879C74.3986 50.1123 70.2987 53.5564 65.2589 53.5564H65.2588C60.2192 53.5564 56.1191 50.1123 56.1191 45.879V43.4394C56.1191 39.2061 60.2192 35.762 65.2589 35.762C70.2987 35.762 74.3986 39.2061 74.3986 43.4394V45.879Z" fill="#020288"/>
<path d="M115.281 57.8296H113.548V54.8649C113.548 50.2365 109.066 46.471 103.556 46.471C102.7 46.471 101.869 46.5618 101.076 46.7325C99.7953 39.8763 95.76 33.5864 89.5892 28.8859C82.9131 23.8006 74.2724 21 65.2584 21C45.2656 21.0001 29 34.6823 29 51.5001C29 61.5883 34.9202 71.0106 44.8364 76.7048C50.8661 80.169 57.9279 82 65.2586 82C72.5894 82 79.6512 80.169 85.6806 76.7051C87.2488 75.8045 88.7303 74.8021 90.1114 73.7083V77.3288C90.1114 78.1262 90.881 78.7726 91.8301 78.7726H115.281C116.23 78.7726 117 78.1262 117 77.3288V59.2733C117 58.4759 116.23 57.8296 115.281 57.8296ZM110.111 54.8651V57.8297H97.0006V54.8651C97.0006 51.8288 99.9412 49.3587 103.556 49.3587C107.17 49.3587 110.111 51.8288 110.111 54.8651ZM83.7403 74.3215C78.2848 77.4557 71.8938 79.1125 65.2586 79.1125C58.6235 79.1125 52.2325 77.4557 46.7767 74.3213C37.7979 69.1653 32.4375 60.6341 32.4375 51.5001C32.4375 36.2747 47.161 23.8877 65.2586 23.8877C81.872 23.8877 95.7507 34.2115 97.8182 47.996C95.2465 49.5163 93.5631 52.0286 93.5631 54.8649V57.8296H91.8303C90.8812 57.8296 90.1115 58.4759 90.1115 59.2733V69.5364C88.2427 71.357 86.0998 72.9665 83.7403 74.3215ZM113.562 75.8849H93.549V60.7171H113.562V75.8849Z" fill="#020288"/>
<path d="M105.281 65.8751H101.83C100.88 65.8751 100.111 66.5215 100.111 67.3189C100.111 68.1163 100.88 68.7627 101.83 68.7627H101.837V69.2831C101.837 70.0805 102.606 70.7269 103.555 70.7269C104.505 70.7269 105.274 70.0805 105.274 69.2831V68.7627H105.281C106.23 68.7627 107 68.1163 107 67.3189C107 66.5215 106.231 65.8751 105.281 65.8751Z" fill="#020288"/>
<g clip-path="url(#clip0)">
<path d="M59.9856 120.808L55.2718 101.331C55.2248 101.136 55.064 100.968 54.8336 100.872L42.9693 95.9229C42.8153 95.8586 42.6427 95.833 42.4731 95.8428L44.6316 116.726L44.5593 116.751L58.7583 121.528C58.8738 121.567 58.9966 121.586 59.1188 121.586C59.3123 121.586 59.504 121.538 59.6617 121.446C59.9192 121.295 60.0438 121.05 59.9856 120.808Z" fill="#44C868"/>
<path d="M30 100.654L17.8658 95.9141C17.7204 95.8572 17.5591 95.834 17.4003 95.842C17.4424 95.8401 17.4847 95.8402 17.5266 95.8427L15.3682 116.726L29.6394 121.528C29.7546 121.567 29.8775 121.586 30 121.586V100.654Z" fill="#44C868"/>
<path d="M17.5266 95.8428C17.357 95.8329 17.1844 95.8585 17.0304 95.9228L5.16597 100.872C4.93558 100.968 4.7748 101.136 4.72781 101.331L0.0141654 120.808C-0.0441941 121.049 0.0804936 121.295 0.337955 121.446C0.495807 121.538 0.687409 121.586 0.880769 121.586C1.003 121.586 1.12593 121.567 1.24136 121.528L15.3629 116.777L17.5266 95.8428Z" fill="#4CE166"/>
<path d="M42.4733 95.8425C42.3566 95.8492 42.2412 95.8725 42.1342 95.9144L30 100.654V121.586C30 121.586 30 121.586 30.0001 121.586C30.1226 121.586 30.2456 121.567 30.3607 121.528L44.6319 116.726L42.4733 95.8425Z" fill="#4CE166"/>
<path d="M3.29934 107.233L2.3418 111.19L16.5208 105.573L16.85 102.388L16.9046 101.86L3.29934 107.233Z" fill="#FFDB56"/>
<path d="M16.6484 104.338L16.5208 105.573L2.34175 111.19L0.0141654 120.808C-0.0441941 121.049 0.0804936 121.295 0.337955 121.446C0.495807 121.538 0.687409 121.586 0.880769 121.586C1.003 121.586 1.12593 121.567 1.24136 121.528L15.3629 116.777L16.6484 104.338Z" fill="#A8EEFC"/>
<path d="M30.0038 103.265L16.9048 101.86L16.521 105.573L30.0003 120.926V115.343L21.9569 105.844L30.0038 106.566V103.265Z" fill="#FFBB24"/>
<path d="M53.9002 100.482L48.2007 98.1048L42.8052 99.0504L42.8727 99.7039L43.1392 102.282L53.9002 100.482Z" fill="#FFBB24"/>
<path d="M43.6173 106.912L43.1064 101.968L42.8049 99.0503L30.0034 103.265V106.566L38.3655 103.839L43.6173 106.912Z" fill="#FFDB56"/>
<path d="M59.9861 120.808L58.8021 115.916L43.1392 102.282L43.6178 106.912L59.6807 121.433C59.9249 121.282 60.0429 121.043 59.9861 120.808Z" fill="#FFBB24"/>
<path d="M30.0566 81.4139C23.264 81.4139 17.7378 85.5552 17.7378 90.6454C17.7378 93.7942 19.731 97.1748 23.6623 100.693C26.5497 103.278 29.3979 104.94 29.5177 105.009C29.6764 105.101 29.8665 105.147 30.0567 105.147C30.2468 105.147 30.437 105.101 30.5956 105.009C30.7154 104.94 33.5636 103.278 36.451 100.693C40.3823 97.1748 42.3756 93.7943 42.3756 90.6454C42.3753 85.5552 36.8491 81.4139 30.0566 81.4139ZM34.6187 90.6454C34.6187 92.5334 32.5761 94.0641 30.0566 94.0641C27.537 94.0641 25.4944 92.5335 25.4944 90.6454C25.4944 88.7572 27.537 87.2266 30.0566 87.2266C32.5761 87.2266 34.6187 88.7573 34.6187 90.6454Z" fill="#FF4A4A"/>
<path d="M30.0562 81.4139C29.5179 81.4139 28.9876 81.4401 28.4673 81.4906C34.5122 82.0765 39.1972 85.9586 39.1972 90.6454C39.1972 93.7942 37.204 97.1748 33.2727 100.693C31.4158 102.355 29.5766 103.635 28.4674 104.356C29.0831 104.756 29.4747 104.984 29.5174 105.009C29.6761 105.101 29.8662 105.147 30.0564 105.147C30.2464 105.147 30.4366 105.101 30.5953 105.009C30.7151 104.94 33.5633 103.278 36.4507 100.693C40.382 97.1748 42.3752 93.7943 42.3752 90.6454C42.375 85.5552 36.8488 81.4139 30.0562 81.4139Z" fill="#E7343F"/>
<path d="M30.3607 121.528L35.6675 119.742L30 115.343V121.586C30 121.586 30 121.586 30.0001 121.586C30.1226 121.586 30.2455 121.567 30.3607 121.528Z" fill="#FFDB56"/>
<path d="M55.2723 101.331C55.2253 101.136 55.0645 100.968 54.8341 100.872L53.9002 100.482L43.1392 102.282L58.802 115.916L55.2723 101.331Z" fill="#1EA4E9"/>
<path d="M30.0001 121.586C30.0002 121.586 30.0002 121.586 30.0001 121.586V120.926L16.5209 105.573L15.3682 116.726L29.6394 121.528C29.7546 121.567 29.8775 121.586 30.0001 121.586Z" fill="#1EA4E9"/>
</g>
<g clip-path="url(#clip1)">
<path d="M114.989 101.238C113.915 100.844 112.498 100.627 111.001 100.627C109.504 100.627 108.088 100.844 107.014 101.238C105.772 101.693 105.089 102.357 105.089 103.107C105.089 103.858 105.772 104.522 107.014 104.977C108.088 105.371 109.504 105.588 111.001 105.588C112.498 105.588 113.915 105.371 114.989 104.977C116.23 104.522 116.914 103.858 116.914 103.107C116.914 102.357 116.23 101.693 114.989 101.238Z" fill="#FFBB24"/>
<path d="M114.989 101.238C113.915 100.844 112.498 100.627 111.001 100.627C109.504 100.627 108.088 100.844 107.014 101.238C105.772 101.693 105.089 102.357 105.089 103.107C105.089 103.858 105.772 104.522 107.014 104.977C108.088 105.371 109.504 105.588 111.001 105.588C112.498 105.588 113.915 105.371 114.989 104.977C116.23 104.522 116.914 103.858 116.914 103.107C116.914 102.357 116.23 101.693 114.989 101.238Z" fill="#FFDB56"/>
<path d="M114.989 103.415C113.915 103.809 112.498 104.026 111.001 104.026C109.504 104.026 108.088 103.809 107.014 103.415C106.226 103.126 105.663 102.752 105.357 102.326C105.181 102.571 105.089 102.833 105.089 103.107C105.089 103.858 105.772 104.522 107.014 104.977C108.088 105.371 109.504 105.588 111.001 105.588C112.498 105.588 113.915 105.371 114.989 104.977C116.23 104.522 116.914 103.858 116.914 103.107C116.914 102.833 116.822 102.571 116.646 102.326C116.34 102.752 115.777 103.126 114.989 103.415Z" fill="#FFBB24"/>
<path d="M112.499 94.0413C112.355 93.9416 112.168 93.9075 111.993 93.9489C111.347 94.1015 110.656 94.1015 110.01 93.9489C109.834 93.9075 109.648 93.9416 109.504 94.0413C109.36 94.1411 109.276 94.2952 109.276 94.4586V102.133C109.276 102.961 110.024 103.634 110.944 103.634H111.059C111.979 103.634 112.727 102.961 112.727 102.133V94.4586C112.727 94.2952 112.643 94.1411 112.499 94.0413Z" fill="#E2E2E2"/>
<path d="M112.499 94.0413C112.355 93.9416 112.168 93.9075 111.993 93.9489C111.347 94.1015 110.656 94.1015 110.01 93.9489C109.834 93.9075 109.648 93.9416 109.504 94.0413C109.36 94.1411 109.276 94.2952 109.276 94.4586V96.2151C109.815 96.3914 110.396 96.4879 111.002 96.4879C111.607 96.4879 112.188 96.3914 112.727 96.2151V94.4585C112.727 94.2952 112.643 94.1411 112.499 94.0413Z" fill="#C6C5CA"/>
<path d="M84.6037 115.861C80.9595 115.861 77.0864 116.937 77.0864 118.931C77.0864 120.924 80.9595 122 84.6037 122C88.2478 122 92.1209 120.924 92.1209 118.931C92.1209 116.937 88.2479 115.861 84.6037 115.861Z" fill="#FFBB24"/>
<path d="M84.6037 115.861C80.9595 115.861 77.0864 116.937 77.0864 118.931C77.0864 120.924 80.9595 122 84.6037 122C88.2478 122 92.1209 120.924 92.1209 118.931C92.1209 116.937 88.2479 115.861 84.6037 115.861Z" fill="#FFDB56"/>
<path d="M84.6037 120.438C81.4684 120.438 78.1638 119.641 77.302 118.149C77.1621 118.392 77.0864 118.652 77.0864 118.93C77.0864 120.924 80.9595 122 84.6037 122C88.2478 122 92.1209 120.924 92.1209 118.93C92.1209 118.652 92.0453 118.391 91.9054 118.149C91.0435 119.641 87.7389 120.438 84.6037 120.438Z" fill="#FFBB24"/>
<path d="M86.445 107.259C86.3012 107.159 86.1143 107.125 85.9386 107.167C85.069 107.372 84.1381 107.372 83.2684 107.167C83.093 107.125 82.9058 107.159 82.7621 107.259C82.6183 107.359 82.5342 107.513 82.5342 107.677V117.595C82.5342 118.622 83.4625 119.458 84.6035 119.458C85.7445 119.458 86.6728 118.622 86.6728 117.595V107.677C86.6728 107.513 86.5886 107.359 86.445 107.259Z" fill="#E2E2E2"/>
<path d="M86.445 107.259C86.3012 107.159 86.1143 107.125 85.9386 107.167C85.069 107.372 84.1381 107.372 83.2684 107.167C83.093 107.125 82.9058 107.159 82.7621 107.259C82.6183 107.359 82.5342 107.513 82.5342 107.677V109.441C83.1839 109.641 83.8794 109.751 84.6035 109.751C85.3275 109.751 86.023 109.641 86.6728 109.441V107.676C86.6728 107.513 86.5886 107.359 86.445 107.259Z" fill="#C6C5CA"/>
<path d="M93.1353 119.652C92.8131 119.652 92.5512 119.417 92.5498 119.127C92.5483 118.836 92.8093 118.599 93.1327 118.598L93.5231 118.596C93.524 118.596 93.5249 118.596 93.5257 118.596C93.8479 118.596 94.1098 118.83 94.1113 119.121C94.1128 119.412 93.8518 119.649 93.5284 119.65L93.138 119.652C93.1371 119.652 93.1362 119.652 93.1353 119.652Z" fill="#1EA4E9"/>
<path d="M95.8457 119.641C95.5236 119.641 95.2617 119.406 95.2603 119.116C95.2589 118.825 95.5198 118.588 95.8431 118.587L96.6165 118.583C96.6174 118.583 96.6183 118.583 96.6192 118.583C96.9414 118.583 97.2032 118.818 97.2047 119.108C97.2061 119.399 96.9452 119.636 96.6218 119.637L95.8485 119.641C95.8476 119.641 95.8467 119.641 95.8457 119.641ZM98.9392 119.628C98.6171 119.628 98.3553 119.394 98.3538 119.103C98.3524 118.812 98.6133 118.575 98.9367 118.574L99.71 118.571C99.711 118.571 99.7119 118.571 99.7128 118.571C100.035 118.571 100.297 118.805 100.298 119.095C100.3 119.386 100.039 119.623 99.7153 119.625L98.942 119.628C98.9411 119.628 98.9402 119.628 98.9392 119.628ZM102.033 119.615C101.711 119.615 101.449 119.381 101.447 119.091C101.446 118.8 101.707 118.563 102.03 118.561L102.803 118.558C103.125 118.555 103.39 118.792 103.392 119.083C103.393 119.374 103.132 119.611 102.809 119.612L102.035 119.615C102.035 119.615 102.034 119.615 102.033 119.615ZM105.126 119.603C104.804 119.603 104.542 119.368 104.541 119.078C104.539 118.787 104.8 118.55 105.124 118.549L105.897 118.546C106.221 118.543 106.484 118.779 106.485 119.07C106.487 119.361 106.226 119.598 105.902 119.6L105.129 119.603C105.128 119.603 105.127 119.603 105.126 119.603ZM108.22 119.59C107.898 119.59 107.636 119.356 107.634 119.065C107.633 118.774 107.894 118.537 108.217 118.536L108.99 118.533C109.317 118.53 109.577 118.766 109.579 119.058C109.58 119.349 109.319 119.586 108.996 119.587L108.222 119.59C108.222 119.59 108.221 119.59 108.22 119.59ZM111.313 119.577C110.991 119.577 110.729 119.343 110.728 119.053C110.726 118.762 110.987 118.525 111.311 118.523L111.42 118.523C111.616 118.522 111.812 118.51 112.005 118.486C112.325 118.447 112.62 118.648 112.664 118.936C112.708 119.225 112.484 119.491 112.164 119.53C111.921 119.56 111.672 119.576 111.426 119.577L111.316 119.577C111.315 119.577 111.314 119.577 111.313 119.577ZM114.226 118.784C114.041 118.784 113.858 118.704 113.745 118.557C113.56 118.318 113.626 117.989 113.892 117.823C114.079 117.707 114.256 117.577 114.421 117.436C114.655 117.235 115.026 117.243 115.249 117.454C115.472 117.665 115.463 117.998 115.229 118.199C115.02 118.377 114.795 118.543 114.559 118.69C114.458 118.753 114.341 118.784 114.226 118.784ZM116.078 116.61C116.013 116.61 115.946 116.601 115.881 116.58C115.577 116.482 115.418 116.18 115.527 115.906C115.603 115.714 115.662 115.515 115.704 115.315C115.764 115.029 116.071 114.841 116.388 114.895C116.706 114.948 116.915 115.224 116.855 115.51C116.802 115.764 116.726 116.017 116.63 116.261C116.544 116.476 116.319 116.61 116.078 116.61ZM116.173 113.873C115.918 113.873 115.684 113.722 115.61 113.491C115.548 113.295 115.467 113.102 115.372 112.917C115.235 112.654 115.362 112.34 115.655 112.217C115.948 112.094 116.296 112.208 116.433 112.472C116.555 112.707 116.656 112.952 116.736 113.201C116.825 113.48 116.645 113.772 116.335 113.852C116.281 113.866 116.226 113.873 116.173 113.873ZM114.475 111.6C114.348 111.6 114.22 111.563 114.112 111.486C113.934 111.36 113.744 111.245 113.546 111.145C113.265 111.002 113.165 110.68 113.323 110.427C113.482 110.173 113.839 110.084 114.121 110.226C114.371 110.353 114.612 110.499 114.838 110.659C115.092 110.839 115.135 111.171 114.935 111.399C114.819 111.531 114.648 111.6 114.475 111.6ZM111.624 110.644C111.616 110.644 111.607 110.644 111.598 110.644C111.532 110.641 111.467 110.64 111.4 110.64H110.851C110.527 110.64 110.265 110.404 110.265 110.113C110.265 109.822 110.527 109.586 110.851 109.586H111.4C111.484 109.586 111.568 109.588 111.65 109.591C111.973 109.604 112.223 109.85 112.209 110.141C112.195 110.424 111.936 110.644 111.624 110.644ZM108.53 110.64H107.757C107.434 110.64 107.172 110.404 107.172 110.113C107.172 109.822 107.434 109.586 107.757 109.586H108.53C108.854 109.586 109.116 109.822 109.116 110.113C109.116 110.404 108.854 110.64 108.53 110.64ZM105.437 110.64H104.664C104.34 110.64 104.078 110.404 104.078 110.113C104.078 109.822 104.34 109.586 104.664 109.586H105.437C105.76 109.586 106.022 109.822 106.022 110.113C106.022 110.404 105.76 110.64 105.437 110.64ZM102.343 110.64H101.57C101.247 110.64 100.984 110.404 100.984 110.113C100.984 109.822 101.247 109.586 101.57 109.586H102.343C102.667 109.586 102.929 109.822 102.929 110.113C102.929 110.404 102.667 110.64 102.343 110.64ZM99.3603 110.116C99.2535 110.116 99.1453 110.09 99.0484 110.034C98.7974 109.892 98.5615 109.726 98.3473 109.54C98.1142 109.339 98.1069 109.005 98.331 108.795C98.5552 108.585 98.926 108.579 99.1589 108.781C99.3162 108.917 99.4892 109.039 99.6732 109.143C99.9467 109.298 100.029 109.624 99.856 109.87C99.7447 110.029 99.5545 110.116 99.3603 110.116ZM97.6585 107.884C97.3838 107.884 97.1388 107.709 97.0843 107.457C97.0306 107.209 97.0035 106.955 97.0035 106.7L97.0038 106.658C97.0075 106.37 97.2689 106.138 97.5891 106.138C97.5914 106.138 97.5938 106.138 97.596 106.138C97.9195 106.141 98.1785 106.38 98.1747 106.671L98.1746 106.7C98.1746 106.887 98.1946 107.074 98.2338 107.256C98.2956 107.541 98.0885 107.818 97.771 107.874C97.7333 107.88 97.6955 107.884 97.6585 107.884ZM98.2984 105.238C98.18 105.238 98.0606 105.206 97.9573 105.139C97.6946 104.97 97.6346 104.64 97.8232 104.404C97.9965 104.187 98.1951 103.985 98.4134 103.804C98.6511 103.606 99.0216 103.62 99.2408 103.834C99.4601 104.048 99.4451 104.381 99.2074 104.578C99.0472 104.711 98.9016 104.86 98.7745 105.019C98.6599 105.162 98.4805 105.238 98.2984 105.238ZM100.876 103.844C100.587 103.844 100.336 103.651 100.296 103.386C100.254 103.098 100.479 102.833 100.8 102.795C100.991 102.772 101.187 102.76 101.381 102.76H101.649C101.972 102.76 102.234 102.996 102.234 103.287C102.234 103.578 101.972 103.814 101.649 103.814H101.381C101.238 103.814 101.095 103.823 100.954 103.839C100.928 103.843 100.902 103.844 100.876 103.844Z" fill="#1EA4E9"/>
<path d="M104.374 103.814H103.984C103.661 103.814 103.398 103.578 103.398 103.287C103.398 102.996 103.661 102.76 103.984 102.76H104.374C104.698 102.76 104.96 102.996 104.96 103.287C104.96 103.578 104.698 103.814 104.374 103.814Z" fill="#1EA4E9"/>
<path d="M84.6035 96.8286C81.0662 96.8286 78.1885 99.4186 78.1885 102.602C78.1885 105.786 81.0662 108.376 84.6035 108.376C88.1407 108.376 91.0185 105.786 91.0185 102.602C91.0185 99.4186 88.1407 96.8286 84.6035 96.8286Z" fill="#FF4A4A"/>
<path d="M84.6036 96.8286C84.131 96.8286 83.6708 96.8762 83.2271 96.9639C86.1047 97.5326 88.2655 99.8439 88.2655 102.602C88.2655 105.36 86.1047 107.672 83.2271 108.24C83.6708 108.328 84.131 108.376 84.6036 108.376C88.1409 108.376 91.0186 105.786 91.0186 102.602C91.0186 99.4186 88.1409 96.8286 84.6036 96.8286Z" fill="#E7343F"/>
<path d="M111.001 86C108.208 86 105.936 88.0451 105.936 90.5589C105.936 93.0727 108.208 95.1178 111.001 95.1178C113.795 95.1178 116.067 93.0727 116.067 90.5589C116.067 88.0451 113.795 86 111.001 86Z" fill="#FF4A4A"/>
<path d="M111.001 86C110.535 86 110.084 86.0581 109.655 86.1647C111.797 86.6968 113.375 88.4646 113.375 90.5589C113.375 92.6532 111.797 94.421 109.655 94.9532C110.084 95.0597 110.535 95.1178 111.001 95.1178C113.794 95.1178 116.067 93.0727 116.067 90.5589C116.067 88.0451 113.794 86 111.001 86Z" fill="#E7343F"/>
</g>
<path d="M73.3417 88H56.6584C54.7394 88 53.1782 89.2638 53.1782 90.8173V119.183C53.1782 120.736 54.7394 122 56.6584 122H73.3417C75.2607 122 76.8219 120.736 76.8219 119.183V90.8173C76.8219 89.2638 75.2607 88 73.3417 88Z" fill="#DDDDDD"/>
<path d="M73.3415 88H70.7109C72.6299 88 74.1911 89.2638 74.1911 90.8173V119.183C74.1911 120.736 72.6299 122 70.7109 122H73.3415C75.2605 122 76.8217 120.736 76.8217 119.183V90.8173C76.8217 89.2638 75.2606 88 73.3415 88Z" fill="#C6C5CA"/>
<path d="M73.5758 92.6427H56.424C56.0841 92.6427 55.8086 92.8657 55.8086 93.1409V115.434C55.8086 115.71 56.0841 115.933 56.424 115.933H73.5756C73.9155 115.933 74.191 115.71 74.191 115.434V93.1409C74.1912 92.8657 73.9156 92.6427 73.5758 92.6427Z" fill="#4CE166"/>
<path d="M73.5759 92.6427H71.3604V115.933H73.5759C73.9157 115.933 74.1913 115.71 74.1913 115.434V93.1409C74.1913 92.8657 73.9157 92.6427 73.5759 92.6427Z" fill="#44C868"/>
<path d="M73.5762 92.6427H61.7876L74.1916 108.982V93.1409C74.1916 92.8657 73.916 92.6427 73.5762 92.6427Z" fill="#A8EEFC"/>
<path d="M73.5759 92.6427H71.3604V105.253L74.1913 108.982V93.1409C74.1913 92.8657 73.9157 92.6427 73.5759 92.6427Z" fill="#7EE5F2"/>
<path d="M61.7872 92.6427H56.4241C56.3064 92.6427 56.1968 92.6699 56.1033 92.7162L65.0932 104.614L55.8086 110.915V115.434C55.8086 115.556 55.8629 115.668 55.9529 115.755L67.5923 107.842L73.9064 115.854C74.0774 115.766 74.191 115.611 74.191 115.434V108.982L61.7872 92.6427Z" fill="#FFDB56"/>
<path d="M71.3604 112.623L73.9066 115.854C74.0776 115.766 74.1913 115.611 74.1913 115.434V108.982L71.3604 105.253V112.623Z" fill="#FFBB24"/>
<path d="M67.986 91.3605H64.9069C64.567 91.3605 64.2915 91.1375 64.2915 90.8623C64.2915 90.5871 64.567 90.3641 64.9069 90.3641H67.986C68.3258 90.3641 68.6014 90.5871 68.6014 90.8623C68.6014 91.1374 68.3258 91.3605 67.986 91.3605Z" fill="#475D63"/>
<path d="M63.1185 91.3605H62.0143C61.6745 91.3605 61.3989 91.1375 61.3989 90.8623C61.3989 90.5871 61.6745 90.3641 62.0143 90.3641H63.1185C63.4583 90.3641 63.7339 90.5871 63.7339 90.8623C63.7339 91.1374 63.4583 91.3605 63.1185 91.3605Z" fill="#475D63"/>
<path d="M64.9999 95.3053C61.6714 95.3053 58.9634 97.4974 58.9634 100.192C58.9634 104.082 64.3921 107.528 64.6232 107.673C64.734 107.742 64.867 107.777 64.9998 107.777C65.1326 107.777 65.2656 107.742 65.3764 107.673C65.4339 107.637 66.8002 106.775 68.1822 105.439C70.0761 103.608 71.0363 101.843 71.0363 100.192C71.0364 97.4974 68.3284 95.3053 64.9999 95.3053ZM64.9999 98.4416C66.194 98.4416 67.1621 99.2253 67.1621 100.192C67.1621 101.159 66.1941 101.942 64.9999 101.942C63.8058 101.942 62.8377 101.159 62.8377 100.192C62.8377 99.2253 63.8058 98.4416 64.9999 98.4416Z" fill="#FF4A4A"/>
<path d="M65.0003 95.3053C64.6312 95.3053 64.2702 95.3337 63.9192 95.3853C66.7334 95.7992 68.8746 97.7963 68.8746 100.192C68.8746 101.843 67.9144 103.608 66.0206 105.439C65.2355 106.198 64.4558 106.804 63.918 107.192C64.3105 107.474 64.5764 107.643 64.6238 107.673C64.7347 107.742 64.8676 107.777 65.0005 107.777C65.1333 107.777 65.2662 107.742 65.3771 107.673C65.4346 107.637 66.8008 106.775 68.1829 105.439C70.0767 103.608 71.0369 101.843 71.0369 100.192C71.0368 97.4974 68.3288 95.3053 65.0003 95.3053Z" fill="#E7343F"/>
<path d="M65.0006 101.942C66.1947 101.942 67.1627 101.158 67.1627 100.192C67.1627 99.2251 66.1947 98.4415 65.0006 98.4415C63.8064 98.4415 62.8384 99.2251 62.8384 100.192C62.8384 101.158 63.8064 101.942 65.0006 101.942Z" fill="white"/>
<path d="M65.0002 120.039C66.0827 120.039 66.9603 119.329 66.9603 118.452C66.9603 117.576 66.0827 116.865 65.0002 116.865C63.9176 116.865 63.04 117.576 63.04 118.452C63.04 119.329 63.9176 120.039 65.0002 120.039Z" fill="#475D63"/>
<defs>
<clipPath id="clip0">
<rect width="60" height="45" fill="white" transform="translate(0 79)"/>
</clipPath>
<clipPath id="clip1">
<rect width="40" height="36" fill="white" transform="translate(77 86)"/>
</clipPath>
</defs>
</svg>
