<svg width="35" height="36" viewBox="0 0 35 36" fill="none" xmlns="http://www.w3.org/2000/svg">
<g clip-path="url(#clip0)">
<path d="M32.54 7.08057H8.32189C8.03814 7.08057 7.8081 7.31711 7.8081 7.60904C7.8081 7.90096 8.03814 8.13751 8.32189 8.13751H32.54C33.3299 8.13751 33.9725 8.79845 33.9725 9.61088V20.8631C33.9725 21.6756 33.3299 22.3365 32.54 22.3365H31.3098V18.8932C31.3098 18.6013 31.0797 18.3647 30.796 18.3647H4.20404C3.92029 18.3647 3.69025 18.6013 3.69025 18.8932V22.3365H2.46003C1.67016 22.3365 1.02758 21.6756 1.02758 20.8631V9.61088C1.02758 8.79845 1.67016 8.13751 2.46003 8.13751H6.26673C6.55048 8.13751 6.78052 7.90096 6.78052 7.60904C6.78052 7.31711 6.55048 7.08057 6.26673 7.08057H2.46003C1.10355 7.08057 0 8.21565 0 9.61088V20.8631C0 22.2584 1.10355 23.3934 2.46003 23.3934H7.80831C8.09206 23.3934 8.3221 23.1569 8.3221 22.865C8.3221 22.5731 8.09206 22.3365 7.80831 22.3365H4.71783V21.4075H25.1366C25.4203 21.4075 25.6504 21.171 25.6504 20.8791C25.6504 20.5871 25.4203 20.3506 25.1366 20.3506H4.71783V19.4216H30.2822V20.3506H27.1918C26.908 20.3506 26.678 20.5871 26.678 20.8791C26.678 21.171 26.908 21.4075 27.1918 21.4075H30.2822V22.3365H9.8634C9.57965 22.3365 9.34961 22.5731 9.34961 22.865C9.34961 23.1569 9.57965 23.3934 9.8634 23.3934H32.54C33.8965 23.3934 35.0001 22.2584 35.0001 20.8631V9.61088C35 8.21572 33.8964 7.08057 32.54 7.08057Z" fill="black"/>
<path d="M30.7959 11.3775C31.0796 11.3775 31.3097 11.141 31.3097 10.849C31.3097 10.5571 31.0796 10.3206 30.7959 10.3206H29.2764C28.9926 10.3206 28.7626 10.5571 28.7626 10.849C28.7626 11.141 28.9926 11.3775 29.2764 11.3775H30.7959Z" fill="black"/>
<path d="M26.9323 11.3775C27.216 11.3775 27.4461 11.141 27.4461 10.849C27.4461 10.5571 27.216 10.3206 26.9323 10.3206H17.2075C16.9238 10.3206 16.6937 10.5571 16.6937 10.849C16.6937 11.141 16.9238 11.3775 17.2075 11.3775H26.9323Z" fill="black"/>
<path d="M9.66484 24.8074C9.38109 24.8074 9.15105 25.0439 9.15105 25.3358C9.15105 25.3516 9.13454 26.9182 7.70921 27.9602C7.47794 28.1293 7.42368 28.4592 7.5881 28.6971C7.68832 28.8422 7.84657 28.9195 8.00735 28.9195C8.11031 28.9195 8.2143 28.8877 8.30459 28.8217C10.1574 27.4671 10.1787 25.4222 10.1787 25.3358C10.1786 25.0439 9.94859 24.8074 9.66484 24.8074Z" fill="black"/>
<path d="M13.3437 24.8074C13.06 24.8074 12.83 25.0439 12.83 25.3358V28.391C12.83 28.6829 13.06 28.9194 13.3437 28.9194C13.6275 28.9194 13.8575 28.6829 13.8575 28.391V25.3358C13.8575 25.0439 13.6275 24.8074 13.3437 24.8074Z" fill="black"/>
<path d="M17.6446 24.8074C17.3609 24.8074 17.1309 25.0439 17.1309 25.3358V28.391C17.1309 28.6829 17.3609 28.9194 17.6446 28.9194C17.9284 28.9194 18.1584 28.6829 18.1584 28.391V25.3358C18.1584 25.0439 17.9284 24.8074 17.6446 24.8074Z" fill="black"/>
<path d="M27.2909 27.9602C25.8848 26.9322 25.8499 25.4038 25.8491 25.3334C25.8479 25.0426 25.6183 24.8074 25.3353 24.8074C25.0516 24.8074 24.8215 25.0439 24.8215 25.3358C24.8215 25.4222 24.8428 27.4672 26.6956 28.8218C26.7859 28.8878 26.8899 28.9196 26.9929 28.9196C27.1536 28.9195 27.3119 28.8421 27.4121 28.6972C27.5765 28.4592 27.5222 28.1293 27.2909 27.9602Z" fill="black"/>
<path d="M21.6562 24.8074C21.3725 24.8074 21.1425 25.0439 21.1425 25.3358V28.391C21.1425 28.6829 21.3725 28.9194 21.6562 28.9194C21.94 28.9194 22.17 28.6829 22.17 28.391V25.3358C22.17 25.0439 21.94 24.8074 21.6562 24.8074Z" fill="black"/>
</g>
<defs>
<clipPath id="clip0">
<rect width="35" height="36" fill="white"/>
</clipPath>
</defs>
</svg>
