<svg width="25" height="26" viewBox="0 0 25 26" fill="none" xmlns="http://www.w3.org/2000/svg">
<path d="M12.5 0C8.40742 0 5.07812 3.46247 5.07812 7.71875C5.07812 7.94341 5.25273 8.125 5.46875 8.125C5.68477 8.125 5.85938 7.94341 5.85938 7.71875C5.85938 3.91056 8.83828 0.8125 12.5 0.8125C16.1617 0.8125 19.1406 3.91056 19.1406 7.71875C19.1406 7.94341 19.3152 8.125 19.5312 8.125C19.7473 8.125 19.9219 7.94341 19.9219 7.71875C19.9219 3.46247 16.5926 0 12.5 0Z" fill="black"/>
<path d="M22.2656 15.4375H2.73438C2.51836 15.4375 2.34375 15.6191 2.34375 15.8438C2.34375 16.0684 2.51836 16.25 2.73438 16.25H22.2656C22.4816 16.25 22.6562 16.0684 22.6562 15.8438C22.6562 15.6191 22.4816 15.4375 22.2656 15.4375Z" fill="black"/>
<path d="M22.2656 23.9688H2.73438C2.51836 23.9688 2.34375 24.1503 2.34375 24.375C2.34375 24.5997 2.51836 24.7812 2.73438 24.7812H22.2656C22.4816 24.7812 22.6562 24.5997 22.6562 24.375C22.6562 24.1503 22.4816 23.9688 22.2656 23.9688Z" fill="black"/>
<path d="M4.29688 15.4375C4.08086 15.4375 3.90625 15.6191 3.90625 15.8438V24.375C3.90625 24.5997 4.08086 24.7812 4.29688 24.7812C4.51289 24.7812 4.6875 24.5997 4.6875 24.375V15.8438C4.6875 15.6191 4.51289 15.4375 4.29688 15.4375Z" fill="black"/>
<path d="M6.64062 15.4375C6.42461 15.4375 6.25 15.6191 6.25 15.8438V24.375C6.25 24.5997 6.42461 24.7812 6.64062 24.7812C6.85664 24.7812 7.03125 24.5997 7.03125 24.375V15.8438C7.03125 15.6191 6.85664 15.4375 6.64062 15.4375Z" fill="black"/>
<path d="M8.98438 15.4375C8.76836 15.4375 8.59375 15.6191 8.59375 15.8438V24.375C8.59375 24.5997 8.76836 24.7812 8.98438 24.7812C9.20039 24.7812 9.375 24.5997 9.375 24.375V15.8438C9.375 15.6191 9.20039 15.4375 8.98438 15.4375Z" fill="black"/>
<path d="M11.3281 15.4375C11.1121 15.4375 10.9375 15.6191 10.9375 15.8438V24.375C10.9375 24.5997 11.1121 24.7812 11.3281 24.7812C11.5441 24.7812 11.7188 24.5997 11.7188 24.375V15.8438C11.7188 15.6191 11.5441 15.4375 11.3281 15.4375Z" fill="black"/>
<path d="M13.6719 15.4375C13.4559 15.4375 13.2812 15.6191 13.2812 15.8438V24.375C13.2812 24.5997 13.4559 24.7812 13.6719 24.7812C13.8879 24.7812 14.0625 24.5997 14.0625 24.375V15.8438C14.0625 15.6191 13.8879 15.4375 13.6719 15.4375Z" fill="black"/>
<path d="M16.0156 15.4375C15.7996 15.4375 15.625 15.6191 15.625 15.8438V24.375C15.625 24.5997 15.7996 24.7812 16.0156 24.7812C16.2316 24.7812 16.4062 24.5997 16.4062 24.375V15.8438C16.4062 15.6191 16.2316 15.4375 16.0156 15.4375Z" fill="black"/>
<path d="M18.3594 15.4375C18.1434 15.4375 17.9688 15.6191 17.9688 15.8438V24.375C17.9688 24.5997 18.1434 24.7812 18.3594 24.7812C18.5754 24.7812 18.75 24.5997 18.75 24.375V15.8438C18.75 15.6191 18.5754 15.4375 18.3594 15.4375Z" fill="black"/>
<path d="M20.7031 15.4375C20.4871 15.4375 20.3125 15.6191 20.3125 15.8438V24.375C20.3125 24.5997 20.4871 24.7812 20.7031 24.7812C20.9191 24.7812 21.0938 24.5997 21.0938 24.375V15.8438C21.0938 15.6191 20.9191 15.4375 20.7031 15.4375Z" fill="black"/>
<path d="M5.07812 25.1875C4.8625 25.1875 4.6875 25.0055 4.6875 24.7812C4.6875 24.5566 4.51289 24.375 4.29688 24.375C4.08086 24.375 3.90625 24.5566 3.90625 24.7812C3.90625 25.4532 4.43203 26 5.07812 26C5.29414 26 5.46875 25.8184 5.46875 25.5938C5.46875 25.3691 5.29414 25.1875 5.07812 25.1875Z" fill="black"/>
<path d="M4.29688 23.9688C4.08086 23.9688 3.90625 24.1503 3.90625 24.375V24.7812C3.90625 25.0059 4.08086 25.1875 4.29688 25.1875C4.51289 25.1875 4.6875 25.0059 4.6875 24.7812V24.375C4.6875 24.1503 4.51289 23.9688 4.29688 23.9688Z" fill="black"/>
<path d="M20.7031 24.375C20.4871 24.375 20.3125 24.5566 20.3125 24.7812C20.3125 25.0055 20.1375 25.1875 19.9219 25.1875C19.7059 25.1875 19.5312 25.3691 19.5312 25.5938C19.5312 25.8184 19.7059 26 19.9219 26C20.568 26 21.0938 25.4532 21.0938 24.7812C21.0938 24.5566 20.9191 24.375 20.7031 24.375Z" fill="black"/>
<path d="M20.7031 23.9688C20.4871 23.9688 20.3125 24.1503 20.3125 24.375V24.7812C20.3125 25.0059 20.4871 25.1875 20.7031 25.1875C20.9191 25.1875 21.0938 25.0059 21.0938 24.7812V24.375C21.0938 24.1503 20.9191 23.9688 20.7031 23.9688Z" fill="black"/>
<path d="M19.9219 25.1875H5.07812C4.86211 25.1875 4.6875 25.3691 4.6875 25.5938C4.6875 25.8184 4.86211 26 5.07812 26H19.9219C20.1379 26 20.3125 25.8184 20.3125 25.5938C20.3125 25.3691 20.1379 25.1875 19.9219 25.1875Z" fill="black"/>
<path d="M5.46875 7.3125C5.25273 7.3125 5.07812 7.49409 5.07812 7.71875V15.8438C5.07812 16.0684 5.25273 16.25 5.46875 16.25C5.68477 16.25 5.85938 16.0684 5.85938 15.8438V7.71875C5.85938 7.49409 5.68477 7.3125 5.46875 7.3125Z" fill="black"/>
<path d="M19.5312 7.3125C19.3152 7.3125 19.1406 7.49409 19.1406 7.71875V15.8438C19.1406 16.0684 19.3152 16.25 19.5312 16.25C19.7473 16.25 19.9219 16.0684 19.9219 15.8438V7.71875C19.9219 7.49409 19.7473 7.3125 19.5312 7.3125Z" fill="black"/>
<path d="M12.5 0C12.284 0 12.1094 0.181594 12.1094 0.40625V5.6875C12.1094 5.91216 12.284 6.09375 12.5 6.09375C12.716 6.09375 12.8906 5.91216 12.8906 5.6875V0.40625C12.8906 0.181594 12.716 0 12.5 0Z" fill="black"/>
<path d="M12.5 5.28125C12.284 5.28125 12.1094 5.46284 12.1094 5.6875C12.1094 9.49569 9.13047 12.5938 5.46875 12.5938C5.25273 12.5938 5.07812 12.7753 5.07812 13C5.07812 13.2247 5.25273 13.4062 5.46875 13.4062C9.56133 13.4062 12.8906 9.94378 12.8906 5.6875C12.8906 5.46284 12.716 5.28125 12.5 5.28125Z" fill="black"/>
<path d="M19.5312 12.5938C15.8695 12.5938 12.8906 9.49569 12.8906 5.6875C12.8906 5.46284 12.716 5.28125 12.5 5.28125C12.284 5.28125 12.1094 5.46284 12.1094 5.6875C12.1094 9.94378 15.4387 13.4062 19.5312 13.4062C19.7473 13.4062 19.9219 13.2247 19.9219 13C19.9219 12.7753 19.7473 12.5938 19.5312 12.5938Z" fill="black"/>
<path d="M17.1875 12.1777C16.9715 12.1777 16.7969 12.3593 16.7969 12.584V15.8437C16.7969 16.0684 16.9715 16.25 17.1875 16.25C17.4035 16.25 17.5781 16.0684 17.5781 15.8437V12.584C17.5781 12.3593 17.4035 12.1777 17.1875 12.1777Z" fill="black"/>
<path d="M7.8125 12.1777C7.59648 12.1777 7.42188 12.3593 7.42188 12.584V15.8437C7.42188 16.0684 7.59648 16.25 7.8125 16.25C8.02852 16.25 8.20312 16.0684 8.20312 15.8437V12.584C8.20312 12.3593 8.02852 12.1777 7.8125 12.1777Z" fill="black"/>
<path d="M2.73438 12.1875C2.08828 12.1875 1.5625 12.7343 1.5625 13.4062C1.5625 14.0782 2.08828 14.625 2.73438 14.625C3.38047 14.625 3.90625 14.0782 3.90625 13.4062C3.90625 12.7343 3.38047 12.1875 2.73438 12.1875ZM2.73438 13.8125C2.51875 13.8125 2.34375 13.6305 2.34375 13.4062C2.34375 13.182 2.51875 13 2.73438 13C2.95 13 3.125 13.182 3.125 13.4062C3.125 13.6305 2.95 13.8125 2.73438 13.8125Z" fill="black"/>
<path d="M22.2656 12.1875C21.6195 12.1875 21.0938 12.7343 21.0938 13.4062C21.0938 14.0782 21.6195 14.625 22.2656 14.625C22.9117 14.625 23.4375 14.0782 23.4375 13.4062C23.4375 12.7343 22.9117 12.1875 22.2656 12.1875ZM22.2656 13.8125C22.05 13.8125 21.875 13.6305 21.875 13.4062C21.875 13.182 22.05 13 22.2656 13C22.4813 13 22.6562 13.182 22.6562 13.4062C22.6562 13.6305 22.4813 13.8125 22.2656 13.8125Z" fill="black"/>
<path d="M2.73438 13.8125C2.51836 13.8125 2.34375 13.9941 2.34375 14.2188V24.375C2.34375 24.5997 2.51836 24.7812 2.73438 24.7812C2.95039 24.7812 3.125 24.5997 3.125 24.375V14.2188C3.125 13.9941 2.95039 13.8125 2.73438 13.8125Z" fill="black"/>
<path d="M22.2656 13.8125C22.0496 13.8125 21.875 13.9941 21.875 14.2188V24.375C21.875 24.5997 22.0496 24.7812 22.2656 24.7812C22.4816 24.7812 22.6562 24.5997 22.6562 24.375V14.2188C22.6562 13.9941 22.4816 13.8125 22.2656 13.8125Z" fill="black"/>
</svg>
