<svg width="33" height="31" viewBox="0 0 33 31" fill="none" xmlns="http://www.w3.org/2000/svg">
<path d="M25.7812 16.4688H24.2344V8.71875H25.2656C25.4024 8.71875 25.5335 8.66772 25.6302 8.57688C25.7269 8.48604 25.7812 8.36284 25.7812 8.23438V0.96875C25.7812 0.840286 25.7269 0.717083 25.6302 0.626245C25.5335 0.535407 25.4024 0.484375 25.2656 0.484375H7.73438C7.59762 0.484375 7.46647 0.535407 7.36977 0.626245C7.27307 0.717083 7.21875 0.840286 7.21875 0.96875V8.23438C7.21875 8.36284 7.27307 8.48604 7.36977 8.57688C7.46647 8.66772 7.59762 8.71875 7.73438 8.71875H8.76562V16.4688H7.21875C7.082 16.4688 6.95085 16.5198 6.85415 16.6106C6.75745 16.7015 6.70312 16.8247 6.70312 16.9531V19.375C6.70312 19.5035 6.75745 19.6267 6.85415 19.7175C6.95085 19.8083 7.082 19.8594 7.21875 19.8594V30.0312C7.21875 30.1597 7.27307 30.2829 7.36977 30.3738C7.46647 30.4646 7.59762 30.5156 7.73438 30.5156H9.79688C9.93363 30.5156 10.0648 30.4646 10.1615 30.3738C10.2582 30.2829 10.3125 30.1597 10.3125 30.0312V27.125H22.6875V30.0312C22.6875 30.1597 22.7418 30.2829 22.8385 30.3738C22.9352 30.4646 23.0664 30.5156 23.2031 30.5156H25.2656C25.4024 30.5156 25.5335 30.4646 25.6302 30.3738C25.7269 30.2829 25.7812 30.1597 25.7812 30.0312V19.8594C25.918 19.8594 26.0492 19.8083 26.1459 19.7175C26.2425 19.6267 26.2969 19.5035 26.2969 19.375V16.9531C26.2969 16.8247 26.2425 16.7015 26.1459 16.6106C26.0492 16.5198 25.918 16.4688 25.7812 16.4688ZM8.25 7.75V1.45312H24.75V7.75H8.25ZM23.2031 8.71875V16.4688H22.1719V8.71875H23.2031ZM21.1406 8.71875V16.4688H11.8594V8.71875H21.1406ZM10.8281 8.71875V16.4688H9.79688V8.71875H10.8281ZM9.28125 29.5469H8.25V19.8594H9.28125V29.5469ZM22.6875 26.1562H10.3125V25.6719H22.6875V26.1562ZM22.6875 24.7031H10.3125V19.8594H22.6875V24.7031ZM24.75 29.5469H23.7188V19.8594H24.75V29.5469ZM25.2656 18.8906H7.73438V17.4375H25.2656V18.8906Z" fill="black"/>
<path d="M9.28125 2.90625C9.56602 2.90625 9.79688 2.68939 9.79688 2.42188C9.79688 2.15436 9.56602 1.9375 9.28125 1.9375C8.99648 1.9375 8.76562 2.15436 8.76562 2.42188C8.76562 2.68939 8.99648 2.90625 9.28125 2.90625Z" fill="black"/>
<path d="M9.28125 7.26562C9.56602 7.26562 9.79688 7.04876 9.79688 6.78125C9.79688 6.51374 9.56602 6.29688 9.28125 6.29688C8.99648 6.29688 8.76562 6.51374 8.76562 6.78125C8.76562 7.04876 8.99648 7.26562 9.28125 7.26562Z" fill="black"/>
<path d="M23.7188 2.90625C24.0035 2.90625 24.2344 2.68939 24.2344 2.42188C24.2344 2.15436 24.0035 1.9375 23.7188 1.9375C23.434 1.9375 23.2031 2.15436 23.2031 2.42188C23.2031 2.68939 23.434 2.90625 23.7188 2.90625Z" fill="black"/>
<path d="M23.7188 7.26562C24.0035 7.26562 24.2344 7.04876 24.2344 6.78125C24.2344 6.51374 24.0035 6.29688 23.7188 6.29688C23.434 6.29688 23.2031 6.51374 23.2031 6.78125C23.2031 7.04876 23.434 7.26562 23.7188 7.26562Z" fill="black"/>
</svg>
