<svg width="36" height="37" viewBox="0 0 36 37" fill="none" xmlns="http://www.w3.org/2000/svg">
<path d="M3.9375 16.4744C3.62631 16.4744 3.375 16.2158 3.375 15.8962C3.375 15.2586 2.87045 14.74 2.25 14.74C1.62955 14.74 1.125 15.2586 1.125 15.8962C1.125 16.2158 0.873688 16.4744 0.5625 16.4744C0.251312 16.4744 0 16.2158 0 15.8962C0 14.6209 1.00909 13.5837 2.25 13.5837C3.49091 13.5837 4.5 14.6209 4.5 15.8962C4.5 16.2158 4.24869 16.4744 3.9375 16.4744Z" fill="black"/>
<path d="M2.25 26.8757C1.00909 26.8757 0 25.8386 0 24.5632C0 24.2437 0.251312 23.9851 0.5625 23.9851C0.873688 23.9851 1.125 24.2437 1.125 24.5632C1.125 25.2009 1.62955 25.7195 2.25 25.7195C2.56119 25.7195 2.8125 25.9781 2.8125 26.2976C2.8125 26.6174 2.56119 26.8757 2.25 26.8757Z" fill="black"/>
<path d="M0.5625 25.1414C0.251312 25.1414 0 24.8832 0 24.5633V15.8962C0 15.5764 0.251312 15.3181 0.5625 15.3181C0.873688 15.3181 1.125 15.5764 1.125 15.8962V24.5633C1.125 24.8832 0.873688 25.1414 0.5625 25.1414Z" fill="black"/>
<path d="M35.4375 16.4744C35.1263 16.4744 34.875 16.2158 34.875 15.8962C34.875 15.2586 34.3705 14.74 33.75 14.74C33.1295 14.74 32.625 15.2586 32.625 15.8962C32.625 16.2158 32.3737 16.4744 32.0625 16.4744C31.7513 16.4744 31.5 16.2158 31.5 15.8962C31.5 14.6209 32.5091 13.5837 33.75 13.5837C34.9909 13.5837 36 14.6209 36 15.8962C36 16.2158 35.7487 16.4744 35.4375 16.4744Z" fill="black"/>
<path d="M33.75 26.8757C33.4388 26.8757 33.1875 26.6174 33.1875 26.2976C33.1875 25.9781 33.4388 25.7195 33.75 25.7195C34.3705 25.7195 34.875 25.2009 34.875 24.5632C34.875 24.2437 35.1263 23.9851 35.4375 23.9851C35.7487 23.9851 36 24.2437 36 24.5632C36 25.8386 34.9909 26.8757 33.75 26.8757Z" fill="black"/>
<path d="M35.4375 25.1414C35.1263 25.1414 34.875 24.8832 34.875 24.5633V15.8962C34.875 15.5764 35.1263 15.3181 35.4375 15.3181C35.7487 15.3181 36 15.5764 36 15.8962V24.5633C36 24.8832 35.7487 25.1414 35.4375 25.1414Z" fill="black"/>
<path d="M33.75 26.8757H2.25C1.93881 26.8757 1.6875 26.6174 1.6875 26.2976C1.6875 25.9781 1.93881 25.7195 2.25 25.7195H33.75C34.0612 25.7195 34.3125 25.9781 34.3125 26.2976C34.3125 26.6174 34.0612 26.8757 33.75 26.8757Z" fill="black"/>
<path d="M32.0625 29.1909C31.7513 29.1909 31.5 28.9323 31.5 28.6127V15.8962C31.5 15.5764 31.7513 15.3181 32.0625 15.3181C32.3737 15.3181 32.625 15.5764 32.625 15.8962V28.6127C32.625 28.9323 32.3737 29.1909 32.0625 29.1909Z" fill="black"/>
<path d="M3.9375 29.1896C3.62631 29.1896 3.375 28.9311 3.375 28.6115V15.895C3.375 15.5752 3.62631 15.3169 3.9375 15.3169C4.24869 15.3169 4.5 15.5752 4.5 15.895V28.6115C4.5 28.9311 4.24869 29.1896 3.9375 29.1896Z" fill="black"/>
<path d="M3.9375 21.6726C3.62631 21.6726 3.375 21.4143 3.375 21.0945C3.375 19.8194 4.38409 18.782 5.625 18.782C5.93619 18.782 6.1875 19.0406 6.1875 19.3601C6.1875 19.6799 5.93619 19.9382 5.625 19.9382C5.00455 19.9382 4.5 20.4568 4.5 21.0945C4.5 21.4143 4.24869 21.6726 3.9375 21.6726Z" fill="black"/>
<path d="M2.25 10.6953C1.93881 10.6953 1.6875 10.437 1.6875 10.1172C1.6875 8.84181 2.69659 7.80469 3.9375 7.80469C4.24869 7.80469 4.5 8.06298 4.5 8.38281C4.5 8.70264 4.24869 8.96094 3.9375 8.96094C3.31705 8.96094 2.8125 9.4795 2.8125 10.1172C2.8125 10.437 2.56119 10.6953 2.25 10.6953Z" fill="black"/>
<path d="M33.7511 10.6953C33.4402 10.6953 33.1886 10.437 33.1886 10.1172C33.1886 9.4795 32.6841 8.96094 32.0636 8.96094C31.7527 8.96094 31.5011 8.70264 31.5011 8.38281C31.5011 8.06298 31.7527 7.80469 32.0636 7.80469C33.3045 7.80469 34.3136 8.84181 34.3136 10.1172C34.3136 10.437 34.0623 10.6953 33.7511 10.6953Z" fill="black"/>
<path d="M18 10.6953C17.6888 10.6953 17.4375 10.437 17.4375 10.1172C17.4375 8.84181 18.4466 7.80469 19.6875 7.80469C19.9987 7.80469 20.25 8.06298 20.25 8.38281C20.25 8.70264 19.9987 8.96094 19.6875 8.96094C19.067 8.96094 18.5625 9.4795 18.5625 10.1172C18.5625 10.437 18.3112 10.6953 18 10.6953Z" fill="black"/>
<path d="M18 10.6953C17.6888 10.6953 17.4375 10.437 17.4375 10.1172C17.4375 9.4795 16.933 8.96094 16.3125 8.96094C16.0013 8.96094 15.75 8.70264 15.75 8.38281C15.75 8.06298 16.0013 7.80469 16.3125 7.80469C17.5534 7.80469 18.5625 8.84181 18.5625 10.1172C18.5625 10.437 18.3112 10.6953 18 10.6953Z" fill="black"/>
<path d="M32.0625 21.6726C31.7513 21.6726 31.5 21.4143 31.5 21.0945C31.5 20.4568 30.9955 19.9382 30.375 19.9382C30.0638 19.9382 29.8125 19.6799 29.8125 19.3601C29.8125 19.0406 30.0638 18.782 30.375 18.782C31.6159 18.782 32.625 19.8194 32.625 21.0945C32.625 21.4143 32.3737 21.6726 32.0625 21.6726Z" fill="black"/>
<path d="M30.3799 19.9382H5.625C5.31381 19.9382 5.0625 19.6799 5.0625 19.3601C5.0625 19.0406 5.31381 18.782 5.625 18.782H30.3799C30.6911 18.782 30.9424 19.0406 30.9424 19.3601C30.9424 19.6799 30.6911 19.9382 30.3799 19.9382Z" fill="black"/>
<path d="M32.0625 23.9851H3.9375C3.62631 23.9851 3.375 23.7268 3.375 23.407C3.375 23.0874 3.62631 22.8289 3.9375 22.8289H32.0625C32.3737 22.8289 32.625 23.0874 32.625 23.407C32.625 23.7268 32.3737 23.9851 32.0625 23.9851Z" fill="black"/>
<path d="M2.25 14.7399C1.93881 14.7399 1.6875 14.4814 1.6875 14.1618V10.1172C1.6875 9.79736 1.93881 9.53906 2.25 9.53906C2.56119 9.53906 2.8125 9.79736 2.8125 10.1172V14.1618C2.8125 14.4814 2.56119 14.7399 2.25 14.7399Z" fill="black"/>
<path d="M33.75 14.7399C33.4388 14.7399 33.1875 14.4808 33.1875 14.1618L33.1886 10.1172C33.1886 9.79736 33.4407 9.53906 33.7511 9.53906C34.0623 9.53906 34.3136 9.7982 34.3136 10.1172L34.3125 14.1618C34.3125 14.4814 34.0604 14.7399 33.75 14.7399Z" fill="black"/>
<path d="M16.3034 8.96094H3.9375C3.62631 8.96094 3.375 8.70264 3.375 8.38281C3.375 8.06298 3.62631 7.80469 3.9375 7.80469H16.3034C16.6146 7.80469 16.8659 8.06298 16.8659 8.38281C16.8659 8.70264 16.6146 8.96094 16.3034 8.96094Z" fill="black"/>
<path d="M32.0635 8.96094H19.6783C19.3674 8.96094 19.1158 8.70264 19.1158 8.38281C19.1158 8.06298 19.3674 7.80469 19.6783 7.80469H32.0635C32.3747 7.80469 32.626 8.06298 32.626 8.38281C32.626 8.70264 32.3747 8.96094 32.0635 8.96094Z" fill="black"/>
<path d="M18 19.9383C17.6888 19.9383 17.4375 19.68 17.4375 19.3601V10.1172C17.4375 9.79736 17.6888 9.53906 18 9.53906C18.3112 9.53906 18.5625 9.79736 18.5625 10.1172V19.3601C18.5625 19.68 18.3112 19.9383 18 19.9383Z" fill="black"/>
<path d="M29.2473 29.1908C28.9361 29.1908 28.6848 28.9322 28.6848 28.6126V26.2976C28.6848 25.9781 28.9361 25.7195 29.2473 25.7195C29.5582 25.7195 29.8098 25.9781 29.8098 26.2976V28.6126C29.8098 28.9322 29.5582 29.1908 29.2473 29.1908Z" fill="black"/>
<path d="M32.0626 29.1909H29.2473C28.9361 29.1909 28.6848 28.9323 28.6848 28.6128C28.6848 28.293 28.9361 28.0347 29.2473 28.0347H32.0626C32.3737 28.0347 32.6251 28.293 32.6251 28.6128C32.6251 28.9323 32.3737 29.1909 32.0626 29.1909Z" fill="black"/>
<path d="M6.7522 29.1908C6.44128 29.1908 6.1897 28.9322 6.1897 28.6126V26.2976C6.1897 25.9781 6.44128 25.7195 6.7522 25.7195C7.06338 25.7195 7.3147 25.9781 7.3147 26.2976V28.6126C7.3147 28.9322 7.06338 29.1908 6.7522 29.1908Z" fill="black"/>
<path d="M6.75214 29.1909H3.93689C3.6257 29.1909 3.37439 28.9323 3.37439 28.6128C3.37439 28.293 3.6257 28.0347 3.93689 28.0347H6.75214C7.06332 28.0347 7.31464 28.293 7.31464 28.6128C7.31464 28.9323 7.06332 29.1909 6.75214 29.1909Z" fill="black"/>
</svg>
