<svg width="25" height="30" viewBox="0 0 25 30" fill="none" xmlns="http://www.w3.org/2000/svg">
<path d="M24.5833 4.5H0.416667C0.186562 4.5 0 4.72387 0 5V7C0 7.27612 0.186562 7.5 0.416667 7.5H0.833333V25C0.833333 25.2761 1.0199 25.5 1.25 25.5H2.91667C3.14677 25.5 3.33333 25.2761 3.33333 25V13.5H15V25.5H24.1667V7.5H24.5833C24.8134 7.5 25 7.27612 25 7V5C25 4.72387 24.8134 4.5 24.5833 4.5ZM2.5 24.5H1.66667V7.5H2.5V24.5ZM15 12.5H3.33333V11.5H15V12.5ZM15 10.5H3.33333V7.5H15V10.5ZM23.3333 24.5H15.8333V23.5H23.3333V24.5ZM23.3333 22.5H15.8333V19.5H23.3333V22.5ZM23.3333 18.5H15.8333V13.5H23.3333V18.5ZM23.3333 12.5H15.8333V7.5H23.3333V12.5ZM24.1667 6.5H0.833333V5.5H24.1667V6.5Z" fill="black"/>
<path d="M20.4167 8.5H18.75V9.5H20.4167V8.5Z" fill="black"/>
<path d="M10 8.5H8.33337V9.5H10V8.5Z" fill="black"/>
<path d="M20.4167 14.5H18.75V15.5H20.4167V14.5Z" fill="black"/>
<path d="M20.4167 20.5H18.75V21.5H20.4167V20.5Z" fill="black"/>
</svg>
