<svg width="35" height="32" viewBox="0 0 35 32" fill="none" xmlns="http://www.w3.org/2000/svg">
<g clip-path="url(#clip0)">
<path d="M13.5801 21.8003L13.355 22.9321H12.5243C11.422 22.9384 10.4159 23.507 9.91681 24.4057L7.64706 28.5603C7.64414 28.5667 7.64298 28.5737 7.64006 28.5801C7.63714 28.5865 7.63131 28.6041 7.62606 28.6158C7.60529 28.6672 7.59329 28.7211 7.59048 28.7758C7.59048 28.7827 7.58581 28.7891 7.58581 28.7966V30.3966C7.58581 31.2803 8.36931 31.9966 9.33581 31.9966H25.6668C26.6333 31.9966 27.4168 31.2803 27.4168 30.3966V28.7987C27.4168 28.7913 27.4127 28.7849 27.4121 28.7779C27.4093 28.7233 27.3973 28.6693 27.3766 28.6179C27.3713 28.6062 27.3684 28.5939 27.3626 28.5822C27.3567 28.5705 27.3585 28.5689 27.3556 28.5625L25.0835 24.4041C24.5839 23.5061 23.5779 22.9381 22.476 22.9321H21.6453L21.4201 21.8003C27.1036 20.0452 30.5607 14.7853 29.588 9.37323C28.6153 3.96113 23.499 -0.0107422 17.5001 -0.0107422C11.5013 -0.0107422 6.38494 3.96113 5.41225 9.37323C4.43956 14.7853 7.89672 20.0452 13.5801 21.8003ZM26.2501 30.3987C26.2501 30.6933 25.989 30.9321 25.6668 30.9321H9.33348C9.01131 30.9321 8.75014 30.6933 8.75014 30.3987V29.3321H26.2501V30.3987ZM22.476 23.9987C23.1378 24.0022 23.7421 24.3432 24.0422 24.8825L25.8902 28.2654H9.11006L10.9569 24.8841C11.2569 24.344 11.8618 24.0023 12.5243 23.9987H13.1432L13.0942 24.2446C13.0009 24.7117 13.1393 25.1926 13.4721 25.5572C13.8048 25.9217 14.2975 26.1324 14.8168 26.1321H20.1835C20.7025 26.132 21.1947 25.9213 21.5272 25.5569C21.8596 25.1925 21.998 24.712 21.9049 24.2451L21.8571 23.9987H22.476ZM20.7581 24.4366C20.789 24.5923 20.7428 24.7526 20.6318 24.874C20.5208 24.9955 20.3566 25.0656 20.1835 25.0654H14.8168C14.6438 25.0653 14.4798 24.995 14.369 24.8734C14.2583 24.7519 14.2123 24.5917 14.2434 24.4361L14.7101 22.0937C16.5451 22.5004 18.4599 22.5004 20.2949 22.0937L20.7581 24.4366ZM17.5001 1.0654C23.6213 1.0654 28.5835 5.60225 28.5835 11.1987C28.5835 16.7952 23.6213 21.3321 17.5001 21.3321C11.379 21.3321 6.41681 16.7952 6.41681 11.1987C6.42356 5.60481 11.3818 1.07157 17.5001 1.0654Z" fill="black"/>
<path d="M9.41888 16.6005C10.093 17.4835 10.9796 18.2133 12.0106 18.7339C12.5317 18.9947 13.1064 19.1534 13.6982 19.2H13.8079C15.2895 19.2 16.5 17.5813 17.4105 14.3936C17.4409 14.3936 17.4689 14.3979 17.5004 14.3979C18.3508 14.3978 19.1719 14.1133 19.8086 13.5979C20.3916 13.9874 20.7633 14.5873 20.8289 15.2448C20.246 15.6581 19.5759 15.9566 18.8607 16.1216C18.6974 16.16 18.5346 16.1888 18.3666 16.2128C18.0657 16.2558 17.8516 16.5033 17.8751 16.7809C17.8987 17.0586 18.1519 17.2729 18.4565 17.2731C18.4869 17.273 18.5174 17.2709 18.5475 17.2667C18.7528 17.2373 18.9517 17.2016 19.146 17.1563C19.7672 17.0112 20.3618 16.7833 20.9105 16.48C20.9094 16.7747 20.9328 17.0691 20.9805 17.3605C19.9127 17.8897 18.7149 18.1612 17.5004 18.1493H17.4304C17.1082 18.1493 16.847 18.3881 16.847 18.6827C16.847 18.9772 17.1082 19.216 17.4304 19.216H17.5004C18.934 19.2282 20.3467 18.9011 21.6012 18.2667C21.7937 18.372 22.0139 18.4274 22.2382 18.4267C22.4429 18.4239 22.6464 18.3963 22.8431 18.3445C24.3721 17.9712 25.7983 16.7061 26.6587 14.9643C27.5016 13.2576 27.6259 11.4597 26.9842 10.2773C26.3035 9.00587 24.2116 8.82721 20.6055 9.72907C20.1902 9.0003 19.4855 8.44457 18.6361 8.17601C18.7333 7.51928 19.132 6.93152 19.7322 6.56001C20.4005 6.82254 21.0055 7.20315 21.5125 7.68001C21.6364 7.79868 21.7532 7.9233 21.8625 8.05334C22.0604 8.28604 22.427 8.32806 22.6816 8.14721C22.9361 7.96635 22.982 7.6311 22.7842 7.39841C22.649 7.23887 22.5049 7.08578 22.3525 6.93974C21.9116 6.52484 21.4087 6.16913 20.8586 5.88321C21.1357 5.7388 21.3987 5.57304 21.645 5.38774C22.0136 5.60403 22.3611 5.84922 22.6833 6.12054C23.2698 6.62107 23.7677 7.20186 24.1591 7.84214C24.2624 8.01094 24.4574 8.11543 24.669 8.11521C24.7683 8.11546 24.866 8.09212 24.9525 8.04747C25.2336 7.90396 25.3344 7.5793 25.1776 7.32214C24.7277 6.58574 24.1553 5.91784 23.4807 5.34241C23.0731 4.99924 22.6305 4.6926 22.1589 4.42667C22.1195 4.05018 21.9234 3.70192 21.6111 3.45387C20.4917 2.43041 18.5825 1.93121 16.507 2.12054C14.4653 2.30507 12.6978 3.10507 11.8934 4.20801C11.037 5.38134 11.9045 7.12054 14.5341 9.51147C14.0471 10.2173 13.8848 11.0706 14.0826 11.8853C13.4055 12.136 12.6436 12.111 11.9879 11.8165C11.9544 11.6116 11.9388 11.4045 11.9412 11.1973C11.9401 10.7286 12.0096 10.262 12.1477 9.81067C12.1943 9.65175 12.2514 9.49555 12.3186 9.34294C12.4399 9.07004 12.2963 8.7589 11.9978 8.64801C11.6993 8.53711 11.359 8.66844 11.2377 8.94134C11.1538 9.13178 11.0823 9.32662 11.0236 9.52481C10.8572 10.0685 10.7734 10.6306 10.7745 11.1952V11.2453C10.4996 11.0977 10.2109 10.9728 9.9118 10.872C9.92684 10.4734 9.9821 10.0768 10.0769 9.68747C10.2558 8.9594 10.5602 8.26197 10.9787 7.62134C11.0894 7.45728 11.0946 7.2514 10.9924 7.08283C10.8902 6.91425 10.6965 6.80921 10.4856 6.80807C10.2748 6.80693 10.0798 6.90988 9.97538 7.07734C9.49474 7.81355 9.14542 8.61506 8.94055 9.45174C8.81787 9.95075 8.75084 10.4598 8.74046 10.9712C8.41738 11.1927 8.19529 11.5157 8.11688 11.8779C7.70913 13.28 8.19621 15.0464 9.41888 16.6005ZM25.9377 10.7493C26.4219 11.6411 26.2877 13.1232 25.5947 14.5253C24.8772 15.9787 23.7356 17.0219 22.5392 17.3147C22.4353 17.3435 22.3276 17.3595 22.219 17.3621H22.1904C22.0906 17.0362 22.0511 16.6973 22.0737 16.3595C22.0539 15.2928 22.0206 13.7461 20.5495 12.7632C20.9318 12.152 21.0758 11.4403 20.9578 10.7445C24.1848 9.94934 25.649 10.2107 25.9377 10.7493ZM19.8337 11.2C19.8337 12.3782 18.789 13.3333 17.5004 13.3333C16.2117 13.3333 15.167 12.3782 15.167 11.2C15.167 10.0218 16.2117 9.06667 17.5004 9.06667C18.789 9.06667 19.8337 10.0218 19.8337 11.2ZM12.864 4.80001C13.4701 3.96907 14.9454 3.33387 16.6219 3.18187C18.3532 3.02614 19.9113 3.40961 20.7863 4.20907C20.8729 4.28248 20.9465 4.36777 21.0045 4.46187C20.7454 4.70392 20.4437 4.9044 20.112 5.05494C19.1267 5.59467 17.694 6.38401 17.4759 8.00374C16.6862 8.00819 15.9216 8.25794 15.3076 8.71201C13.3103 6.88001 12.4003 5.43361 12.864 4.79734V4.80001ZM14.5219 12.8747C14.9278 13.4775 15.5401 13.9408 16.2637 14.1925C15.4097 17.1365 14.4087 18.1616 13.767 18.1333C12.6809 18.0699 11.345 17.2235 10.3639 15.9765C9.34246 14.6789 8.92305 13.2491 9.24155 12.1531C9.26764 12.0478 9.31153 11.9468 9.37163 11.8539C9.73375 11.9338 10.0768 12.0737 10.3837 12.2667C11.3946 12.7797 12.8687 13.5243 14.5219 12.872V12.8747Z" fill="black"/>
<path d="M15.1668 27.7332C15.489 27.7332 15.7502 27.4944 15.7502 27.1998C15.7502 26.9053 15.489 26.6665 15.1668 26.6665C14.8447 26.6665 14.5835 26.9053 14.5835 27.1998C14.5835 27.4944 14.8447 27.7332 15.1668 27.7332Z" fill="black"/>
<path d="M17.5003 27.7332C17.8225 27.7332 18.0837 27.4944 18.0837 27.1998C18.0837 26.9053 17.8225 26.6665 17.5003 26.6665C17.1782 26.6665 16.917 26.9053 16.917 27.1998C16.917 27.4944 17.1782 27.7332 17.5003 27.7332Z" fill="black"/>
<path d="M19.8335 27.7332C20.1556 27.7332 20.4168 27.4944 20.4168 27.1998C20.4168 26.9053 20.1556 26.6665 19.8335 26.6665C19.5113 26.6665 19.2501 26.9053 19.2501 27.1998C19.2501 27.4944 19.5113 27.7332 19.8335 27.7332Z" fill="black"/>
</g>
<defs>
<clipPath id="clip0">
<rect width="35" height="32" fill="white"/>
</clipPath>
</defs>
</svg>
