<svg width="29" height="32" viewBox="0 0 29 32" fill="none" xmlns="http://www.w3.org/2000/svg">
<path d="M6.61957 12.2767H6.17826V11.3998C6.17826 11.3223 6.13177 11.2479 6.04901 11.1931C5.96625 11.1383 5.854 11.1075 5.73696 11.1075V6.4514C5.73739 5.08912 5.88338 3.72856 6.17385 2.37993C6.17685 2.36618 6.17833 2.35231 6.17826 2.33842V1.16921C6.17826 0.859116 5.99228 0.561723 5.66124 0.342453C5.3302 0.123184 4.88121 0 4.41304 0C3.94488 0 3.49589 0.123184 3.16485 0.342453C2.8338 0.561723 2.64783 0.859116 2.64783 1.16921V2.33842C2.64776 2.35231 2.64923 2.36618 2.65224 2.37993C2.94271 3.72856 3.0887 5.08912 3.08913 6.4514V11.1075C2.97209 11.1075 2.85984 11.1383 2.77708 11.1931C2.69432 11.2479 2.64783 11.3223 2.64783 11.3998V12.2767H2.20652C1.62153 12.2772 1.0607 12.4313 0.647049 12.7053C0.233398 12.9793 0.000700729 13.3507 0 13.7382V17.8304C0 17.908 0.0464944 17.9823 0.129255 18.0371C0.212016 18.0919 0.324263 18.1227 0.441304 18.1227H8.38478C8.50182 18.1227 8.61407 18.0919 8.69683 18.0371C8.77959 17.9823 8.82609 17.908 8.82609 17.8304V13.7382C8.82539 13.3507 8.59269 12.9793 8.17904 12.7053C7.76539 12.4313 7.20456 12.2772 6.61957 12.2767ZM3.53043 2.31767V1.16921C3.53043 1.01416 3.62342 0.865466 3.78895 0.755831C3.95447 0.646197 4.17896 0.584605 4.41304 0.584605C4.64713 0.584605 4.87162 0.646197 5.03714 0.755831C5.20266 0.865466 5.29565 1.01416 5.29565 1.16921V2.31767C5.00219 3.68701 4.85472 5.06834 4.85435 6.4514V11.1075H3.97174V6.4514C3.97137 5.06834 3.8239 3.68701 3.53043 2.31767ZM3.53043 11.6921H5.29565V12.2767H3.53043V11.6921ZM7.94348 17.5381H0.882609V13.7382C0.882609 13.5056 1.02209 13.2826 1.27037 13.1181C1.51866 12.9537 1.8554 12.8613 2.20652 12.8613H6.61957C6.97069 12.8613 7.30743 12.9537 7.55571 13.1181C7.804 13.2826 7.94348 13.5056 7.94348 13.7382V17.5381Z" fill="black"/>
<path d="M27.8292 1.75366C27.5186 1.75366 27.2208 1.85714 27.0013 2.04132C26.7817 2.22551 26.6584 2.47532 26.6584 2.7358V15.1762H21.1946C21.0911 15.1762 20.9918 15.2107 20.9186 15.2721C20.8454 15.3335 20.8043 15.4167 20.8043 15.5036C20.8043 16.9545 22.9395 18.1226 24.707 18.1226C25.5348 18.1218 26.3284 17.8456 26.9137 17.3546C27.499 16.8636 27.8282 16.1979 27.8292 15.5036C27.8292 15.4167 27.788 15.3335 27.7149 15.2721C27.6417 15.2107 27.5424 15.1762 27.4389 15.1762V2.7358C27.4389 2.64897 27.48 2.5657 27.5532 2.50431C27.6264 2.44291 27.7257 2.40842 27.8292 2.40842C27.9327 2.40842 28.0319 2.44291 28.1051 2.50431C28.1783 2.5657 28.2194 2.64897 28.2194 2.7358V3.06318H29V2.7358C29 2.47532 28.8766 2.22551 28.6571 2.04132C28.4375 1.85714 28.1397 1.75366 27.8292 1.75366ZM24.707 17.4678C23.4925 17.4678 21.9634 16.7116 21.6446 15.8309H27.0162C26.9233 16.2884 26.6405 16.7036 26.218 17.0031C25.7954 17.3027 25.2602 17.4673 24.707 17.4678Z" fill="black"/>
<path d="M14.3068 19.114C21.1297 19.114 24.8513 20.4239 24.8513 21.0965C24.8474 21.1172 24.8407 21.1374 24.8315 21.157C22.9285 20.2074 18.9433 19.6097 14.3068 19.6097C9.6703 19.6097 5.68509 20.2074 3.78211 21.157C3.77269 21.1375 3.76603 21.1172 3.76226 21.0965C3.76226 20.4239 7.48386 19.114 14.3068 19.114ZM24.3929 23.5473C23.1406 24.2917 19.5418 25.0614 14.3068 25.0614C9.05934 25.0614 5.47792 24.2957 4.22064 23.5483C4.10232 23.2314 4.00747 22.9092 3.93656 22.5833C6.03802 23.5622 10.1857 24.0702 14.3068 24.0702C18.4278 24.0702 22.5756 23.5622 24.677 22.5833C24.6061 22.9089 24.5113 23.2307 24.3929 23.5473ZM4.79252 21.8374C6.39219 21.1897 9.71186 20.6009 14.3068 20.6009C18.9017 20.6009 22.222 21.1892 23.8198 21.8374C22.2791 22.448 19.0419 23.079 14.3068 23.079C9.57168 23.079 6.33451 22.448 4.79376 21.8374H4.79252ZM16.5348 31.0088H12.0788C11.5532 31.0077 11.0392 30.8856 10.5983 30.6571C10.1574 30.4285 9.80826 30.1032 9.59277 29.7202C11.0784 30.2424 12.6838 30.512 14.3068 30.512C15.9298 30.512 17.5351 30.2424 19.0208 29.7202C18.8053 30.1032 18.4562 30.4285 18.0153 30.6571C17.5744 30.8856 17.0603 31.0077 16.5348 31.0088ZM14.3068 29.522C12.3752 29.5202 10.4813 29.0946 8.83171 28.2917C7.18208 27.4888 5.84003 26.3393 4.95193 24.9688C7.08875 25.6453 10.4773 26.0527 14.3068 26.0527C18.127 26.0527 21.523 25.6448 23.6623 24.9678C22.7743 26.3386 21.4322 27.4883 19.7825 28.2914C18.1327 29.0945 16.2386 29.5202 14.3068 29.522Z" fill="black"/>
<path d="M16.2337 12.127V10.8152C16.2337 10.7377 16.1963 10.6633 16.1298 10.6085C16.0633 10.5537 15.9731 10.5229 15.8791 10.5229V6.4514C15.8794 5.08912 15.9967 3.72856 16.2302 2.37993C16.2326 2.36618 16.2338 2.35231 16.2337 2.33842V1.16921C16.2337 0.859116 16.0843 0.561723 15.8182 0.342453C15.5522 0.123184 15.1914 0 14.8152 0C14.439 0 14.0782 0.123184 13.8122 0.342453C13.5462 0.561723 13.3967 0.859116 13.3967 1.16921V2.33842C13.3967 2.35231 13.3979 2.36618 13.4003 2.37993C13.6337 3.72856 13.751 5.08912 13.7514 6.4514V10.5229C13.6573 10.5229 13.5671 10.5537 13.5006 10.6085C13.4341 10.6633 13.3967 10.7377 13.3967 10.8152V12.127C12.5503 12.6842 11.9783 13.7204 11.9783 14.9074C11.9783 16.6802 13.251 18.1227 14.8152 18.1227C16.3795 18.1227 17.6522 16.6802 17.6522 14.9074C17.6522 13.7204 17.0802 12.6842 16.2337 12.127ZM14.106 2.31767V1.16921C14.106 1.01416 14.1807 0.865466 14.3137 0.755831C14.4467 0.646197 14.6271 0.584605 14.8152 0.584605C15.0033 0.584605 15.1837 0.646197 15.3167 0.755831C15.4497 0.865466 15.5245 1.01416 15.5245 1.16921V2.31767C15.2886 3.68701 15.1701 5.06834 15.1698 6.4514V10.5229H14.4606V6.4514C14.4603 5.06834 14.3418 3.68701 14.106 2.31767ZM14.106 11.1075H15.5245V11.7979C15.0671 11.6568 14.5633 11.6568 14.106 11.7979V11.1075ZM14.8152 17.5381C13.6418 17.5381 12.6875 16.3578 12.6875 14.9074C12.6875 13.457 13.6418 12.2767 14.8152 12.2767C15.9887 12.2767 16.9429 13.457 16.9429 14.9074C16.9429 16.3578 15.9887 17.5381 14.8152 17.5381Z" fill="black"/>
</svg>
