<svg width="29" height="29" viewBox="0 0 29 29" fill="none" xmlns="http://www.w3.org/2000/svg">
<path d="M22.1819 12.3328V7.7403C22.1942 5.66229 21.3643 3.66419 19.8826 2.20712C18.4501 0.780793 16.575 0 14.5892 0C14.5584 0 14.5216 0 14.4908 0C10.2549 0.00614798 6.812 3.47361 6.812 7.7403V12.3328C5.21353 12.5234 4.04541 13.8637 4.04541 15.4867V25.8031C4.04541 27.5552 5.44715 29 7.19932 29H21.8008C23.5529 29 24.9547 27.5552 24.9547 25.8031V15.4867C24.9485 13.8698 23.7804 12.5234 22.1819 12.3328ZM8.03545 7.7403H8.04159C8.04159 4.14988 10.9373 1.21115 14.497 1.21115H14.5031C16.1938 1.205 17.8169 1.87513 19.0157 3.06784C20.2638 4.30358 20.9585 5.98813 20.9462 7.7403V12.339H19.5936V7.7403C19.6059 6.34471 19.0526 5.00445 18.0628 4.02078C17.1283 3.08628 15.8618 2.55756 14.54 2.55756H14.5031C11.675 2.55756 9.388 4.88149 9.388 7.73415V12.339H8.03545V7.7403ZM18.3702 7.7403V12.339H10.6237V7.7403C10.6237 5.56392 12.3575 3.7933 14.5093 3.7933H14.5462C15.5421 3.7933 16.5012 4.19292 17.2082 4.89994C17.9583 5.64999 18.3825 6.6767 18.3702 7.7403ZM23.7804 25.8215C23.7804 26.8974 22.9074 27.7704 21.8315 27.7704H7.22391C6.14802 27.7704 5.27501 26.8974 5.27501 25.8215V15.5175C5.27501 14.4416 6.14802 13.5686 7.22391 13.5686H21.8315C22.9074 13.5686 23.7804 14.4416 23.7804 15.5175V25.8215Z" fill="black"/>
<path d="M16.6241 20.2882C16.3536 19.3353 15.4867 18.6836 14.4969 18.6836C13.2734 18.6836 12.2775 19.6734 12.2775 20.903C12.2775 21.8928 12.9292 22.7597 13.8821 23.0302V24.7516C13.8821 25.0898 14.1587 25.3664 14.4969 25.3664C14.835 25.3664 15.1117 25.0898 15.1117 24.7516V23.0302C16.2859 22.6921 16.9684 21.4625 16.6241 20.2882ZM14.4969 21.8867C13.9497 21.8867 13.5071 21.444 13.5071 20.8969C13.5071 20.3497 13.9497 19.907 14.4969 19.907C15.0441 19.907 15.4867 20.3497 15.4867 20.8969C15.4867 21.444 15.0441 21.8867 14.4969 21.8867Z" fill="black"/>
</svg>
