<svg width="31" height="31" viewBox="0 0 31 31" fill="none" xmlns="http://www.w3.org/2000/svg">
<g clip-path="url(#clip0)">
<path d="M30.9039 8.22497L28.3205 4.6083C28.2237 4.47257 28.067 4.39185 27.9 4.39185H3.61667C3.4658 4.3921 3.32251 4.45794 3.22463 4.57273L0.124627 8.1894C0.0441498 8.28274 -0.000251209 8.40181 1.06917e-06 8.52518V10.5918C1.06917e-06 10.8772 0.23134 11.1085 0.516668 11.1085H1.03333V26.0918C1.03333 26.3772 1.26467 26.6085 1.55 26.6085H3.61667C3.90199 26.6085 4.13333 26.3772 4.13333 26.0918V11.1085H4.65V22.4752C4.65 22.7605 4.88134 22.9918 5.16667 22.9918H6.71667C7.00199 22.9918 7.23333 22.7605 7.23333 22.4752V11.1085H23.7667V22.4752C23.7667 22.7605 23.998 22.9918 24.2833 22.9918H25.8333C26.1187 22.9918 26.35 22.7605 26.35 22.4752V11.1085H26.8667V26.0918C26.8667 26.3772 27.098 26.6085 27.3833 26.6085H29.45C29.7353 26.6085 29.9667 26.3772 29.9667 26.0918V11.1085H30.4833C30.7687 11.1085 31 10.8772 31 10.5918V8.52518C31 8.41746 30.9664 8.31251 30.9039 8.22497ZM3.85431 5.42518H27.6338L29.4795 8.00851H1.63981L3.85431 5.42518ZM3.1 25.5752H2.06667V11.1085H3.1V25.5752ZM6.2 21.9585H5.68333V11.1085H6.2V21.9585ZM25.3167 21.9585H24.8V11.1085H25.3167V21.9585ZM28.9333 25.5752H27.9V11.1085H28.9333V25.5752ZM1.03333 10.0752V9.04185H29.9667V10.0752H1.03333Z" fill="black"/>
</g>
<defs>
<clipPath id="clip0">
<rect width="31" height="31" fill="white"/>
</clipPath>
</defs>
</svg>
