<svg width="32" height="30" viewBox="0 0 32 30" fill="none" xmlns="http://www.w3.org/2000/svg">
<path d="M31.0602 4.31958H0.93975C0.42075 4.31958 0 4.71403 0 5.2006V21.4247C0 21.9113 0.42075 22.3057 0.93975 22.3057H12.6862V23.9184H10.151C9.632 23.9184 9.21125 24.3129 9.21125 24.7994C9.21125 25.286 9.632 25.6805 10.151 25.6805H21.8489C22.3679 25.6805 22.7887 25.286 22.7887 24.7994C22.7887 24.3129 22.3679 23.9184 21.8489 23.9184H19.3137V22.3057H31.0602C31.5792 22.3057 32 21.9113 32 21.4247V5.2006C32 4.71403 31.5792 4.31958 31.0602 4.31958ZM17.4342 23.9185H14.5658V22.3058H17.4342V23.9185ZM30.1205 20.5438H1.8795V6.08167H30.1205V20.5438Z" fill="black"/>
</svg>
