<svg width="28" height="27" viewBox="0 0 28 27" fill="none" xmlns="http://www.w3.org/2000/svg">
<path d="M22.3125 0.421875H5.6875C5.22353 0.422377 4.77871 0.600328 4.45064 0.916687C4.12256 1.23305 3.93802 1.66198 3.9375 2.10938V23.2031C3.93797 23.5772 4.06706 23.9405 4.30456 24.2362C4.54207 24.5319 4.87457 24.7433 5.25 24.8374V26.1562C5.25 26.2681 5.29609 26.3754 5.37814 26.4546C5.46019 26.5337 5.57147 26.5781 5.6875 26.5781H7C7.09756 26.5781 7.19232 26.5467 7.26921 26.4888C7.3461 26.4308 7.40072 26.3498 7.42437 26.2586L7.7793 24.8906H20.2207L20.5756 26.2586C20.5993 26.3498 20.6539 26.4308 20.7308 26.4888C20.8077 26.5467 20.9024 26.5781 21 26.5781H22.3125C22.4285 26.5781 22.5398 26.5337 22.6219 26.4546C22.7039 26.3754 22.75 26.2681 22.75 26.1562V24.8374C23.1254 24.7433 23.4579 24.5319 23.6954 24.2362C23.9329 23.9405 24.062 23.5772 24.0625 23.2031V2.10938C24.062 1.66198 23.8774 1.23305 23.5494 0.916687C23.2213 0.600328 22.7765 0.422377 22.3125 0.421875ZM6.6582 25.7344H6.125V24.8906H6.87695L6.6582 25.7344ZM21.875 25.7344H21.3418L21.123 24.8906H21.875V25.7344ZM23.1875 23.2031C23.1872 23.4268 23.0949 23.6413 22.9309 23.7994C22.7669 23.9576 22.5445 24.0466 22.3125 24.0469H5.6875C5.45553 24.0466 5.23315 23.9576 5.06912 23.7994C4.90509 23.6413 4.8128 23.4268 4.8125 23.2031V2.10938C4.8128 1.88569 4.90509 1.67125 5.06912 1.51308C5.23315 1.35491 5.45553 1.26592 5.6875 1.26562H22.3125C22.5445 1.26592 22.7669 1.35491 22.9309 1.51308C23.0949 1.67125 23.1872 1.88569 23.1875 2.10938V23.2031Z" fill="black"/>
<path d="M21.875 2.10938H6.125C6.00897 2.10938 5.89769 2.15382 5.81564 2.23294C5.73359 2.31206 5.6875 2.41936 5.6875 2.53125V22.7812C5.6875 22.8931 5.73359 23.0004 5.81564 23.0796C5.89769 23.1587 6.00897 23.2031 6.125 23.2031H21.875C21.991 23.2031 22.1023 23.1587 22.1844 23.0796C22.2664 23.0004 22.3125 22.8931 22.3125 22.7812V2.53125C22.3125 2.41936 22.2664 2.31206 22.1844 2.23294C22.1023 2.15382 21.991 2.10938 21.875 2.10938ZM13.5625 22.3594H6.5625V2.95312H13.5625V22.3594ZM21.4375 22.3594H14.4375V2.95312H21.4375V22.3594Z" fill="black"/>
<path d="M11.8125 11.3906C11.5529 11.3906 11.2992 11.4649 11.0833 11.6039C10.8675 11.743 10.6992 11.9407 10.5999 12.1719C10.5006 12.4032 10.4746 12.6577 10.5252 12.9032C10.5759 13.1487 10.7009 13.3742 10.8844 13.5512C11.068 13.7282 11.3018 13.8487 11.5564 13.8976C11.811 13.9464 12.0749 13.9213 12.3148 13.8255C12.5546 13.7297 12.7596 13.5675 12.9038 13.3594C13.048 13.1513 13.125 12.9066 13.125 12.6563C13.1246 12.3207 12.9862 11.999 12.7401 11.7617C12.4941 11.5245 12.1605 11.391 11.8125 11.3906ZM11.8125 13.0781C11.726 13.0781 11.6414 13.0534 11.5694 13.007C11.4975 12.9607 11.4414 12.8948 11.4083 12.8177C11.3752 12.7406 11.3665 12.6558 11.3834 12.5739C11.4003 12.4921 11.442 12.4169 11.5031 12.3579C11.5643 12.2989 11.6423 12.2588 11.7271 12.2425C11.812 12.2262 11.9 12.2346 11.9799 12.2665C12.0599 12.2984 12.1282 12.3525 12.1763 12.4219C12.2243 12.4912 12.25 12.5728 12.25 12.6563C12.2499 12.7681 12.2037 12.8753 12.1217 12.9544C12.0397 13.0335 11.9285 13.078 11.8125 13.0781Z" fill="black"/>
<path d="M16.1875 13.9219C16.4471 13.9219 16.7008 13.8477 16.9167 13.7086C17.1325 13.5695 17.3008 13.3719 17.4001 13.1406C17.4994 12.9093 17.5254 12.6548 17.4748 12.4093C17.4241 12.1638 17.2991 11.9383 17.1156 11.7613C16.932 11.5843 16.6982 11.4638 16.4436 11.4149C16.189 11.3661 15.9251 11.3912 15.6852 11.487C15.4454 11.5828 15.2404 11.745 15.0962 11.9531C14.952 12.1612 14.875 12.4059 14.875 12.6563C14.8754 12.9918 15.0138 13.3135 15.2599 13.5508C15.5059 13.788 15.8395 13.9215 16.1875 13.9219ZM16.1875 12.2344C16.274 12.2344 16.3586 12.2591 16.4306 12.3055C16.5025 12.3518 16.5586 12.4177 16.5917 12.4948C16.6248 12.5719 16.6335 12.6567 16.6166 12.7386C16.5997 12.8204 16.558 12.8956 16.4969 12.9546C16.4357 13.0136 16.3577 13.0537 16.2729 13.07C16.188 13.0863 16.1 13.0779 16.0201 13.046C15.9401 13.0141 15.8718 12.96 15.8237 12.8906C15.7757 12.8213 15.75 12.7397 15.75 12.6563C15.7501 12.5444 15.7963 12.4372 15.8783 12.3581C15.9603 12.279 16.0715 12.2345 16.1875 12.2344Z" fill="black"/>
</svg>
