<svg width="175" height="75" viewBox="0 0 175 75" fill="none" xmlns="http://www.w3.org/2000/svg">
<g clip-path="url(#clip0)">
<path d="M38.0882 75C59.1238 75 76.1765 58.2107 76.1765 37.5C76.1765 16.7893 59.1238 0 38.0882 0C17.0527 0 0 16.7893 0 37.5C0 58.2107 17.0527 75 38.0882 75Z" fill="#FFD1DF"/>
<path d="M38.0882 68.5345C55.4969 68.5345 69.6095 54.6399 69.6095 37.5C69.6095 20.3601 55.4969 6.46552 38.0882 6.46552C20.6795 6.46552 6.56689 20.3601 6.56689 37.5C6.56689 54.6399 20.6795 68.5345 38.0882 68.5345Z" fill="#FFD1DF"/>
<g style="mix-blend-mode:darken">
<path d="M39.3104 56.9335C42.0291 54.8085 44.4745 52.5507 46.6463 50.1601C48.8338 47.7694 50.6854 45.3554 52.201 42.9179C53.7323 40.4648 54.9041 38.0273 55.7166 35.6054C56.5291 33.1679 56.9354 30.8476 56.9354 28.6444C56.9354 27.3632 56.7948 26.1679 56.5135 25.0585C56.2479 23.9491 55.8573 22.996 55.3416 22.1991C54.826 21.3866 54.201 20.7538 53.4666 20.3007C52.7479 19.8319 51.9354 19.5976 51.0291 19.5976H50.5838C50.3182 19.5976 50.0916 19.5194 49.9041 19.3632C49.7323 19.2069 49.6463 18.996 49.6463 18.7304C49.6463 18.3554 49.7791 18.1132 50.0448 18.0038C50.326 17.8788 50.6385 17.8163 50.9823 17.8163C52.1229 17.8163 53.1698 18.0819 54.1229 18.6132C55.076 19.1444 55.8885 19.8866 56.5604 20.8398C57.2323 21.7929 57.7557 22.9179 58.1307 24.2148C58.5057 25.5116 58.6932 26.9179 58.6932 28.4335C58.6932 30.9023 58.2635 33.4413 57.4041 36.0507C56.5604 38.6444 55.3026 41.2616 53.6307 43.9023C51.9745 46.5273 49.912 49.1444 47.4432 51.7538C44.9901 54.3632 42.162 56.9101 38.9588 59.3944C38.8807 59.4569 38.7791 59.5273 38.6541 59.6054C38.5291 59.6835 38.3807 59.7226 38.2088 59.7226C37.912 59.7226 37.6932 59.621 37.5526 59.4179C37.412 59.2304 37.3416 59.0038 37.3416 58.7382C37.3416 58.6288 37.3495 58.4023 37.3651 58.0585C37.3963 57.7148 37.4276 57.2929 37.4588 56.7929C37.4901 56.2929 37.5291 55.746 37.576 55.1523C37.6229 54.5429 37.662 53.9335 37.6932 53.3241C37.7245 52.6991 37.7479 52.0976 37.7635 51.5194C37.7948 50.9413 37.8104 50.4257 37.8104 49.9726C37.826 46.5507 37.5682 43.3944 37.037 40.5038C36.5057 37.5976 35.662 35.0819 34.5057 32.9569C33.3495 30.8319 31.8573 29.1757 30.0291 27.9882C28.2166 26.7851 26.0213 26.1835 23.4432 26.1835C21.5213 26.1835 19.826 26.4491 18.3573 26.9804C16.9041 27.496 15.6854 28.1835 14.701 29.0429C13.7166 29.9023 12.9745 30.8788 12.4745 31.9726C11.9745 33.0507 11.7245 34.1523 11.7245 35.2773C11.7245 36.2773 11.8885 37.1757 12.2166 37.9726C12.5604 38.7538 13.0213 39.4257 13.5995 39.9882C14.1932 40.5351 14.8885 40.9569 15.6854 41.2538C16.4823 41.5351 17.3416 41.6757 18.2635 41.6757C19.0448 41.6757 19.7557 41.5898 20.3963 41.4179C21.037 41.246 21.5838 41.0585 22.037 40.8554C22.4901 40.6366 22.8416 40.4413 23.0916 40.2694C23.3573 40.0819 23.5057 39.9726 23.537 39.9413C23.6151 39.8632 23.701 39.8163 23.7948 39.8007C23.9041 39.7694 24.0057 39.7538 24.0995 39.7538C24.3338 39.7538 24.537 39.8319 24.7088 39.9882C24.8807 40.1288 24.9666 40.3241 24.9666 40.5741C24.9666 40.871 24.8651 41.0976 24.662 41.2538C24.6307 41.2851 24.4588 41.4179 24.1463 41.6523C23.8338 41.871 23.3963 42.1132 22.8338 42.3788C22.287 42.6288 21.6229 42.8632 20.8416 43.0819C20.0604 43.3007 19.1932 43.4101 18.2401 43.4101C17.0682 43.4101 15.9745 43.2148 14.9588 42.8241C13.9432 42.4335 13.0682 41.8788 12.3338 41.1601C11.5995 40.4413 11.0213 39.5898 10.5995 38.6054C10.1776 37.6054 9.96664 36.5038 9.96664 35.3007C9.96664 33.9569 10.2557 32.6366 10.8338 31.3398C11.412 30.0429 12.2635 28.8866 13.3885 27.871C14.5291 26.8554 15.9276 26.0429 17.5838 25.4335C19.2557 24.8085 21.1854 24.496 23.3729 24.496C26.201 24.496 28.6307 25.1132 30.662 26.3476C32.7088 27.5663 34.3885 29.2929 35.701 31.5273C37.0291 33.7616 38.0057 36.4569 38.6307 39.6132C39.2713 42.7538 39.5916 46.246 39.5916 50.0898C39.5916 51.1679 39.5682 52.2851 39.5213 53.4413C39.4745 54.5819 39.4041 55.746 39.3104 56.9335Z" fill="#030711" fill-opacity="0.64"/>
</g>
</g>
<g style="mix-blend-mode:darken">
<path d="M94.0722 29C95.4162 29 97.0322 29.192 98.9202 29.576L98.8242 33.032C97.1602 32.648 95.6402 32.456 94.2642 32.456C91.3842 32.456 89.9442 33.384 89.9442 35.24V35.672C89.9442 36.248 90.0882 36.712 90.3762 37.064C90.6962 37.416 91.2562 37.784 92.0562 38.168L96.5682 40.28C99.2882 41.56 100.648 43.432 100.648 45.896V46.952C100.616 49.16 99.9442 50.824 98.6322 51.944C97.3522 53.032 95.3202 53.576 92.5362 53.576C91.0962 53.576 89.0322 53.24 86.3442 52.568L86.5362 48.92C88.9362 49.624 90.9042 49.976 92.4402 49.976C94.0082 49.976 95.0962 49.768 95.7042 49.352C96.3122 48.904 96.6162 48.184 96.6162 47.192V46.712C96.6162 45.944 96.4562 45.336 96.1362 44.888C95.8482 44.44 95.3522 44.056 94.6482 43.736L89.9922 41.672C88.5842 41.032 87.5442 40.264 86.8722 39.368C86.2322 38.472 85.9122 37.432 85.9122 36.248V35.576C85.9762 33.4 86.6482 31.768 87.9282 30.68C89.2402 29.56 91.2882 29 94.0722 29ZM110.48 29.576H116.72V32.936H110.48V46.664C110.48 47.88 110.72 48.76 111.2 49.304C111.712 49.816 112.496 50.072 113.552 50.072C114.896 50.072 116.208 49.912 117.488 49.592L117.584 53C116.176 53.384 114.896 53.576 113.744 53.576C111.184 53.576 109.312 53.016 108.128 51.896C106.976 50.744 106.4 48.888 106.4 46.328V32.936H103.04V29.576H106.4L107.168 23.336H110.48V29.576ZM129.051 29C131.803 29 133.803 29.624 135.051 30.872C136.331 32.088 136.971 34.04 136.971 36.728V53H133.083V49.256C131.227 52.136 129.131 53.576 126.795 53.576C124.939 53.576 123.451 52.936 122.331 51.656C121.243 50.376 120.699 48.632 120.699 46.424V45.08C120.699 43.16 121.355 41.576 122.667 40.328C123.979 39.048 125.739 38.408 127.947 38.408C129.163 38.408 130.811 38.616 132.891 39.032V36.392C132.891 35.016 132.571 34.024 131.931 33.416C131.323 32.808 130.363 32.504 129.051 32.504C127.515 32.504 125.355 32.744 122.571 33.224V29.72C125.579 29.24 127.739 29 129.051 29ZM128.955 41.576C127.611 41.576 126.587 41.928 125.883 42.632C125.179 43.336 124.827 44.328 124.827 45.608V46.136C124.827 47.32 125.099 48.248 125.643 48.92C126.187 49.592 126.875 49.928 127.707 49.928C128.571 49.928 129.451 49.56 130.347 48.824C131.275 48.056 132.123 46.984 132.891 45.608V41.912C131.675 41.688 130.363 41.576 128.955 41.576ZM160.55 29.576L149.798 61.88H145.718L148.79 53H147.254L140.582 29.576H145.046L150.086 50.072L156.326 29.576H160.55Z" fill="#F098B2"/>
</g>
<defs>
<clipPath id="clip0">
<rect width="76.1765" height="75" fill="white"/>
</clipPath>
</defs>
</svg>
