<svg width="60" height="64" viewBox="0 0 60 64" fill="none" xmlns="http://www.w3.org/2000/svg">
<g clip-path="url(#clip0)">
<path d="M45.2681 48.7819C44.9826 44.1326 41.3477 40.4426 36.918 40.4426H23.2427C18.8232 40.4426 15.1952 44.1158 14.895 48.7499C14.8581 48.9241 14.8725 49.2018 14.8725 49.3709V57.9508C14.8725 59.416 15.99 60.608 17.3637 60.608H42.7972C44.1709 60.608 45.2884 59.416 45.2884 57.9508V49.3709C45.2883 49.2081 45.3016 48.9486 45.2681 48.7819ZM23.2427 42.3436H36.918C40.1211 42.3436 42.7963 44.795 43.3846 48.0309L20.7916 48.0133C20.7675 48.0111 20.7434 48.0094 20.7187 48.0094C20.6948 48.0094 20.6714 48.0113 20.648 48.0131L16.7797 48.0101C17.3756 44.7844 20.0464 42.3436 23.2427 42.3436ZM42.7971 58.707H17.3637C16.9727 58.707 16.6547 58.3678 16.6547 57.9508V49.911L19.8276 49.9135V52.7096C19.8276 53.2346 20.2266 53.6601 20.7187 53.6601C21.2108 53.6601 21.6098 53.2346 21.6098 52.7096V49.9149L43.5062 49.932V57.9509C43.5061 58.3679 43.188 58.707 42.7971 58.707Z" fill="black"/>
<path d="M7.64332 51.2634C8.1253 51.2634 8.51602 50.8466 8.51602 50.3325C8.51602 49.8184 8.1253 49.4016 7.64332 49.4016C7.16135 49.4016 6.77063 49.8184 6.77063 50.3325C6.77063 50.8466 7.16135 51.2634 7.64332 51.2634Z" fill="black"/>
<path d="M55.2216 45.5354L49.2376 40.9086V36.6891C49.2376 36.1641 48.8387 35.7386 48.3465 35.7386C47.8543 35.7386 47.4554 36.1641 47.4554 36.6891L47.4548 60.861C47.4486 61.5448 46.9506 62.099 46.3385 62.099H13.6617C13.0471 62.099 12.5469 61.5399 12.545 60.852L12.5449 29.298H15.6552V31.6232C15.6552 32.402 16.1838 33.0503 16.8783 33.1845C16.7285 38.6464 23.8705 38.1853 23.5527 33.1845C24.247 33.0503 24.7758 32.402 24.7758 31.6232V29.298H35.2242V31.6232C35.2242 32.402 35.753 33.0503 36.4473 33.1845C36.2975 38.6464 43.4395 38.1853 43.1217 33.1845C43.816 33.0503 44.3448 32.402 44.3448 31.6232V29.298H47.4555V32.2535C47.4555 32.7785 47.8545 33.204 48.3466 33.204C48.8387 33.204 49.2377 32.7785 49.2377 32.2535V24.0793C49.6659 24.0734 49.6192 24.0975 50.1882 24.0516C52.6389 23.7774 54.5575 21.497 54.5575 18.7336V10.564C54.5575 7.61637 52.3745 5.21838 49.6914 5.21838H38.2296V3.36287C38.2295 1.50863 36.8152 0 35.0768 0H24.9232C23.1848 0 21.7705 1.50863 21.7705 3.36287V5.21838H10.3087C8.0448 5.21838 6.13699 6.92562 5.59617 9.22962C5.49597 9.65625 5.44265 10.1035 5.44265 10.564V18.7335C5.44265 20.4564 6.18925 21.9906 7.34484 22.9689C8.18472 23.6714 9.28312 24.1374 10.7628 24.0791V40.9082L4.7782 45.5356C3.9307 46.1917 3.42468 47.2425 3.42468 48.3466V58.4834C3.42468 60.4103 4.92175 61.9777 6.76195 61.9777H10.9562C11.3748 63.1592 12.4294 64 13.6617 64H46.3385C47.571 64 48.6255 63.1592 49.0443 61.9779H53.2382C55.0782 61.9779 56.5754 60.4103 56.5754 58.4835V48.3467C56.5754 47.2427 56.0695 46.1919 55.2216 45.5354ZM14.0256 7.11938H45.9743C45.2582 8.0505 44.8253 9.2525 44.8253 10.564V18.7335C44.8253 20.045 45.2582 21.247 45.9743 22.1781H43.1217V17.9102V15.8453C43.1217 14.3018 41.9445 13.046 40.4974 13.046H27.0506C26.5584 13.046 26.1595 13.4715 26.1595 13.9965C26.1595 14.5215 26.5584 14.947 27.0506 14.947H40.4974C40.9617 14.947 41.3395 15.3499 41.3395 15.8453V16.9597H18.6605V15.8453C18.6605 15.35 19.0383 14.947 19.5026 14.947H22.8922C23.3844 14.947 23.7833 14.5215 23.7833 13.9965C23.7833 13.4715 23.3844 13.046 22.8922 13.046H19.5026C18.0555 13.046 16.8783 14.3018 16.8783 15.8453V17.9102V22.1781H14.0257C14.7418 21.247 15.1747 20.045 15.1747 18.7335V10.564C15.1747 9.2525 14.7417 8.0505 14.0256 7.11938ZM36.4473 18.8609V22.1782H23.5527V18.8609H36.4473ZM41.3395 18.8609V27.3966H38.2295V18.8609H41.3395ZM18.6605 18.8609H21.7705V27.3966H18.6605V18.8609ZM23.5527 27.397V24.0791H36.4473V27.397H23.5527ZM21.7705 33.64C21.5739 36.0649 18.3452 35.5009 18.6605 33.2114H21.7705V33.64ZM22.9936 31.3104H22.6616H17.7694H17.4374V29.298H22.9936V31.3104ZM41.3395 33.64C41.1429 36.0649 37.9143 35.5009 38.2295 33.2114H41.3395V33.64ZM42.5626 31.3104H42.2306H37.3384H37.0064V29.298H42.5626V31.3104ZM47.4554 27.397H43.1217V24.0791H47.4554V27.397ZM52.7752 10.564V18.7335C52.7752 20.5735 51.4768 22.0812 49.8497 22.1737C49.7972 22.1768 49.7443 22.1782 49.6912 22.1782C47.9909 22.1782 46.6075 20.633 46.6075 18.7336V10.564C46.6075 8.66463 47.9909 7.11938 49.6912 7.11938C51.3918 7.11938 52.7752 8.66463 52.7752 10.564ZM23.5527 3.36287C23.5527 2.55675 24.1676 1.901 24.9232 1.901H35.0768C35.8325 1.901 36.4473 2.55687 36.4473 3.36287V5.21838H23.5527V3.36287ZM10.1502 22.1737C8.52304 22.0812 7.22472 20.5736 7.22472 18.7335V10.564C7.22472 8.66463 8.60812 7.11938 10.3086 7.11938C12.0091 7.11938 13.3924 8.66463 13.3924 10.564V18.7335C13.3924 20.6329 12.009 22.1781 10.3086 22.1781C10.2555 22.1783 10.2027 22.1768 10.1502 22.1737ZM16.8783 24.0793V27.3971H12.5449V24.0793H16.8783ZM5.82445 47.0745L10.7627 43.2561V51.5019C8.88597 52.4914 6.59308 53.2555 5.20675 52.1304V48.3466C5.20675 47.8496 5.43785 47.3739 5.82445 47.0745ZM5.20675 58.4834V54.2816C6.90679 54.949 8.95511 54.4279 10.7627 53.5956V60.0769H6.76183C5.90437 60.0769 5.20675 59.3621 5.20675 58.4834ZM54.1751 47.0742C54.5621 47.3739 54.7932 47.8496 54.7932 48.3467V52.1305C53.407 53.2559 51.1144 52.4916 49.2376 51.5023V43.2566L54.1751 47.0742ZM54.7932 58.4834C54.7932 59.362 54.0956 60.0768 53.2382 60.0768H49.2376V53.5956C51.0456 54.4279 53.0938 54.9487 54.7932 54.2814V58.4834Z" fill="black"/>
<path d="M52.3986 51.2634C52.8806 51.2634 53.2713 50.8466 53.2713 50.3325C53.2713 49.8184 52.8806 49.4016 52.3986 49.4016C51.9167 49.4016 51.5259 49.8184 51.5259 50.3325C51.5259 50.8466 51.9167 51.2634 52.3986 51.2634Z" fill="black"/>
<path d="M38.6943 51.843H30.1329C29.6407 51.843 29.2418 52.2685 29.2418 52.7935V56.1539C29.2418 56.6789 29.6407 57.1044 30.1329 57.1044H38.6943C39.1864 57.1044 39.5854 56.6789 39.5854 56.1539V52.7935C39.5854 52.2685 39.1863 51.843 38.6943 51.843ZM37.8032 55.2033H31.0239V53.7439H37.8032V55.2033Z" fill="black"/>
</g>
<defs>
<clipPath id="clip0">
<rect width="60" height="64" fill="white"/>
</clipPath>
</defs>
</svg>
