<svg width="60" height="64" viewBox="0 0 60 64" fill="none" xmlns="http://www.w3.org/2000/svg">
<path d="M57 12.8H44V8.53328C43.9966 5.58901 41.7603 3.2036 39 3.19995H21C18.2397 3.2036 16.0034 5.58901 16 8.53328V12.8H3C1.34326 12.8 0 14.2328 0 16V39.7437C0.00634765 41.0968 0.805664 42.3005 2 42.7552V57.5999C2 59.3671 3.34326 60.7999 5 60.7999H55C56.6567 60.7999 58 59.3671 58 57.5999V42.7562C59.1943 42.301 59.9941 41.0968 60 39.7437V16C60 14.2328 58.6567 12.8 57 12.8ZM18 8.53328C18 6.7661 19.3433 5.33328 21 5.33328H39C40.6567 5.33328 42 6.7661 42 8.53328V12.8H40V8.53328C40 7.94422 39.5522 7.46662 39 7.46662H21C20.4478 7.46662 20 7.94422 20 8.53328V12.8H18V8.53328ZM38 12.8H22V9.59995H38V12.8ZM56 57.5999C56 58.189 55.5522 58.6666 55 58.6666H5C4.44775 58.6666 4 58.189 4 57.5999V43.1218L26 46.3583V49.0666C26 50.8338 27.3433 52.2666 29 52.2666H31C32.6567 52.2666 34 50.8338 34 49.0666V46.3583L56 43.1218V57.5999ZM32 49.0666C32 49.6557 31.5522 50.1333 31 50.1333H29C28.4478 50.1333 28 49.6557 28 49.0666V42.6666C28 42.0776 28.4478 41.5999 29 41.5999H31C31.5522 41.5999 32 42.0776 32 42.6666V49.0666ZM58 39.7437C58.0005 40.2755 57.6338 40.7265 57.1401 40.801L56.8628 40.8416L34 44.2046V42.6666C34 40.8994 32.6567 39.4666 31 39.4666H29C27.3433 39.4666 26 40.8994 26 42.6666V44.2046L2.86084 40.801C2.36719 40.727 1.99951 40.276 2 39.7437V16C2 15.4109 2.44775 14.9333 3 14.9333H57C57.5522 14.9333 58 15.4109 58 16V39.7437Z" fill="black"/>
</svg>
