<svg width="60" height="64" viewBox="0 0 60 64" fill="none" xmlns="http://www.w3.org/2000/svg">
<g clip-path="url(#clip0)">
<path d="M30.0586 29.0096C25.882 29.0096 22.4843 33.1591 22.4843 38.2596C22.4843 43.3601 25.8822 47.5096 30.0586 47.5096C34.2351 47.5096 37.6329 43.3601 37.6329 38.2596C37.6329 33.1591 34.2352 29.0096 30.0586 29.0096ZM24.8281 38.2596C24.8281 34.7551 26.9085 31.8669 29.559 31.5411C30.831 33.269 30.722 35.7843 29.23 37.3758C28.007 38.6803 27.3334 40.4148 27.3334 42.2596C27.3334 42.9304 27.4235 43.5863 27.5957 44.2124C25.9501 43.074 24.8281 40.833 24.8281 38.2596V38.2596ZM30.5578 44.9781C29.9875 44.2054 29.6772 43.2583 29.6772 42.2595C29.6772 41.0824 30.1069 39.9758 30.8872 39.1434C32.62 37.2951 33.1633 34.6514 32.5176 32.3041C34.1652 33.4418 35.2892 35.6841 35.2892 38.2595C35.2892 41.7643 33.2086 44.6526 30.5578 44.9781V44.9781Z" fill="black"/>
<path d="M52.5 10H50.102L47.0182 0.828C46.8512 0.331375 46.4098 0 45.9151 0H14.2021C13.7074 0 13.266 0.331375 13.099 0.828L10.0152 10H7.5C6.85277 10 6.32812 10.5596 6.32812 11.25V18C6.32812 18.6904 6.85277 19.25 7.5 19.25H9.75516L14.3236 62.8887C14.3898 63.5215 14.8914 64 15.4882 64H44.5117C45.1086 64 45.6101 63.5215 45.6764 62.8887L50.2448 19.25H52.5C53.1471 19.25 53.6719 18.6904 53.6719 18V11.25C53.6719 10.5596 53.1471 10 52.5 10ZM34.803 2.5L33.6312 5H26.4859L25.314 2.5H34.803ZM15.0268 2.5H22.6938L24.7137 6.809C24.9122 7.2325 25.318 7.5 25.7618 7.5H34.3555C34.7994 7.5 35.2051 7.2325 35.4036 6.809L37.4235 2.5H45.0904L47.612 10H12.5051L15.0268 2.5ZM44.1701 54.75H15.8299L12.8201 26H47.1798L44.1701 54.75ZM16.5366 61.5L16.0916 57.25H43.9083L43.4633 61.5H16.5366ZM51.3281 16.75H35.332C34.6849 16.75 34.1602 17.3096 34.1602 18C34.1602 18.6904 34.6849 19.25 35.332 19.25H47.8866L47.4416 23.5H12.5584L12.1134 19.25H24.7852C25.4324 19.25 25.957 18.6904 25.957 18C25.957 17.3096 25.4324 16.75 24.7852 16.75H8.67188V12.5H51.3281V16.75Z" fill="black"/>
<path d="M30.0586 16.75C29.7504 16.75 29.448 16.8837 29.2301 17.1162C29.0121 17.3487 28.8867 17.6712 28.8867 18C28.8867 18.3288 29.0121 18.6513 29.2301 18.8838C29.448 19.1163 29.7504 19.25 30.0586 19.25C30.3668 19.25 30.6691 19.1163 30.887 18.8838C31.105 18.6513 31.2305 18.3288 31.2305 18C31.2305 17.6712 31.1051 17.3487 30.887 17.1162C30.6691 16.8837 30.3668 16.75 30.0586 16.75Z" fill="black"/>
</g>
<defs>
<clipPath id="clip0">
<rect width="60" height="64" fill="white"/>
</clipPath>
</defs>
</svg>
