<svg width="60" height="64" viewBox="0 0 60 64" fill="none" xmlns="http://www.w3.org/2000/svg">
<g clip-path="url(#clip0)">
<path d="M52.8729 49.3144C51.8494 50.0067 50.8013 50.6489 49.7324 51.2425L47.0208 43.8722C46.8434 43.3903 46.3334 43.1525 45.8816 43.342C45.4297 43.5312 45.2072 44.0752 45.3845 44.5573L48.1511 52.0772C47.9221 52.1917 47.4628 52.4152 47.0817 52.5923C46.789 51.7964 41.3215 36.9357 41.1357 36.4309H42.3947L44.3956 41.8695C44.5729 42.3515 45.083 42.5893 45.5347 42.3998C45.9866 42.2107 46.2091 41.6667 46.0318 41.1847L44.2831 36.4309H48.0891C50.058 36.4309 51.66 34.6222 51.66 32.399C51.66 30.1759 50.0582 28.3672 48.0891 28.3672H43.8695V21.096C43.8695 18.1295 41.6068 15.7159 38.8256 15.7159H16.9566L14.7357 7.96741C14.5937 7.47216 14.1028 7.19341 13.6383 7.34504C13.1741 7.49641 12.9129 8.02041 13.0548 8.51554L19.0917 29.5787C19.2047 29.9728 19.5458 30.2422 19.9322 30.2422C20.7765 30.2422 47.2669 30.2422 48.0892 30.2422C49.0889 30.2422 49.9023 31.2097 49.9023 32.399C49.9023 33.5884 49.089 34.5559 48.0892 34.5559C15.3061 34.5559 17.8455 34.6144 17.3783 34.4302C16.8666 34.2137 16.4508 33.7302 16.2682 33.0933L8.13832 4.72754C7.62235 2.92679 9.17145 1.30129 10.5986 2.06729C11.4892 2.54566 11.5478 3.25754 12.2578 5.73504C12.3996 6.23016 12.8906 6.50904 13.3553 6.35741C13.8195 6.20604 14.0807 5.68204 13.9388 5.18691L13.2522 2.79104C12.6454 0.674162 10.6173 -0.508213 8.7184 0.210912C6.87176 0.910162 5.85739 3.18216 6.45727 5.27566L14.5872 33.6414C14.8383 34.5174 15.3353 35.24 15.9744 35.7313L10.2677 51.2424C9.19887 50.6488 8.15086 50.0065 7.12735 49.3143C4.43496 47.4934 1.04016 50.0759 1.73028 53.3637C1.93864 54.3565 2.49727 55.2034 3.3027 55.748C16.1186 64.4157 31.7693 66.244 45.758 61.2849C46.2186 61.1215 46.4679 60.5909 46.3147 60.0997C46.1617 59.6083 45.6645 59.3423 45.2034 59.5057C31.7182 64.2865 16.6161 62.5322 4.24383 54.1644C3.39762 53.5924 3.14672 52.3984 3.68356 51.4957C4.22028 50.5929 5.33918 50.3252 6.18574 50.8979C20.6549 60.6838 39.2693 60.7348 53.8139 50.8979C55.1827 49.9718 56.9041 51.2868 56.5542 52.9539C56.4484 53.458 56.1648 53.888 55.7557 54.1645C53.2764 55.8414 50.6392 57.2815 47.9177 58.4452C47.4672 58.6379 47.2484 59.1835 47.4289 59.6642C47.6095 60.1449 48.1212 60.378 48.5718 60.1857C51.3931 58.9794 54.1268 57.4863 56.697 55.748C57.5026 55.2034 58.0611 54.3565 58.2695 53.3637C58.9601 50.0758 55.5646 47.493 52.8729 49.3144ZM39.182 28.3669H20.5825L18.3897 20.7158H38.8256C39.022 20.7158 39.1819 20.8862 39.1819 21.0958V28.3669H39.182ZM42.1117 28.3669H40.9398V21.0958C40.9398 19.8524 39.9914 18.8408 38.8257 18.8408H17.8522L17.494 17.5908H38.8256C40.6375 17.5908 42.1116 19.1632 42.1116 21.0958V28.3669H42.1117ZM20.7525 36.4309H39.2474L39.6932 37.6423H20.3068L20.7525 36.4309ZM19.6171 39.5174H40.3829L40.8428 40.7674H19.1571L19.6171 39.5174ZM11.8492 52.077L17.6135 36.4087C17.8621 36.4385 18.067 36.4308 18.8643 36.4308C18.16 38.3449 13.478 51.0705 12.9183 52.592C12.546 52.4188 12.1315 52.2182 11.8492 52.077ZM14.5438 53.3067L18.4673 42.6423H41.5328L45.4562 53.3067C35.5423 57.4035 24.4639 57.406 14.5438 53.3067Z" fill="black"/>
</g>
<defs>
<clipPath id="clip0">
<rect width="60" height="64" fill="white"/>
</clipPath>
</defs>
</svg>
