<svg width="60" height="64" viewBox="0 0 60 64" fill="none" xmlns="http://www.w3.org/2000/svg">
<path d="M45.836 62.2702H14.1641C12.9901 62.2688 11.8646 61.7708 11.0345 60.8853C10.2044 59.9999 9.73751 58.7994 9.73622 57.5472V31.1982C9.73622 25.4656 11.8711 19.9678 15.6713 15.9143C19.4715 11.8608 24.6257 9.5835 30 9.5835C35.3743 9.5835 40.5285 11.8608 44.3287 15.9143C48.1289 19.9678 50.2638 25.4656 50.2638 31.1982V57.5472C50.2625 58.7994 49.7956 59.9999 48.9655 60.8853C48.1354 61.7708 47.0099 62.2688 45.836 62.2702ZM30 11.3132C25.0575 11.3192 20.319 13.4161 16.8242 17.144C13.3293 20.8718 11.3634 25.9262 11.3578 31.1982V57.5472C11.3587 58.3408 11.6546 59.1016 12.1807 59.6627C12.7068 60.2239 13.4201 60.5396 14.1641 60.5405H45.836C46.5799 60.5396 47.2932 60.2239 47.8193 59.6627C48.3454 59.1016 48.6413 58.3408 48.6422 57.5472V31.1982C48.6366 25.9262 46.6707 20.8718 43.1758 17.144C39.681 13.4161 34.9425 11.3192 30 11.3132Z" fill="black"/>
<path d="M43.8049 62.2704C43.5898 62.2704 43.3836 62.1792 43.2315 62.017C43.0795 61.8548 42.9941 61.6349 42.9941 61.4055V39.8254C42.9915 38.8885 42.6406 37.991 42.0185 37.3296C41.3964 36.6683 40.5537 36.2971 39.6754 36.2976H20.3238C19.4455 36.2971 18.6028 36.6683 17.9807 37.3296C17.3585 37.991 17.0077 38.8885 17.0051 39.8254V61.4055C17.0051 61.6349 16.9197 61.8548 16.7677 62.017C16.6156 62.1792 16.4094 62.2704 16.1943 62.2704C15.9793 62.2704 15.7731 62.1792 15.621 62.017C15.4689 61.8548 15.3835 61.6349 15.3835 61.4055V39.8254C15.3865 38.4299 15.9083 37.0927 16.8345 36.107C17.7606 35.1214 19.0155 34.5679 20.3238 34.5679H39.6762C40.9845 34.5679 42.2394 35.1214 43.1655 36.107C44.0917 37.0927 44.6135 38.4299 44.6165 39.8254V61.4055C44.6165 61.5191 44.5955 61.6317 44.5547 61.7367C44.5139 61.8416 44.4541 61.937 44.3787 62.0173C44.3033 62.0977 44.2139 62.1614 44.1154 62.2048C44.0169 62.2482 43.9114 62.2705 43.8049 62.2704Z" fill="black"/>
<path d="M43.8049 44.7671H16.1951C15.9801 44.7671 15.7739 44.676 15.6218 44.5138C15.4697 44.3516 15.3843 44.1316 15.3843 43.9022C15.3843 43.6728 15.4697 43.4529 15.6218 43.2907C15.7739 43.1285 15.9801 43.0374 16.1951 43.0374H43.8049C44.0199 43.0374 44.2261 43.1285 44.3782 43.2907C44.5303 43.4529 44.6157 43.6728 44.6157 43.9022C44.6157 44.1316 44.5303 44.3516 44.3782 44.5138C44.2261 44.676 44.0199 44.7671 43.8049 44.7671Z" fill="black"/>
<path d="M40.41 50.1778H34.7643C34.642 50.1781 34.5211 50.1489 34.4109 50.0923C34.3006 50.0357 34.2038 49.9532 34.1277 49.851C34.0515 49.7489 33.9981 49.6297 33.9713 49.5023C33.9445 49.375 33.9451 49.2428 33.973 49.1157L35.1641 43.7051C35.2059 43.5153 35.3067 43.3461 35.4501 43.2251C35.5934 43.104 35.7709 43.0382 35.9538 43.0383H39.2189C39.4018 43.0382 39.5793 43.104 39.7226 43.2251C39.866 43.3461 39.9668 43.5153 40.0086 43.7051L41.1997 49.1157C41.2277 49.2427 41.2284 49.3748 41.2018 49.5022C41.1752 49.6295 41.1219 49.7487 41.0459 49.851C40.9699 49.9532 40.8733 50.0358 40.7632 50.0925C40.653 50.1493 40.5323 50.1787 40.41 50.1787V50.1778ZM35.7884 48.4481H39.3876L38.5768 44.7672H36.5976L35.7884 48.4481Z" fill="black"/>
<path d="M40.0151 14.2772C39.8001 14.2772 39.5939 14.1861 39.4418 14.0239C39.2898 13.8617 39.2043 13.6417 39.2043 13.4123V5.6519C39.2037 5.07049 38.9868 4.5131 38.6013 4.10207C38.2158 3.69103 37.6932 3.45992 37.1481 3.45947H22.8519C22.307 3.46015 21.7845 3.69136 21.3992 4.10237C21.0139 4.51339 20.7971 5.07064 20.7965 5.6519V13.4123C20.7965 13.6417 20.7111 13.8617 20.559 14.0239C20.407 14.1861 20.2007 14.2772 19.9857 14.2772C19.7706 14.2772 19.5644 14.1861 19.4123 14.0239C19.2603 13.8617 19.1749 13.6417 19.1749 13.4123V5.6519C19.1759 4.61203 19.5637 3.61508 20.253 2.87978C20.9424 2.14448 21.877 1.73088 22.8519 1.72974H37.1481C38.123 1.73088 39.0576 2.14448 39.747 2.87978C40.4363 3.61508 40.8241 4.61203 40.8251 5.6519V13.4123C40.8251 13.6416 40.7398 13.8614 40.5879 14.0236C40.4361 14.1857 40.23 14.277 40.0151 14.2772Z" fill="black"/>
<path d="M36.6381 12.5612C36.4231 12.5612 36.2169 12.4701 36.0648 12.3079C35.9127 12.1457 35.8273 11.9257 35.8273 11.6963V7.40055C35.8273 7.36453 35.8139 7.33 35.79 7.30453C35.7662 7.27907 35.7338 7.26476 35.7 7.26476H24.3C24.2665 7.26499 24.2345 7.27928 24.2108 7.30453C24.1871 7.32978 24.1737 7.36397 24.1735 7.39968V11.6955C24.1735 11.9248 24.0881 12.1448 23.936 12.307C23.784 12.4692 23.5777 12.5603 23.3627 12.5603C23.1477 12.5603 22.9414 12.4692 22.7894 12.307C22.6373 12.1448 22.5519 11.9248 22.5519 11.6955V7.40055C22.5523 6.90607 22.7366 6.43197 23.0643 6.08224C23.392 5.73251 23.8364 5.53572 24.3 5.53503H35.7C36.1634 5.53572 36.6077 5.73239 36.9354 6.08193C37.2631 6.43148 37.4475 6.90536 37.4481 7.39968V11.6955C37.4482 11.809 37.4274 11.9215 37.3867 12.0265C37.3461 12.1315 37.2864 12.2269 37.2112 12.3073C37.136 12.3877 37.0467 12.4515 36.9483 12.495C36.85 12.5386 36.7446 12.5611 36.6381 12.5612Z" fill="black"/>
<path d="M52.1213 54.9301H49.4529C49.2379 54.9301 49.0317 54.839 48.8796 54.6768C48.7276 54.5146 48.6421 54.2947 48.6421 54.0653V42.067C48.6421 41.8376 48.7276 41.6177 48.8796 41.4555C49.0317 41.2933 49.2379 41.2021 49.4529 41.2021H54.5675C54.7826 41.2021 54.9888 41.2933 55.1409 41.4555C55.2929 41.6177 55.3784 41.8376 55.3784 42.067V51.4543C55.3773 52.3755 55.0338 53.2586 54.4233 53.9102C53.8128 54.5618 52.985 54.9285 52.1213 54.9301ZM50.2638 53.2004H52.1213C52.5556 53.2 52.9719 53.0158 53.279 52.6882C53.586 52.3607 53.7587 51.9166 53.7592 51.4534V42.9319H50.2638V53.2004Z" fill="black"/>
<path d="M10.547 54.9301H7.87864C7.01444 54.9292 6.18588 54.5626 5.5748 53.9108C4.96372 53.259 4.62004 52.3752 4.61918 51.4534V42.067C4.61918 41.8376 4.7046 41.6177 4.85666 41.4555C5.00872 41.2933 5.21495 41.2021 5.42999 41.2021H10.547C10.7621 41.2021 10.9683 41.2933 11.1203 41.4555C11.2724 41.6177 11.3578 41.8376 11.3578 42.067V54.0653C11.3578 54.2947 11.2724 54.5146 11.1203 54.6768C10.9683 54.839 10.7621 54.9301 10.547 54.9301ZM6.24323 42.9319V51.4543C6.24366 51.9175 6.41636 52.3616 6.72342 52.6891C7.03048 53.0166 7.44682 53.2008 7.88107 53.2013H9.73864V42.9319H6.24323Z" fill="black"/>
<path d="M33.926 25.0993H25.5673C24.7674 25.0993 24.0002 24.7603 23.4345 24.1569C22.8689 23.5536 22.5511 22.7353 22.5511 21.882C22.5511 21.0287 22.8689 20.2104 23.4345 19.607C24.0002 19.0036 24.7674 18.6647 25.5673 18.6647H33.926C34.3221 18.6647 34.7143 18.7479 35.0802 18.9096C35.4462 19.0713 35.7787 19.3082 36.0587 19.607C36.3388 19.9058 36.561 20.2604 36.7126 20.6508C36.8642 21.0411 36.9422 21.4595 36.9422 21.882C36.9422 22.3045 36.8642 22.7228 36.7126 23.1132C36.561 23.5035 36.3388 23.8582 36.0587 24.1569C35.7787 24.4557 35.4462 24.6927 35.0802 24.8544C34.7143 25.016 34.3221 25.0993 33.926 25.0993ZM25.5673 20.3944C25.1974 20.3944 24.8427 20.5511 24.5812 20.8301C24.3196 21.1091 24.1727 21.4874 24.1727 21.882C24.1727 22.2765 24.3196 22.6549 24.5812 22.9338C24.8427 23.2128 25.1974 23.3695 25.5673 23.3695H33.926C34.2958 23.3695 34.6505 23.2128 34.9121 22.9338C35.1736 22.6549 35.3206 22.2765 35.3206 21.882C35.3206 21.4874 35.1736 21.1091 34.9121 20.8301C34.6505 20.5511 34.2958 20.3944 33.926 20.3944H25.5673Z" fill="black"/>
</svg>
