<svg width="77" height="64" viewBox="0 0 77 64" fill="none" xmlns="http://www.w3.org/2000/svg">
<path d="M66 12.8H53V8.53328C52.9966 5.58901 50.7603 3.2036 48 3.19995H30C27.2397 3.2036 25.0034 5.58901 25 8.53328V12.8H12C10.3433 12.8 9 14.2328 9 16V39.7437C9.00635 41.0968 9.80566 42.3005 11 42.7552V57.5999C11 59.3671 12.3433 60.7999 14 60.7999H64C65.6567 60.7999 67 59.3671 67 57.5999V42.7562C68.1943 42.301 68.9941 41.0968 69 39.7437V16C69 14.2328 67.6567 12.8 66 12.8ZM27 8.53328C27 6.7661 28.3433 5.33328 30 5.33328H48C49.6567 5.33328 51 6.7661 51 8.53328V12.8H49V8.53328C49 7.94422 48.5522 7.46662 48 7.46662H30C29.4478 7.46662 29 7.94422 29 8.53328V12.8H27V8.53328ZM47 12.8H31V9.59995H47V12.8ZM65 57.5999C65 58.189 64.5522 58.6666 64 58.6666H14C13.4478 58.6666 13 58.189 13 57.5999V43.1218L35 46.3583V49.0666C35 50.8338 36.3433 52.2666 38 52.2666H40C41.6567 52.2666 43 50.8338 43 49.0666V46.3583L65 43.1218V57.5999ZM41 49.0666C41 49.6557 40.5522 50.1333 40 50.1333H38C37.4478 50.1333 37 49.6557 37 49.0666V42.6666C37 42.0776 37.4478 41.5999 38 41.5999H40C40.5522 41.5999 41 42.0776 41 42.6666V49.0666ZM67 39.7437C67.0005 40.2755 66.6338 40.7265 66.1401 40.801L65.8628 40.8416L43 44.2046V42.6666C43 40.8994 41.6567 39.4666 40 39.4666H38C36.3433 39.4666 35 40.8994 35 42.6666V44.2046L11.8608 40.801C11.3672 40.727 10.9995 40.276 11 39.7437V16C11 15.4109 11.4478 14.9333 12 14.9333H66C66.5522 14.9333 67 15.4109 67 16V39.7437Z" fill="black"/>
<line x1="1.4453" y1="63.091" x2="76.3298" y2="13.168" stroke="black" stroke-width="2"/>
</svg>
