<svg width="60" height="64" viewBox="0 0 60 64" fill="none" xmlns="http://www.w3.org/2000/svg">
<g clip-path="url(#clip0)">
<path d="M47.8276 16.4309C46.7504 15.2819 45.2962 14.5925 43.6804 14.5925H39.8564V3.90664C39.8564 2.87253 39.5332 1.89587 38.9408 1.20646C38.3483 0.459605 37.4865 0 36.5171 0H23.4829C22.5135 0 21.6517 0.459605 21.0592 1.20646C20.4668 1.89587 20.1436 2.87253 20.1436 3.90664V14.535H16.3196C14.7038 14.535 13.1957 15.2244 12.1724 16.3734C11.0952 17.5224 10.4488 19.0736 10.4488 20.7971V51.9928C10.4488 53.7163 11.0952 55.325 12.1724 56.4165C12.9803 57.2783 14.0575 57.9102 15.2962 58.14V59.4614C15.2962 60.7253 15.781 61.8743 16.535 62.6786C17.2891 63.4829 18.3663 64 19.5512 64H19.7127C20.8977 64 21.9749 63.4829 22.7289 62.6786C23.4829 61.8743 23.9677 60.7253 23.9677 59.4614V58.2549H36.0323V59.4614C36.0323 60.7253 36.5171 61.8743 37.2711 62.6786C38.0251 63.4829 39.1023 64 40.2873 64H40.4488C41.5799 64 42.6571 63.5404 43.4111 62.7361L43.465 62.6786C44.219 61.8743 44.7038 60.7253 44.7038 59.4614V58.14C45.8887 57.9102 46.9659 57.2783 47.8276 56.4165C48.9048 55.2675 49.5512 53.7163 49.5512 51.9928V20.8546C49.5512 19.1311 48.9048 17.5224 47.8276 16.4309ZM22.2442 3.90664C22.2442 3.44704 22.4057 2.98743 22.675 2.70018C22.8905 2.41293 23.1598 2.29803 23.4829 2.29803H36.5171C36.8402 2.29803 37.1095 2.47038 37.325 2.70018C37.5943 2.98743 37.7558 3.44704 37.7558 3.90664V14.535H35.2783V7.58348C35.2783 6.83662 35.1167 6.14722 34.7935 5.63016C34.4165 4.94075 33.8241 4.5386 33.1239 4.5386H26.8761C26.1759 4.5386 25.5835 4.94075 25.2065 5.63016C24.8833 6.14722 24.7217 6.83662 24.7217 7.58348V14.5925H22.2442V3.90664ZM26.8761 7.58348C26.8761 7.23878 26.93 7.00898 27.0377 6.77917H32.9623C33.07 6.95153 33.1239 7.23878 33.1239 7.52603V14.535H26.8761V7.58348ZM21.8133 59.5763C21.8133 60.2083 21.5978 60.7828 21.167 61.1849C20.7899 61.5871 20.2513 61.8743 19.6589 61.8743H19.4973C18.9049 61.8743 18.3663 61.6445 17.9892 61.1849C17.6122 60.7828 17.3429 60.2083 17.3429 59.5763V58.3698H21.8133V59.5763ZM42.6571 59.5763C42.6571 60.2083 42.4417 60.7828 42.0108 61.1849L41.9569 61.2424C41.5799 61.6445 41.0413 61.8743 40.5027 61.8743H40.3411C39.7487 61.8743 39.2101 61.6445 38.833 61.1849C38.456 60.7828 38.1867 60.2083 38.1867 59.5763V58.3698H42.6571V59.5763ZM47.5045 52.0503C47.5045 53.1418 47.0736 54.1759 46.3734 54.8653C45.6732 55.6122 44.7576 56.0718 43.7343 56.0718H37.1095H22.8905H16.2657C15.2424 56.0718 14.2729 55.6122 13.6266 54.8653C12.9264 54.1185 12.4955 53.1418 12.4955 52.0503V20.8546C12.4955 19.763 12.9264 18.7289 13.6266 18.0395C14.3268 17.2926 15.2424 16.833 16.2657 16.833H21.167H25.7451H34.1472H38.7253H43.6266C44.7576 16.833 45.6732 17.2926 46.3734 18.0395C47.0736 18.7864 47.5045 19.763 47.5045 20.8546V52.0503Z" fill="black"/>
</g>
<defs>
<clipPath id="clip0">
<rect width="60" height="64" fill="white"/>
</clipPath>
</defs>
</svg>
