<svg width="512" height="512" viewBox="0 0 512 512" fill="none" xmlns="http://www.w3.org/2000/svg">
<g clip-path="url(#clip0)">
<path d="M454.848 198.848C454.848 358.073 275.097 505.537 275.097 505.537C264.594 514.154 247.405 514.154 236.902 505.537C236.902 505.537 57.1509 358.073 57.1509 198.848C57.1529 89.027 146.18 0 256 0C365.82 0 454.848 89.027 454.848 198.848Z" fill="#EE3840"/>
<path d="M256 298.89C200.836 298.89 155.959 254.011 155.959 198.849C155.959 143.687 200.838 98.806 256 98.806C311.162 98.806 356.041 143.685 356.041 198.847C356.041 254.009 311.164 298.89 256 298.89Z" fill="#FFE1D6"/>
<path d="M256 299C311.228 299 356 254.228 356 199C356 143.772 311.228 99 256 99C200.772 99 156 143.772 156 199C156 254.228 200.772 299 256 299Z" fill="#FFD1DF"/>
<path d="M256 281.759C301.706 281.759 338.759 244.706 338.759 199C338.759 153.294 301.706 116.241 256 116.241C210.294 116.241 173.241 153.294 173.241 199C173.241 244.706 210.294 281.759 256 281.759Z" fill="#FFD1DF"/>
<g style="mix-blend-mode:darken">
<path d="M259.25 237.516C264.688 233.266 269.578 228.75 273.922 223.969C278.297 219.188 282 214.359 285.031 209.484C288.094 204.578 290.438 199.703 292.062 194.859C293.688 189.984 294.5 185.344 294.5 180.938C294.5 178.375 294.219 175.984 293.656 173.766C293.125 171.547 292.344 169.641 291.312 168.047C290.281 166.422 289.031 165.156 287.562 164.25C286.125 163.312 284.5 162.844 282.688 162.844H281.797C281.266 162.844 280.812 162.688 280.438 162.375C280.094 162.062 279.922 161.641 279.922 161.109C279.922 160.359 280.188 159.875 280.719 159.656C281.281 159.406 281.906 159.281 282.594 159.281C284.875 159.281 286.969 159.812 288.875 160.875C290.781 161.938 292.406 163.422 293.75 165.328C295.094 167.234 296.141 169.484 296.891 172.078C297.641 174.672 298.016 177.484 298.016 180.516C298.016 185.453 297.156 190.531 295.438 195.75C293.75 200.938 291.234 206.172 287.891 211.453C284.578 216.703 280.453 221.938 275.516 227.156C270.609 232.375 264.953 237.469 258.547 242.438C258.391 242.562 258.188 242.703 257.938 242.859C257.688 243.016 257.391 243.094 257.047 243.094C256.453 243.094 256.016 242.891 255.734 242.484C255.453 242.109 255.312 241.656 255.312 241.125C255.312 240.906 255.328 240.453 255.359 239.766C255.422 239.078 255.484 238.234 255.547 237.234C255.609 236.234 255.688 235.141 255.781 233.953C255.875 232.734 255.953 231.516 256.016 230.297C256.078 229.047 256.125 227.844 256.156 226.688C256.219 225.531 256.25 224.5 256.25 223.594C256.281 216.75 255.766 210.438 254.703 204.656C253.641 198.844 251.953 193.812 249.641 189.562C247.328 185.312 244.344 182 240.688 179.625C237.062 177.219 232.672 176.016 227.516 176.016C223.672 176.016 220.281 176.547 217.344 177.609C214.438 178.641 212 180.016 210.031 181.734C208.062 183.453 206.578 185.406 205.578 187.594C204.578 189.75 204.078 191.953 204.078 194.203C204.078 196.203 204.406 198 205.062 199.594C205.75 201.156 206.672 202.5 207.828 203.625C209.016 204.719 210.406 205.562 212 206.156C213.594 206.719 215.312 207 217.156 207C218.719 207 220.141 206.828 221.422 206.484C222.703 206.141 223.797 205.766 224.703 205.359C225.609 204.922 226.312 204.531 226.812 204.188C227.344 203.812 227.641 203.594 227.703 203.531C227.859 203.375 228.031 203.281 228.219 203.25C228.438 203.188 228.641 203.156 228.828 203.156C229.297 203.156 229.703 203.312 230.047 203.625C230.391 203.906 230.562 204.297 230.562 204.797C230.562 205.391 230.359 205.844 229.953 206.156C229.891 206.219 229.547 206.484 228.922 206.953C228.297 207.391 227.422 207.875 226.297 208.406C225.203 208.906 223.875 209.375 222.312 209.812C220.75 210.25 219.016 210.469 217.109 210.469C214.766 210.469 212.578 210.078 210.547 209.297C208.516 208.516 206.766 207.406 205.297 205.969C203.828 204.531 202.672 202.828 201.828 200.859C200.984 198.859 200.562 196.656 200.562 194.25C200.562 191.562 201.141 188.922 202.297 186.328C203.453 183.734 205.156 181.422 207.406 179.391C209.688 177.359 212.484 175.734 215.797 174.516C219.141 173.266 223 172.641 227.375 172.641C233.031 172.641 237.891 173.875 241.953 176.344C246.047 178.781 249.406 182.234 252.031 186.703C254.688 191.172 256.641 196.562 257.891 202.875C259.172 209.156 259.812 216.141 259.812 223.828C259.812 225.984 259.766 228.219 259.672 230.531C259.578 232.812 259.438 235.141 259.25 237.516Z" fill="#030711" fill-opacity="0.64"/>
</g>
</g>
<defs>
<clipPath id="clip0">
<rect width="511.999" height="511.999" fill="white"/>
</clipPath>
</defs>
</svg>
