<svg width="31" height="26" viewBox="0 0 31 26" fill="none" xmlns="http://www.w3.org/2000/svg">
<path d="M28.6094 13.5938H27.6406V2.21875C27.6395 1.89581 27.486 1.58638 27.2137 1.35803C26.9415 1.12968 26.5725 1.00096 26.1875 1H20.375C19.99 1.00096 19.621 1.12968 19.3488 1.35803C19.0765 1.58638 18.923 1.89581 18.9219 2.21875V3.4375H16.0156C15.8872 3.4375 15.764 3.4803 15.6731 3.55649C15.5823 3.63267 15.5312 3.73601 15.5312 3.84375V5.46875C15.5312 5.57649 15.5823 5.67983 15.6731 5.75601C15.764 5.8322 15.8872 5.875 16.0156 5.875H22.7969C22.9253 5.875 23.0485 5.8322 23.1394 5.75601C23.2302 5.67983 23.2812 5.57649 23.2812 5.46875V3.84375C23.2812 3.73601 23.2302 3.63267 23.1394 3.55649C23.0485 3.4803 22.9253 3.4375 22.7969 3.4375H19.8906V2.21875C19.8906 2.11101 19.9417 2.00767 20.0325 1.93149C20.1233 1.8553 20.2465 1.8125 20.375 1.8125H26.1875C26.316 1.8125 26.4392 1.8553 26.53 1.93149C26.6208 2.00767 26.6719 2.11101 26.6719 2.21875V13.5938H2.45312C2.06773 13.5938 1.69812 13.7222 1.42561 13.9507C1.1531 14.1793 1 14.4893 1 14.8125C1 15.1357 1.1531 15.4457 1.42561 15.6743C1.69812 15.9028 2.06773 16.0312 2.45312 16.0312V21.7188C2.45427 22.0417 2.60774 22.3511 2.88001 22.5795C3.15227 22.8078 3.52121 22.9365 3.90625 22.9375V24.9688C3.90625 25.0765 3.95728 25.1798 4.04812 25.256C4.13896 25.3322 4.26216 25.375 4.39062 25.375H6.32812C6.4434 25.3753 6.55501 25.3411 6.6429 25.2785C6.7308 25.216 6.78921 25.1292 6.80766 25.0338L7.22422 22.9375H23.8383L24.2548 25.0338C24.2733 25.1292 24.3317 25.216 24.4196 25.2785C24.5075 25.3411 24.6191 25.3753 24.7344 25.375H26.6719C26.8003 25.375 26.9235 25.3322 27.0144 25.256C27.1052 25.1798 27.1562 25.0765 27.1562 24.9688V22.9375C27.5413 22.9365 27.9102 22.8078 28.1825 22.5795C28.4548 22.3511 28.6082 22.0417 28.6094 21.7188V16.0312C28.9948 16.0312 29.3644 15.9028 29.6369 15.6743C29.9094 15.4457 30.0625 15.1357 30.0625 14.8125C30.0625 14.4893 29.9094 14.1793 29.6369 13.9507C29.3644 13.7222 28.9948 13.5938 28.6094 13.5938ZM22.3125 4.25V5.0625H16.5V4.25H22.3125ZM5.91641 24.5625H4.875V22.9375H6.24094L5.91641 24.5625ZM26.1875 24.5625H25.1461L24.8216 22.9375H26.1875V24.5625ZM27.6406 21.7188C27.6406 21.8265 27.5896 21.9298 27.4988 22.006C27.4079 22.0822 27.2847 22.125 27.1562 22.125H3.90625C3.77779 22.125 3.65458 22.0822 3.56375 22.006C3.47291 21.9298 3.42188 21.8265 3.42188 21.7188V16.0312H27.6406V21.7188ZM28.6094 15.2188H2.45312C2.32466 15.2188 2.20146 15.1759 2.11062 15.0998C2.01978 15.0236 1.96875 14.9202 1.96875 14.8125C1.96875 14.7048 2.01978 14.6014 2.11062 14.5252C2.20146 14.4491 2.32466 14.4062 2.45312 14.4062H28.6094C28.7378 14.4062 28.861 14.4491 28.9519 14.5252C29.0427 14.6014 29.0938 14.7048 29.0938 14.8125C29.0938 14.9202 29.0427 15.0236 28.9519 15.0998C28.861 15.1759 28.7378 15.2188 28.6094 15.2188Z" fill="black"/>
<path d="M15.9844 6.5H16.9531V7.3125H15.9844V6.5Z" fill="black"/>
<path d="M15.9844 8.125H16.9531V8.9375H15.9844V8.125Z" fill="black"/>
<path d="M17.9219 6.5H18.8906V7.3125H17.9219V6.5Z" fill="black"/>
<path d="M17.9219 8.125H18.8906V8.9375H17.9219V8.125Z" fill="black"/>
<path d="M19.8594 6.5H20.8281V7.3125H19.8594V6.5Z" fill="black"/>
<path d="M19.8594 8.125H20.8281V8.9375H19.8594V8.125Z" fill="black"/>
<path d="M21.7969 6.5H22.7656V7.3125H21.7969V6.5Z" fill="black"/>
<path d="M21.7969 8.125H22.7656V8.9375H21.7969V8.125Z" fill="black"/>
</svg>
