<svg width="35" height="34" viewBox="0 0 35 34" fill="none" xmlns="http://www.w3.org/2000/svg">
<path d="M33.3594 21.7812H32.8125V20.1875C32.8119 19.5153 32.6228 18.856 32.2656 18.2803V5.84375C32.2656 5.28016 32.0352 4.73966 31.6249 4.34115C31.2147 3.94263 30.6583 3.71875 30.0781 3.71875C29.498 3.71875 28.9416 3.94263 28.5313 4.34115C28.1211 4.73966 27.8906 5.28016 27.8906 5.84375V7.96875H7.10938V5.84375C7.10938 5.28016 6.87891 4.73966 6.46867 4.34115C6.05844 3.94263 5.50204 3.71875 4.92188 3.71875C4.34171 3.71875 3.78531 3.94263 3.37508 4.34115C2.96484 4.73966 2.73438 5.28016 2.73438 5.84375V18.2803C2.37719 18.856 2.18813 19.5153 2.1875 20.1875V21.7812H1.64062C1.49558 21.7812 1.35648 21.8372 1.25393 21.9368C1.15137 22.0365 1.09375 22.1716 1.09375 22.3125V26.5625C1.09375 26.7034 1.15137 26.8385 1.25393 26.9382C1.35648 27.0378 1.49558 27.0938 1.64062 27.0938H2.1875V29.75C2.1875 29.8909 2.24512 30.026 2.34768 30.1257C2.45024 30.2253 2.58933 30.2812 2.73438 30.2812H4.375C4.48938 30.2804 4.6007 30.2453 4.6937 30.1806C4.78671 30.1159 4.85686 30.0249 4.89453 29.92L5.8625 27.0938H29.1375L30.1055 29.92C30.1431 30.0249 30.2133 30.1159 30.3063 30.1806C30.3993 30.2453 30.5106 30.2804 30.625 30.2812H32.2656C32.4107 30.2812 32.5498 30.2253 32.6523 30.1257C32.7549 30.026 32.8125 29.8909 32.8125 29.75V27.0938H33.3594C33.5044 27.0938 33.6435 27.0378 33.7461 26.9382C33.8486 26.8385 33.9062 26.7034 33.9062 26.5625V22.3125C33.9062 22.1716 33.8486 22.0365 33.7461 21.9368C33.6435 21.8372 33.5044 21.7812 33.3594 21.7812ZM28.9844 5.84375C28.9844 5.56196 29.0996 5.29171 29.3047 5.09245C29.5098 4.89319 29.788 4.78125 30.0781 4.78125C30.3682 4.78125 30.6464 4.89319 30.8515 5.09245C31.0566 5.29171 31.1719 5.56196 31.1719 5.84375V7.96875H28.9844V5.84375ZM3.82812 5.84375C3.82812 5.56196 3.94336 5.29171 4.14848 5.09245C4.35359 4.89319 4.63179 4.78125 4.92188 4.78125C5.21196 4.78125 5.49016 4.89319 5.69527 5.09245C5.90039 5.29171 6.01562 5.56196 6.01562 5.84375V7.96875H3.82812V5.84375ZM3.82812 9.03125H31.1719V17.1381C30.5305 16.7027 29.7669 16.469 28.9844 16.4688V13.8125C28.9831 13.3902 28.8098 12.9856 28.5024 12.6869C28.195 12.3883 27.7785 12.22 27.3438 12.2188H19.6875C19.2528 12.22 18.8362 12.3883 18.5288 12.6869C18.2214 12.9856 18.0482 13.3902 18.0469 13.8125V16.4688H16.9531V13.8125C16.9518 13.3902 16.7786 12.9856 16.4712 12.6869C16.1638 12.3883 15.7472 12.22 15.3125 12.2188H7.65625C7.22153 12.22 6.80498 12.3883 6.49759 12.6869C6.19019 12.9856 6.01692 13.3902 6.01562 13.8125V16.4688C5.2331 16.469 4.46953 16.7027 3.82812 17.1381V9.03125ZM27.8906 13.8125V16.4688H19.1406V13.8125C19.1406 13.6716 19.1982 13.5365 19.3008 13.4368C19.4034 13.3372 19.5425 13.2812 19.6875 13.2812H27.3438C27.4888 13.2812 27.6279 13.3372 27.7304 13.4368C27.833 13.5365 27.8906 13.6716 27.8906 13.8125ZM15.8594 13.8125V16.4688H7.10938V13.8125C7.10938 13.6716 7.16699 13.5365 7.26955 13.4368C7.37211 13.3372 7.85496 13.2812 8 13.2812H15.3125C15.4575 13.2812 15.5966 13.3372 15.6992 13.4368C15.8018 13.5365 15.8594 13.6716 15.8594 13.8125ZM3.28125 20.1875C3.28125 19.483 3.56934 18.8074 4.08213 18.3092C4.59492 17.8111 5.29042 17.5312 6.01562 17.5312H28.9844C29.7096 17.5312 30.4051 17.8111 30.9179 18.3092C31.4307 18.8074 31.7188 19.483 31.7188 20.1875V21.7812H3.28125V20.1875ZM3.98125 29.2188H3.28125V27.0938H4.70859L3.98125 29.2188ZM31.7188 29.2188H31.0188L30.2914 27.0938H31.7188V29.2188ZM32.8125 26.0312H2.1875V22.8438H32.8125V26.0312Z" fill="black"/>
</svg>
