<svg width="33" height="29" viewBox="0 0 33 29" fill="none" xmlns="http://www.w3.org/2000/svg">
<path d="M31.4531 18.5781H30.9375V17.2188C30.9369 16.6454 30.7586 16.0831 30.4219 15.592V4.98438C30.4219 4.50367 30.2046 4.04265 29.8178 3.70274C29.431 3.36283 28.9064 3.17188 28.3594 3.17188C27.8124 3.17188 27.2878 3.36283 26.901 3.70274C26.5142 4.04265 26.2969 4.50367 26.2969 4.98438V6.79688H6.70312V4.98438C6.70312 4.50367 6.48583 4.04265 6.09903 3.70274C5.71224 3.36283 5.18763 3.17188 4.64062 3.17188C4.09362 3.17188 3.56901 3.36283 3.18222 3.70274C2.79542 4.04265 2.57812 4.50367 2.57812 4.98438V15.592C2.24135 16.0831 2.0631 16.6454 2.0625 17.2188V18.5781H1.54688C1.41012 18.5781 1.27897 18.6259 1.18227 18.7108C1.08557 18.7958 1.03125 18.9111 1.03125 19.0312V22.6562C1.03125 22.7764 1.08557 22.8917 1.18227 22.9767C1.27897 23.0616 1.41012 23.1094 1.54688 23.1094H2.0625V25.375C2.0625 25.4952 2.11682 25.6104 2.21352 25.6954C2.31022 25.7804 2.44137 25.8281 2.57812 25.8281H4.125C4.23284 25.8274 4.3378 25.7974 4.42549 25.7423C4.51319 25.6871 4.57932 25.6095 4.61484 25.52L5.5275 23.1094H27.4725L28.3852 25.52C28.4207 25.6095 28.4868 25.6871 28.5745 25.7423C28.6622 25.7974 28.7672 25.8274 28.875 25.8281H30.4219C30.5586 25.8281 30.6898 25.7804 30.7865 25.6954C30.8832 25.6104 30.9375 25.4952 30.9375 25.375V23.1094H31.4531C31.5899 23.1094 31.721 23.0616 31.8177 22.9767C31.9144 22.8917 31.9688 22.7764 31.9688 22.6562V19.0312C31.9688 18.9111 31.9144 18.7958 31.8177 18.7108C31.721 18.6259 31.5899 18.5781 31.4531 18.5781ZM27.3281 4.98438C27.3281 4.74402 27.4368 4.51351 27.6302 4.34356C27.8236 4.1736 28.0859 4.07812 28.3594 4.07812C28.6329 4.07812 28.8952 4.1736 29.0886 4.34356C29.282 4.51351 29.3906 4.74402 29.3906 4.98438V6.79688H27.3281V4.98438ZM3.60938 4.98438C3.60938 4.74402 3.71802 4.51351 3.91142 4.34356C4.10482 4.1736 4.36712 4.07812 4.64062 4.07812C4.91413 4.07812 5.17643 4.1736 5.36983 4.34356C5.56323 4.51351 5.67188 4.74402 5.67188 4.98438V6.79688H3.60938V4.98438ZM3.60938 7.70312H29.3906V14.6178C28.7859 14.2464 28.0659 14.0471 27.3281 14.0469V11.7812C27.3269 11.4211 27.1635 11.0759 26.8737 10.8212C26.5839 10.5665 26.1911 10.423 25.7812 10.4219H18.5625C18.1526 10.423 17.7599 10.5665 17.47 10.8212C17.1802 11.0759 17.0168 11.4211 17.0156 11.7812V14.0469H15.9844V11.7812C15.9832 11.4211 15.8198 11.0759 15.53 10.8212C15.2401 10.5665 14.8474 10.423 14.4375 10.4219H7.21875C6.80887 10.423 6.41613 10.5665 6.1263 10.8212C5.83647 11.0759 5.6731 11.4211 5.67188 11.7812V14.0469C4.93407 14.0471 4.21413 14.2464 3.60938 14.6178V7.70312ZM26.2969 11.7812V14.0469H18.0469V11.7812C18.0469 11.6611 18.1012 11.5458 18.1979 11.4608C18.2946 11.3759 18.4257 11.3281 18.5625 11.3281H25.7812C25.918 11.3281 26.0492 11.3759 26.1459 11.4608C26.2426 11.5458 26.2969 11.6611 26.2969 11.7812ZM14.9531 11.7812V14.0469H6.70312V11.7812C6.70312 11.6611 6.75745 11.5458 6.85415 11.4608C6.95085 11.3759 7.40611 11.3281 7.54286 11.3281H14.4375C14.5743 11.3281 14.7054 11.3759 14.8021 11.4608C14.8988 11.5458 14.9531 11.6611 14.9531 11.7812ZM3.09375 17.2188C3.09375 16.6179 3.36537 16.0416 3.84887 15.6167C4.33236 15.1918 4.98811 14.9531 5.67188 14.9531H27.3281C28.0119 14.9531 28.6676 15.1918 29.1511 15.6167C29.6346 16.0416 29.9062 16.6179 29.9062 17.2188V18.5781H3.09375V17.2188ZM3.75375 24.9219H3.09375V23.1094H4.43953L3.75375 24.9219ZM29.9062 24.9219H29.2463L28.5605 23.1094H29.9062V24.9219ZM30.9375 22.2031H2.0625V19.4844H30.9375V22.2031Z" fill="#595959"/>
</svg>
