<svg width="32" height="31" viewBox="0 0 32 31" fill="none" xmlns="http://www.w3.org/2000/svg">
<g clip-path="url(#clip0)">
<path d="M18.9304 18.3481H13.0757C12.7081 18.3481 12.4073 18.6395 12.4073 18.9956C12.4073 19.3517 12.7081 19.6431 13.0757 19.6431H18.9304C19.298 19.6431 19.5988 19.3517 19.5988 18.9956C19.5988 18.6395 19.298 18.3481 18.9304 18.3481Z" fill="#595959"/>
<path d="M21.7175 21.0027H10.2887C9.92112 21.0027 9.62036 21.294 9.62036 21.6501C9.62036 22.0063 9.92112 22.2976 10.2887 22.2976H21.7175C22.0851 22.2976 22.3858 22.0063 22.3858 21.6501C22.3858 21.294 22.0851 21.0027 21.7175 21.0027Z" fill="#595959"/>
<path d="M21.7175 23.7222H10.2887C9.92112 23.7222 9.62036 24.0135 9.62036 24.3696C9.62036 24.7257 9.92112 25.0171 10.2887 25.0171H21.7175C22.0851 25.0171 22.3858 24.7257 22.3858 24.3696C22.3858 24.0135 22.0851 23.7222 21.7175 23.7222Z" fill="#595959"/>
<path d="M25.8144 0.0444295C25.5604 -0.05269 25.273 0.0120563 25.0859 0.21277L23.6623 1.72136L22.2387 0.219244C21.9914 -0.0462153 21.5704 -0.0591646 21.2963 0.180397C21.283 0.193346 21.2696 0.206295 21.2562 0.219244L19.8327 1.72136L18.4091 0.21277C18.1618 -0.05269 17.7341 -0.0656392 17.4667 0.173922C17.4533 0.186871 17.44 0.199821 17.4266 0.21277L16.003 1.71488L14.5794 0.21277C14.3322 -0.05269 13.9044 -0.0656392 13.6371 0.173922C13.6237 0.186871 13.6103 0.199821 13.597 0.21277L12.1734 1.71488L10.7498 0.21277C10.5025 -0.05269 10.0748 -0.0656392 9.80744 0.173922C9.79407 0.186871 9.7807 0.199821 9.76733 0.21277L8.34375 1.71488L6.91349 0.21277C6.73303 0.0185309 6.44564 -0.05269 6.19167 0.0444295C5.9377 0.141549 5.77061 0.38111 5.77729 0.64657V30.3522C5.77061 30.7018 6.058 30.9932 6.41891 30.9996C6.61273 31.0061 6.79318 30.9284 6.92017 30.7924L8.34375 29.2839L9.76733 30.786C10.0146 31.0514 10.4357 31.0644 10.7097 30.8248C10.7231 30.8119 10.7364 30.7989 10.7498 30.786L12.1734 29.2839L13.597 30.786C13.8443 31.0514 14.272 31.0644 14.5393 30.8248C14.5527 30.8119 14.5661 30.7989 14.5794 30.786L16.003 29.2839L17.4266 30.786C17.6739 31.0514 18.1016 31.0644 18.369 30.8248C18.3823 30.8119 18.3957 30.7989 18.4091 30.786L19.8327 29.2839L21.2562 30.786C21.5035 31.0514 21.9313 31.0644 22.1986 30.8248C22.212 30.8119 22.2254 30.7989 22.2387 30.786L23.6623 29.2839L25.0859 30.786C25.2129 30.9219 25.3933 30.9932 25.5805 30.9932C25.6607 30.9932 25.7342 30.9802 25.8077 30.9478C26.0617 30.8507 26.2288 30.6112 26.2221 30.3457V0.640095C26.2354 0.38111 26.0684 0.141549 25.8144 0.0444295ZM23.669 27.6717C23.4818 27.6717 23.3014 27.7494 23.1744 27.8853L21.7508 29.3939L20.3272 27.8918C20.08 27.6263 19.6522 27.6134 19.3849 27.853C19.3715 27.8659 19.3581 27.8789 19.3448 27.8918L17.9212 29.3939L16.4976 27.8918C16.2503 27.6263 15.8226 27.6134 15.5552 27.853C15.5419 27.8659 15.5285 27.8789 15.5151 27.8918L14.0915 29.3939L12.668 27.8918C12.4207 27.6263 11.9929 27.6134 11.7256 27.853C11.7122 27.8659 11.6989 27.8789 11.6855 27.8918L10.2552 29.3939L8.83165 27.8853C8.70466 27.7494 8.52421 27.6717 8.33707 27.6717C8.14993 27.6717 7.97616 27.7494 7.85586 27.8853L7.11399 28.6882V2.31055L7.85586 3.10693C7.97616 3.2429 8.14993 3.32059 8.33707 3.32059C8.52421 3.32059 8.70466 3.2429 8.83165 3.10693L10.2552 1.59834L11.6788 3.10045C11.9261 3.36591 12.3538 3.37886 12.6212 3.1393C12.6345 3.12635 12.6479 3.1134 12.6613 3.10045L14.0849 1.59834L15.5085 3.10045C15.7557 3.36591 16.1835 3.37886 16.4508 3.1393C16.4642 3.12635 16.4776 3.1134 16.4909 3.10045L17.9145 1.59834L19.3381 3.10045C19.5854 3.36591 20.0131 3.37886 20.2805 3.1393C20.2938 3.12635 20.3072 3.1134 20.3206 3.10045L21.7441 1.59834L23.1677 3.10693C23.2947 3.2429 23.4752 3.32059 23.6623 3.32059C23.8494 3.32059 24.0232 3.2429 24.1435 3.10693L24.8921 2.30407V28.6817L24.1502 27.8853C24.0299 27.7494 23.8561 27.6717 23.669 27.6717Z" fill="#595959"/>
<path d="M18.0749 11.077C17.7875 10.203 16.9454 9.61377 16.003 9.61377C15.5352 9.61377 15.1609 9.25119 15.1609 8.79797C15.1609 8.34474 15.5352 7.98864 15.9964 7.98216C16.4575 7.97569 16.8385 8.34474 16.8385 8.79797C16.8385 8.79797 16.8385 8.79797 16.8385 8.80444C16.8385 9.16055 17.1392 9.4519 17.5068 9.4519C17.8744 9.4519 18.1752 9.16055 18.1752 8.80444C18.1752 7.89152 17.567 7.07572 16.6647 6.79731V6.38941C16.6647 6.0333 16.3639 5.74194 15.9964 5.74194C15.6288 5.74194 15.328 6.0333 15.328 6.38941V6.79731C14.1851 7.15341 13.5569 8.34474 13.9245 9.4519C14.2119 10.3195 15.054 10.9152 15.9964 10.9152C16.4575 10.9087 16.8385 11.2713 16.8452 11.7245C16.8518 12.1777 16.4776 12.5403 16.0097 12.5468C16.0097 12.5403 16.0097 12.5403 16.003 12.5403C15.5419 12.5403 15.1609 12.1777 15.1609 11.7245C15.1609 11.3684 14.8602 11.077 14.4926 11.077C14.125 11.077 13.8242 11.3684 13.8242 11.7245C13.8242 12.6374 14.4324 13.4467 15.3347 13.7316V14.146C15.3347 14.5021 15.6354 14.7935 16.003 14.7935C16.3706 14.7935 16.6714 14.5021 16.6714 14.146V13.7316C17.8143 13.3755 18.4425 12.1842 18.0749 11.077Z" fill="#595959"/>
</g>
<defs>
<clipPath id="clip0">
<rect width="32" height="31" fill="white"/>
</clipPath>
</defs>
</svg>
