<svg width="24" height="25" viewBox="0 0 24 25" fill="none" xmlns="http://www.w3.org/2000/svg">
<path d="M21.1875 1.95312H20.0625V0H18.1875V1.95312H5.8125V0H3.9375V1.95312H2.8125C1.26169 1.95312 0 3.26738 0 4.88281V22.0703C0 23.6857 1.26169 25 2.8125 25H21.1875C22.7383 25 24 23.6857 24 22.0703V4.88281C24 3.26738 22.7383 1.95312 21.1875 1.95312ZM22.125 22.0703C22.125 22.6088 21.7044 23.0469 21.1875 23.0469H2.8125C2.29556 23.0469 1.875 22.6088 1.875 22.0703V9.17969H22.125V22.0703ZM22.125 7.22656H1.875V4.88281C1.875 4.34434 2.29556 3.90625 2.8125 3.90625H3.9375V5.85938H5.8125V3.90625H18.1875V5.85938H20.0625V3.90625H21.1875C21.7044 3.90625 22.125 4.34434 22.125 4.88281V7.22656Z" fill="#595959"/>
<path d="M5.4375 11.2305H3.5625V13.1836H5.4375V11.2305Z" fill="#595959"/>
<path d="M9.1875 11.2305H7.3125V13.1836H9.1875V11.2305Z" fill="#595959"/>
<path d="M12.9375 11.2305H11.0625V13.1836H12.9375V11.2305Z" fill="#595959"/>
<path d="M16.6875 11.2305H14.8125V13.1836H16.6875V11.2305Z" fill="#595959"/>
<path d="M20.4375 11.2305H18.5625V13.1836H20.4375V11.2305Z" fill="#595959"/>
<path d="M5.4375 15.1367H3.5625V17.0898H5.4375V15.1367Z" fill="#595959"/>
<path d="M9.1875 15.1367H7.3125V17.0898H9.1875V15.1367Z" fill="#595959"/>
<path d="M12.9375 15.1367H11.0625V17.0898H12.9375V15.1367Z" fill="#595959"/>
<path d="M16.6875 15.1367H14.8125V17.0898H16.6875V15.1367Z" fill="#595959"/>
<path d="M5.4375 19.043H3.5625V20.9961H5.4375V19.043Z" fill="#595959"/>
<path d="M9.1875 19.043H7.3125V20.9961H9.1875V19.043Z" fill="#595959"/>
<path d="M12.9375 19.043H11.0625V20.9961H12.9375V19.043Z" fill="#595959"/>
<path d="M16.6875 19.043H14.8125V20.9961H16.6875V19.043Z" fill="#595959"/>
<path d="M20.4375 15.1367H18.5625V17.0898H20.4375V15.1367Z" fill="#595959"/>
</svg>
