<svg width="137" height="152" viewBox="0 0 137 152" fill="none" xmlns="http://www.w3.org/2000/svg">
<path d="M104.628 74.6504H114.184C116.344 74.6504 118.102 72.7002 118.102 70.3033V59.7007C118.102 57.3037 116.344 55.3535 114.184 55.3535H104.628C102.467 55.3535 100.709 57.3037 100.709 59.7007V70.3033C100.709 72.7002 102.467 74.6504 104.628 74.6504ZM104.723 59.8067H114.088V70.1973H104.723V59.8067ZM104.628 102.854H114.184C116.344 102.854 118.102 100.903 118.102 98.5064V87.9038C118.102 85.5068 116.344 83.5567 114.184 83.5567H104.628C102.467 83.5567 100.709 85.5068 100.709 87.9038V98.5064C100.709 100.903 102.467 102.854 104.628 102.854ZM104.723 88.0098H114.088V98.4004H104.723V88.0098ZM77.3571 74.6504H86.9134C89.0738 74.6504 90.8315 72.7002 90.8315 70.3033V59.7007C90.8315 57.3037 89.0738 55.3535 86.9134 55.3535H77.3571C75.1967 55.3535 73.4389 57.3037 73.4389 59.7007V70.3033C73.4389 72.7002 75.1967 74.6504 77.3571 74.6504ZM77.4526 59.8067H86.8178V70.1973H77.4526V59.8067ZM32.3724 110.438H22.8161C20.6557 110.438 18.898 112.388 18.898 114.785V125.387C18.898 127.784 20.6557 129.734 22.8161 129.734H32.3724C34.5328 129.734 36.2906 127.784 36.2906 125.387V114.785C36.2906 112.388 34.5328 110.438 32.3724 110.438ZM32.2769 125.281H22.9116V114.891H32.2769V125.281ZM32.3724 55.3535H22.8161C20.6557 55.3535 18.898 57.3037 18.898 59.7007V70.3033C18.898 72.7002 20.6557 74.6504 22.8161 74.6504H32.3724C34.5328 74.6504 36.2906 72.7002 36.2906 70.3033V59.7007C36.2906 57.3034 34.5328 55.3535 32.3724 55.3535ZM32.2769 70.1973H22.9116V59.8067H32.2769V70.1973ZM77.3571 102.192H86.9134C89.0738 102.192 90.8315 100.242 90.8315 97.8453V87.2427C90.8315 84.8457 89.0738 82.8955 86.9134 82.8955H77.3571C75.1967 82.8955 73.4389 84.8457 73.4389 87.2427V97.8453C73.4389 100.242 75.1967 102.192 77.3571 102.192ZM77.4526 87.3486H86.8178V97.7393H77.4526V87.3486ZM120.095 10.1751H111.515V6.77083C111.515 3.03733 108.777 0 105.412 0H104.491C101.126 0 98.3885 3.03733 98.3885 6.77083V10.1751H38.6115V6.77083C38.6115 3.03733 35.8739 0 32.5089 0H31.5873C28.2223 0 25.4847 3.03733 25.4847 6.77083V10.1751H16.9048C11.3646 10.1751 6.85723 15.176 6.85723 21.3228V140.867C6.85723 147.006 11.3584 152 16.8914 152H120.109C125.642 152 130.143 147.006 130.143 140.867V21.3228C130.143 15.176 125.636 10.1751 120.095 10.1751ZM102.402 6.77083C102.402 5.49278 103.339 4.45312 104.491 4.45312H105.413C106.565 4.45312 107.502 5.49278 107.502 6.77083V10.1751H102.402V6.77083ZM29.4986 6.77083C29.4986 5.49278 30.4357 4.45312 31.5876 4.45312H32.5091C33.6611 4.45312 34.5981 5.49278 34.5981 6.77083V10.1751H29.4989V6.77083H29.4986ZM126.129 140.867C126.129 144.551 123.429 147.547 120.109 147.547H16.8911C13.5713 147.547 10.8706 144.551 10.8706 140.867V140.853C12.5521 142.259 14.6421 143.094 16.9048 143.094H98.2707C100.955 143.094 103.478 141.934 105.375 139.828L126.129 116.802V140.867ZM103.328 135.803C103.485 135.082 103.571 134.331 103.571 133.558V118.695C103.571 115.892 105.626 113.612 108.152 113.612H121.548C122.245 113.612 122.922 113.517 123.572 113.342L103.328 135.803ZM126.129 41.9942H40.6184C39.5101 41.9942 38.6115 42.9911 38.6115 44.2207C38.6115 45.4504 39.5101 46.4473 40.6184 46.4473H126.129V104.076C126.129 106.879 124.074 109.159 121.548 109.159H108.152C103.413 109.159 99.557 113.437 99.557 118.695V133.558C99.557 136.361 97.5017 138.641 94.9758 138.641H16.9048C13.5777 138.641 10.8709 135.638 10.8709 131.946V46.4473H32.591C33.6993 46.4473 34.5979 45.4504 34.5979 44.2207C34.5979 42.9911 33.6993 41.9942 32.591 41.9942H10.8706V21.3228C10.8706 17.6314 13.5775 14.6282 16.9045 14.6282H25.4847V21.1749C25.4847 24.9084 28.2223 27.9457 31.5873 27.9457C32.6956 27.9457 33.5942 26.9488 33.5942 25.7192C33.5942 24.4895 32.6956 23.4926 31.5873 23.4926C30.4354 23.4926 29.4983 22.453 29.4983 21.1749V14.6282H98.3885V21.1749C98.3885 24.9084 101.126 27.9457 104.491 27.9457C105.599 27.9457 106.498 26.9488 106.498 25.7192C106.498 24.4895 105.599 23.4926 104.491 23.4926C103.339 23.4926 102.402 22.453 102.402 21.1749V14.6282H120.095C123.423 14.6282 126.129 17.6314 126.129 21.3228V41.9942ZM32.3724 82.8955H22.8161C20.6557 82.8955 18.898 84.8457 18.898 87.2427V97.8453C18.898 100.242 20.6557 102.192 22.8161 102.192H32.3724C34.5328 102.192 36.2906 100.242 36.2906 97.8453V87.2427C36.2906 84.8454 34.5328 82.8955 32.3724 82.8955ZM32.2769 97.7393H22.9116V87.3486H32.2769V97.7393ZM50.0866 74.6504H59.6429C61.8033 74.6504 63.561 72.7002 63.561 70.3033V59.7007C63.561 57.3037 61.8033 55.3535 59.6429 55.3535H50.0866C47.9262 55.3535 46.1685 57.3037 46.1685 59.7007V70.3033C46.1685 72.7002 47.9262 74.6504 50.0866 74.6504ZM50.1821 59.8067H59.5474V70.1973H50.1821V59.8067ZM77.4502 125.281C77.4004 124.101 76.522 123.161 75.4455 123.161C74.3372 123.161 73.4387 124.158 73.4387 125.387C73.4387 127.784 75.1964 129.734 77.3568 129.734H86.9131C89.0735 129.734 90.8313 127.784 90.8313 125.387V114.785C90.8313 112.388 89.0735 110.438 86.9131 110.438H77.3568C75.1964 110.438 73.4387 112.388 73.4387 114.785V117.842C73.4387 119.072 74.3372 120.069 75.4455 120.069C76.5538 120.069 77.4523 119.072 77.4523 117.842V114.891H86.8176V125.281H77.4502ZM50.0866 102.192H59.6429C61.8033 102.192 63.561 100.242 63.561 97.8453V87.2427C63.561 84.8457 61.8033 82.8955 59.6429 82.8955H50.0866C47.9262 82.8955 46.1685 84.8457 46.1685 87.2427V97.8453C46.1685 100.242 47.9262 102.192 50.0866 102.192ZM50.1821 87.3486H59.5474V97.7393H50.1821V87.3486ZM50.0866 129.734H59.6429C61.8033 129.734 63.561 127.784 63.561 125.387V114.785C63.561 112.388 61.8033 110.438 59.6429 110.438H50.0866C47.9262 110.438 46.1685 112.388 46.1685 114.785V125.387C46.1685 127.784 47.9262 129.734 50.0866 129.734ZM50.1821 114.891H59.5474V125.281H50.1821V114.891Z" fill="black"/>
<rect x="23" y="60" width="9" height="10" fill="#AADDFD"/>
<rect x="23" y="60" width="9" height="10" fill="#AADDFD"/>
<rect x="50" y="87" width="10" height="11" fill="#AADDFD"/>
<rect x="77" y="87" width="10" height="11" fill="#AADDFD"/>
<rect x="50" y="60" width="10" height="10" fill="#AADDFD"/>
<path d="M104 60H114V70H104V60Z" fill="#AADDFD"/>
<path d="M77 60H87V70H77V60Z" fill="#AADDFD"/>
<rect x="23" y="87" width="10" height="11" fill="#AADDFD"/>
</svg>
