<svg width="162" height="152" viewBox="0 0 162 152" fill="none" xmlns="http://www.w3.org/2000/svg">
<path d="M161.5 76C161.5 117.668 125.489 151.5 81 151.5C36.5106 151.5 0.5 117.668 0.5 76C0.5 34.332 36.5106 0.5 81 0.5C125.489 0.5 161.5 34.332 161.5 76Z" fill="#CDECFF" stroke="black"/>
<g clip-path="url(#clip0)">
<path d="M81 29C79.988 29 79.1666 29.8774 79.1666 30.9584V121.042C79.1666 122.123 79.988 123 81 123C82.012 123 82.8334 122.123 82.8334 121.042V30.9584C82.8334 29.8774 82.012 29 81 29Z" fill="black"/>
<path d="M81 36.8334C67.8586 36.8334 57.1666 45.6185 57.1666 56.4168C57.1666 63.8701 62.1826 70.5755 70.2602 73.9164C70.4802 74.0065 70.7002 74.0495 70.9238 74.0495C71.6572 74.0495 72.3538 73.5756 72.6324 72.7961C73.0028 71.7894 72.5334 70.6576 71.5874 70.266C64.9544 67.5203 60.833 62.2134 60.833 56.4166C60.8334 47.7765 69.8826 40.75 81 40.75C92.1174 40.75 101.167 47.7765 101.167 56.4166C101.167 57.4976 101.988 58.375 103 58.375C104.012 58.375 104.833 57.4976 104.833 56.4166C104.833 45.6183 94.1414 36.8334 81 36.8334Z" fill="black"/>
<path d="M91.736 78.0876C90.7936 77.692 89.734 78.1934 89.3674 79.2039C88.997 80.2105 89.4664 81.3424 90.4124 81.734C97.0454 84.4796 101.167 89.7866 101.167 95.5834C101.167 104.223 92.1174 111.25 81 111.25C69.8826 111.25 60.8334 104.223 60.8334 95.5834C60.8334 94.5024 60.012 93.625 59 93.625C57.988 93.625 57.1666 94.5024 57.1666 95.5834C57.1666 106.382 67.8586 115.167 81 115.167C94.1414 115.167 104.833 106.382 104.833 95.5834C104.833 88.1298 99.8174 81.4246 91.736 78.0876Z" fill="black"/>
<path d="M91.758 78.0993C86.3936 75.7885 83.849 74.8916 81.1614 73.9437C78.7744 73.1016 76.3068 72.2282 71.5878 70.2698C70.6492 69.8665 69.5858 70.3756 69.2154 71.3822C68.845 72.3889 69.3144 73.5246 70.2568 73.9163C75.0674 75.9138 77.5828 76.799 80.0138 77.6567C82.6464 78.585 85.1324 79.4623 90.3904 81.7261C90.614 81.8201 90.845 81.8671 91.076 81.8671C91.802 81.8671 92.4876 81.405 92.7736 80.6451C93.155 79.6463 92.7004 78.5066 91.758 78.0993Z" fill="black"/>
</g>
<defs>
<clipPath id="clip0">
<rect width="88" height="94" fill="white" transform="translate(37 29)"/>
</clipPath>
</defs>
</svg>
