<svg width="271" height="249" viewBox="0 0 271 249" fill="none" xmlns="http://www.w3.org/2000/svg">
<path d="M269.5 124.5C269.5 192.314 209.628 247.5 135.5 247.5C61.3718 247.5 1.5 192.314 1.5 124.5C1.5 56.686 61.3718 1.5 135.5 1.5C209.628 1.5 269.5 56.686 269.5 124.5Z" fill="white" stroke="black" stroke-width="3"/>
<path d="M181.879 47H90.1211V59.1094H135.594L103.242 90.0628L112.192 98.6253L129.355 82.2032V166.914L112.192 150.492L103.242 159.055L135.471 189.891H90.1211V202H181.879V189.891H135.896L168.125 159.055L159.175 150.492L142.012 166.914V82.2032L159.175 98.6253L168.125 90.0628L135.773 59.1094H181.879V47Z" fill="black"/>
</svg>
