<svg width="31" height="24" viewBox="0 0 31 24" fill="none" xmlns="http://www.w3.org/2000/svg">
<path d="M29.8727 11.6625L14.9844 0.959961L0.0961914 11.6625L0.659828 12L3.39333 10.0629V23.6666H26.5755V10.0629L29.4053 12L29.8727 11.6625ZM25.9999 23H14.3727H3.94539V16V9.66667L14.9363 1.66667L21.1363 6L25.9999 9.5V16.5V23Z" fill="black"/>
<path d="M15.5 8C13.907 8 12.6111 9.27085 12.6111 10.8329C12.6111 12.395 13.907 13.6659 15.5 13.6659C17.0929 13.6659 18.3889 12.395 18.3889 10.8329C18.3889 9.27085 17.0929 8 15.5 8Z" fill="black"/>
<path d="M15.5001 14.323C12.5515 14.323 10.1526 16.5373 10.1526 19.2592V19.9999H20.8476V19.2592C20.8476 16.5374 18.4487 14.323 15.5001 14.323Z" fill="black"/>
</svg>
