<svg width="32" height="28" viewBox="0 0 32 28" fill="none" xmlns="http://www.w3.org/2000/svg">
<path d="M31.5 14C31.5 21.3952 24.6252 27.5 16 27.5C7.37478 27.5 0.5 21.3952 0.5 14C0.5 6.60478 7.37478 0.5 16 0.5C24.6252 0.5 31.5 6.60478 31.5 14Z" fill="white" stroke="#595959"/>
<path d="M15.304 20.84V19.08C14.5893 19.0373 13.9173 18.9093 13.288 18.696C12.6587 18.472 12.1093 18.1627 11.64 17.768L12.184 16.456C12.696 16.8613 13.24 17.1653 13.816 17.368C14.4027 17.5707 15.064 17.672 15.8 17.672C16.6427 17.672 17.2667 17.512 17.672 17.192C18.088 16.872 18.296 16.4613 18.296 15.96C18.296 15.5333 18.152 15.1973 17.864 14.952C17.576 14.696 17.0907 14.4933 16.408 14.344L14.76 13.992C13.8 13.7787 13.08 13.432 12.6 12.952C12.12 12.4613 11.88 11.8107 11.88 11C11.88 10.392 12.0187 9.85333 12.296 9.384C12.584 8.91467 12.984 8.53067 13.496 8.232C14.008 7.93333 14.6107 7.74667 15.304 7.672V5.88H16.616V7.672C17.1707 7.72533 17.7093 7.864 18.232 8.088C18.7653 8.30133 19.224 8.6 19.608 8.984L19.08 10.248C18.664 9.84267 18.1947 9.544 17.672 9.352C17.1493 9.14933 16.5733 9.048 15.944 9.048C15.208 9.048 14.616 9.224 14.168 9.576C13.7307 9.928 13.512 10.3867 13.512 10.952C13.512 11.3893 13.6507 11.736 13.928 11.992C14.2053 12.248 14.648 12.4453 15.256 12.584L16.904 12.936C17.928 13.1493 18.6907 13.496 19.192 13.976C19.6933 14.4453 19.944 15.0693 19.944 15.848C19.944 16.7333 19.6347 17.4587 19.016 18.024C18.3973 18.5787 17.5973 18.9147 16.616 19.032V20.84H15.304Z" fill="#595959"/>
</svg>
