<svg width="327" height="127" viewBox="0 0 327 127" fill="none" xmlns="http://www.w3.org/2000/svg">
<g clip-path="url(#clip0)">
<path d="M186.764 87.4609C187.265 87.4609 187.672 86.9102 187.672 86.2305V70.8086C187.672 70.1289 187.265 69.5781 186.764 69.5781H172.717C172.215 69.5781 171.809 70.1289 171.809 70.8086V86.2305C171.809 86.9102 172.215 87.4609 172.717 87.4609H186.764ZM173.625 72.0391H185.855V85H173.625V72.0391Z" fill="#B0B0B0"/>
<path d="M223.092 89.9219H218.793V63.4788L220.604 62.9249C222.069 62.4769 222.992 60.497 222.661 58.5115C222.33 56.527 220.87 55.2758 219.403 55.7239L216.288 56.6773C215.798 56.8269 215.491 57.4856 215.602 58.1486C215.712 58.8114 216.198 59.2278 216.688 59.0777L219.803 58.1244C220.292 57.9748 220.779 58.3922 220.89 59.0534C221 59.7152 220.692 60.3752 220.204 60.5247L217.687 61.2945C217.684 61.2956 217.68 61.2966 217.677 61.2977L196.381 67.8125C196.374 67.8143 196.368 67.8163 196.361 67.8184L193.927 68.5631C193.861 68.5834 193.793 68.5938 193.725 68.5938C193.306 68.5938 192.934 68.1902 192.841 67.6338C192.731 66.9722 193.039 66.3122 193.527 66.1627L212.86 60.2484C213.349 60.0988 213.656 59.4401 213.546 58.7771C213.435 58.1143 212.95 57.6976 212.46 57.848L193.127 63.7623C192.31 64.0123 191.661 64.7388 191.305 65.6766V63.4786L193.115 62.9248C194.581 62.4767 195.504 60.4968 195.173 58.5116C195.173 58.5115 195.173 58.5115 195.173 58.5113C194.842 56.5268 193.381 55.2758 191.915 55.7237L165.639 63.7625C164.173 64.2108 163.25 66.1909 163.581 68.1761C163.864 69.871 164.956 71.0547 166.237 71.0547C166.439 71.0547 166.641 71.024 166.839 70.9635L168.176 70.5545V79.7121C168.176 80.3918 168.582 80.9426 169.084 80.9426C169.586 80.9426 169.992 80.3918 169.992 79.7121V69.9988L189.488 64.0345V89.9219H169.992V84.9118C169.992 84.232 169.586 83.6813 169.084 83.6813C168.582 83.6813 168.176 84.232 168.176 84.9118V89.9219H162.908C162.407 89.9219 162 90.4727 162 91.1524V113.137C162 113.816 162.407 114.367 162.908 114.367H212.384C212.886 114.367 213.293 113.816 213.293 113.137C213.293 112.457 212.886 111.906 212.384 111.906H163.816V109.445H222.184V111.906H216.269C215.767 111.906 215.36 112.457 215.36 113.137C215.36 113.816 215.767 114.367 216.269 114.367H223.092C223.593 114.367 224 113.816 224 113.137V91.1524C224 90.4727 223.593 89.9219 223.092 89.9219ZM166.439 68.5631C166.372 68.5834 166.304 68.5938 166.237 68.5938C165.817 68.5938 165.445 68.1902 165.353 67.6338C165.242 66.9722 165.55 66.3122 166.039 66.1627L192.315 58.1243C192.382 58.1039 192.449 58.0939 192.515 58.0939C192.93 58.0939 193.306 58.4826 193.401 59.0535C193.511 59.7152 193.204 60.3751 192.715 60.5245L190.2 61.2941C190.196 61.2953 190.192 61.2966 190.188 61.2979L168.892 67.8127C168.886 67.8145 168.879 67.8164 168.873 67.8184L166.439 68.5631ZM216.977 89.9219H197.48V69.9988L216.977 64.0345V89.9219ZM193.725 71.0547C193.927 71.0547 194.129 71.024 194.327 70.9635L195.664 70.5545V89.9219H191.305V69.0584C191.762 70.2677 192.681 71.0547 193.725 71.0547ZM163.816 92.3828H189.488V106.984H187.672V97.3867C187.672 96.707 187.265 96.1563 186.764 96.1563H174.654C174.153 96.1563 173.746 96.707 173.746 97.3867V106.984H163.816V92.3828ZM175.562 106.984V98.6172H185.855V106.984H175.562ZM191.305 92.3828H216.977V106.984H215.16V97.3867C215.16 96.707 214.754 96.1563 214.252 96.1563H202.143C201.641 96.1563 201.234 96.707 201.234 97.3867V106.984H191.305V92.3828ZM203.051 106.984V98.6172H213.344V106.984H203.051ZM218.793 106.984V92.3828H222.184V106.984H218.793Z" fill="#B0B0B0"/>
<path d="M200.205 87.4609H214.252C214.754 87.4609 215.16 86.9102 215.16 86.2305V70.8086C215.16 70.1289 214.754 69.5781 214.252 69.5781H200.205C199.703 69.5781 199.297 70.1289 199.297 70.8086V86.2305C199.297 86.91 199.703 87.4609 200.205 87.4609ZM201.113 72.0391H213.344V85H201.113V72.0391Z" fill="#B0B0B0"/>
</g>
<path d="M158 95.9184V44.475L143.18 28.4197L129.59 43.142L124.535 37.666L122.795 39.5509L128.359 45.5791V49.3496L116 35.9603L103.641 49.3496V45.5791L116 32.1898L121.055 37.666L122.795 35.7808L116 28.4197L102.41 43.142L88.8203 28.4196L74 44.4748V61.5795H76.4609V53.1198L88.8203 39.7304L93.875 45.2064L95.6151 43.3213L88.8203 35.9603L76.4609 49.3497V45.5791L88.8203 32.1898L101.18 45.5789V49.3496L97.3551 45.2064L95.6151 47.0914L101.18 53.1197V74.5901H76.4609V64.2455H74V114.58H158V98.5841H155.539V111.914H153.078V106.582H148.101V93.2521H138.258V106.582H133.281V111.914H130.82V82.5884H141.949V79.9223H130.82V77.2563H155.539V79.9223H144.41V82.5884H155.539V95.9184H158ZM93.7421 109.248H96.2579V111.914H93.7421V109.248ZM91.2812 111.914H86.3593V95.9183H91.2812V111.914ZM83.8984 111.914H81.3826V109.248H83.8984V111.914ZM120.922 109.248H123.437V111.914H120.922V109.248ZM118.461 111.914H113.539V95.9183H118.461V111.914ZM111.078 111.914H108.562V109.248H111.078V111.914ZM150.617 109.248V111.914H148.101V109.248H150.617ZM145.641 95.9183V111.914H140.719V95.9183H145.641ZM135.742 109.248H138.258V111.914H135.742V109.248ZM128.359 111.914H125.898V106.582H120.922V93.2523H111.078V106.582H106.101V111.914H103.641V98.5843H101.18V111.914H98.7188V106.582H93.7421V93.2523H83.8984V106.582H78.9217V111.914H76.4609V82.5884H87.5898V79.9223H76.4609V77.2563H101.18V79.9223H90.0507V82.5884H101.18V95.9184H103.641V82.5884H128.359V111.914ZM130.82 74.5903V64.2456H128.359V74.5903H117.23V77.2563H128.359V79.9223H103.641V77.2563H114.769V74.5903H103.641V53.12L116 39.7306L128.359 53.12V61.5796H130.82V53.1198L143.18 39.7306L148.234 45.2066L149.975 43.3215L143.18 35.9603L130.82 49.3496V45.5789L143.18 32.1898L155.539 45.5791V49.3496L151.715 45.2064L149.974 47.0914L155.539 53.1197V74.5901H130.82V74.5903Z" fill="#B0B0B0"/>
<path d="M120.922 52.4717H111.078V68.4678H108.617V71.1338H123.383V68.4678H120.922V52.4717ZM118.461 68.4678H113.539V63.1357H118.461V68.4678ZM118.461 60.4697H113.539V55.1377H118.461V60.4697Z" fill="#B0B0B0"/>
<path d="M83.8984 52.4717V68.4678H81.4375V71.1338H96.2031V68.4678H93.7422V52.4717H83.8984ZM91.2812 68.4678H86.3594V63.1357H91.2812V68.4678ZM91.2812 60.4697H86.3594V55.1377H91.2812V60.4697Z" fill="#B0B0B0"/>
<path d="M148.101 52.4717H138.258V68.4678H135.797V71.1338H150.562V68.4678H148.101V52.4717ZM145.641 68.4678H140.719V63.1357H145.641V68.4678ZM145.641 60.4697H140.719V55.1377H145.641V60.4697Z" fill="#B0B0B0"/>
<path d="M150.562 53.8047H153.023V56.4707H150.562V53.8047Z" fill="#B0B0B0"/>
<path d="M96.2031 59.1367H98.6641V61.8027H96.2031V59.1367Z" fill="#B0B0B0"/>
<path d="M96.2031 53.8047H98.6641V56.4707H96.2031V53.8047Z" fill="#B0B0B0"/>
<path d="M123.438 85.2544H125.898V87.9204H123.438V85.2544Z" fill="#B0B0B0"/>
<path d="M96.2578 85.2544H98.7188V87.9204H96.2578V85.2544Z" fill="#B0B0B0"/>
<path d="M123.383 59.1367H125.844V61.8027H123.383V59.1367Z" fill="#B0B0B0"/>
<path d="M150.617 85.2544H153.078V87.9204H150.617V85.2544Z" fill="#B0B0B0"/>
<path d="M123.383 53.8047H125.844V56.4707H123.383V53.8047Z" fill="#B0B0B0"/>
<path d="M150.562 59.1367H153.023V61.8027H150.562V59.1367Z" fill="#B0B0B0"/>
<path d="M111.078 87.9202H114.769V90.5862H111.078V87.9202Z" fill="#B0B0B0"/>
<path d="M138.258 87.9202H141.949V90.5862H138.258V87.9202Z" fill="#B0B0B0"/>
<path d="M144.41 87.9202H148.101V90.5862H144.41V87.9202Z" fill="#B0B0B0"/>
<path d="M83.8984 87.9202H87.5898V90.5862H83.8984V87.9202Z" fill="#B0B0B0"/>
<path d="M117.23 87.9202H120.922V90.5862H117.23V87.9202Z" fill="#B0B0B0"/>
<path d="M90.0508 87.9202H93.7422V90.5862H90.0508V87.9202Z" fill="#B0B0B0"/>
<path d="M69.375 74.6719C69.6817 74.6719 69.9758 74.5682 70.1926 74.3836C70.4094 74.199 70.5312 73.9486 70.5312 73.6875V69.75C70.5312 69.4889 70.4094 69.2385 70.1926 69.0539C69.9758 68.8693 69.6817 68.7656 69.375 68.7656H67.9147L63.8678 57.6422C63.7939 57.4422 63.647 57.2675 63.4483 57.1436C63.2497 57.0196 63.0098 56.9529 62.7636 56.9531H11.2318C10.9856 56.9529 10.7456 57.0196 10.547 57.1436C10.3484 57.2675 10.2015 57.4422 10.1276 57.6422L6.08534 68.7656H4.625C4.31834 68.7656 4.02425 68.8693 3.80741 69.0539C3.59057 69.2385 3.46875 69.4889 3.46875 69.75V73.6875C3.46875 73.9486 3.59057 74.199 3.80741 74.3836C4.02425 74.5682 4.31834 74.6719 4.625 74.6719H5.78125V90.4219H4.625C4.31834 90.4219 4.02425 90.5256 3.80741 90.7102C3.59057 90.8948 3.46875 91.1452 3.46875 91.4062V95.3438C3.46875 95.6048 3.59057 95.8552 3.80741 96.0398C4.02425 96.2244 4.31834 96.3281 4.625 96.3281H5.78125V113.062C5.78125 113.324 5.90307 113.574 6.11991 113.759C6.33675 113.943 6.63084 114.047 6.9375 114.047H67.0625C67.3692 114.047 67.6633 113.943 67.8801 113.759C68.0969 113.574 68.2188 113.324 68.2188 113.062V96.3281H69.375C69.6817 96.3281 69.9758 96.2244 70.1926 96.0398C70.4094 95.8552 70.5312 95.6048 70.5312 95.3438V91.4062C70.5312 91.1452 70.4094 90.8948 70.1926 90.7102C69.9758 90.5256 69.6817 90.4219 69.375 90.4219H68.2188V74.6719H69.375ZM12.0851 58.9219H61.9195L65.5039 68.7656H8.50537L12.0851 58.9219ZM35.8438 112.078H33.5312V101.25H35.8438V112.078ZM40.4688 112.078H38.1562V105.188H40.4688V112.078ZM40.4688 103.219H38.1562V101.25H40.4688V103.219ZM65.9062 112.078H42.7812V100.266C42.7812 100.005 42.6594 99.7542 42.4426 99.5696C42.2258 99.385 41.9317 99.2812 41.625 99.2812H32.375C32.0683 99.2812 31.7742 99.385 31.5574 99.5696C31.3406 99.7542 31.2188 100.005 31.2188 100.266V112.078H8.09375V96.3281H65.9062V112.078ZM68.2188 94.3594H5.78125V92.3906H68.2188V94.3594ZM8.09375 90.4219V74.6719H65.9062V90.4219H8.09375ZM5.78125 72.7031V70.7344H68.2188V72.7031H5.78125Z" fill="#B0B0B0"/>
<path d="M50.875 109.125H60.125C60.4317 109.125 60.7258 109.021 60.9426 108.837C61.1594 108.652 61.2812 108.402 61.2812 108.141V100.266C61.2812 100.005 61.1594 99.7542 60.9426 99.5696C60.7258 99.385 60.4317 99.2812 60.125 99.2812H50.875C50.5683 99.2812 50.2742 99.385 50.0574 99.5696C49.8406 99.7542 49.7188 100.005 49.7188 100.266V108.141C49.7188 108.402 49.8406 108.652 50.0574 108.837C50.2742 109.021 50.5683 109.125 50.875 109.125ZM56.6562 101.25H58.9688V103.219H56.6562V101.25ZM56.6562 105.188H58.9688V107.156H56.6562V105.188ZM52.0312 101.25H54.3438V107.156H52.0312V101.25Z" fill="#B0B0B0"/>
<path d="M13.875 109.125H23.125C23.4317 109.125 23.7258 109.021 23.9426 108.837C24.1594 108.652 24.2812 108.402 24.2812 108.141V100.266C24.2812 100.005 24.1594 99.7542 23.9426 99.5696C23.7258 99.385 23.4317 99.2812 23.125 99.2812H13.875C13.5683 99.2812 13.2742 99.385 13.0574 99.5696C12.8406 99.7542 12.7188 100.005 12.7188 100.266V108.141C12.7188 108.402 12.8406 108.652 13.0574 108.837C13.2742 109.021 13.5683 109.125 13.875 109.125ZM19.6562 101.25H21.9688V103.219H19.6562V101.25ZM19.6562 105.188H21.9688V107.156H19.6562V105.188ZM15.0312 101.25H17.3438V107.156H15.0312V101.25Z" fill="#B0B0B0"/>
<path d="M23.125 77.625H13.875C13.5683 77.625 13.2742 77.7287 13.0574 77.9133C12.8406 78.0979 12.7188 78.3483 12.7188 78.6094V86.4844C12.7188 86.7454 12.8406 86.9958 13.0574 87.1804C13.2742 87.365 13.5683 87.4688 13.875 87.4688H23.125C23.4317 87.4688 23.7258 87.365 23.9426 87.1804C24.1594 86.9958 24.2812 86.7454 24.2812 86.4844V78.6094C24.2812 78.3483 24.1594 78.0979 23.9426 77.9133C23.7258 77.7287 23.4317 77.625 23.125 77.625ZM17.3438 85.5H15.0312V79.5938H17.3438V85.5ZM21.9688 85.5H19.6562V83.5312H21.9688V85.5ZM21.9688 81.5625H19.6562V79.5938H21.9688V81.5625Z" fill="#B0B0B0"/>
<path d="M41.625 77.625H32.375C32.0683 77.625 31.7742 77.7287 31.5574 77.9133C31.3406 78.0979 31.2188 78.3483 31.2188 78.6094V86.4844C31.2188 86.7454 31.3406 86.9958 31.5574 87.1804C31.7742 87.365 32.0683 87.4688 32.375 87.4688H41.625C41.9317 87.4688 42.2258 87.365 42.4426 87.1804C42.6594 86.9958 42.7812 86.7454 42.7812 86.4844V78.6094C42.7812 78.3483 42.6594 78.0979 42.4426 77.9133C42.2258 77.7287 41.9317 77.625 41.625 77.625ZM35.8438 85.5H33.5312V79.5938H35.8438V85.5ZM40.4688 85.5H38.1562V83.5312H40.4688V85.5ZM40.4688 81.5625H38.1562V79.5938H40.4688V81.5625Z" fill="#B0B0B0"/>
<path d="M60.125 77.625H50.875C50.5683 77.625 50.2742 77.7287 50.0574 77.9133C49.8406 78.0979 49.7188 78.3483 49.7188 78.6094V86.4844C49.7188 86.7454 49.8406 86.9958 50.0574 87.1804C50.2742 87.365 50.5683 87.4688 50.875 87.4688H60.125C60.4317 87.4688 60.7258 87.365 60.9426 87.1804C61.1594 86.9958 61.2812 86.7454 61.2812 86.4844V78.6094C61.2812 78.3483 61.1594 78.0979 60.9426 77.9133C60.7258 77.7287 60.4317 77.625 60.125 77.625ZM54.3438 85.5H52.0312V79.5938H54.3438V85.5ZM58.9688 85.5H56.6562V83.5312H58.9688V85.5ZM58.9688 81.5625H56.6562V79.5938H58.9688V81.5625Z" fill="#B0B0B0"/>
<path d="M39.3125 60.8906H34.6875C34.3808 60.8906 34.0867 60.9943 33.8699 61.1789C33.6531 61.3635 33.5312 61.6139 33.5312 61.875V65.8125C33.5312 66.0736 33.6531 66.324 33.8699 66.5086C34.0867 66.6932 34.3808 66.7969 34.6875 66.7969H39.3125C39.6192 66.7969 39.9133 66.6932 40.1301 66.5086C40.3469 66.324 40.4688 66.0736 40.4688 65.8125V61.875C40.4688 61.6139 40.3469 61.3635 40.1301 61.1789C39.9133 60.9943 39.6192 60.8906 39.3125 60.8906ZM38.1562 64.8281H35.8438V62.8594H38.1562V64.8281Z" fill="#B0B0B0"/>
<path d="M20.8125 60.8906H16.1875C15.8808 60.8906 15.5867 60.9943 15.3699 61.1789C15.1531 61.3635 15.0312 61.6139 15.0312 61.875V65.8125C15.0312 66.0736 15.1531 66.324 15.3699 66.5086C15.5867 66.6932 15.8808 66.7969 16.1875 66.7969H20.8125C21.1192 66.7969 21.4133 66.6932 21.6301 66.5086C21.8469 66.324 21.9688 66.0736 21.9688 65.8125V61.875C21.9688 61.6139 21.8469 61.3635 21.6301 61.1789C21.4133 60.9943 21.1192 60.8906 20.8125 60.8906ZM19.6562 64.8281H17.3438V62.8594H19.6562V64.8281Z" fill="#B0B0B0"/>
<path d="M57.8125 60.8906H53.1875C52.8808 60.8906 52.5867 60.9943 52.3699 61.1789C52.1531 61.3635 52.0312 61.6139 52.0312 61.875V65.8125C52.0312 66.0736 52.1531 66.324 52.3699 66.5086C52.5867 66.6932 52.8808 66.7969 53.1875 66.7969H57.8125C58.1192 66.7969 58.4133 66.6932 58.6301 66.5086C58.8469 66.324 58.9688 66.0736 58.9688 65.8125V61.875C58.9688 61.6139 58.8469 61.3635 58.6301 61.1789C58.4133 60.9943 58.1192 60.8906 57.8125 60.8906ZM56.6562 64.8281H54.3438V62.8594H56.6562V64.8281Z" fill="#B0B0B0"/>
<path d="M320.562 91.3906H318.953V19.2031H315.734V12.6406H286.766V19.2031H283.547V52.0156H267.453V19.2031H264.234V12.6406H235.266V19.2031H232.047V91.3906H230.438C227.776 91.3906 225.609 93.5989 225.609 96.3125V114.359H325.391V96.3125C325.391 93.5989 323.224 91.3906 320.562 91.3906ZM289.984 15.9219H312.516V19.2031H289.984V15.9219ZM286.766 22.4844H315.734V91.3906H302.859V88.1094H312.516V78.2656H302.859V74.9844H312.516V65.1406H302.859V63.5C302.859 62.9422 302.806 62.3975 302.731 61.8594H312.516V52.0156H291.594H288.375H286.766V22.4844ZM264.234 78.2656H261.016V76.625C261.016 75.721 261.737 74.9844 262.625 74.9844C263.513 74.9844 264.234 75.721 264.234 76.625V78.2656ZM293.203 81.5469V84.8281H257.797V81.5469H293.203ZM277.109 78.2656H273.891V76.625C273.891 75.721 274.612 74.9844 275.5 74.9844C276.388 74.9844 277.109 75.721 277.109 76.625V78.2656ZM289.984 78.2656H286.766V76.625C286.766 75.721 287.487 74.9844 288.375 74.9844C289.263 74.9844 289.984 75.721 289.984 76.625V78.2656ZM261.016 88.1094H264.234V111.078H261.016V88.1094ZM267.453 88.1094H273.891V111.078H267.453V88.1094ZM277.109 88.1094H283.547V111.078H277.109V88.1094ZM286.766 88.1094H289.984V111.078H286.766V88.1094ZM293.203 88.1094H296.422V78.2656H293.203V76.625C293.203 73.9114 291.037 71.7031 288.375 71.7031C285.713 71.7031 283.547 73.9114 283.547 76.625V78.2656H280.328V76.625C280.328 73.9114 278.162 71.7031 275.5 71.7031C272.838 71.7031 270.672 73.9114 270.672 76.625V78.2656H267.453V76.625C267.453 73.9114 265.287 71.7031 262.625 71.7031C259.963 71.7031 257.797 73.9114 257.797 76.625V78.2656H254.578V88.1094H257.797V91.3906H251.359V68.4219H299.641V91.3906H293.203V88.1094ZM302.859 81.5469H309.297V84.8281H302.859V81.5469ZM302.859 68.4219H309.297V71.7031H302.859V68.4219ZM299.462 55.2969H309.297V58.5781H301.757C301.182 57.3493 300.407 56.2386 299.462 55.2969ZM299.641 63.5V65.1406H251.359V63.5C251.359 58.9768 254.969 55.2969 259.406 55.2969H262.625H288.375H291.594C296.031 55.2969 299.641 58.9768 299.641 63.5ZM249.243 58.5781H241.703V55.2969H251.538C250.593 56.2386 249.818 57.3493 249.243 58.5781ZM248.141 71.7031H241.703V68.4219H248.141V71.7031ZM248.141 84.8281H241.703V81.5469H248.141V84.8281ZM238.484 15.9219H261.016V19.2031H238.484V15.9219ZM235.266 22.4844H264.234V52.0156H262.625H259.406H238.484V61.8594H248.269C248.194 62.3975 248.141 62.9422 248.141 63.5V65.1406H238.484V74.9844H248.141V78.2656H238.484V88.1094H248.141V91.3906H235.266V22.4844ZM228.828 96.3125C228.828 95.4085 229.549 94.6719 230.438 94.6719H257.797V111.078H254.578V97.9531H244.922V111.078H241.703V97.9531H232.047V111.078H228.828V96.3125ZM251.359 111.078H248.141V101.234H251.359V111.078ZM238.484 111.078H235.266V101.234H238.484V111.078ZM302.859 111.078H299.641V101.234H302.859V111.078ZM315.734 111.078H312.516V101.234H315.734V111.078ZM322.172 111.078H318.953V97.9531H309.297V111.078H306.078V97.9531H296.422V111.078H293.203V94.6719H320.562C321.451 94.6719 322.172 95.4085 322.172 96.3125V111.078Z" fill="#BDBDBD"/>
<path d="M261.016 25.7656H238.484V35.6094H261.016V25.7656ZM241.703 29.0469H248.141V32.3281H241.703V29.0469ZM257.797 32.3281H251.359V29.0469H257.797V32.3281Z" fill="#BDBDBD"/>
<path d="M261.016 38.8906H238.484V48.7344H261.016V38.8906ZM241.703 42.1719H248.141V45.4531H241.703V42.1719ZM257.797 45.4531H251.359V42.1719H257.797V45.4531Z" fill="#BDBDBD"/>
<path d="M312.516 25.7656H289.984V35.6094H312.516V25.7656ZM293.203 29.0469H299.641V32.3281H293.203V29.0469ZM309.297 32.3281H302.859V29.0469H309.297V32.3281Z" fill="#BDBDBD"/>
<path d="M312.516 38.8906H289.984V48.7344H312.516V38.8906ZM293.203 42.1719H299.641V45.4531H293.203V42.1719ZM309.297 45.4531H302.859V42.1719H309.297V45.4531Z" fill="#BDBDBD"/>
<path d="M267.453 58.5781H270.672V61.8594H267.453V58.5781Z" fill="#BDBDBD"/>
<path d="M273.891 58.5781H277.109V61.8594H273.891V58.5781Z" fill="#BDBDBD"/>
<path d="M280.328 58.5781H283.547V61.8594H280.328V58.5781Z" fill="#BDBDBD"/>
<g clip-path="url(#clip1)">
<path d="M191.5 5.0509C189.405 5.0509 187.43 5.60232 185.788 6.64553C185.585 6.77463 185.55 7.01218 185.71 7.1761C185.87 7.33997 186.165 7.36809 186.368 7.23904C187.843 6.30183 189.618 5.80647 191.5 5.80647C196.077 5.80647 199.8 8.80916 199.8 12.5C199.8 16.1909 196.077 19.1935 191.5 19.1935C186.923 19.1935 183.2 16.1908 183.2 12.5C183.2 10.9614 183.829 9.51511 185.02 8.31726C185.182 8.15447 185.149 7.91672 184.947 7.78621C184.745 7.65569 184.45 7.68191 184.289 7.84475C182.983 9.15906 182.263 10.8123 182.263 12.5C182.263 16.6074 186.407 19.9491 191.5 19.9491C196.593 19.9491 200.737 16.6074 200.737 12.5C200.737 8.39255 196.593 5.0509 191.5 5.0509Z" fill="#B0B0B0"/>
<path d="M191.5 0C191.241 0 191.031 0.169092 191.031 0.377783V2.39805C191.031 2.60674 191.241 2.77583 191.5 2.77583C191.759 2.77583 191.968 2.60674 191.968 2.39805V0.377783C191.968 0.169092 191.759 0 191.5 0Z" fill="#B0B0B0"/>
<path d="M185.642 3.56261L184.39 1.81305C184.261 1.63234 183.974 1.57057 183.75 1.67477C183.526 1.77907 183.449 2.01012 183.578 2.19084L184.831 3.9404C184.918 4.06159 185.075 4.12931 185.237 4.12931C185.316 4.12931 185.397 4.113 185.471 4.07863C185.695 3.97433 185.772 3.74328 185.642 3.56261Z" fill="#B0B0B0"/>
<path d="M180.886 7.12192L178.716 6.11182C178.492 6.00757 178.206 6.06934 178.077 6.2501C177.947 6.43076 178.024 6.66182 178.248 6.76616L180.417 7.77627C180.491 7.8106 180.572 7.82695 180.651 7.82695C180.813 7.82695 180.971 7.75923 181.057 7.63804C181.187 7.45728 181.11 7.22627 180.886 7.12192Z" fill="#B0B0B0"/>
<path d="M178.974 12.1222H176.468C176.21 12.1222 176 12.2913 176 12.5C176 12.7087 176.21 12.8778 176.468 12.8778H178.974C179.232 12.8778 179.442 12.7087 179.442 12.5C179.442 12.2913 179.232 12.1222 178.974 12.1222Z" fill="#B0B0B0"/>
<path d="M181.058 17.3621C180.928 17.1815 180.642 17.1196 180.418 17.2238L178.248 18.234C178.024 18.3383 177.947 18.5693 178.077 18.7501C178.163 18.8712 178.321 18.939 178.483 18.939C178.562 18.939 178.643 18.9227 178.717 18.8883L180.886 17.8782C181.11 17.7738 181.187 17.5428 181.058 17.3621Z" fill="#B0B0B0"/>
<path d="M185.471 20.9214C185.247 20.8171 184.961 20.8789 184.831 21.0597L183.579 22.8093C183.449 22.9899 183.526 23.221 183.75 23.3253C183.824 23.3597 183.905 23.376 183.984 23.376C184.146 23.376 184.303 23.3082 184.39 23.1871L185.643 21.4374C185.772 21.2567 185.695 21.0257 185.471 20.9214Z" fill="#B0B0B0"/>
<path d="M191.5 22.2242C191.241 22.2242 191.031 22.3933 191.031 22.602V24.6223C191.031 24.831 191.241 25.0001 191.5 25.0001C191.759 25.0001 191.968 24.831 191.968 24.6223V22.602C191.968 22.3933 191.759 22.2242 191.5 22.2242Z" fill="#B0B0B0"/>
<path d="M199.421 22.8094L198.169 21.0598C198.04 20.879 197.753 20.8173 197.529 20.9215C197.305 21.0258 197.228 21.2568 197.357 21.4375L198.61 23.1871C198.697 23.3083 198.854 23.376 199.016 23.376C199.096 23.376 199.176 23.3597 199.25 23.3253C199.474 23.2211 199.551 22.99 199.421 22.8094Z" fill="#B0B0B0"/>
<path d="M204.752 18.2339L202.582 17.2238C202.358 17.1195 202.072 17.1813 201.942 17.362C201.813 17.5427 201.89 17.7738 202.114 17.8781L204.283 18.8882C204.357 18.9226 204.438 18.9389 204.517 18.9389C204.679 18.9389 204.837 18.8712 204.923 18.75C205.053 18.5692 204.976 18.3382 204.752 18.2339Z" fill="#B0B0B0"/>
<path d="M206.532 12.1222H204.026C203.768 12.1222 203.558 12.2913 203.558 12.5C203.558 12.7087 203.768 12.8778 204.026 12.8778H206.532C206.79 12.8778 207 12.7087 207 12.5C207 12.2913 206.79 12.1222 206.532 12.1222Z" fill="#B0B0B0"/>
<path d="M204.923 6.24994C204.794 6.06923 204.507 6.00746 204.283 6.11166L202.114 7.12177C201.89 7.22606 201.813 7.45712 201.942 7.63783C202.029 7.75902 202.187 7.82675 202.349 7.82675C202.428 7.82675 202.509 7.81044 202.582 7.77606L204.752 6.76596C204.976 6.66171 205.053 6.43065 204.923 6.24994Z" fill="#B0B0B0"/>
<path d="M199.25 1.6748C199.026 1.57056 198.739 1.63232 198.61 1.81308L197.358 3.56264C197.228 3.74326 197.305 3.97431 197.529 4.07871C197.603 4.11303 197.683 4.12939 197.763 4.12939C197.925 4.12939 198.082 4.06167 198.169 3.94048L199.421 2.19092C199.551 2.01016 199.474 1.7791 199.25 1.6748Z" fill="#B0B0B0"/>
</g>
<defs>
<clipPath id="clip0">
<rect width="62" height="84" fill="white" transform="translate(162 43)"/>
</clipPath>
<clipPath id="clip1">
<rect width="31" height="25" fill="white" transform="translate(176)"/>
</clipPath>
</defs>
</svg>
