<svg width="31" height="26" viewBox="0 0 31 26" fill="none" xmlns="http://www.w3.org/2000/svg">
<g clip-path="url(#clip0)">
<path d="M25.187 2.28021H21.7621C21.7166 2.18212 21.6211 2.10326 21.4987 2.06246L18.6061 1.11697C17.1277 -0.228973 14.5385 -0.379746 12.823 0.78022C12.6695 0.884014 12.5261 0.996547 12.3938 1.11697L9.50129 2.06246C9.37881 2.10326 9.28339 2.18212 9.23781 2.28021H5.81296C5.54548 2.28021 5.32861 2.45037 5.32861 2.66023V4.18032C5.32861 4.39018 5.54548 4.56034 5.81296 4.56034H9.32499C9.38632 4.61739 9.46793 4.65881 9.55941 4.67928L12.3154 5.2744C12.4828 5.43467 12.6692 5.58202 12.8724 5.71446C9.9943 5.86319 7.75533 7.73617 7.75037 9.9992V18.5117C7.75037 18.6123 7.80128 18.7088 7.8918 18.78L8.51709 19.271C8.60803 19.3423 8.73142 19.3824 8.86001 19.3823H11.6252V21.6624C11.6273 23.1309 13.144 24.3209 15.0156 24.3226H15.9843C17.8559 24.3209 19.3727 23.1309 19.3748 21.6624V19.3812H22.1399C22.2685 19.3813 22.3919 19.3412 22.4829 19.2698L23.1081 18.7788C23.1987 18.7076 23.2496 18.6111 23.2496 18.5105V9.99806C23.2438 7.73551 21.0051 5.86319 18.1276 5.71446C18.3307 5.58202 18.5172 5.43467 18.6846 5.2744L21.4405 4.67928C21.532 4.65881 21.6136 4.61739 21.675 4.56034H25.187C25.4545 4.56034 25.6713 4.39018 25.6713 4.18032V2.66023C25.6713 2.45037 25.4545 2.28021 25.187 2.28021ZM9.20342 3.8003H6.29731V3.04025H9.20342V3.8003ZM10.1721 4.02375V2.66669L11.6019 2.19889C11.2979 2.89452 11.3109 3.65137 11.6387 4.34031L10.1721 4.02375ZM18.4061 21.6613C18.4045 22.7101 17.3211 23.5602 15.9843 23.5614H15.0156C13.6788 23.5602 12.5954 22.7101 12.5939 21.6613V15.961C12.5954 14.9121 13.6788 14.0621 15.0156 14.0609H15.9843C17.3211 14.0621 18.4045 14.9121 18.4061 15.961V21.6613ZM22.2809 9.9992V18.3551L21.9418 18.6211H19.3748V15.961C19.3727 14.4925 17.8559 13.3025 15.9843 13.3008H15.0156C13.144 13.3025 11.6273 14.4925 11.6252 15.961V18.6211H9.05811L8.71907 18.3551V9.9992C8.72203 8.04575 10.7396 6.46272 13.2293 6.46044H17.7706C20.2604 6.46272 22.278 8.04575 22.2809 9.9992ZM18.4502 4.08493L18.0142 4.71083C16.9785 5.8003 15.0132 6.02475 13.6246 5.21207C13.3819 5.07004 13.1667 4.90122 12.9857 4.71083L12.5498 4.08493C12.2837 3.53271 12.2837 2.92325 12.5498 2.37104L12.8714 1.87093C13.4539 1.17753 14.4415 0.760174 15.5 0.760127C16.5576 0.760792 17.5441 1.17806 18.1261 1.87093L18.4477 2.37142C18.7142 2.92335 18.7151 3.53257 18.4502 4.08493ZM20.8278 4.02375L19.3612 4.34031C19.5292 3.98503 19.6158 3.60919 19.617 3.23026C19.6163 2.87941 19.5424 2.53098 19.398 2.19889L20.8278 2.66669V4.02375ZM24.7026 3.8003H21.7965V3.04025H24.7026V3.8003Z" fill="#595959"/>
<path d="M20.8278 10.2607H20.3435C20.076 10.2607 19.8591 10.4309 19.8591 10.6408C19.8591 10.8506 20.076 11.0208 20.3435 11.0208H20.8278C21.0953 11.0208 21.3122 10.8506 21.3122 10.6408C21.3122 10.4309 21.0953 10.2607 20.8278 10.2607Z" fill="#595959"/>
<path d="M18.4061 10.2607H17.9217C17.6542 10.2607 17.4374 10.4309 17.4374 10.6408C17.4374 10.8506 17.6542 11.0208 17.9217 11.0208H18.4061C18.6736 11.0208 18.8904 10.8506 18.8904 10.6408C18.8904 10.4309 18.6736 10.2607 18.4061 10.2607Z" fill="#595959"/>
<path d="M15.9843 10.2607H15.5C15.2325 10.2607 15.0156 10.4309 15.0156 10.6408C15.0156 10.8506 15.2325 11.0208 15.5 11.0208H15.9843C16.2518 11.0208 16.4687 10.8506 16.4687 10.6408C16.4687 10.4309 16.2518 10.2607 15.9843 10.2607Z" fill="#595959"/>
<path d="M15.5 1.33032C14.1625 1.33032 13.0782 2.18105 13.0782 3.23043C13.0798 4.27928 14.1632 5.1293 15.5 5.13053C16.8375 5.13053 17.9217 4.27981 17.9217 3.23043C17.9217 2.18105 16.8375 1.33032 15.5 1.33032ZM15.5 4.37049C14.6975 4.37049 14.0469 3.86007 14.0469 3.23043C14.0469 2.60078 14.6975 2.09036 15.5 2.09036C16.3025 2.09036 16.953 2.60078 16.953 3.23043C16.953 3.86007 16.3025 4.37049 15.5 4.37049Z" fill="#595959"/>
<path d="M15.5 14.8208C15.2325 14.8208 15.0156 14.991 15.0156 15.2008V22.0412C15.0156 22.2511 15.2325 22.4212 15.5 22.4212C15.7675 22.4212 15.9843 22.2511 15.9843 22.0412V15.2008C15.9843 14.991 15.7675 14.8208 15.5 14.8208Z" fill="#595959"/>
<path d="M14.047 14.8208C13.7795 14.8208 13.5626 14.991 13.5626 15.2008V22.0412C13.5626 22.2511 13.7795 22.4212 14.047 22.4212C14.3145 22.4212 14.5313 22.2511 14.5313 22.0412V15.2008C14.5313 14.991 14.3145 14.8208 14.047 14.8208Z" fill="#595959"/>
<path d="M16.9531 14.8208C16.6856 14.8208 16.4688 14.991 16.4688 15.2008V22.0412C16.4688 22.2511 16.6856 22.4212 16.9531 22.4212C17.2206 22.4212 17.4375 22.2511 17.4375 22.0412V15.2008C17.4375 14.991 17.2206 14.8208 16.9531 14.8208Z" fill="#595959"/>
<line y1="-0.5" x2="10.6469" y2="-0.5" transform="matrix(-0.499138 0.866523 -0.888484 -0.458908 5.31433 15.0967)" stroke="#595959"/>
<line y1="-0.5" x2="10.6685" y2="-0.5" transform="matrix(0.535938 0.844258 -0.869071 0.494687 24.8 15.9355)" stroke="#595959"/>
</g>
<line x1="0.885742" y1="25.5" x2="29.2286" y2="25.5" stroke="#595959"/>
<defs>
<clipPath id="clip0">
<rect width="31" height="24.3226" fill="white"/>
</clipPath>
</defs>
</svg>
