<svg width="323" height="139" viewBox="0 0 323 139" fill="none" xmlns="http://www.w3.org/2000/svg">
<g clip-path="url(#clip0)">
<path d="M60.4539 109.5C60.4539 111.378 58.7622 112.9 56.6756 112.9C54.589 112.9 52.8972 111.378 52.8972 109.5C52.8972 107.622 54.589 106.1 56.6756 106.1C58.7622 106.1 60.4539 107.622 60.4539 109.5Z" fill="#B0B0B0"/>
<path d="M41.5619 123.1V131.6H28.3376V135H85.0131V131.6H71.7888V123.1H68.0105V131.6H45.3403V123.1H41.5619Z" fill="#B0B0B0"/>
<path d="M107.683 33H5.66755C2.53859 33.0033 0.00368981 35.2844 0 38.1V114.6C0.00368981 117.416 2.53859 119.697 5.66755 119.7H107.683C110.812 119.697 113.347 117.416 113.351 114.6V38.1C113.347 35.2844 110.812 33.0033 107.683 33ZM109.573 114.6C109.572 115.539 108.727 116.299 107.683 116.3H5.66755C4.62425 116.299 3.77929 115.539 3.77836 114.6V102.7H109.573V114.6ZM109.573 99.3H3.77836V38.1C3.77929 37.1612 4.62425 36.4008 5.66755 36.4H107.683C108.727 36.4008 109.572 37.1612 109.573 38.1V99.3Z" fill="#B0B0B0"/>
<rect x="9.02783" y="40" width="95.295" height="56" fill="#E3E3E3"/>
<line x1="9.02783" y1="47.5" x2="104.323" y2="47.5" stroke="#A2A2A2"/>
<ellipse cx="22.0682" cy="44" rx="2.00621" ry="2" fill="#ACA8A8"/>
<ellipse cx="22.0682" cy="44" rx="2.00621" ry="2" fill="#ACA8A8"/>
<ellipse cx="22.0682" cy="44" rx="2.00621" ry="2" fill="#ACA8A8"/>
<ellipse cx="30.0931" cy="44" rx="2.00621" ry="2" fill="#ACA8A8"/>
<ellipse cx="30.0931" cy="44" rx="2.00621" ry="2" fill="#ACA8A8"/>
<ellipse cx="30.0931" cy="44" rx="2.00621" ry="2" fill="#ACA8A8"/>
<ellipse cx="14.0433" cy="44" rx="2.00621" ry="2" fill="#ACA8A8"/>
<ellipse cx="14.0433" cy="44" rx="2.00621" ry="2" fill="#ACA8A8"/>
<ellipse cx="14.0433" cy="44" rx="2.00621" ry="2" fill="#ACA8A8"/>
<rect x="12.5371" y="50.5" width="37.118" height="24" fill="#CBCBCB" stroke="#BEBEBE"/>
<g clip-path="url(#clip1)">
<path d="M43.6817 60.8349L41.3937 59.1414V53.5262C41.3937 53.1689 41.0371 52.8792 40.5972 52.8792H35.0897C34.6499 52.8792 34.2932 53.1688 34.2932 53.5262V53.886L31.53 51.8408C30.9967 51.446 30.1924 51.446 29.6592 51.8408L17.5075 60.8349C17.0803 61.1512 16.9392 61.6384 17.1479 62.0763C17.3567 62.5141 17.865 62.7969 18.443 62.7969H20.3838V71.8084C20.3838 72.1657 20.7404 72.4554 21.1803 72.4554H27.8409C28.2807 72.4554 28.6374 72.1657 28.6374 71.8084V66.3369H32.5519V71.8084C32.5519 72.1657 32.9085 72.4554 33.3484 72.4554H40.0087C40.4485 72.4554 40.8052 72.1657 40.8051 71.8084V62.797H42.7463C43.3243 62.797 43.8327 62.5141 44.0415 62.0763C44.2501 61.6384 44.109 61.1512 43.6817 60.8349ZM40.0087 61.503C39.5688 61.503 39.2122 61.7927 39.2122 62.15V71.1614H34.1449V65.6899C34.1449 65.3326 33.7883 65.0429 33.3484 65.0429H27.8409C27.401 65.0429 27.0444 65.3326 27.0444 65.6899V71.1614H21.9767V62.15C21.9767 61.7927 21.6202 61.503 21.1803 61.503H18.97L30.5947 52.8989L34.5534 55.829C34.7866 56.0016 35.1232 56.0461 35.4116 55.9426C35.7001 55.8391 35.8863 55.607 35.8863 55.3508V54.1731H39.8008V59.4272C39.8008 59.6092 39.8952 59.7828 40.0609 59.9054L42.2193 61.503H40.0087Z" fill="#B7B7B7"/>
</g>
<rect x="53.1646" y="50" width="46.1429" height="6" fill="#CBCBCB"/>
<path d="M53.1646 59H99.3074V65H53.1646V59Z" fill="#CBCBCB"/>
<rect x="53.1646" y="69" width="46.1429" height="6" fill="#CBCBCB"/>
<rect x="12.0371" y="77" width="88.2733" height="6" fill="#CBCBCB"/>
<rect x="12.0371" y="86" width="88.2733" height="6" fill="#CBCBCB"/>
</g>
<path d="M214.213 76H164.961C161.08 76 157.922 78.4437 157.922 81.4475V129.553C157.922 132.556 161.08 135 164.961 135H214.213C218.094 135 221.252 132.556 221.252 129.553V81.4475C221.252 78.4437 218.094 76 214.213 76ZM218.929 125.339H213.432C212.791 125.339 212.271 125.742 212.271 126.238C212.271 126.734 212.791 127.137 213.432 127.137H218.929V129.552C218.929 131.565 216.814 133.202 214.213 133.202H164.961C162.36 133.202 160.245 131.565 160.245 129.552V127.137H208.013C208.654 127.137 209.174 126.734 209.174 126.238C209.174 125.742 208.654 125.339 208.013 125.339H160.245V81.4475C160.245 79.4349 162.36 77.7975 164.961 77.7975H214.213C216.813 77.7975 218.929 79.4349 218.929 81.4475V84.478H163.935C163.294 84.478 162.774 84.8804 162.774 85.3767C162.774 85.873 163.294 86.2754 163.935 86.2754H218.929V125.339Z" fill="#B0B0B0"/>
<path d="M189.587 131.084C190.228 131.084 190.748 130.682 190.748 130.185C190.748 129.689 190.228 129.287 189.587 129.287C188.946 129.287 188.426 129.689 188.426 130.185C188.426 130.682 188.946 131.084 189.587 131.084Z" fill="#B0B0B0"/>
<path d="M193.08 80.1625H186.094C185.452 80.1625 184.932 80.5649 184.932 81.0612C184.932 81.5575 185.452 81.9599 186.094 81.9599H193.08C193.722 81.9599 194.241 81.5575 194.241 81.0612C194.241 80.5649 193.722 80.1625 193.08 80.1625Z" fill="#B0B0B0"/>
<rect x="164.014" y="88.7833" width="52.1107" height="33.4333" fill="#E3E3E3"/>
<line x1="164.014" y1="93.0596" x2="216.125" y2="93.0596" stroke="#A2A2A2"/>
<ellipse cx="171.866" cy="90.9606" rx="1.09707" ry="1.19405" fill="#ACA8A8"/>
<ellipse cx="171.866" cy="90.9606" rx="1.09707" ry="1.19405" fill="#ACA8A8"/>
<ellipse cx="171.866" cy="90.9606" rx="1.09707" ry="1.19405" fill="#ACA8A8"/>
<ellipse cx="176.691" cy="90.9606" rx="1.09707" ry="1.19405" fill="#ACA8A8"/>
<ellipse cx="176.691" cy="90.9606" rx="1.09707" ry="1.19405" fill="#ACA8A8"/>
<ellipse cx="176.691" cy="90.9606" rx="1.09707" ry="1.19405" fill="#ACA8A8"/>
<ellipse cx="167.041" cy="90.9606" rx="1.09707" ry="1.19405" fill="#ACA8A8"/>
<ellipse cx="167.041" cy="90.9606" rx="1.09707" ry="1.19405" fill="#ACA8A8"/>
<ellipse cx="167.041" cy="90.9606" rx="1.09707" ry="1.19405" fill="#ACA8A8"/>
<rect x="166.16" y="95.2537" width="19.8443" height="13.9256" fill="#CBCBCB" stroke="#BEBEBE"/>
<g clip-path="url(#clip2)">
<path d="M182.964 101.222L181.713 100.211V96.8585C181.713 96.6452 181.518 96.4723 181.278 96.4723H178.266C178.025 96.4723 177.83 96.6452 177.83 96.8585V97.0734L176.319 95.8523C176.028 95.6166 175.588 95.6166 175.296 95.8523L168.651 101.222C168.418 101.411 168.34 101.702 168.455 101.963C168.569 102.225 168.847 102.393 169.163 102.393H170.224V107.773C170.224 107.987 170.419 108.16 170.66 108.16H174.302C174.542 108.16 174.737 107.987 174.737 107.773V104.507H176.878V107.773C176.878 107.987 177.073 108.16 177.314 108.16H180.956C181.196 108.16 181.391 107.987 181.391 107.773V102.393H182.453C182.769 102.393 183.047 102.225 183.161 101.963C183.275 101.702 183.198 101.411 182.964 101.222ZM180.956 101.621C180.715 101.621 180.52 101.794 180.52 102.007V107.387H177.749V104.121C177.749 103.907 177.554 103.734 177.314 103.734H174.302C174.061 103.734 173.866 103.907 173.866 104.121V107.387H171.095V102.007C171.095 101.794 170.9 101.621 170.66 101.621H169.451L175.808 96.4841L177.973 98.2334C178.1 98.3364 178.284 98.363 178.442 98.3012C178.6 98.2394 178.701 98.1008 178.701 97.9479V97.2448H180.842V100.382C180.842 100.49 180.894 100.594 180.984 100.667L182.165 101.621H180.956Z" fill="#B7B7B7"/>
</g>
<rect x="188.15" y="94.7537" width="25.2325" height="3.58214" fill="#CBCBCB"/>
<path d="M188.15 100.127H213.382V103.709H188.15V100.127Z" fill="#CBCBCB"/>
<rect x="188.15" y="106.097" width="25.2325" height="3.58214" fill="#CBCBCB"/>
<rect x="165.66" y="110.873" width="48.271" height="3.58214" fill="#CBCBCB"/>
<rect x="165.66" y="116.246" width="48.271" height="3.58214" fill="#CBCBCB"/>
<path d="M145.764 82C144.794 82 125.735 82 125.075 82C122.223 82 119.902 84.7862 119.902 88.2109V128.789C119.902 132.214 122.223 135 125.075 135H145.764C148.616 135 150.936 132.214 150.936 128.789V88.2109C150.936 84.7862 148.616 82 145.764 82ZM147.488 128.789C147.488 129.931 146.714 130.859 145.764 130.859H125.075C124.124 130.859 123.351 129.931 123.351 128.789V88.2109C123.351 87.0694 124.124 86.1406 125.075 86.1406H128.146L128.505 87.422C128.741 88.2646 129.399 88.832 130.139 88.832H140.699C141.439 88.832 142.097 88.2646 142.333 87.422L142.692 86.1406H145.764C146.714 86.1406 147.488 87.0694 147.488 88.2109V128.789Z" fill="#B0B0B0"/>
<rect x="123.536" y="89.7941" width="23.7659" height="40.5294" fill="#E3E3E3"/>
<line x1="123.536" y1="95.0841" x2="147.302" y2="95.0841" stroke="#A2A2A2"/>
<ellipse cx="127.117" cy="92.4337" rx="0.500335" ry="1.44748" fill="#ACA8A8"/>
<ellipse cx="127.117" cy="92.4337" rx="0.500335" ry="1.44748" fill="#ACA8A8"/>
<ellipse cx="127.117" cy="92.4337" rx="0.500335" ry="1.44748" fill="#ACA8A8"/>
<ellipse cx="129.318" cy="92.4337" rx="0.500335" ry="1.44748" fill="#ACA8A8"/>
<ellipse cx="129.318" cy="92.4337" rx="0.500335" ry="1.44748" fill="#ACA8A8"/>
<ellipse cx="129.318" cy="92.4337" rx="0.500335" ry="1.44748" fill="#ACA8A8"/>
<ellipse cx="124.917" cy="92.4337" rx="0.500334" ry="1.44748" fill="#ACA8A8"/>
<ellipse cx="124.917" cy="92.4337" rx="0.500334" ry="1.44748" fill="#ACA8A8"/>
<ellipse cx="124.917" cy="92.4337" rx="0.500334" ry="1.44748" fill="#ACA8A8"/>
<rect x="124.787" y="97.5316" width="8.50635" height="17.0935" fill="#CBCBCB" stroke="#BEBEBE"/>
<g clip-path="url(#clip3)">
<path d="M132.178 104.873L131.608 103.647V99.5832C131.608 99.3247 131.519 99.115 131.409 99.115H130.036C129.926 99.115 129.837 99.3246 129.837 99.5832V99.8437L129.148 98.3635C129.015 98.0777 128.814 98.0778 128.681 98.3635L125.651 104.873C125.544 105.102 125.509 105.454 125.561 105.771C125.613 106.088 125.74 106.293 125.884 106.293H126.368V112.815C126.368 113.073 126.457 113.283 126.567 113.283H128.228C128.338 113.283 128.426 113.073 128.426 112.815V108.855H129.403V112.815C129.403 113.073 129.492 113.283 129.601 113.283H131.262C131.372 113.283 131.461 113.073 131.461 112.815V106.293H131.945C132.089 106.293 132.216 106.088 132.268 105.771C132.32 105.454 132.285 105.102 132.178 104.873ZM131.262 105.356C131.153 105.356 131.064 105.566 131.064 105.825V112.347H129.8V108.387C129.8 108.128 129.711 107.918 129.601 107.918H128.228C128.118 107.918 128.029 108.128 128.029 108.387V112.347H126.765V105.825C126.765 105.566 126.676 105.356 126.567 105.356H126.016L128.915 99.1293L129.902 101.25C129.96 101.375 130.044 101.407 130.116 101.332C130.188 101.257 130.234 101.089 130.234 100.904V100.051H131.211V103.854C131.211 103.986 131.234 104.111 131.275 104.2L131.814 105.356H131.262Z" fill="#B7B7B7"/>
</g>
<rect x="134.543" y="97.0316" width="11.5077" height="4.34244" fill="#CBCBCB"/>
<path d="M134.543 103.545H146.051V107.888H134.543V103.545Z" fill="#CBCBCB"/>
<rect x="134.543" y="110.783" width="11.5077" height="4.34244" fill="#CBCBCB"/>
<rect x="124.287" y="116.572" width="22.0147" height="4.34244" fill="#CBCBCB"/>
<rect x="124.287" y="123.086" width="22.0147" height="4.34244" fill="#CBCBCB"/>
<g clip-path="url(#clip4)">
<path d="M291.459 129.433C272.966 129.968 254.225 129.652 235.755 128.493C232.305 128.277 229.509 125.846 229.107 122.711C227.066 106.821 227.066 90.7061 229.107 74.8154C229.509 71.6811 232.305 69.2499 235.756 69.0343C237.416 68.9304 238.957 68.8399 240.467 68.7573C241.261 68.7138 241.866 68.0894 241.819 67.3624C241.771 66.6355 241.091 66.0805 240.295 66.1249C238.777 66.2079 237.228 66.299 235.559 66.4034C230.727 66.7053 226.81 70.1136 226.246 74.5075C224.179 90.6027 224.179 106.924 226.246 123.019C226.811 127.413 230.727 130.822 235.559 131.124C237.322 131.234 239.089 131.336 240.857 131.431C240.857 131.433 240.857 131.434 240.858 131.436L241.856 135.369C242.011 135.978 242.603 136.389 243.258 136.389C243.366 136.389 243.475 136.378 243.585 136.355C244.36 136.19 244.842 135.481 244.662 134.772L243.852 131.584C253.847 132.073 263.898 132.323 273.925 132.323C279.814 132.323 285.695 132.238 291.55 132.068C292.345 132.045 292.97 131.437 292.944 130.709C292.919 129.981 292.25 129.404 291.459 129.433Z" fill="#B0B0B0"/>
<path d="M321.449 74.5074C320.885 70.1134 316.968 66.7051 312.137 66.4032C302.067 65.7716 291.935 65.3927 281.8 65.261L292.583 53.7901C293.102 53.238 293.034 52.4056 292.431 51.9306C291.828 51.4555 290.919 51.518 290.4 52.0698L278.035 65.2231C275.383 65.2048 272.731 65.2032 270.081 65.2192L257.72 52.0698C257.201 51.518 256.292 51.4554 255.689 51.9306C255.086 52.4056 255.018 53.2382 255.537 53.7901L266.312 65.2528C259.542 65.3354 252.785 65.529 246.057 65.8357C245.263 65.872 244.651 66.491 244.69 67.2183C244.73 67.9456 245.407 68.5057 246.2 68.4695C268.001 67.4751 290.119 67.665 311.94 69.0342C315.39 69.2497 318.186 71.6809 318.589 74.8152C320.63 90.7059 320.63 106.821 318.589 122.711C318.186 125.846 315.39 128.277 311.939 128.492C307.057 128.8 302.081 129.052 297.149 129.241C296.355 129.272 295.737 129.886 295.771 130.614C295.803 131.323 296.441 131.877 297.209 131.877C297.229 131.877 297.25 131.877 297.27 131.876C299.456 131.792 301.651 131.694 303.842 131.586L303.034 134.771C302.853 135.481 303.336 136.189 304.11 136.354C304.22 136.378 304.33 136.389 304.438 136.389C305.092 136.389 305.685 135.977 305.839 135.368L306.838 131.436C306.838 131.434 306.838 131.432 306.839 131.43C308.612 131.334 310.381 131.234 312.136 131.123C316.968 130.821 320.885 127.413 321.449 123.019C323.517 106.924 323.517 90.6024 321.449 74.5074Z" fill="#B0B0B0"/>
<path d="M233.928 77.9376C231.937 91.7567 231.937 105.77 233.928 119.589C234.335 122.413 236.887 124.605 239.997 124.801C251.228 125.511 262.538 125.866 273.848 125.866C285.157 125.866 296.467 125.511 307.698 124.801C310.808 124.605 313.36 122.413 313.767 119.589C315.758 105.77 315.758 91.7567 313.767 77.9376C313.36 75.1139 310.808 72.9217 307.698 72.7254C285.236 71.3059 262.458 71.3059 239.997 72.7254C236.887 72.9219 234.335 75.114 233.928 77.9376ZM273.848 74.2978C285.091 74.2978 296.335 74.6506 307.5 75.3561C309.248 75.4667 310.683 76.6973 310.912 78.2826C312.87 91.8725 312.87 105.654 310.912 119.244C310.683 120.829 309.249 122.06 307.5 122.171C285.17 123.582 262.525 123.582 240.195 122.171C238.447 122.06 237.012 120.829 236.783 119.244C234.825 105.654 234.825 91.8725 236.783 78.2826C237.012 76.6973 238.447 75.4667 240.195 75.3561C251.36 74.6506 262.604 74.2978 273.848 74.2978Z" fill="#B0B0B0"/>
<rect x="239.87" y="77.75" width="66.6358" height="41.875" fill="#E3E3E3"/>
<line x1="239.87" y1="83.2323" x2="306.506" y2="83.2323" stroke="#A2A2A2"/>
<ellipse cx="248.989" cy="80.741" rx="1.40286" ry="1.49553" fill="#ACA8A8"/>
<ellipse cx="248.989" cy="80.741" rx="1.40286" ry="1.49553" fill="#ACA8A8"/>
<ellipse cx="248.989" cy="80.741" rx="1.40286" ry="1.49553" fill="#ACA8A8"/>
<ellipse cx="254.6" cy="80.741" rx="1.40286" ry="1.49553" fill="#ACA8A8"/>
<ellipse cx="254.6" cy="80.741" rx="1.40286" ry="1.49553" fill="#ACA8A8"/>
<ellipse cx="254.6" cy="80.741" rx="1.40286" ry="1.49553" fill="#ACA8A8"/>
<ellipse cx="243.377" cy="80.741" rx="1.40286" ry="1.49553" fill="#ACA8A8"/>
<ellipse cx="243.377" cy="80.741" rx="1.40286" ry="1.49553" fill="#ACA8A8"/>
<ellipse cx="243.377" cy="80.741" rx="1.40286" ry="1.49553" fill="#ACA8A8"/>
<rect x="242.474" y="85.7277" width="25.6543" height="17.6942" fill="#CBCBCB" stroke="#BEBEBE"/>
<g clip-path="url(#clip5)">
<path d="M264.102 93.3296L262.502 92.0633V87.8644C262.502 87.5972 262.253 87.3806 261.945 87.3806H258.094C257.786 87.3806 257.537 87.5972 257.537 87.8644V88.1334L255.605 86.6041C255.232 86.3089 254.669 86.3089 254.297 86.6041L245.799 93.3296C245.501 93.5661 245.402 93.9305 245.548 94.2579C245.694 94.5852 246.049 94.7968 246.454 94.7968H247.811V101.535C247.811 101.802 248.06 102.019 248.368 102.019H253.025C253.333 102.019 253.582 101.802 253.582 101.535V97.4438H256.319V101.535C256.319 101.802 256.569 102.019 256.876 102.019H261.534C261.841 102.019 262.091 101.802 262.09 101.535V94.7968H263.448C263.852 94.7968 264.208 94.5852 264.354 94.2579C264.499 93.9305 264.401 93.5661 264.102 93.3296ZM261.534 93.8292C261.226 93.8292 260.977 94.0458 260.977 94.313V101.051H257.433V96.96C257.433 96.6929 257.184 96.4763 256.876 96.4763H253.025C252.718 96.4763 252.468 96.6929 252.468 96.96V101.051H248.925V94.313C248.925 94.0458 248.675 93.8292 248.368 93.8292H246.822L254.951 87.3954L257.719 89.5864C257.882 89.7154 258.117 89.7487 258.319 89.6713C258.521 89.5939 258.651 89.4203 258.651 89.2288V88.3482H261.388V92.277C261.388 92.4131 261.454 92.5429 261.57 92.6346L263.079 93.8292H261.534Z" fill="#B7B7B7"/>
</g>
<rect x="270.733" y="85.2277" width="32.2658" height="4.48661" fill="#CBCBCB"/>
<path d="M270.733 91.9576H302.999V96.4442H270.733V91.9576Z" fill="#CBCBCB"/>
<rect x="270.733" y="99.4354" width="32.2658" height="4.48661" fill="#CBCBCB"/>
<rect x="241.974" y="105.417" width="61.7258" height="4.48661" fill="#CBCBCB"/>
<rect x="241.974" y="112.147" width="61.7258" height="4.48661" fill="#CBCBCB"/>
</g>
<path d="M174.54 32.2673C174.178 32.2673 173.824 32.1655 173.523 31.9749C173.222 31.7843 172.987 31.5133 172.849 31.1963C172.71 30.8794 172.674 30.5306 172.745 30.1942C172.816 29.8578 172.991 29.5489 173.247 29.3066C173.503 29.0642 173.83 28.8993 174.185 28.8328C174.54 28.7662 174.909 28.801 175.243 28.9326C175.578 29.0643 175.863 29.287 176.064 29.5725C176.265 29.858 176.372 30.1935 176.371 30.5365C176.37 30.9958 176.177 31.4361 175.834 31.7605C175.491 32.085 175.025 32.2673 174.54 32.2673Z" fill="#B0B0B0"/>
<path d="M183.073 27.553C182.963 27.5941 182.846 27.6152 182.728 27.6153C182.54 27.6152 182.355 27.5614 182.199 27.4608C182.043 27.3602 181.923 27.2175 181.854 27.0513C180.989 24.9672 177.917 23.4531 174.556 23.4531C171.196 23.4531 168.124 24.9672 167.255 27.0513C167.16 27.2651 166.979 27.435 166.753 27.5248C166.527 27.6146 166.273 27.6172 166.045 27.532C165.817 27.4468 165.633 27.2806 165.532 27.0688C165.431 26.857 165.422 26.6163 165.506 26.3981C166.682 23.5719 170.318 21.6719 174.556 21.6719C178.794 21.6719 182.427 23.5719 183.603 26.3981C183.694 26.6178 183.69 26.8629 183.59 27.0794C183.491 27.296 183.305 27.4663 183.073 27.553Z" fill="#B0B0B0"/>
<path d="M188.383 20.1073C188.368 20.2237 188.328 20.3361 188.267 20.438C188.206 20.5399 188.124 20.6293 188.026 20.7011C187.826 20.8416 187.577 20.9031 187.331 20.8726C187.085 20.8421 186.861 20.7221 186.706 20.5378C184.305 17.572 179.647 15.7344 174.556 15.7344C169.465 15.7344 164.804 17.572 162.403 20.5319C162.251 20.7185 162.027 20.8406 161.78 20.8712C161.533 20.9018 161.284 20.8385 161.086 20.6951C160.987 20.6246 160.903 20.5355 160.841 20.4334C160.779 20.3313 160.74 20.2184 160.726 20.1014C160.709 19.9854 160.717 19.8675 160.749 19.7544C160.781 19.6414 160.836 19.5353 160.911 19.4423C163.663 16.058 168.898 13.9531 174.556 13.9531C180.214 13.9531 185.449 16.058 188.198 19.4483C188.274 19.5408 188.33 19.6468 188.361 19.76C188.393 19.8732 188.401 19.9914 188.383 20.1073Z" fill="#B0B0B0"/>
<path d="M193.057 13.6978C192.877 13.8607 192.635 13.9491 192.386 13.9435C192.137 13.938 191.9 13.8389 191.728 13.6681C187.885 9.85031 181.465 7.57031 174.556 7.57031C167.647 7.57031 161.193 9.85922 157.356 13.6948C157.181 13.8605 156.946 13.9563 156.698 13.9624C156.451 13.9684 156.211 13.8844 156.027 13.7275C155.846 13.5653 155.74 13.3415 155.733 13.1055C155.726 12.8695 155.818 12.6404 155.989 12.4688C160.177 8.28578 167.117 5.78906 174.556 5.78906C181.995 5.78906 188.9 8.27391 193.088 12.4391C193.26 12.61 193.354 12.8385 193.348 13.0746C193.342 13.3106 193.237 13.5348 193.057 13.6978Z" fill="#B0B0B0"/>
<defs>
<clipPath id="clip0">
<rect width="113.351" height="102" fill="white" transform="translate(0 33)"/>
</clipPath>
<clipPath id="clip1">
<rect width="27.0839" height="22" fill="white" transform="translate(17.0527 51)"/>
</clipPath>
<clipPath id="clip2">
<rect width="14.8104" height="13.1345" fill="white" transform="translate(168.403 95.3505)"/>
</clipPath>
<clipPath id="clip3">
<rect width="6.75451" height="15.9223" fill="white" transform="translate(125.537 97.755)"/>
</clipPath>
<clipPath id="clip4">
<rect width="98.3043" height="90" fill="white" transform="translate(224.696 49)"/>
</clipPath>
<clipPath id="clip5">
<rect width="18.9386" height="16.4509" fill="white" transform="translate(245.481 85.9755)"/>
</clipPath>
</defs>
</svg>
