<svg width="162" height="152" viewBox="0 0 162 152" fill="none" xmlns="http://www.w3.org/2000/svg">
<path d="M113.906 38V33.25C113.906 31.939 112.775 30.875 111.375 30.875V16.625C115.562 16.625 118.969 13.4283 118.969 9.5V7.125C118.969 3.19675 115.562 0 111.375 0H50.625C46.4383 0 43.0312 3.19675 43.0312 7.125V9.5C43.0312 13.4283 46.4383 16.625 50.625 16.625V30.875C49.2252 30.875 48.0938 31.939 48.0938 33.25V38C41.1151 38 35.4375 43.3271 35.4375 49.875V144.875C35.4375 148.803 38.8446 152 43.0312 152H48.0938C52.2804 152 55.6875 148.803 55.6875 144.875V142.5H106.312V144.875C106.312 148.803 109.72 152 113.906 152H118.969C123.155 152 126.562 148.803 126.562 144.875V49.875C126.562 43.3271 120.885 38 113.906 38ZM68.3438 38V33.25C68.3438 31.939 67.2123 30.875 65.8125 30.875V16.625H96.1875V30.875C94.7877 30.875 93.6562 31.939 93.6562 33.25V38H68.3438ZM98.7188 35.625H108.844V38H98.7188V35.625ZM106.312 30.875H101.25V16.625H106.312V30.875ZM48.0938 9.5V7.125C48.0938 5.81638 49.2278 4.75 50.625 4.75H111.375C112.772 4.75 113.906 5.81638 113.906 7.125V9.5C113.906 10.8086 112.772 11.875 111.375 11.875H50.625C49.2278 11.875 48.0938 10.8086 48.0938 9.5ZM55.6875 16.625H60.75V30.875H55.6875V16.625ZM53.1562 35.625H63.2812V38H53.1562V35.625ZM40.5 49.875C40.5 45.9467 43.9071 42.75 48.0938 42.75H113.906C118.093 42.75 121.5 45.9467 121.5 49.875V130.625C121.5 134.553 118.093 137.75 113.906 137.75H48.0938C43.9071 137.75 40.5 134.553 40.5 130.625V49.875ZM50.625 144.875C50.625 146.184 49.491 147.25 48.0938 147.25H43.0312C41.634 147.25 40.5 146.184 40.5 144.875V140.066C42.6212 141.571 45.2334 142.5 48.0938 142.5H50.625V144.875ZM118.969 147.25H113.906C112.509 147.25 111.375 146.184 111.375 144.875V142.5H113.906C116.767 142.5 119.379 141.571 121.5 140.066V144.875C121.5 146.184 120.366 147.25 118.969 147.25Z" fill="black"/>
<path d="M50.625 76H111.375C112.775 76 113.906 74.936 113.906 73.625C113.906 72.314 112.775 71.25 111.375 71.25H50.625C49.2252 71.25 48.0938 72.314 48.0938 73.625C48.0938 74.936 49.2252 76 50.625 76Z" fill="black"/>
<path d="M50.625 92.625H111.375C112.775 92.625 113.906 91.561 113.906 90.25C113.906 88.939 112.775 87.875 111.375 87.875H50.625C49.2252 87.875 48.0938 88.939 48.0938 90.25C48.0938 91.561 49.2252 92.625 50.625 92.625Z" fill="black"/>
<path d="M50.625 109.25H111.375C112.775 109.25 113.906 108.186 113.906 106.875C113.906 105.564 112.775 104.5 111.375 104.5H50.625C49.2252 104.5 48.0938 105.564 48.0938 106.875C48.0938 108.186 49.2252 109.25 50.625 109.25Z" fill="black"/>
<path d="M50.625 125.875H111.375C112.775 125.875 113.906 124.811 113.906 123.5C113.906 122.189 112.775 121.125 111.375 121.125H50.625C49.2252 121.125 48.0938 122.189 48.0938 123.5C48.0938 124.811 49.2252 125.875 50.625 125.875Z" fill="black"/>
<path d="M81 64.125C85.1867 64.125 88.5938 60.9283 88.5938 57C88.5938 53.0717 85.1867 49.875 81 49.875C76.8133 49.875 73.4062 53.0717 73.4062 57C73.4062 60.9283 76.8133 64.125 81 64.125ZM81 54.625C82.3972 54.625 83.5312 55.6914 83.5312 57C83.5312 58.3086 82.3972 59.375 81 59.375C79.6028 59.375 78.4688 58.3086 78.4688 57C78.4688 55.6914 79.6028 54.625 81 54.625Z" fill="black"/>
<rect x="99" y="98.0962" width="56" height="38.8577" rx="19.4288" fill="#AADDFD"/>
<rect x="105.914" y="107.239" width="42.1728" height="36.0005" rx="18.0002" fill="#AADDFD"/>
<path d="M127 146.668C126.692 146.668 126.384 146.621 126.095 146.523C124.984 146.165 99 137.454 99 119.655V104.531C99 103.757 99.6393 103.065 100.587 102.816L126.253 96.095C126.739 95.9683 127.266 95.9683 127.747 96.095L153.413 102.816C154.361 103.062 155 103.753 155 104.531V119.655C155 137.454 129.016 146.165 127.905 146.527C127.616 146.621 127.308 146.668 127 146.668V146.668ZM103.667 105.83V119.655C103.667 133.354 122.59 141.218 127 142.868C131.405 141.214 150.333 133.321 150.333 119.655V105.83L127 99.7213L103.667 105.83Z" fill="black"/>
<path d="M125.874 129.812C125.832 129.812 125.786 129.812 125.748 129.808C125.081 129.779 124.47 129.533 124.054 129.131L114.721 120.084C113.918 119.302 114.077 118.165 115.085 117.539C116.098 116.921 117.563 117.047 118.366 117.822L126.066 125.291L140.556 114.054C141.466 113.348 142.945 113.348 143.855 114.054C144.765 114.76 144.765 115.907 143.855 116.613L127.522 129.28C127.088 129.624 126.49 129.812 125.874 129.812V129.812Z" fill="black"/>
</svg>
