<svg width="38" height="33" viewBox="0 0 38 33" fill="none" xmlns="http://www.w3.org/2000/svg">
<g clip-path="url(#clip0)">
<path d="M27.2333 15.4H26.6V14.3H27.2333C28.2827 14.3 29.1333 13.5613 29.1333 12.65V3.1988C30.1208 2.89678 30.6393 1.95676 30.2914 1.09925C30.0239 0.439522 29.3054 -0.00130324 28.5 3.0057e-06H9.49998C8.45308 -0.00171574 7.60283 0.733909 7.60085 1.64306C7.59926 2.34252 8.10696 2.96643 8.86664 3.1988V12.65C8.86664 13.5613 9.71729 14.3 10.7666 14.3H11.4V15.4H10.7666C9.01864 15.4018 7.60203 16.632 7.59998 18.15C7.59998 18.4537 7.88355 18.7 8.23331 18.7C8.22088 22.3753 10.7033 25.7118 14.5666 27.2123V32.45C14.5666 32.7537 14.8502 33 15.2 33H22.8C23.1497 33 23.4333 32.7537 23.4333 32.45V27.2123C27.2961 25.7113 29.7783 22.3751 29.7666 18.7C30.1164 18.7 30.4 18.4537 30.4 18.15C30.3979 16.632 28.9813 15.4018 27.2333 15.4ZM8.86664 1.65C8.86664 1.34626 9.15022 1.1 9.49998 1.1H28.5C28.8497 1.1 29.1333 1.34626 29.1333 1.65C29.1333 1.95374 28.8497 2.2 28.5 2.2H9.49998C9.15022 2.2 8.86664 1.95374 8.86664 1.65ZM10.7666 13.2C10.4169 13.2 10.1333 12.9537 10.1333 12.65V3.3H27.8666V12.65C27.8666 12.9537 27.5831 13.2 27.2333 13.2H10.7666ZM25.3333 14.3V15.4H12.6666V14.3H25.3333ZM15.8333 31.9V27.6386L15.8922 27.6523C15.9555 27.6688 16.0189 27.6815 16.0822 27.6969C16.314 27.7541 16.5481 27.8043 16.7846 27.8476C16.8979 27.8685 17.0119 27.8855 17.1259 27.9026C17.3216 27.9323 17.5186 27.9576 17.7168 27.9768C17.8372 27.9895 17.9562 28.0027 18.0778 28.0115C18.3358 28.0302 18.5944 28.0408 18.8537 28.0434C18.9018 28.0434 18.9487 28.0494 18.9968 28.0494C19.0449 28.0494 19.0924 28.0439 19.1406 28.0434C19.3998 28.0408 19.6582 28.0302 19.9158 28.0115C20.0374 28.0027 20.1577 27.9889 20.2787 27.9768C20.475 27.9565 20.6701 27.9323 20.8645 27.9031C20.9804 27.8855 21.0963 27.8674 21.2116 27.8481C21.4421 27.8069 21.6695 27.7568 21.8949 27.7018C21.9652 27.6848 22.0368 27.671 22.1071 27.6529C22.1255 27.6479 22.1451 27.6446 22.1635 27.6397L22.1666 31.9H15.8333ZM22.5593 26.3477C20.8546 26.9447 18.9875 27.101 17.1829 26.7976C16.5851 26.6977 16.0002 26.5465 15.4368 26.3461C11.8405 25.0948 9.48763 22.0644 9.49998 18.7H28.5C28.512 22.0657 26.1574 25.0969 22.5593 26.3477ZM8.97494 17.6C9.24435 16.9412 9.96168 16.5008 10.7666 16.5H27.2333C28.0383 16.5008 28.7556 16.9412 29.025 17.6H8.97494Z" fill="#595959"/>
<path d="M16.4667 4.95006H14.4501C14.1004 4.09089 13.0148 3.64064 12.0255 3.94445C11.0362 4.24826 10.5177 5.19089 10.8675 6.05006C11.2172 6.90922 12.3028 7.35947 13.2921 7.05566C13.8332 6.88956 14.2588 6.51989 14.4501 6.05006H16.4667C16.8164 6.05006 17.1 5.80379 17.1 5.50006C17.1 5.19632 16.8164 4.95006 16.4667 4.95006ZM12.6667 6.05006C12.3169 6.05006 12.0333 5.80379 12.0333 5.50006C12.0333 5.19632 12.3169 4.95006 12.6667 4.95006C13.0164 4.95006 13.3 5.19632 13.3 5.50006C13.3 5.80379 13.0164 6.05006 12.6667 6.05006Z" fill="#595959"/>
</g>
<defs>
<clipPath id="clip0">
<rect width="38" height="33" fill="white"/>
</clipPath>
</defs>
</svg>
