<svg width="271" height="249" viewBox="0 0 271 249" fill="none" xmlns="http://www.w3.org/2000/svg">
<path d="M269.5 124.5C269.5 192.314 209.628 247.5 135.5 247.5C61.3718 247.5 1.5 192.314 1.5 124.5C1.5 56.686 61.3718 1.5 135.5 1.5C209.628 1.5 269.5 56.686 269.5 124.5Z" fill="white" stroke="black" stroke-width="3"/>
<path d="M208.484 71.5898V121.554L173.936 86.0071L164.379 95.8403L182.709 114.699H88.1602L106.49 95.8403L96.9321 86.0071L62.5156 121.418V71.5898H49V172.41H62.5156V121.886L96.9321 157.298L106.49 147.464L88.1602 128.605H182.709L164.379 147.464L173.936 157.298L208.484 121.751V172.41H222V71.5898H208.484Z" fill="black"/>
</svg>
